G75*
G70*
%OFA0B0*%
%FSLAX24Y24*%
%IPPOS*%
%LPD*%
%AMOC8*
5,1,8,0,0,1.08239X$1,22.5*
%
%ADD10C,0.0640*%
%ADD11C,0.0720*%
%ADD12C,0.0820*%
%ADD13OC8,0.0820*%
%ADD14C,0.0730*%
%ADD15R,0.0730X0.0730*%
%ADD16R,0.0820X0.0820*%
%ADD17C,0.1182*%
D10*
X009403Y009225D02*
X009403Y009785D01*
X010403Y009785D02*
X010403Y009225D01*
X011403Y009225D02*
X011403Y009785D01*
X012403Y009785D02*
X012403Y009225D01*
X013403Y009225D02*
X013403Y009785D01*
X014403Y009785D02*
X014403Y009225D01*
X015403Y009225D02*
X015403Y009785D01*
X016403Y009785D02*
X016403Y009225D01*
X017403Y009225D02*
X017403Y009785D01*
X018403Y009785D02*
X018403Y009225D01*
X019403Y009225D02*
X019403Y009785D01*
X020403Y009785D02*
X020403Y009225D01*
X021403Y009225D02*
X021403Y009785D01*
X022403Y009785D02*
X022403Y009225D01*
X022403Y012225D02*
X022403Y012785D01*
X021403Y012785D02*
X021403Y012225D01*
X020403Y012225D02*
X020403Y012785D01*
X019403Y012785D02*
X019403Y012225D01*
X018403Y012225D02*
X018403Y012785D01*
X017403Y012785D02*
X017403Y012225D01*
X016403Y012225D02*
X016403Y012785D01*
X015403Y012785D02*
X015403Y012225D01*
X014403Y012225D02*
X014403Y012785D01*
X013403Y012785D02*
X013403Y012225D01*
X012403Y012225D02*
X012403Y012785D01*
X011403Y012785D02*
X011403Y012225D01*
X010403Y012225D02*
X010403Y012785D01*
X009403Y012785D02*
X009403Y012225D01*
D11*
X002872Y012293D03*
X002872Y011505D03*
X002872Y010718D03*
D12*
X005403Y012505D03*
X006903Y013755D03*
X006403Y014505D03*
X007403Y014505D03*
X008403Y012505D03*
X007903Y007505D03*
X006903Y007505D03*
X008903Y007505D03*
X009903Y007505D03*
X010903Y007505D03*
X011903Y007505D03*
X012903Y007505D03*
X014903Y005505D03*
X015903Y005505D03*
X016903Y005505D03*
X018903Y007505D03*
X019903Y007505D03*
X020903Y007505D03*
X021903Y007505D03*
X022903Y007505D03*
X023903Y007505D03*
X023403Y009505D03*
X023403Y012505D03*
X025903Y014999D03*
X026903Y014999D03*
X030903Y014005D03*
X030903Y013005D03*
X030903Y012005D03*
X030903Y011005D03*
X030903Y010005D03*
X030903Y009005D03*
X027502Y017608D03*
X026502Y017608D03*
X025502Y017608D03*
X024502Y017608D03*
X023502Y017608D03*
X022502Y017608D03*
X021502Y017608D03*
X020502Y017608D03*
X019502Y017608D03*
X018502Y017608D03*
X017502Y017608D03*
X016502Y017608D03*
X015502Y017608D03*
X014502Y017608D03*
X013502Y017608D03*
D13*
X007903Y011505D03*
X006903Y011505D03*
X005903Y011505D03*
X005903Y010505D03*
X006903Y010505D03*
X007903Y010505D03*
D14*
X010903Y014005D03*
X012903Y014505D03*
X010903Y015005D03*
X014903Y014505D03*
X016903Y014005D03*
X016903Y015005D03*
X024903Y011505D03*
X026403Y011505D03*
X027403Y011505D03*
X027403Y010505D03*
X026403Y010505D03*
D15*
X024903Y010505D03*
D16*
X024903Y014999D03*
X028502Y017608D03*
D17*
X001139Y005403D03*
X001139Y017608D03*
X030667Y017608D03*
X030667Y005403D03*
M02*
