G75*
G70*
%OFA0B0*%
%FSLAX24Y24*%
%IPPOS*%
%LPD*%
%AMOC8*
5,1,8,0,0,1.08239X$1,22.5*
%
%ADD10C,0.0100*%
%ADD11C,0.0070*%
%ADD12C,0.0080*%
%ADD13C,0.0060*%
%ADD14C,0.0050*%
%ADD15C,0.0010*%
%ADD16R,0.0195X0.0191*%
D10*
X005166Y015522D02*
X005166Y016072D01*
X004891Y016072D01*
X004799Y015980D01*
X004799Y015797D01*
X004891Y015705D01*
X005166Y015705D01*
X005397Y015797D02*
X005489Y015705D01*
X005764Y015705D01*
X005764Y016072D01*
X005996Y015980D02*
X006088Y016072D01*
X006271Y016072D01*
X006363Y015980D01*
X006363Y015889D01*
X005996Y015889D01*
X005996Y015980D02*
X005996Y015797D01*
X006088Y015705D01*
X006271Y015705D01*
X006594Y015705D02*
X006594Y016072D01*
X006870Y016072D01*
X006961Y015980D01*
X006961Y015705D01*
X007193Y015797D02*
X007285Y015705D01*
X007560Y015705D01*
X007791Y015797D02*
X007883Y015705D01*
X008158Y015705D01*
X008158Y015613D02*
X008067Y015522D01*
X007975Y015522D01*
X008158Y015613D02*
X008158Y016072D01*
X007791Y016072D02*
X007791Y015797D01*
X007560Y016072D02*
X007285Y016072D01*
X007193Y015980D01*
X007193Y015797D01*
X008988Y015797D02*
X009080Y015705D01*
X009264Y015705D01*
X009355Y015797D01*
X009587Y015797D02*
X009679Y015705D01*
X009862Y015705D01*
X009954Y015797D01*
X009954Y015980D01*
X009862Y016072D01*
X009679Y016072D01*
X009587Y015980D01*
X009587Y015797D01*
X010185Y015797D02*
X010277Y015705D01*
X010552Y015705D01*
X010552Y016072D01*
X010784Y016072D02*
X011059Y016072D01*
X011151Y015980D01*
X011151Y015705D01*
X011474Y015797D02*
X011566Y015705D01*
X011474Y015797D02*
X011474Y016164D01*
X011382Y016072D02*
X011566Y016072D01*
X011781Y015980D02*
X011781Y015797D01*
X011873Y015705D01*
X012057Y015705D01*
X012148Y015889D02*
X011781Y015889D01*
X011781Y015980D02*
X011873Y016072D01*
X012057Y016072D01*
X012148Y015980D01*
X012148Y015889D01*
X012380Y015889D02*
X012563Y016072D01*
X012655Y016072D01*
X012380Y016072D02*
X012380Y015705D01*
X013477Y015705D02*
X013477Y016256D01*
X013569Y015980D02*
X013844Y015705D01*
X014076Y015705D02*
X014259Y015705D01*
X014167Y015705D02*
X014167Y016072D01*
X014076Y016072D01*
X014167Y016256D02*
X014167Y016347D01*
X013844Y016256D02*
X013477Y015889D01*
X014475Y016072D02*
X014658Y016072D01*
X014566Y016164D02*
X014566Y015797D01*
X014658Y015705D01*
X010784Y015705D02*
X010784Y016072D01*
X010185Y016072D02*
X010185Y015797D01*
X009355Y016164D02*
X009264Y016256D01*
X009080Y016256D01*
X008988Y016164D01*
X008988Y015797D01*
X005397Y015797D02*
X005397Y016072D01*
X004567Y015980D02*
X004567Y015889D01*
X004200Y015889D01*
X004200Y015980D02*
X004200Y015797D01*
X004292Y015705D01*
X004476Y015705D01*
X004567Y015980D02*
X004476Y016072D01*
X004292Y016072D01*
X004200Y015980D01*
X003977Y016072D02*
X003885Y016072D01*
X003702Y015889D01*
X003702Y016072D02*
X003702Y015705D01*
X003103Y015705D02*
X003103Y016256D01*
X003470Y016256D01*
X003287Y015980D02*
X003103Y015980D01*
D11*
X003338Y012491D02*
X003605Y012491D01*
X003771Y012491D02*
X003971Y012491D01*
X004038Y012424D01*
X004038Y012290D01*
X003971Y012224D01*
X003771Y012224D01*
X003904Y012224D02*
X004038Y012090D01*
X004204Y012090D02*
X004471Y012090D01*
X004636Y012157D02*
X004703Y012090D01*
X004837Y012090D01*
X004903Y012157D01*
X004903Y012424D01*
X004837Y012491D01*
X004703Y012491D01*
X004636Y012424D01*
X004636Y012157D01*
X004770Y012224D02*
X004903Y012090D01*
X004337Y012290D02*
X004204Y012290D01*
X004204Y012090D02*
X004204Y012491D01*
X004471Y012491D01*
X003771Y012491D02*
X003771Y012090D01*
X003472Y012290D02*
X003338Y012290D01*
X003338Y012090D02*
X003338Y012491D01*
D12*
X007693Y005684D02*
X007763Y005614D01*
X008043Y005614D01*
X008113Y005684D01*
X008113Y005824D01*
X008043Y005894D01*
X007903Y005894D01*
X007903Y005754D01*
X007763Y005894D02*
X007693Y005824D01*
X007693Y005684D01*
X007693Y006074D02*
X008113Y006355D01*
X007693Y006355D01*
X007693Y006535D02*
X007693Y006745D01*
X007763Y006815D01*
X008043Y006815D01*
X008113Y006745D01*
X008113Y006535D01*
X007693Y006535D01*
X007113Y006675D02*
X006973Y006815D01*
X006693Y006815D01*
X006653Y007005D02*
X006403Y007255D01*
X006403Y007755D01*
X006653Y008005D01*
X007153Y008005D01*
X007403Y007755D01*
X007653Y008005D01*
X008153Y008005D01*
X008403Y007755D01*
X008653Y008005D01*
X009153Y008005D01*
X009403Y007755D01*
X009653Y008005D01*
X010153Y008005D01*
X010403Y007755D01*
X010653Y008005D01*
X011153Y008005D01*
X011403Y007755D01*
X011653Y008005D01*
X012153Y008005D01*
X012403Y007755D01*
X012653Y008005D01*
X013153Y008005D01*
X013403Y007755D01*
X013403Y007255D01*
X013153Y007005D01*
X012653Y007005D01*
X012403Y007255D01*
X012153Y007005D01*
X011653Y007005D01*
X011403Y007255D01*
X011153Y007005D01*
X010653Y007005D01*
X010403Y007255D01*
X010153Y007005D01*
X009653Y007005D01*
X009403Y007255D01*
X009153Y007005D01*
X008653Y007005D01*
X008403Y007255D01*
X008153Y007005D01*
X007653Y007005D01*
X007403Y007255D01*
X007153Y007005D01*
X006653Y007005D01*
X007113Y006675D02*
X006973Y006535D01*
X006693Y006535D01*
X006693Y006355D02*
X006693Y006074D01*
X006903Y006074D01*
X006833Y006215D01*
X006833Y006285D01*
X006903Y006355D01*
X007043Y006355D01*
X007113Y006285D01*
X007113Y006144D01*
X007043Y006074D01*
X007693Y006074D02*
X008113Y006074D01*
X008693Y006215D02*
X008833Y006074D01*
X008763Y005894D02*
X008693Y005824D01*
X008693Y005614D01*
X009113Y005614D01*
X009113Y005824D01*
X009043Y005894D01*
X008763Y005894D01*
X009113Y006074D02*
X009113Y006355D01*
X009113Y006215D02*
X008693Y006215D01*
X008763Y006535D02*
X008693Y006605D01*
X008693Y006745D01*
X008763Y006815D01*
X008833Y006815D01*
X008903Y006745D01*
X008973Y006815D01*
X009043Y006815D01*
X009113Y006745D01*
X009113Y006605D01*
X009043Y006535D01*
X008903Y006675D02*
X008903Y006745D01*
X009693Y006745D02*
X009693Y006605D01*
X009763Y006535D01*
X009693Y006745D02*
X009763Y006815D01*
X009833Y006815D01*
X010113Y006535D01*
X010113Y006815D01*
X010693Y006675D02*
X011113Y006675D01*
X011113Y006535D02*
X011113Y006815D01*
X010833Y006535D02*
X010693Y006675D01*
X010693Y006215D02*
X011113Y006215D01*
X011113Y006355D02*
X011113Y006074D01*
X011043Y005894D02*
X010763Y005894D01*
X010693Y005824D01*
X010693Y005614D01*
X011113Y005614D01*
X011113Y005824D01*
X011043Y005894D01*
X010833Y006074D02*
X010693Y006215D01*
X010113Y006215D02*
X009693Y006215D01*
X009833Y006074D01*
X009763Y005894D02*
X009693Y005824D01*
X009693Y005614D01*
X010113Y005614D01*
X010113Y005824D01*
X010043Y005894D01*
X009763Y005894D01*
X010113Y006074D02*
X010113Y006355D01*
X011693Y006285D02*
X011693Y006074D01*
X012113Y006074D01*
X012113Y006285D01*
X012043Y006355D01*
X011763Y006355D01*
X011693Y006285D01*
X011833Y006535D02*
X011693Y006675D01*
X012113Y006675D01*
X012113Y006535D02*
X012113Y006815D01*
X012693Y006745D02*
X012763Y006815D01*
X013043Y006535D01*
X013113Y006605D01*
X013113Y006745D01*
X013043Y006815D01*
X012763Y006815D01*
X012693Y006745D02*
X012693Y006605D01*
X012763Y006535D01*
X013043Y006535D01*
X013043Y006355D02*
X012763Y006355D01*
X012693Y006285D01*
X012693Y006074D01*
X013113Y006074D01*
X013113Y006285D01*
X013043Y006355D01*
X014403Y005755D02*
X014403Y005255D01*
X014653Y005005D01*
X015153Y005005D01*
X015403Y005255D01*
X015653Y005005D01*
X016153Y005005D01*
X016403Y005255D01*
X016653Y005005D01*
X017153Y005005D01*
X017403Y005255D01*
X017403Y005755D01*
X017153Y006005D01*
X016653Y006005D01*
X016403Y005755D01*
X016153Y006005D01*
X015653Y006005D01*
X015403Y005755D01*
X015153Y006005D01*
X014653Y006005D01*
X014403Y005755D01*
X014693Y006195D02*
X014903Y006195D01*
X014833Y006335D01*
X014833Y006405D01*
X014903Y006475D01*
X015043Y006475D01*
X015113Y006405D01*
X015113Y006265D01*
X015043Y006195D01*
X014693Y006195D02*
X014693Y006475D01*
X014693Y006656D02*
X014973Y006656D01*
X015113Y006796D01*
X014973Y006936D01*
X014693Y006936D01*
X015693Y006866D02*
X015693Y006656D01*
X016113Y006656D01*
X015973Y006656D02*
X015973Y006866D01*
X015903Y006936D01*
X015763Y006936D01*
X015693Y006866D01*
X015693Y007116D02*
X016113Y007116D01*
X016113Y007396D01*
X016043Y007576D02*
X015763Y007576D01*
X015693Y007646D01*
X015693Y007786D01*
X015763Y007856D01*
X016043Y007856D01*
X016113Y007786D01*
X016113Y007646D01*
X016043Y007576D01*
X015973Y007716D02*
X016113Y007856D01*
X015693Y007396D02*
X015693Y007116D01*
X015903Y007116D02*
X015903Y007256D01*
X016113Y006936D02*
X015973Y006796D01*
X016693Y006936D02*
X017113Y006936D01*
X016693Y006656D01*
X017113Y006656D01*
X017043Y006475D02*
X016903Y006475D01*
X016903Y006335D01*
X017043Y006195D02*
X017113Y006265D01*
X017113Y006405D01*
X017043Y006475D01*
X017043Y006195D02*
X016763Y006195D01*
X016693Y006265D01*
X016693Y006405D01*
X016763Y006475D01*
X016113Y006195D02*
X015693Y006195D01*
X015693Y006475D01*
X015903Y006335D02*
X015903Y006195D01*
X016693Y007116D02*
X016693Y007326D01*
X016763Y007396D01*
X017043Y007396D01*
X017113Y007326D01*
X017113Y007116D01*
X016693Y007116D01*
X018403Y007255D02*
X018403Y007755D01*
X018653Y008005D01*
X019153Y008005D01*
X019403Y007755D01*
X019653Y008005D01*
X020153Y008005D01*
X020403Y007755D01*
X020653Y008005D01*
X021153Y008005D01*
X021403Y007755D01*
X021653Y008005D01*
X022153Y008005D01*
X022403Y007755D01*
X022653Y008005D01*
X023153Y008005D01*
X023403Y007755D01*
X023653Y008005D01*
X024153Y008005D01*
X024403Y007755D01*
X024403Y007255D01*
X024153Y007005D01*
X023653Y007005D01*
X023403Y007255D01*
X023153Y007005D01*
X022653Y007005D01*
X022403Y007255D01*
X022153Y007005D01*
X021653Y007005D01*
X021403Y007255D01*
X021153Y007005D01*
X020653Y007005D01*
X020403Y007255D01*
X020153Y007005D01*
X019653Y007005D01*
X019403Y007255D01*
X019153Y007005D01*
X018653Y007005D01*
X018403Y007255D01*
X018763Y006815D02*
X019043Y006535D01*
X019113Y006605D01*
X019113Y006745D01*
X019043Y006815D01*
X018763Y006815D01*
X018693Y006745D01*
X018693Y006605D01*
X018763Y006535D01*
X019043Y006535D01*
X019113Y006355D02*
X018833Y006355D01*
X018693Y006215D01*
X018833Y006074D01*
X019113Y006074D01*
X018903Y006074D02*
X018903Y006355D01*
X019693Y006215D02*
X019833Y006355D01*
X020113Y006355D01*
X020113Y006535D02*
X020113Y006815D01*
X020113Y006675D02*
X019693Y006675D01*
X019833Y006535D01*
X019903Y006355D02*
X019903Y006074D01*
X019833Y006074D02*
X019693Y006215D01*
X019833Y006074D02*
X020113Y006074D01*
X020693Y006215D02*
X020833Y006074D01*
X021113Y006074D01*
X020903Y006074D02*
X020903Y006355D01*
X020833Y006355D02*
X021113Y006355D01*
X021113Y006535D02*
X020833Y006815D01*
X020763Y006815D01*
X020693Y006745D01*
X020693Y006605D01*
X020763Y006535D01*
X020833Y006355D02*
X020693Y006215D01*
X021113Y006535D02*
X021113Y006815D01*
X021693Y006745D02*
X021763Y006815D01*
X021833Y006815D01*
X021903Y006745D01*
X021973Y006815D01*
X022043Y006815D01*
X022113Y006745D01*
X022113Y006605D01*
X022043Y006535D01*
X022113Y006355D02*
X021833Y006355D01*
X021693Y006215D01*
X021833Y006074D01*
X022113Y006074D01*
X021903Y006074D02*
X021903Y006355D01*
X021763Y006535D02*
X021693Y006605D01*
X021693Y006745D01*
X021903Y006745D02*
X021903Y006675D01*
X022693Y006745D02*
X022903Y006535D01*
X022903Y006815D01*
X023113Y006745D02*
X022693Y006745D01*
X022833Y006355D02*
X022693Y006215D01*
X022833Y006074D01*
X023113Y006074D01*
X022903Y006074D02*
X022903Y006355D01*
X022833Y006355D02*
X023113Y006355D01*
X023693Y006215D02*
X023833Y006074D01*
X024113Y006074D01*
X023903Y006074D02*
X023903Y006355D01*
X023833Y006355D02*
X024113Y006355D01*
X024043Y006535D02*
X024113Y006605D01*
X024113Y006745D01*
X024043Y006815D01*
X023903Y006815D01*
X023833Y006745D01*
X023833Y006675D01*
X023903Y006535D01*
X023693Y006535D01*
X023693Y006815D01*
X023833Y006355D02*
X023693Y006215D01*
X029012Y008795D02*
X029222Y008795D01*
X029292Y008865D01*
X029292Y009145D01*
X029222Y009216D01*
X029012Y009216D01*
X029012Y008795D01*
X029612Y008795D02*
X029612Y009216D01*
X029472Y009216D02*
X029753Y009216D01*
X029933Y009216D02*
X030143Y009216D01*
X030213Y009145D01*
X030213Y009005D01*
X030143Y008935D01*
X029933Y008935D01*
X029933Y008795D02*
X029933Y009216D01*
X030403Y009255D02*
X030653Y009505D01*
X030403Y009755D01*
X030403Y010255D01*
X030653Y010505D01*
X030403Y010755D01*
X030403Y011255D01*
X030653Y011505D01*
X030403Y011755D01*
X030403Y012255D01*
X030653Y012505D01*
X030403Y012755D01*
X030403Y013255D01*
X030653Y013505D01*
X030403Y013755D01*
X030403Y014255D01*
X030653Y014505D01*
X031153Y014505D01*
X031403Y014255D01*
X031403Y013755D01*
X031153Y013505D01*
X031403Y013255D01*
X031403Y012755D01*
X031153Y012505D01*
X031403Y012255D01*
X031403Y011755D01*
X031153Y011505D01*
X031403Y011255D01*
X031403Y010755D01*
X031153Y010505D01*
X031403Y010255D01*
X031403Y009755D01*
X031153Y009505D01*
X031403Y009255D01*
X031403Y008755D01*
X031153Y008505D01*
X030653Y008505D01*
X030403Y008755D01*
X030403Y009255D01*
X030073Y008935D02*
X030213Y008795D01*
X030693Y008296D02*
X031113Y008296D01*
X030693Y008016D01*
X031113Y008016D01*
X031113Y007836D02*
X030973Y007696D01*
X030973Y007766D02*
X030973Y007556D01*
X031113Y007556D02*
X030693Y007556D01*
X030693Y007766D01*
X030763Y007836D01*
X030903Y007836D01*
X030973Y007766D01*
X030903Y007375D02*
X030903Y007235D01*
X030903Y007375D02*
X031043Y007375D01*
X031113Y007305D01*
X031113Y007165D01*
X031043Y007095D01*
X030763Y007095D01*
X030693Y007165D01*
X030693Y007305D01*
X030763Y007375D01*
X030143Y009795D02*
X030213Y009865D01*
X030213Y010145D01*
X030143Y010216D01*
X030003Y010216D01*
X029933Y010145D01*
X029933Y009865D01*
X030003Y009795D01*
X030143Y009795D01*
X029753Y010005D02*
X029472Y010005D01*
X029292Y009795D02*
X029012Y010216D01*
X028832Y010216D02*
X028552Y010216D01*
X028692Y010216D02*
X028692Y009795D01*
X029012Y009795D02*
X029292Y010216D01*
X029165Y010795D02*
X029446Y011216D01*
X029626Y011005D02*
X029906Y011005D01*
X030086Y010795D02*
X030226Y010795D01*
X030156Y010795D02*
X030156Y011216D01*
X030086Y011216D02*
X030226Y011216D01*
X029446Y010795D02*
X029165Y011216D01*
X028985Y011145D02*
X028985Y011005D01*
X028915Y010935D01*
X028705Y010935D01*
X028705Y010795D02*
X028705Y011216D01*
X028915Y011216D01*
X028985Y011145D01*
X028845Y010935D02*
X028985Y010795D01*
X027653Y011005D02*
X027153Y011005D01*
X026653Y011005D02*
X026153Y011005D01*
X025453Y011305D02*
X025453Y011705D01*
X025903Y012005D02*
X026903Y012005D01*
X027903Y012005D01*
X027903Y010005D01*
X026903Y010005D01*
X026903Y012005D01*
X026903Y010005D01*
X025903Y010005D01*
X025903Y012005D01*
X023703Y012005D02*
X023403Y012005D01*
X023403Y012105D01*
X023403Y012005D02*
X023103Y012005D01*
X023103Y010005D01*
X023403Y010005D01*
X023403Y009905D01*
X023403Y010005D02*
X023703Y010005D01*
X023703Y012005D01*
X022903Y012205D02*
X022803Y012205D01*
X022903Y012205D02*
X022903Y011505D01*
X022859Y011503D01*
X022816Y011497D01*
X022774Y011488D01*
X022732Y011475D01*
X022692Y011458D01*
X022653Y011438D01*
X022616Y011415D01*
X022582Y011388D01*
X022549Y011359D01*
X022520Y011326D01*
X022493Y011292D01*
X022470Y011255D01*
X022450Y011216D01*
X022433Y011176D01*
X022420Y011134D01*
X022411Y011092D01*
X022405Y011049D01*
X022403Y011005D01*
X022405Y010961D01*
X022411Y010918D01*
X022420Y010876D01*
X022433Y010834D01*
X022450Y010794D01*
X022470Y010755D01*
X022493Y010718D01*
X022520Y010684D01*
X022549Y010651D01*
X022582Y010622D01*
X022616Y010595D01*
X022653Y010572D01*
X022692Y010552D01*
X022732Y010535D01*
X022774Y010522D01*
X022816Y010513D01*
X022859Y010507D01*
X022903Y010505D01*
X022903Y009805D01*
X022803Y009805D01*
X023919Y011005D02*
X023921Y011067D01*
X023927Y011130D01*
X023937Y011191D01*
X023951Y011252D01*
X023968Y011312D01*
X023989Y011371D01*
X024015Y011428D01*
X024043Y011483D01*
X024075Y011537D01*
X024111Y011588D01*
X024149Y011638D01*
X024191Y011684D01*
X024235Y011728D01*
X024283Y011769D01*
X024332Y011807D01*
X024384Y011841D01*
X024438Y011872D01*
X024494Y011900D01*
X024552Y011924D01*
X024611Y011945D01*
X024671Y011961D01*
X024732Y011974D01*
X024794Y011983D01*
X024856Y011988D01*
X024919Y011989D01*
X024981Y011986D01*
X025043Y011979D01*
X025105Y011968D01*
X025165Y011953D01*
X025225Y011935D01*
X025283Y011913D01*
X025340Y011887D01*
X025395Y011857D01*
X025448Y011824D01*
X025499Y011788D01*
X025547Y011749D01*
X025593Y011706D01*
X025636Y011661D01*
X025676Y011613D01*
X025713Y011563D01*
X025747Y011510D01*
X025778Y011456D01*
X025804Y011400D01*
X025828Y011342D01*
X025847Y011282D01*
X025863Y011222D01*
X025875Y011160D01*
X025883Y011099D01*
X025887Y011036D01*
X025887Y010974D01*
X025883Y010911D01*
X025875Y010850D01*
X025863Y010788D01*
X025847Y010728D01*
X025828Y010668D01*
X025804Y010610D01*
X025778Y010554D01*
X025747Y010500D01*
X025713Y010447D01*
X025676Y010397D01*
X025636Y010349D01*
X025593Y010304D01*
X025547Y010261D01*
X025499Y010222D01*
X025448Y010186D01*
X025395Y010153D01*
X025340Y010123D01*
X025283Y010097D01*
X025225Y010075D01*
X025165Y010057D01*
X025105Y010042D01*
X025043Y010031D01*
X024981Y010024D01*
X024919Y010021D01*
X024856Y010022D01*
X024794Y010027D01*
X024732Y010036D01*
X024671Y010049D01*
X024611Y010065D01*
X024552Y010086D01*
X024494Y010110D01*
X024438Y010138D01*
X024384Y010169D01*
X024332Y010203D01*
X024283Y010241D01*
X024235Y010282D01*
X024191Y010326D01*
X024149Y010372D01*
X024111Y010422D01*
X024075Y010473D01*
X024043Y010527D01*
X024015Y010582D01*
X023989Y010639D01*
X023968Y010698D01*
X023951Y010758D01*
X023937Y010819D01*
X023927Y010880D01*
X023921Y010943D01*
X023919Y011005D01*
X024027Y013129D02*
X024027Y016881D01*
X027779Y016881D01*
X027779Y013129D01*
X027478Y013129D01*
X027478Y013287D01*
X024328Y013287D01*
X024328Y013129D01*
X024027Y013129D01*
X029012Y013145D02*
X029012Y012865D01*
X029082Y012795D01*
X029222Y012795D01*
X029292Y012865D01*
X029292Y013005D01*
X029152Y013005D01*
X029012Y013145D02*
X029082Y013216D01*
X029222Y013216D01*
X029292Y013145D01*
X029472Y013216D02*
X029753Y012795D01*
X029753Y013216D01*
X029933Y013216D02*
X030143Y013216D01*
X030213Y013145D01*
X030213Y012865D01*
X030143Y012795D01*
X029933Y012795D01*
X029933Y013216D01*
X029472Y013216D02*
X029472Y012795D01*
X029472Y012216D02*
X029472Y012005D01*
X029613Y012075D01*
X029683Y012075D01*
X029753Y012005D01*
X029753Y011865D01*
X029683Y011795D01*
X029542Y011795D01*
X029472Y011865D01*
X029933Y011935D02*
X030073Y011795D01*
X030213Y011935D01*
X030213Y012216D01*
X029933Y012216D02*
X029933Y011935D01*
X029753Y012216D02*
X029472Y012216D01*
X029472Y013795D02*
X029472Y014216D01*
X029753Y013795D01*
X029753Y014216D01*
X029933Y014216D02*
X030143Y014216D01*
X030213Y014145D01*
X030213Y013865D01*
X030143Y013795D01*
X029933Y013795D01*
X029933Y014216D01*
X029292Y014145D02*
X029222Y014216D01*
X029082Y014216D01*
X029012Y014145D01*
X029012Y013865D01*
X029082Y013795D01*
X029222Y013795D01*
X029292Y013865D01*
X029292Y014005D01*
X029152Y014005D01*
X030693Y014695D02*
X030693Y014905D01*
X030763Y014975D01*
X030833Y014975D01*
X030903Y014905D01*
X030903Y014695D01*
X031113Y014695D02*
X030693Y014695D01*
X030903Y014905D02*
X030973Y014975D01*
X031043Y014975D01*
X031113Y014905D01*
X031113Y014695D01*
X031113Y015156D02*
X030693Y015156D01*
X031113Y015156D02*
X031113Y015436D01*
X031113Y015616D02*
X030693Y015616D01*
X030903Y015686D02*
X031113Y015896D01*
X030973Y015616D02*
X030693Y015896D01*
X017403Y015505D02*
X017403Y013505D01*
X016403Y013505D01*
X016403Y015505D01*
X017403Y015505D01*
X017153Y014505D02*
X016653Y014505D01*
X015253Y013605D02*
X015312Y013607D01*
X015370Y013613D01*
X015429Y013622D01*
X015486Y013636D01*
X015542Y013653D01*
X015597Y013674D01*
X015651Y013698D01*
X015703Y013726D01*
X015753Y013757D01*
X015801Y013791D01*
X015846Y013828D01*
X015889Y013869D01*
X015930Y013912D01*
X015967Y013957D01*
X016001Y014005D01*
X016032Y014055D01*
X016060Y014107D01*
X016084Y014161D01*
X016105Y014216D01*
X016122Y014272D01*
X016136Y014329D01*
X016145Y014388D01*
X016151Y014446D01*
X016153Y014505D01*
X016151Y014564D01*
X016145Y014622D01*
X016136Y014681D01*
X016122Y014738D01*
X016105Y014794D01*
X016084Y014849D01*
X016060Y014903D01*
X016032Y014955D01*
X016001Y015005D01*
X015967Y015053D01*
X015930Y015098D01*
X015889Y015141D01*
X015846Y015182D01*
X015801Y015219D01*
X015753Y015253D01*
X015703Y015284D01*
X015651Y015312D01*
X015597Y015336D01*
X015542Y015357D01*
X015486Y015374D01*
X015429Y015388D01*
X015370Y015397D01*
X015312Y015403D01*
X015253Y015405D01*
X012553Y015405D01*
X011403Y015505D02*
X011403Y013505D01*
X010403Y013505D01*
X010403Y015505D01*
X011403Y015505D01*
X011153Y014505D02*
X010653Y014505D01*
X012553Y015405D02*
X012494Y015403D01*
X012436Y015397D01*
X012377Y015388D01*
X012320Y015374D01*
X012264Y015357D01*
X012209Y015336D01*
X012155Y015312D01*
X012103Y015284D01*
X012053Y015253D01*
X012005Y015219D01*
X011960Y015182D01*
X011917Y015141D01*
X011876Y015098D01*
X011839Y015053D01*
X011805Y015005D01*
X011774Y014955D01*
X011746Y014903D01*
X011722Y014849D01*
X011701Y014794D01*
X011684Y014738D01*
X011670Y014681D01*
X011661Y014622D01*
X011655Y014564D01*
X011653Y014505D01*
X011655Y014446D01*
X011661Y014388D01*
X011670Y014329D01*
X011684Y014272D01*
X011701Y014216D01*
X011722Y014161D01*
X011746Y014107D01*
X011774Y014055D01*
X011805Y014005D01*
X011839Y013957D01*
X011876Y013912D01*
X011917Y013869D01*
X011960Y013828D01*
X012005Y013791D01*
X012053Y013757D01*
X012103Y013726D01*
X012155Y013698D01*
X012209Y013674D01*
X012264Y013653D01*
X012320Y013636D01*
X012377Y013622D01*
X012436Y013613D01*
X012494Y013607D01*
X012553Y013605D01*
X015253Y013605D01*
X009003Y012205D02*
X008903Y012205D01*
X008903Y009805D01*
X009003Y009805D01*
X008403Y010255D02*
X008403Y011755D01*
X008153Y012005D01*
X007653Y012005D01*
X007403Y011755D01*
X007403Y010255D01*
X007653Y010005D01*
X008153Y010005D01*
X008403Y010255D01*
X007403Y010255D02*
X007153Y010005D01*
X006653Y010005D01*
X006403Y010255D01*
X006403Y011755D01*
X006653Y012005D01*
X007153Y012005D01*
X007403Y011755D01*
X007903Y012205D02*
X007903Y012505D01*
X008003Y012505D01*
X007903Y012505D02*
X007903Y012805D01*
X005903Y012805D01*
X005903Y012505D01*
X005803Y012505D01*
X005903Y012505D02*
X005903Y012205D01*
X007903Y012205D01*
X006403Y011755D02*
X006153Y012005D01*
X005653Y012005D01*
X005403Y011755D01*
X005403Y010255D01*
X005653Y010005D01*
X006153Y010005D01*
X006403Y010255D01*
X006153Y009873D02*
X005653Y009873D01*
X004084Y010635D02*
X004084Y010916D01*
X003804Y010916D02*
X003804Y010635D01*
X003944Y010495D01*
X004084Y010635D01*
X003623Y010565D02*
X003553Y010495D01*
X003413Y010495D01*
X003343Y010565D01*
X003343Y010705D02*
X003483Y010775D01*
X003553Y010775D01*
X003623Y010705D01*
X003623Y010565D01*
X003343Y010705D02*
X003343Y010916D01*
X003623Y010916D01*
X003553Y011295D02*
X003413Y011295D01*
X003343Y011365D01*
X003343Y011645D01*
X003413Y011716D01*
X003553Y011716D01*
X003623Y011645D01*
X003623Y011505D02*
X003483Y011505D01*
X003623Y011505D02*
X003623Y011365D01*
X003553Y011295D01*
X003804Y011295D02*
X003804Y011716D01*
X004084Y011295D01*
X004084Y011716D01*
X004264Y011716D02*
X004474Y011716D01*
X004544Y011645D01*
X004544Y011365D01*
X004474Y011295D01*
X004264Y011295D01*
X004264Y011716D01*
X003383Y012804D02*
X002872Y012804D01*
X003383Y012804D02*
X003383Y013080D01*
X000313Y013080D01*
X000313Y009930D01*
X003383Y009930D01*
X003383Y010206D01*
X002872Y010206D01*
X005858Y014605D02*
X006016Y014605D01*
X006790Y014605D02*
X007016Y014605D01*
X007790Y014605D02*
X007948Y014605D01*
X007728Y015155D02*
X006079Y015155D01*
D13*
X015233Y018035D02*
X015403Y018035D01*
X015460Y018092D01*
X015460Y018319D01*
X015403Y018375D01*
X015233Y018375D01*
X015233Y018035D01*
X015601Y018092D02*
X015658Y018035D01*
X015772Y018035D01*
X015828Y018092D01*
X015828Y018319D01*
X015772Y018375D01*
X015658Y018375D01*
X015601Y018319D01*
X015601Y018262D01*
X015658Y018205D01*
X015828Y018205D01*
X016233Y018035D02*
X016403Y018035D01*
X016460Y018092D01*
X016460Y018319D01*
X016403Y018375D01*
X016233Y018375D01*
X016233Y018035D01*
X016601Y018092D02*
X016601Y018149D01*
X016658Y018205D01*
X016772Y018205D01*
X016828Y018149D01*
X016828Y018092D01*
X016772Y018035D01*
X016658Y018035D01*
X016601Y018092D01*
X016658Y018205D02*
X016601Y018262D01*
X016601Y018319D01*
X016658Y018375D01*
X016772Y018375D01*
X016828Y018319D01*
X016828Y018262D01*
X016772Y018205D01*
X017233Y018035D02*
X017403Y018035D01*
X017460Y018092D01*
X017460Y018319D01*
X017403Y018375D01*
X017233Y018375D01*
X017233Y018035D01*
X017601Y018035D02*
X017601Y018092D01*
X017828Y018319D01*
X017828Y018375D01*
X017601Y018375D01*
X018233Y018375D02*
X018233Y018035D01*
X018403Y018035D01*
X018460Y018092D01*
X018460Y018319D01*
X018403Y018375D01*
X018233Y018375D01*
X018601Y018205D02*
X018772Y018205D01*
X018828Y018149D01*
X018828Y018092D01*
X018772Y018035D01*
X018658Y018035D01*
X018601Y018092D01*
X018601Y018205D01*
X018715Y018319D01*
X018828Y018375D01*
X023233Y018375D02*
X023233Y018035D01*
X023403Y018035D01*
X023460Y018092D01*
X023460Y018319D01*
X023403Y018375D01*
X023233Y018375D01*
X023601Y018205D02*
X023828Y018205D01*
X023772Y018035D02*
X023772Y018375D01*
X023601Y018205D01*
X024233Y018035D02*
X024403Y018035D01*
X024460Y018092D01*
X024460Y018319D01*
X024403Y018375D01*
X024233Y018375D01*
X024233Y018035D01*
X024601Y018092D02*
X024658Y018035D01*
X024772Y018035D01*
X024828Y018092D01*
X024828Y018149D01*
X024772Y018205D01*
X024715Y018205D01*
X024772Y018205D02*
X024828Y018262D01*
X024828Y018319D01*
X024772Y018375D01*
X024658Y018375D01*
X024601Y018319D01*
X025233Y018375D02*
X025233Y018035D01*
X025403Y018035D01*
X025460Y018092D01*
X025460Y018319D01*
X025403Y018375D01*
X025233Y018375D01*
X025601Y018319D02*
X025658Y018375D01*
X025772Y018375D01*
X025828Y018319D01*
X025828Y018262D01*
X025601Y018035D01*
X025828Y018035D01*
X025795Y012969D02*
X025795Y012742D01*
X025851Y012685D01*
X025984Y012685D02*
X025984Y012912D01*
X026097Y012912D02*
X026154Y012912D01*
X026097Y012912D02*
X025984Y012799D01*
X025851Y012912D02*
X025738Y012912D01*
X025597Y012855D02*
X025597Y012685D01*
X025597Y012855D02*
X025540Y012912D01*
X025370Y012912D01*
X025370Y012685D01*
X025228Y012742D02*
X025228Y012855D01*
X025172Y012912D01*
X025058Y012912D01*
X025001Y012855D01*
X025001Y012742D01*
X025058Y012685D01*
X025172Y012685D01*
X025228Y012742D01*
X024860Y012742D02*
X024803Y012685D01*
X024690Y012685D01*
X024633Y012742D01*
X024633Y012969D01*
X024690Y013025D01*
X024803Y013025D01*
X024860Y012969D01*
X026290Y012742D02*
X026347Y012799D01*
X026517Y012799D01*
X026517Y012855D02*
X026517Y012685D01*
X026347Y012685D01*
X026290Y012742D01*
X026347Y012912D02*
X026461Y012912D01*
X026517Y012855D01*
X026659Y012855D02*
X026715Y012912D01*
X026886Y012912D01*
X026829Y012799D02*
X026715Y012799D01*
X026659Y012855D01*
X026659Y012685D02*
X026829Y012685D01*
X026886Y012742D01*
X026829Y012799D01*
X027027Y012912D02*
X027141Y012912D01*
X027084Y012969D02*
X027084Y012742D01*
X027141Y012685D01*
D14*
X023548Y011370D02*
X023458Y011235D01*
X023368Y011370D01*
X023278Y011235D02*
X023548Y011235D01*
X023503Y011120D02*
X023548Y011075D01*
X023548Y010985D01*
X023503Y010940D01*
X023323Y011120D01*
X023503Y011120D01*
X023323Y011120D02*
X023278Y011075D01*
X023278Y010985D01*
X023323Y010940D01*
X023503Y010940D01*
X023548Y010825D02*
X023548Y010645D01*
X023548Y010735D02*
X023278Y010735D01*
X023368Y010645D01*
X024400Y009790D02*
X024490Y009880D01*
X024490Y009610D01*
X024400Y009610D02*
X024580Y009610D01*
X024694Y009655D02*
X024874Y009835D01*
X024874Y009655D01*
X024829Y009610D01*
X024739Y009610D01*
X024694Y009655D01*
X024694Y009835D01*
X024739Y009880D01*
X024829Y009880D01*
X024874Y009835D01*
X024989Y009790D02*
X024989Y009655D01*
X025034Y009610D01*
X025169Y009610D01*
X025169Y009790D01*
X025284Y009745D02*
X025374Y009745D01*
X025284Y009880D02*
X025464Y009880D01*
X025284Y009880D02*
X025284Y009610D01*
X026302Y009655D02*
X026482Y009835D01*
X026482Y009655D01*
X026437Y009610D01*
X026347Y009610D01*
X026302Y009655D01*
X026302Y009835D01*
X026347Y009880D01*
X026437Y009880D01*
X026482Y009835D01*
X026597Y009655D02*
X026642Y009655D01*
X026642Y009610D01*
X026597Y009610D01*
X026597Y009655D01*
X026744Y009610D02*
X026924Y009610D01*
X026834Y009610D02*
X026834Y009880D01*
X026744Y009790D01*
X027039Y009790D02*
X027039Y009655D01*
X027084Y009610D01*
X027219Y009610D01*
X027219Y009790D01*
X027334Y009745D02*
X027424Y009745D01*
X027334Y009880D02*
X027514Y009880D01*
X027334Y009880D02*
X027334Y009610D01*
X017898Y013952D02*
X017718Y014132D01*
X017673Y014132D01*
X017628Y014087D01*
X017628Y013997D01*
X017673Y013952D01*
X017898Y013952D02*
X017898Y014132D01*
X017898Y014246D02*
X017718Y014426D01*
X017673Y014426D01*
X017628Y014381D01*
X017628Y014291D01*
X017673Y014246D01*
X017898Y014246D02*
X017898Y014426D01*
X017898Y014541D02*
X017898Y014676D01*
X017853Y014721D01*
X017763Y014721D01*
X017718Y014676D01*
X017718Y014541D01*
X017988Y014541D01*
X017898Y014836D02*
X017628Y014836D01*
X017628Y015016D01*
X017763Y014926D02*
X017763Y014836D01*
X014564Y014860D02*
X014384Y014860D01*
X014564Y015040D01*
X014384Y015040D01*
X014269Y014995D02*
X014089Y014995D01*
X014089Y014860D02*
X014089Y015130D01*
X013974Y015130D02*
X013974Y014860D01*
X013794Y014860D02*
X013794Y015130D01*
X013884Y015040D01*
X013974Y015130D01*
X013680Y015130D02*
X013590Y015085D01*
X013500Y014995D01*
X013500Y014905D01*
X013545Y014860D01*
X013635Y014860D01*
X013680Y014905D01*
X013680Y014950D01*
X013635Y014995D01*
X013500Y014995D01*
X013385Y014860D02*
X013205Y014860D01*
X013295Y014860D02*
X013295Y015130D01*
X013205Y015040D01*
X014269Y015130D02*
X014269Y014860D01*
X010238Y014541D02*
X009968Y014541D01*
X009968Y014676D01*
X010013Y014721D01*
X010103Y014721D01*
X010148Y014676D01*
X010148Y014541D01*
X010148Y014426D02*
X010148Y014246D01*
X009968Y014426D01*
X009923Y014426D01*
X009878Y014381D01*
X009878Y014291D01*
X009923Y014246D01*
X009923Y014132D02*
X009878Y014087D01*
X009878Y013997D01*
X009923Y013952D01*
X009923Y014132D02*
X009968Y014132D01*
X010148Y013952D01*
X010148Y014132D01*
X010148Y014836D02*
X009878Y014836D01*
X009878Y015016D01*
X010013Y014926D02*
X010013Y014836D01*
X007133Y012630D02*
X007133Y012360D01*
X007133Y012450D02*
X007268Y012360D01*
X007133Y012450D02*
X007268Y012540D01*
X007018Y012585D02*
X007018Y012405D01*
X006973Y012360D01*
X006883Y012360D01*
X006838Y012405D01*
X007018Y012585D01*
X006973Y012630D01*
X006883Y012630D01*
X006838Y012585D01*
X006838Y012405D01*
X006723Y012360D02*
X006543Y012360D01*
X006633Y012360D02*
X006633Y012630D01*
X006543Y012540D01*
D15*
X006048Y015172D02*
X006103Y015129D01*
X006067Y015080D01*
X006033Y015029D01*
X006004Y014975D01*
X005977Y014920D01*
X005953Y014864D01*
X005934Y014806D01*
X005917Y014747D01*
X005904Y014687D01*
X005895Y014627D01*
X005890Y014566D01*
X005888Y014504D01*
X005890Y014443D01*
X005895Y014382D01*
X005905Y014322D01*
X005918Y014262D01*
X005934Y014203D01*
X005954Y014145D01*
X005977Y014089D01*
X006004Y014034D01*
X006034Y013980D01*
X006067Y013929D01*
X006103Y013880D01*
X006143Y013833D01*
X006184Y013788D01*
X006229Y013746D01*
X006276Y013707D01*
X006325Y013671D01*
X006376Y013637D01*
X006430Y013607D01*
X006485Y013580D01*
X006541Y013557D01*
X006599Y013537D01*
X006579Y013470D01*
X006578Y013470D01*
X006517Y013491D01*
X006456Y013516D01*
X006397Y013545D01*
X006340Y013577D01*
X006286Y013613D01*
X006233Y013652D01*
X006183Y013694D01*
X006135Y013739D01*
X006090Y013786D01*
X006048Y013836D01*
X006010Y013889D01*
X005974Y013944D01*
X005942Y014001D01*
X005913Y014060D01*
X005888Y014120D01*
X005867Y014182D01*
X005850Y014245D01*
X005836Y014309D01*
X005826Y014374D01*
X005820Y014439D01*
X005818Y014505D01*
X005820Y014570D01*
X005826Y014635D01*
X005836Y014700D01*
X005849Y014764D01*
X005867Y014827D01*
X005888Y014889D01*
X005913Y014949D01*
X005942Y015008D01*
X005974Y015065D01*
X006009Y015120D01*
X006048Y015173D01*
X006055Y015167D01*
X006017Y015115D01*
X005981Y015060D01*
X005950Y015004D01*
X005921Y014945D01*
X005896Y014885D01*
X005875Y014824D01*
X005858Y014762D01*
X005844Y014698D01*
X005835Y014634D01*
X005829Y014569D01*
X005827Y014505D01*
X005829Y014440D01*
X005835Y014375D01*
X005845Y014311D01*
X005858Y014247D01*
X005876Y014185D01*
X005897Y014124D01*
X005922Y014064D01*
X005950Y014005D01*
X005982Y013949D01*
X006017Y013894D01*
X006055Y013842D01*
X006097Y013792D01*
X006141Y013745D01*
X006189Y013700D01*
X006238Y013659D01*
X006291Y013620D01*
X006345Y013585D01*
X006402Y013553D01*
X006460Y013525D01*
X006520Y013500D01*
X006581Y013478D01*
X006584Y013487D01*
X006523Y013508D01*
X006463Y013533D01*
X006406Y013561D01*
X006350Y013593D01*
X006296Y013628D01*
X006244Y013666D01*
X006195Y013707D01*
X006148Y013751D01*
X006104Y013798D01*
X006063Y013848D01*
X006024Y013899D01*
X005990Y013953D01*
X005958Y014010D01*
X005930Y014067D01*
X005905Y014127D01*
X005884Y014188D01*
X005867Y014250D01*
X005854Y014313D01*
X005844Y014376D01*
X005838Y014440D01*
X005836Y014504D01*
X005838Y014569D01*
X005844Y014633D01*
X005853Y014696D01*
X005867Y014759D01*
X005884Y014821D01*
X005905Y014882D01*
X005929Y014942D01*
X005958Y015000D01*
X005989Y015056D01*
X006024Y015110D01*
X006062Y015162D01*
X006069Y015156D01*
X006031Y015105D01*
X005997Y015051D01*
X005965Y014995D01*
X005938Y014938D01*
X005913Y014879D01*
X005893Y014819D01*
X005876Y014757D01*
X005862Y014695D01*
X005853Y014632D01*
X005847Y014568D01*
X005845Y014504D01*
X005847Y014441D01*
X005853Y014377D01*
X005862Y014314D01*
X005876Y014252D01*
X005893Y014190D01*
X005914Y014130D01*
X005938Y014071D01*
X005966Y014014D01*
X005997Y013958D01*
X006032Y013905D01*
X006070Y013853D01*
X006110Y013804D01*
X006154Y013758D01*
X006201Y013714D01*
X006249Y013673D01*
X006301Y013635D01*
X006354Y013600D01*
X006410Y013569D01*
X006467Y013541D01*
X006526Y013516D01*
X006586Y013496D01*
X006589Y013504D01*
X006529Y013525D01*
X006471Y013549D01*
X006414Y013577D01*
X006359Y013608D01*
X006306Y013643D01*
X006255Y013680D01*
X006206Y013721D01*
X006160Y013764D01*
X006117Y013810D01*
X006077Y013859D01*
X006039Y013910D01*
X006005Y013963D01*
X005974Y014018D01*
X005946Y014075D01*
X005922Y014133D01*
X005901Y014193D01*
X005884Y014254D01*
X005871Y014316D01*
X005862Y014378D01*
X005856Y014441D01*
X005854Y014504D01*
X005856Y014568D01*
X005862Y014631D01*
X005871Y014693D01*
X005884Y014755D01*
X005901Y014816D01*
X005922Y014876D01*
X005946Y014934D01*
X005973Y014991D01*
X006004Y015046D01*
X006039Y015099D01*
X006076Y015150D01*
X006083Y015145D01*
X006046Y015094D01*
X006012Y015042D01*
X005981Y014987D01*
X005954Y014931D01*
X005930Y014873D01*
X005910Y014813D01*
X005893Y014753D01*
X005880Y014692D01*
X005870Y014630D01*
X005865Y014567D01*
X005863Y014504D01*
X005865Y014442D01*
X005871Y014379D01*
X005880Y014317D01*
X005893Y014256D01*
X005910Y014196D01*
X005931Y014136D01*
X005954Y014078D01*
X005982Y014022D01*
X006013Y013967D01*
X006047Y013915D01*
X006084Y013864D01*
X006124Y013816D01*
X006167Y013770D01*
X006212Y013727D01*
X006261Y013687D01*
X006311Y013650D01*
X006364Y013616D01*
X006418Y013585D01*
X006474Y013557D01*
X006532Y013533D01*
X006592Y013513D01*
X006594Y013521D01*
X006536Y013542D01*
X006478Y013566D01*
X006422Y013593D01*
X006368Y013624D01*
X006316Y013657D01*
X006266Y013694D01*
X006218Y013734D01*
X006173Y013777D01*
X006131Y013822D01*
X006091Y013870D01*
X006054Y013920D01*
X006020Y013972D01*
X005990Y014026D01*
X005963Y014082D01*
X005939Y014140D01*
X005919Y014198D01*
X005902Y014258D01*
X005889Y014319D01*
X005880Y014380D01*
X005874Y014442D01*
X005872Y014504D01*
X005874Y014567D01*
X005879Y014628D01*
X005889Y014690D01*
X005902Y014751D01*
X005918Y014811D01*
X005939Y014869D01*
X005962Y014927D01*
X005989Y014983D01*
X006020Y015037D01*
X006053Y015089D01*
X006090Y015139D01*
X006097Y015134D01*
X006061Y015084D01*
X006028Y015032D01*
X005997Y014979D01*
X005970Y014923D01*
X005947Y014866D01*
X005927Y014808D01*
X005910Y014749D01*
X005898Y014688D01*
X005888Y014627D01*
X005883Y014566D01*
X005881Y014504D01*
X005883Y014443D01*
X005888Y014382D01*
X005898Y014321D01*
X005911Y014260D01*
X005927Y014201D01*
X005947Y014143D01*
X005971Y014086D01*
X005998Y014030D01*
X006028Y013977D01*
X006061Y013925D01*
X006098Y013875D01*
X006137Y013828D01*
X006180Y013783D01*
X006224Y013741D01*
X006272Y013701D01*
X006321Y013665D01*
X006373Y013631D01*
X006426Y013601D01*
X006482Y013574D01*
X006539Y013550D01*
X006597Y013530D01*
X007227Y013470D02*
X007207Y013537D01*
X007265Y013557D01*
X007321Y013580D01*
X007376Y013607D01*
X007429Y013637D01*
X007481Y013671D01*
X007530Y013707D01*
X007577Y013746D01*
X007621Y013788D01*
X007663Y013833D01*
X007703Y013880D01*
X007739Y013929D01*
X007772Y013980D01*
X007802Y014034D01*
X007829Y014089D01*
X007852Y014145D01*
X007872Y014203D01*
X007888Y014262D01*
X007901Y014322D01*
X007911Y014382D01*
X007916Y014443D01*
X007918Y014504D01*
X007916Y014566D01*
X007911Y014627D01*
X007902Y014687D01*
X007889Y014747D01*
X007872Y014806D01*
X007853Y014864D01*
X007829Y014920D01*
X007802Y014975D01*
X007773Y015029D01*
X007739Y015080D01*
X007703Y015129D01*
X007758Y015172D01*
X007758Y015173D01*
X007797Y015120D01*
X007832Y015065D01*
X007864Y015008D01*
X007893Y014949D01*
X007918Y014889D01*
X007939Y014827D01*
X007957Y014764D01*
X007970Y014700D01*
X007980Y014635D01*
X007986Y014570D01*
X007988Y014504D01*
X007986Y014439D01*
X007980Y014374D01*
X007970Y014309D01*
X007956Y014245D01*
X007939Y014182D01*
X007918Y014120D01*
X007893Y014060D01*
X007864Y014001D01*
X007832Y013944D01*
X007796Y013889D01*
X007758Y013836D01*
X007716Y013786D01*
X007671Y013739D01*
X007623Y013694D01*
X007573Y013652D01*
X007520Y013613D01*
X007466Y013577D01*
X007409Y013545D01*
X007350Y013516D01*
X007289Y013491D01*
X007228Y013470D01*
X007225Y013478D01*
X007286Y013500D01*
X007346Y013525D01*
X007404Y013553D01*
X007461Y013585D01*
X007515Y013620D01*
X007568Y013659D01*
X007617Y013700D01*
X007665Y013745D01*
X007709Y013792D01*
X007750Y013842D01*
X007789Y013894D01*
X007824Y013949D01*
X007856Y014005D01*
X007884Y014064D01*
X007909Y014124D01*
X007930Y014185D01*
X007948Y014247D01*
X007961Y014311D01*
X007971Y014375D01*
X007977Y014440D01*
X007979Y014504D01*
X007977Y014569D01*
X007971Y014634D01*
X007962Y014698D01*
X007948Y014762D01*
X007931Y014824D01*
X007910Y014885D01*
X007885Y014945D01*
X007856Y015004D01*
X007825Y015060D01*
X007790Y015115D01*
X007751Y015167D01*
X007744Y015162D01*
X007782Y015110D01*
X007817Y015056D01*
X007848Y015000D01*
X007877Y014942D01*
X007901Y014882D01*
X007922Y014821D01*
X007939Y014759D01*
X007953Y014696D01*
X007962Y014633D01*
X007968Y014569D01*
X007970Y014504D01*
X007968Y014440D01*
X007962Y014376D01*
X007952Y014313D01*
X007939Y014250D01*
X007922Y014188D01*
X007901Y014127D01*
X007876Y014067D01*
X007848Y014010D01*
X007816Y013953D01*
X007782Y013899D01*
X007743Y013848D01*
X007702Y013798D01*
X007658Y013751D01*
X007611Y013707D01*
X007562Y013666D01*
X007510Y013628D01*
X007456Y013593D01*
X007400Y013561D01*
X007343Y013533D01*
X007283Y013508D01*
X007222Y013487D01*
X007220Y013496D01*
X007280Y013516D01*
X007339Y013541D01*
X007396Y013569D01*
X007452Y013600D01*
X007505Y013635D01*
X007557Y013673D01*
X007605Y013714D01*
X007652Y013758D01*
X007696Y013804D01*
X007736Y013853D01*
X007774Y013905D01*
X007809Y013958D01*
X007840Y014014D01*
X007868Y014071D01*
X007892Y014130D01*
X007913Y014190D01*
X007930Y014252D01*
X007944Y014314D01*
X007953Y014377D01*
X007959Y014441D01*
X007961Y014504D01*
X007959Y014568D01*
X007953Y014632D01*
X007944Y014695D01*
X007931Y014757D01*
X007913Y014819D01*
X007893Y014879D01*
X007868Y014938D01*
X007841Y014995D01*
X007809Y015051D01*
X007775Y015105D01*
X007737Y015156D01*
X007730Y015150D01*
X007767Y015099D01*
X007802Y015046D01*
X007833Y014991D01*
X007860Y014934D01*
X007884Y014876D01*
X007905Y014816D01*
X007922Y014755D01*
X007935Y014693D01*
X007944Y014631D01*
X007950Y014568D01*
X007952Y014504D01*
X007950Y014441D01*
X007944Y014378D01*
X007935Y014316D01*
X007922Y014254D01*
X007905Y014193D01*
X007884Y014133D01*
X007860Y014075D01*
X007832Y014018D01*
X007801Y013963D01*
X007767Y013910D01*
X007729Y013859D01*
X007689Y013810D01*
X007646Y013764D01*
X007600Y013721D01*
X007551Y013680D01*
X007500Y013643D01*
X007447Y013608D01*
X007392Y013577D01*
X007335Y013549D01*
X007277Y013525D01*
X007217Y013504D01*
X007214Y013513D01*
X007274Y013533D01*
X007331Y013557D01*
X007388Y013585D01*
X007442Y013616D01*
X007495Y013650D01*
X007545Y013687D01*
X007594Y013727D01*
X007639Y013770D01*
X007682Y013816D01*
X007722Y013864D01*
X007759Y013915D01*
X007793Y013967D01*
X007824Y014022D01*
X007852Y014078D01*
X007875Y014136D01*
X007896Y014196D01*
X007913Y014256D01*
X007926Y014317D01*
X007935Y014379D01*
X007941Y014442D01*
X007943Y014504D01*
X007941Y014567D01*
X007936Y014630D01*
X007926Y014692D01*
X007913Y014753D01*
X007896Y014813D01*
X007876Y014873D01*
X007852Y014931D01*
X007825Y014987D01*
X007794Y015042D01*
X007760Y015094D01*
X007723Y015145D01*
X007716Y015139D01*
X007753Y015089D01*
X007786Y015037D01*
X007817Y014983D01*
X007844Y014927D01*
X007867Y014869D01*
X007888Y014811D01*
X007904Y014751D01*
X007917Y014690D01*
X007927Y014628D01*
X007932Y014567D01*
X007934Y014504D01*
X007932Y014442D01*
X007926Y014380D01*
X007917Y014319D01*
X007904Y014258D01*
X007887Y014198D01*
X007867Y014140D01*
X007843Y014082D01*
X007816Y014026D01*
X007786Y013972D01*
X007752Y013920D01*
X007715Y013870D01*
X007675Y013822D01*
X007633Y013777D01*
X007588Y013734D01*
X007540Y013694D01*
X007490Y013657D01*
X007438Y013624D01*
X007384Y013593D01*
X007328Y013566D01*
X007270Y013542D01*
X007212Y013521D01*
X007209Y013530D01*
X007267Y013550D01*
X007324Y013574D01*
X007379Y013601D01*
X007433Y013631D01*
X007485Y013665D01*
X007534Y013701D01*
X007582Y013741D01*
X007626Y013783D01*
X007669Y013828D01*
X007708Y013875D01*
X007744Y013925D01*
X007778Y013977D01*
X007808Y014030D01*
X007835Y014086D01*
X007859Y014143D01*
X007879Y014201D01*
X007895Y014260D01*
X007908Y014321D01*
X007918Y014381D01*
X007923Y014443D01*
X007925Y014504D01*
X007923Y014566D01*
X007918Y014627D01*
X007908Y014688D01*
X007896Y014749D01*
X007879Y014808D01*
X007859Y014866D01*
X007836Y014923D01*
X007809Y014979D01*
X007779Y015032D01*
X007745Y015084D01*
X007709Y015134D01*
X006296Y017018D02*
X006307Y017033D01*
X006323Y017052D01*
X006341Y017068D01*
X006377Y017091D01*
X006416Y017105D01*
X006457Y017111D01*
X006536Y017109D01*
X006575Y017101D01*
X006610Y017084D01*
X006641Y017060D01*
X006660Y017038D01*
X006311Y017038D01*
X006307Y017033D02*
X006296Y017018D01*
X006291Y017012D01*
X006288Y017010D01*
X006284Y017009D01*
X006281Y017009D01*
X006281Y017096D01*
X006122Y017096D01*
X006122Y016477D01*
X006288Y016477D01*
X006288Y016819D01*
X006288Y016846D01*
X006291Y016878D01*
X006300Y016908D01*
X006315Y016936D01*
X006336Y016959D01*
X006355Y016972D01*
X006376Y016981D01*
X006399Y016984D01*
X006443Y016986D01*
X006456Y016985D01*
X006469Y016982D01*
X006487Y016973D01*
X006503Y016960D01*
X006515Y016944D01*
X006528Y016918D01*
X006536Y016890D01*
X006538Y016861D01*
X006538Y016481D01*
X006699Y016481D01*
X006699Y016896D01*
X006696Y016941D01*
X006686Y016984D01*
X006676Y017012D01*
X006660Y017038D01*
X006665Y017030D02*
X006305Y017030D01*
X006298Y017021D02*
X006670Y017021D01*
X006675Y017013D02*
X006291Y017013D01*
X006284Y017009D02*
X006281Y017009D01*
X006281Y017096D01*
X006122Y017096D01*
X006122Y016477D01*
X006288Y016477D01*
X006288Y016819D01*
X006288Y016816D02*
X006122Y016816D01*
X006122Y016808D02*
X006288Y016808D01*
X006288Y016799D02*
X006122Y016799D01*
X006122Y016790D02*
X006288Y016790D01*
X006288Y016782D02*
X006122Y016782D01*
X006122Y016773D02*
X006288Y016773D01*
X006288Y016765D02*
X006122Y016765D01*
X006122Y016756D02*
X006288Y016756D01*
X006288Y016748D02*
X006122Y016748D01*
X006122Y016739D02*
X006288Y016739D01*
X006288Y016731D02*
X006122Y016731D01*
X006122Y016722D02*
X006288Y016722D01*
X006288Y016714D02*
X006122Y016714D01*
X006122Y016705D02*
X006288Y016705D01*
X006288Y016696D02*
X006122Y016696D01*
X006122Y016688D02*
X006288Y016688D01*
X006288Y016679D02*
X006122Y016679D01*
X006122Y016671D02*
X006288Y016671D01*
X006288Y016662D02*
X006122Y016662D01*
X006122Y016654D02*
X006288Y016654D01*
X006288Y016645D02*
X006122Y016645D01*
X006122Y016637D02*
X006288Y016637D01*
X006288Y016628D02*
X006122Y016628D01*
X006122Y016620D02*
X006288Y016620D01*
X006288Y016611D02*
X006122Y016611D01*
X006122Y016603D02*
X006288Y016603D01*
X006288Y016594D02*
X006122Y016594D01*
X006122Y016585D02*
X006288Y016585D01*
X006288Y016577D02*
X006122Y016577D01*
X006122Y016568D02*
X006288Y016568D01*
X006288Y016560D02*
X006122Y016560D01*
X006122Y016551D02*
X006288Y016551D01*
X006288Y016543D02*
X006122Y016543D01*
X006122Y016534D02*
X006288Y016534D01*
X006288Y016526D02*
X006122Y016526D01*
X006122Y016517D02*
X006288Y016517D01*
X006288Y016509D02*
X006122Y016509D01*
X006122Y016500D02*
X006288Y016500D01*
X006288Y016491D02*
X006122Y016491D01*
X006122Y016483D02*
X006288Y016483D01*
X006457Y017111D02*
X006497Y017112D01*
X006536Y017110D01*
X006549Y017107D02*
X006426Y017107D01*
X006397Y017098D02*
X006581Y017098D01*
X006600Y017089D02*
X006375Y017089D01*
X006361Y017081D02*
X006615Y017081D01*
X006626Y017072D02*
X006348Y017072D01*
X006336Y017064D02*
X006636Y017064D01*
X006645Y017055D02*
X006327Y017055D01*
X006319Y017047D02*
X006653Y017047D01*
X006679Y017004D02*
X006122Y017004D01*
X006122Y016996D02*
X006682Y016996D01*
X006685Y016987D02*
X006122Y016987D01*
X006122Y016978D02*
X006371Y016978D01*
X006352Y016970D02*
X006122Y016970D01*
X006122Y016961D02*
X006339Y016961D01*
X006330Y016953D02*
X006122Y016953D01*
X006122Y016944D02*
X006323Y016944D01*
X006315Y016936D02*
X006122Y016936D01*
X006122Y016927D02*
X006310Y016927D01*
X006306Y016919D02*
X006122Y016919D01*
X006122Y016910D02*
X006301Y016910D01*
X006298Y016902D02*
X006122Y016902D01*
X006122Y016893D02*
X006296Y016893D01*
X006293Y016884D02*
X006122Y016884D01*
X006122Y016876D02*
X006291Y016876D01*
X006290Y016867D02*
X006122Y016867D01*
X006122Y016859D02*
X006289Y016859D01*
X006289Y016850D02*
X006122Y016850D01*
X006122Y016842D02*
X006288Y016842D01*
X006288Y016833D02*
X006122Y016833D01*
X006122Y016825D02*
X006288Y016825D01*
X006538Y016861D02*
X006537Y016883D01*
X006532Y016904D01*
X006525Y016924D01*
X006515Y016944D01*
X006695Y016944D01*
X006696Y016936D02*
X006519Y016936D01*
X006686Y016984D02*
X006679Y017005D01*
X006669Y017025D01*
X006656Y017044D01*
X006641Y017060D01*
X006687Y016978D02*
X006477Y016978D01*
X006491Y016970D02*
X006689Y016970D01*
X006691Y016961D02*
X006502Y016961D01*
X006509Y016953D02*
X006693Y016953D01*
X006697Y016927D02*
X006523Y016927D01*
X006528Y016919D02*
X006697Y016919D01*
X006698Y016910D02*
X006530Y016910D01*
X006532Y016902D02*
X006699Y016902D01*
X006699Y016896D02*
X006699Y016481D01*
X006538Y016481D01*
X006538Y016861D01*
X006538Y016859D02*
X006699Y016859D01*
X006699Y016867D02*
X006538Y016867D01*
X006537Y016876D02*
X006699Y016876D01*
X006699Y016884D02*
X006536Y016884D01*
X006535Y016893D02*
X006699Y016893D01*
X006699Y016850D02*
X006538Y016850D01*
X006538Y016842D02*
X006699Y016842D01*
X006699Y016833D02*
X006538Y016833D01*
X006538Y016825D02*
X006699Y016825D01*
X006699Y016816D02*
X006538Y016816D01*
X006538Y016808D02*
X006699Y016808D01*
X006699Y016799D02*
X006538Y016799D01*
X006538Y016790D02*
X006699Y016790D01*
X006699Y016782D02*
X006538Y016782D01*
X006538Y016773D02*
X006699Y016773D01*
X006699Y016765D02*
X006538Y016765D01*
X006538Y016756D02*
X006699Y016756D01*
X006699Y016748D02*
X006538Y016748D01*
X006538Y016739D02*
X006699Y016739D01*
X006699Y016731D02*
X006538Y016731D01*
X006538Y016722D02*
X006699Y016722D01*
X006699Y016714D02*
X006538Y016714D01*
X006538Y016705D02*
X006699Y016705D01*
X006699Y016696D02*
X006538Y016696D01*
X006538Y016688D02*
X006699Y016688D01*
X006699Y016679D02*
X006538Y016679D01*
X006538Y016671D02*
X006699Y016671D01*
X006699Y016662D02*
X006538Y016662D01*
X006538Y016654D02*
X006699Y016654D01*
X006699Y016645D02*
X006538Y016645D01*
X006538Y016637D02*
X006699Y016637D01*
X006699Y016628D02*
X006538Y016628D01*
X006538Y016620D02*
X006699Y016620D01*
X006699Y016611D02*
X006538Y016611D01*
X006538Y016603D02*
X006699Y016603D01*
X006699Y016594D02*
X006538Y016594D01*
X006538Y016585D02*
X006699Y016585D01*
X006699Y016577D02*
X006538Y016577D01*
X006538Y016568D02*
X006699Y016568D01*
X006699Y016560D02*
X006538Y016560D01*
X006538Y016551D02*
X006699Y016551D01*
X006699Y016543D02*
X006538Y016543D01*
X006538Y016534D02*
X006699Y016534D01*
X006699Y016526D02*
X006538Y016526D01*
X006538Y016517D02*
X006699Y016517D01*
X006699Y016509D02*
X006538Y016509D01*
X006538Y016500D02*
X006699Y016500D01*
X006699Y016491D02*
X006538Y016491D01*
X006538Y016483D02*
X006699Y016483D01*
X007058Y016645D02*
X007236Y016645D01*
X007242Y016637D02*
X007062Y016637D01*
X007066Y016628D02*
X007249Y016628D01*
X007248Y016629D02*
X007273Y016609D01*
X007302Y016595D01*
X007334Y016588D01*
X007366Y016586D01*
X007390Y016589D01*
X007413Y016596D01*
X007435Y016607D01*
X007453Y016621D01*
X007468Y016639D01*
X007481Y016663D01*
X007490Y016689D01*
X007494Y016716D01*
X007654Y016716D01*
X007654Y016714D01*
X007653Y016696D01*
X007649Y016677D01*
X007628Y016622D01*
X007596Y016573D01*
X007554Y016532D01*
X007505Y016499D01*
X007462Y016481D01*
X007417Y016470D01*
X007370Y016466D01*
X007308Y016470D01*
X007246Y016481D01*
X007204Y016495D01*
X007165Y016516D01*
X007129Y016543D01*
X007099Y016575D01*
X007072Y016615D01*
X007052Y016659D01*
X007039Y016705D01*
X007211Y016705D01*
X007209Y016714D02*
X007038Y016714D01*
X007037Y016722D02*
X007207Y016722D01*
X007205Y016731D02*
X007036Y016731D01*
X007035Y016739D02*
X007203Y016739D01*
X007202Y016744D02*
X007216Y016683D01*
X007229Y016654D01*
X007248Y016629D01*
X007260Y016620D02*
X007070Y016620D01*
X007075Y016611D02*
X007270Y016611D01*
X007286Y016603D02*
X007081Y016603D01*
X007087Y016594D02*
X007307Y016594D01*
X007229Y016654D02*
X007054Y016654D01*
X007051Y016662D02*
X007225Y016662D01*
X007222Y016671D02*
X007049Y016671D01*
X007046Y016679D02*
X007218Y016679D01*
X007215Y016688D02*
X007044Y016688D01*
X007041Y016696D02*
X007213Y016696D01*
X007202Y016744D02*
X007197Y016806D01*
X007201Y016852D01*
X007213Y016896D01*
X007234Y016938D01*
X007261Y016974D01*
X007276Y016986D01*
X007293Y016994D01*
X007326Y017001D01*
X007360Y017004D01*
X007394Y017001D01*
X007426Y016990D01*
X007447Y016978D01*
X007464Y016961D01*
X007476Y016941D01*
X007484Y016919D01*
X007487Y016895D01*
X007487Y016894D01*
X007652Y016894D01*
X007643Y016942D01*
X007626Y016987D01*
X007432Y016987D01*
X007446Y016978D02*
X007629Y016978D01*
X007632Y016970D02*
X007455Y016970D01*
X007464Y016961D02*
X007636Y016961D01*
X007639Y016953D02*
X007469Y016953D01*
X007475Y016944D02*
X007642Y016944D01*
X007644Y016936D02*
X007478Y016936D01*
X007481Y016927D02*
X007646Y016927D01*
X007647Y016919D02*
X007484Y016919D01*
X007485Y016910D02*
X007649Y016910D01*
X007651Y016902D02*
X007486Y016902D01*
X007410Y016996D02*
X007621Y016996D01*
X007616Y017004D02*
X007362Y017004D01*
X007358Y017004D02*
X007096Y017004D01*
X007090Y016996D02*
X007299Y016996D01*
X007277Y016987D02*
X007085Y016987D01*
X007079Y016978D02*
X007266Y016978D01*
X007258Y016970D02*
X007074Y016970D01*
X007071Y016965D02*
X007103Y017015D01*
X007145Y017058D01*
X007194Y017092D01*
X007249Y017116D01*
X007308Y017129D01*
X007369Y017130D01*
X007426Y017123D01*
X007481Y017110D01*
X007527Y017092D01*
X007567Y017065D01*
X007601Y017029D01*
X007626Y016987D01*
X007611Y017013D02*
X007102Y017013D01*
X007109Y017021D02*
X007606Y017021D01*
X007600Y017030D02*
X007118Y017030D01*
X007126Y017038D02*
X007592Y017038D01*
X007584Y017047D02*
X007134Y017047D01*
X007143Y017055D02*
X007576Y017055D01*
X007568Y017064D02*
X007154Y017064D01*
X007166Y017072D02*
X007556Y017072D01*
X007543Y017081D02*
X007178Y017081D01*
X007191Y017089D02*
X007531Y017089D01*
X007512Y017098D02*
X007208Y017098D01*
X007227Y017107D02*
X007490Y017107D01*
X007459Y017115D02*
X007247Y017115D01*
X007283Y017124D02*
X007419Y017124D01*
X007251Y016961D02*
X007069Y016961D01*
X007071Y016965D02*
X007048Y016910D01*
X007220Y016910D01*
X007216Y016902D02*
X007046Y016902D01*
X007048Y016910D02*
X007036Y016851D01*
X007033Y016753D01*
X007039Y016705D01*
X007034Y016748D02*
X007202Y016748D01*
X007201Y016756D02*
X007033Y016756D01*
X007034Y016765D02*
X007201Y016765D01*
X007200Y016773D02*
X007034Y016773D01*
X007034Y016782D02*
X007199Y016782D01*
X007198Y016790D02*
X007034Y016790D01*
X007035Y016799D02*
X007198Y016799D01*
X007197Y016808D02*
X007035Y016808D01*
X007035Y016816D02*
X007198Y016816D01*
X007199Y016825D02*
X007035Y016825D01*
X007036Y016833D02*
X007199Y016833D01*
X007200Y016842D02*
X007036Y016842D01*
X007036Y016850D02*
X007201Y016850D01*
X007203Y016859D02*
X007038Y016859D01*
X007039Y016867D02*
X007205Y016867D01*
X007208Y016876D02*
X007041Y016876D01*
X007043Y016884D02*
X007210Y016884D01*
X007212Y016893D02*
X007044Y016893D01*
X007051Y016919D02*
X007224Y016919D01*
X007228Y016927D02*
X007055Y016927D01*
X007058Y016936D02*
X007233Y016936D01*
X007239Y016944D02*
X007062Y016944D01*
X007065Y016953D02*
X007245Y016953D01*
X006288Y016846D02*
X006288Y016819D01*
X006700Y016896D02*
X006698Y016926D01*
X006694Y016956D01*
X006687Y016985D01*
X006640Y017059D02*
X006623Y017075D01*
X006603Y017088D01*
X006581Y017098D01*
X006559Y017105D01*
X006536Y017108D01*
X006340Y017068D02*
X006322Y017052D01*
X006306Y017033D01*
X006281Y017030D02*
X006122Y017030D01*
X006122Y017038D02*
X006281Y017038D01*
X006281Y017047D02*
X006122Y017047D01*
X006122Y017055D02*
X006281Y017055D01*
X006281Y017064D02*
X006122Y017064D01*
X006122Y017072D02*
X006281Y017072D01*
X006281Y017081D02*
X006122Y017081D01*
X006122Y017089D02*
X006281Y017089D01*
X006297Y017018D02*
X006292Y017012D01*
X006291Y017012D02*
X006288Y017010D01*
X006284Y017009D01*
X006281Y017013D02*
X006122Y017013D01*
X006122Y017021D02*
X006281Y017021D01*
X006337Y016959D02*
X006351Y016969D01*
X006366Y016977D01*
X006382Y016982D01*
X006400Y016984D01*
X006443Y016986D02*
X006456Y016985D01*
X006469Y016982D01*
X006458Y017111D02*
X006433Y017108D01*
X006408Y017102D01*
X006385Y017094D01*
X006362Y017082D01*
X006342Y017068D01*
X006469Y016982D02*
X006483Y016975D01*
X006496Y016967D01*
X006506Y016956D01*
X006515Y016944D01*
X006300Y016908D02*
X006294Y016888D01*
X006290Y016867D01*
X006288Y016846D01*
X006300Y016909D02*
X006309Y016928D01*
X006321Y016945D01*
X006336Y016960D01*
X006024Y016961D02*
X005858Y016961D01*
X005858Y016953D02*
X006024Y016953D01*
X006024Y016944D02*
X005858Y016944D01*
X005858Y016936D02*
X006024Y016936D01*
X006024Y016927D02*
X005858Y016927D01*
X005858Y016919D02*
X006024Y016919D01*
X006024Y016910D02*
X005858Y016910D01*
X005858Y016902D02*
X006024Y016902D01*
X006024Y016893D02*
X005858Y016893D01*
X005858Y016884D02*
X006024Y016884D01*
X006024Y016876D02*
X005858Y016876D01*
X005858Y016867D02*
X006024Y016867D01*
X006024Y016859D02*
X005858Y016859D01*
X005858Y016850D02*
X006024Y016850D01*
X006024Y016842D02*
X005858Y016842D01*
X005858Y016833D02*
X006024Y016833D01*
X006024Y016825D02*
X005858Y016825D01*
X005858Y016816D02*
X006024Y016816D01*
X006024Y016808D02*
X005858Y016808D01*
X005858Y016799D02*
X006024Y016799D01*
X006024Y016790D02*
X005858Y016790D01*
X005858Y016782D02*
X006024Y016782D01*
X006024Y016773D02*
X005858Y016773D01*
X005858Y016768D02*
X005855Y016719D01*
X005846Y016671D01*
X006024Y016671D01*
X006024Y016679D02*
X005848Y016679D01*
X005846Y016671D02*
X005838Y016649D01*
X005824Y016629D01*
X005806Y016612D01*
X005785Y016600D01*
X005757Y016592D01*
X005728Y016589D01*
X005698Y016592D01*
X005670Y016601D01*
X005654Y016611D01*
X005639Y016623D01*
X005628Y016638D01*
X005614Y016669D01*
X005608Y016703D01*
X005608Y017097D01*
X005445Y017097D01*
X005445Y016672D01*
X005449Y016629D01*
X005461Y016587D01*
X005480Y016548D01*
X005506Y016513D01*
X005516Y016504D01*
X005552Y016484D01*
X005590Y016470D01*
X005631Y016464D01*
X005690Y016465D01*
X005748Y016474D01*
X005758Y016477D01*
X005768Y016482D01*
X005805Y016508D01*
X005837Y016539D01*
X005865Y016574D01*
X005866Y016574D01*
X005866Y016480D01*
X006024Y016480D01*
X006024Y017095D01*
X005858Y017095D01*
X005858Y016768D01*
X005858Y016765D02*
X006024Y016765D01*
X006024Y016756D02*
X005857Y016756D01*
X005857Y016748D02*
X006024Y016748D01*
X006024Y016739D02*
X005856Y016739D01*
X005856Y016731D02*
X006024Y016731D01*
X006024Y016722D02*
X005855Y016722D01*
X005854Y016714D02*
X006024Y016714D01*
X006024Y016705D02*
X005852Y016705D01*
X005851Y016696D02*
X006024Y016696D01*
X006024Y016688D02*
X005849Y016688D01*
X005843Y016662D02*
X006024Y016662D01*
X006024Y016654D02*
X005840Y016654D01*
X005835Y016645D02*
X006024Y016645D01*
X006024Y016637D02*
X005830Y016637D01*
X005824Y016628D02*
X006024Y016628D01*
X006024Y016620D02*
X005814Y016620D01*
X005804Y016611D02*
X006024Y016611D01*
X006024Y016603D02*
X005789Y016603D01*
X005765Y016594D02*
X006024Y016594D01*
X006024Y016585D02*
X005462Y016585D01*
X005466Y016577D02*
X006024Y016577D01*
X006024Y016568D02*
X005866Y016568D01*
X005861Y016568D02*
X005470Y016568D01*
X005474Y016560D02*
X005854Y016560D01*
X005847Y016551D02*
X005479Y016551D01*
X005484Y016543D02*
X005840Y016543D01*
X005832Y016534D02*
X005490Y016534D01*
X005497Y016526D02*
X005823Y016526D01*
X005814Y016517D02*
X005503Y016517D01*
X005511Y016509D02*
X005805Y016509D01*
X005793Y016500D02*
X005523Y016500D01*
X005538Y016491D02*
X005781Y016491D01*
X005769Y016483D02*
X005553Y016483D01*
X005578Y016474D02*
X005749Y016474D01*
X005693Y016466D02*
X005620Y016466D01*
X005668Y016603D02*
X005457Y016603D01*
X005454Y016611D02*
X005653Y016611D01*
X005643Y016620D02*
X005452Y016620D01*
X005449Y016628D02*
X005636Y016628D01*
X005629Y016637D02*
X005448Y016637D01*
X005448Y016645D02*
X005625Y016645D01*
X005621Y016654D02*
X005447Y016654D01*
X005446Y016662D02*
X005617Y016662D01*
X005614Y016671D02*
X005445Y016671D01*
X005445Y016679D02*
X005612Y016679D01*
X005611Y016688D02*
X005445Y016688D01*
X005445Y016696D02*
X005609Y016696D01*
X005608Y016705D02*
X005445Y016705D01*
X005445Y016714D02*
X005608Y016714D01*
X005608Y016722D02*
X005445Y016722D01*
X005445Y016731D02*
X005608Y016731D01*
X005608Y016739D02*
X005445Y016739D01*
X005445Y016748D02*
X005608Y016748D01*
X005608Y016756D02*
X005445Y016756D01*
X005445Y016765D02*
X005608Y016765D01*
X005608Y016773D02*
X005445Y016773D01*
X005445Y016782D02*
X005608Y016782D01*
X005608Y016790D02*
X005445Y016790D01*
X005445Y016799D02*
X005608Y016799D01*
X005608Y016808D02*
X005445Y016808D01*
X005445Y016816D02*
X005608Y016816D01*
X005608Y016825D02*
X005445Y016825D01*
X005445Y016833D02*
X005608Y016833D01*
X005608Y016842D02*
X005445Y016842D01*
X005445Y016850D02*
X005608Y016850D01*
X005608Y016859D02*
X005445Y016859D01*
X005445Y016867D02*
X005608Y016867D01*
X005608Y016876D02*
X005445Y016876D01*
X005445Y016884D02*
X005608Y016884D01*
X005608Y016893D02*
X005445Y016893D01*
X005445Y016902D02*
X005608Y016902D01*
X005608Y016910D02*
X005445Y016910D01*
X005445Y016919D02*
X005608Y016919D01*
X005608Y016927D02*
X005445Y016927D01*
X005445Y016936D02*
X005608Y016936D01*
X005608Y016944D02*
X005445Y016944D01*
X005445Y016953D02*
X005608Y016953D01*
X005608Y016961D02*
X005445Y016961D01*
X005445Y016970D02*
X005608Y016970D01*
X005608Y016978D02*
X005445Y016978D01*
X005445Y016987D02*
X005608Y016987D01*
X005608Y016996D02*
X005445Y016996D01*
X005445Y017004D02*
X005608Y017004D01*
X005608Y017013D02*
X005445Y017013D01*
X005445Y017021D02*
X005608Y017021D01*
X005608Y017030D02*
X005445Y017030D01*
X005445Y017038D02*
X005608Y017038D01*
X005608Y017047D02*
X005445Y017047D01*
X005445Y017055D02*
X005608Y017055D01*
X005608Y017064D02*
X005445Y017064D01*
X005445Y017072D02*
X005608Y017072D01*
X005608Y017081D02*
X005445Y017081D01*
X005445Y017089D02*
X005608Y017089D01*
X005387Y017089D02*
X005047Y017089D01*
X005053Y017095D02*
X005107Y017095D01*
X005107Y017113D01*
X005114Y017197D01*
X005120Y017220D01*
X005130Y017240D01*
X005143Y017259D01*
X005172Y017287D01*
X005207Y017309D01*
X005244Y017323D01*
X005284Y017330D01*
X005345Y017330D01*
X005397Y017327D01*
X005398Y017327D01*
X005398Y017208D01*
X005395Y017208D01*
X005384Y017209D01*
X005348Y017213D01*
X005311Y017209D01*
X005117Y017209D01*
X005115Y017201D02*
X005293Y017201D01*
X005288Y017197D02*
X005280Y017187D01*
X005273Y017169D01*
X005270Y017150D01*
X005270Y017095D01*
X005314Y017095D01*
X005387Y017095D01*
X005387Y016990D01*
X005269Y016990D01*
X005269Y016477D01*
X005105Y016477D01*
X005105Y016981D01*
X005105Y016989D01*
X004948Y016990D01*
X005053Y017095D01*
X005039Y017081D02*
X005387Y017081D01*
X005387Y017072D02*
X005030Y017072D01*
X005022Y017064D02*
X005387Y017064D01*
X005387Y017055D02*
X005013Y017055D01*
X005005Y017047D02*
X005387Y017047D01*
X005387Y017038D02*
X004996Y017038D01*
X004988Y017030D02*
X005387Y017030D01*
X005387Y017021D02*
X004979Y017021D01*
X004971Y017013D02*
X005387Y017013D01*
X005387Y017004D02*
X004962Y017004D01*
X004953Y016996D02*
X005387Y016996D01*
X005269Y016987D02*
X005105Y016987D01*
X005105Y016978D02*
X005269Y016978D01*
X005269Y016970D02*
X005105Y016970D01*
X005105Y016961D02*
X005269Y016961D01*
X005269Y016953D02*
X005105Y016953D01*
X005105Y016944D02*
X005269Y016944D01*
X005269Y016936D02*
X005105Y016936D01*
X005105Y016927D02*
X005269Y016927D01*
X005269Y016919D02*
X005105Y016919D01*
X005105Y016910D02*
X005269Y016910D01*
X005269Y016902D02*
X005105Y016902D01*
X005105Y016893D02*
X005269Y016893D01*
X005269Y016884D02*
X005105Y016884D01*
X005105Y016876D02*
X005269Y016876D01*
X005269Y016867D02*
X005105Y016867D01*
X005105Y016859D02*
X005269Y016859D01*
X005269Y016850D02*
X005105Y016850D01*
X005105Y016842D02*
X005269Y016842D01*
X005269Y016833D02*
X005105Y016833D01*
X005105Y016825D02*
X005269Y016825D01*
X005269Y016816D02*
X005105Y016816D01*
X005105Y016808D02*
X005269Y016808D01*
X005269Y016799D02*
X005105Y016799D01*
X005105Y016790D02*
X005269Y016790D01*
X005269Y016782D02*
X005105Y016782D01*
X005105Y016773D02*
X005269Y016773D01*
X005269Y016765D02*
X005105Y016765D01*
X005105Y016756D02*
X005269Y016756D01*
X005269Y016748D02*
X005105Y016748D01*
X005105Y016739D02*
X005269Y016739D01*
X005269Y016731D02*
X005105Y016731D01*
X005105Y016722D02*
X005269Y016722D01*
X005269Y016714D02*
X005105Y016714D01*
X005105Y016705D02*
X005269Y016705D01*
X005269Y016696D02*
X005105Y016696D01*
X005105Y016688D02*
X005269Y016688D01*
X005269Y016679D02*
X005105Y016679D01*
X005105Y016671D02*
X005269Y016671D01*
X005269Y016662D02*
X005105Y016662D01*
X005105Y016654D02*
X005269Y016654D01*
X005269Y016645D02*
X005105Y016645D01*
X005105Y016637D02*
X005269Y016637D01*
X005269Y016628D02*
X005105Y016628D01*
X005105Y016620D02*
X005269Y016620D01*
X005269Y016611D02*
X005105Y016611D01*
X005105Y016603D02*
X005269Y016603D01*
X005269Y016594D02*
X005105Y016594D01*
X005105Y016585D02*
X005269Y016585D01*
X005269Y016577D02*
X005105Y016577D01*
X005105Y016568D02*
X005269Y016568D01*
X005269Y016560D02*
X005105Y016560D01*
X005105Y016551D02*
X005269Y016551D01*
X005269Y016543D02*
X005105Y016543D01*
X005105Y016534D02*
X005269Y016534D01*
X005269Y016526D02*
X005105Y016526D01*
X005105Y016517D02*
X005269Y016517D01*
X005269Y016509D02*
X005105Y016509D01*
X005105Y016500D02*
X005269Y016500D01*
X005269Y016491D02*
X005105Y016491D01*
X005105Y016483D02*
X005269Y016483D01*
X005459Y016594D02*
X005692Y016594D01*
X005866Y016560D02*
X006024Y016560D01*
X006024Y016551D02*
X005866Y016551D01*
X005866Y016543D02*
X006024Y016543D01*
X006024Y016534D02*
X005866Y016534D01*
X005866Y016526D02*
X006024Y016526D01*
X006024Y016517D02*
X005866Y016517D01*
X005866Y016509D02*
X006024Y016509D01*
X006024Y016500D02*
X005866Y016500D01*
X005866Y016491D02*
X006024Y016491D01*
X006024Y016483D02*
X005866Y016483D01*
X004992Y016479D02*
X004792Y016480D01*
X004624Y016757D01*
X004622Y016760D01*
X004551Y016691D01*
X004551Y016481D01*
X004551Y016476D01*
X004388Y016476D01*
X004386Y016478D01*
X004386Y017239D01*
X004549Y017332D01*
X004549Y016870D01*
X004773Y017094D01*
X004957Y017094D01*
X004730Y016872D01*
X004992Y016479D01*
X004990Y016483D02*
X004791Y016483D01*
X004785Y016491D02*
X004984Y016491D01*
X004978Y016500D02*
X004780Y016500D01*
X004775Y016509D02*
X004973Y016509D01*
X004967Y016517D02*
X004770Y016517D01*
X004765Y016526D02*
X004961Y016526D01*
X004956Y016534D02*
X004759Y016534D01*
X004754Y016543D02*
X004950Y016543D01*
X004944Y016551D02*
X004749Y016551D01*
X004744Y016560D02*
X004938Y016560D01*
X004933Y016568D02*
X004739Y016568D01*
X004734Y016577D02*
X004927Y016577D01*
X004921Y016585D02*
X004728Y016585D01*
X004723Y016594D02*
X004916Y016594D01*
X004910Y016603D02*
X004718Y016603D01*
X004713Y016611D02*
X004904Y016611D01*
X004899Y016620D02*
X004708Y016620D01*
X004702Y016628D02*
X004893Y016628D01*
X004887Y016637D02*
X004697Y016637D01*
X004692Y016645D02*
X004881Y016645D01*
X004876Y016654D02*
X004687Y016654D01*
X004682Y016662D02*
X004870Y016662D01*
X004864Y016671D02*
X004677Y016671D01*
X004671Y016679D02*
X004859Y016679D01*
X004853Y016688D02*
X004666Y016688D01*
X004661Y016696D02*
X004847Y016696D01*
X004842Y016705D02*
X004656Y016705D01*
X004651Y016714D02*
X004836Y016714D01*
X004830Y016722D02*
X004645Y016722D01*
X004640Y016731D02*
X004824Y016731D01*
X004819Y016739D02*
X004635Y016739D01*
X004630Y016748D02*
X004813Y016748D01*
X004807Y016756D02*
X004625Y016756D01*
X004618Y016756D02*
X004386Y016756D01*
X004386Y016748D02*
X004609Y016748D01*
X004601Y016739D02*
X004386Y016739D01*
X004386Y016731D02*
X004592Y016731D01*
X004583Y016722D02*
X004386Y016722D01*
X004386Y016714D02*
X004574Y016714D01*
X004565Y016705D02*
X004386Y016705D01*
X004386Y016696D02*
X004557Y016696D01*
X004551Y016688D02*
X004386Y016688D01*
X004386Y016679D02*
X004551Y016679D01*
X004551Y016671D02*
X004386Y016671D01*
X004386Y016662D02*
X004551Y016662D01*
X004551Y016654D02*
X004386Y016654D01*
X004386Y016645D02*
X004551Y016645D01*
X004551Y016637D02*
X004386Y016637D01*
X004386Y016628D02*
X004551Y016628D01*
X004551Y016620D02*
X004386Y016620D01*
X004386Y016611D02*
X004551Y016611D01*
X004551Y016603D02*
X004386Y016603D01*
X004386Y016594D02*
X004551Y016594D01*
X004551Y016585D02*
X004386Y016585D01*
X004386Y016577D02*
X004551Y016577D01*
X004551Y016568D02*
X004386Y016568D01*
X004386Y016560D02*
X004551Y016560D01*
X004551Y016551D02*
X004386Y016551D01*
X004386Y016543D02*
X004551Y016543D01*
X004551Y016534D02*
X004386Y016534D01*
X004386Y016526D02*
X004551Y016526D01*
X004551Y016517D02*
X004386Y016517D01*
X004386Y016509D02*
X004551Y016509D01*
X004551Y016500D02*
X004386Y016500D01*
X004386Y016491D02*
X004551Y016491D01*
X004551Y016483D02*
X004386Y016483D01*
X004083Y016483D02*
X003919Y016483D01*
X003919Y016481D02*
X004083Y016481D01*
X004083Y016789D01*
X004086Y016823D01*
X004094Y016856D01*
X004109Y016888D01*
X004130Y016916D01*
X004157Y016939D01*
X004177Y016950D01*
X004198Y016957D01*
X004220Y016961D01*
X004281Y016961D01*
X004305Y016956D01*
X004311Y016955D01*
X004312Y016955D01*
X004312Y017107D01*
X004258Y017110D01*
X004231Y017107D01*
X004204Y017098D01*
X004312Y017098D01*
X004312Y017089D02*
X004189Y017089D01*
X004180Y017084D02*
X004204Y017098D01*
X004230Y017107D02*
X004312Y017107D01*
X004312Y017081D02*
X004175Y017081D01*
X004180Y017084D02*
X004145Y017061D01*
X004130Y017049D01*
X004117Y017034D01*
X004090Y016993D01*
X004082Y016981D01*
X004076Y016979D01*
X004072Y016981D01*
X004072Y017094D01*
X003920Y017067D01*
X003919Y016481D01*
X003919Y016491D02*
X004083Y016491D01*
X004083Y016500D02*
X003919Y016500D01*
X003919Y016509D02*
X004083Y016509D01*
X004083Y016517D02*
X003919Y016517D01*
X003919Y016526D02*
X004083Y016526D01*
X004083Y016534D02*
X003919Y016534D01*
X003919Y016543D02*
X004083Y016543D01*
X004083Y016551D02*
X003919Y016551D01*
X003919Y016560D02*
X004083Y016560D01*
X004083Y016568D02*
X003919Y016568D01*
X003919Y016577D02*
X004083Y016577D01*
X004083Y016585D02*
X003919Y016585D01*
X003919Y016594D02*
X004083Y016594D01*
X004083Y016603D02*
X003919Y016603D01*
X003919Y016611D02*
X004083Y016611D01*
X004083Y016620D02*
X003919Y016620D01*
X003919Y016628D02*
X004083Y016628D01*
X004083Y016637D02*
X003919Y016637D01*
X003919Y016645D02*
X004083Y016645D01*
X004083Y016654D02*
X003919Y016654D01*
X003919Y016662D02*
X004083Y016662D01*
X004083Y016671D02*
X003919Y016671D01*
X003919Y016679D02*
X004083Y016679D01*
X004083Y016688D02*
X003919Y016688D01*
X003919Y016696D02*
X004083Y016696D01*
X004083Y016705D02*
X003919Y016705D01*
X003920Y016714D02*
X004083Y016714D01*
X004083Y016722D02*
X003920Y016722D01*
X003920Y016731D02*
X004083Y016731D01*
X004083Y016739D02*
X003920Y016739D01*
X003920Y016748D02*
X004083Y016748D01*
X004083Y016756D02*
X003920Y016756D01*
X003920Y016765D02*
X004083Y016765D01*
X004083Y016773D02*
X003920Y016773D01*
X003920Y016782D02*
X004083Y016782D01*
X004083Y016790D02*
X003920Y016790D01*
X003920Y016799D02*
X004084Y016799D01*
X004085Y016808D02*
X003920Y016808D01*
X003920Y016816D02*
X004086Y016816D01*
X004086Y016825D02*
X003920Y016825D01*
X003920Y016833D02*
X004089Y016833D01*
X004091Y016842D02*
X003920Y016842D01*
X003920Y016850D02*
X004093Y016850D01*
X004095Y016859D02*
X003920Y016859D01*
X003920Y016867D02*
X004099Y016867D01*
X004103Y016876D02*
X003920Y016876D01*
X003920Y016884D02*
X004107Y016884D01*
X004112Y016893D02*
X003920Y016893D01*
X003920Y016902D02*
X004119Y016902D01*
X004125Y016910D02*
X003920Y016910D01*
X003920Y016919D02*
X004133Y016919D01*
X004143Y016927D02*
X003920Y016927D01*
X003920Y016936D02*
X004153Y016936D01*
X004166Y016944D02*
X003920Y016944D01*
X003920Y016953D02*
X004185Y016953D01*
X004103Y017013D02*
X004312Y017013D01*
X004312Y017021D02*
X004109Y017021D01*
X004114Y017030D02*
X004312Y017030D01*
X004312Y017038D02*
X004120Y017038D01*
X004128Y017047D02*
X004312Y017047D01*
X004312Y017055D02*
X004137Y017055D01*
X004149Y017064D02*
X004312Y017064D01*
X004312Y017072D02*
X004162Y017072D01*
X004072Y017072D02*
X003949Y017072D01*
X003920Y017064D02*
X004072Y017064D01*
X004072Y017055D02*
X003920Y017055D01*
X003920Y017047D02*
X004072Y017047D01*
X004072Y017038D02*
X003920Y017038D01*
X003920Y017030D02*
X004072Y017030D01*
X004072Y017021D02*
X003920Y017021D01*
X003920Y017013D02*
X004072Y017013D01*
X004072Y017004D02*
X003920Y017004D01*
X003920Y016996D02*
X004072Y016996D01*
X004072Y016987D02*
X003920Y016987D01*
X003920Y016978D02*
X004312Y016978D01*
X004312Y016970D02*
X003920Y016970D01*
X003920Y016961D02*
X004312Y016961D01*
X004312Y016987D02*
X004086Y016987D01*
X004092Y016996D02*
X004312Y016996D01*
X004312Y017004D02*
X004097Y017004D01*
X004072Y017081D02*
X003997Y017081D01*
X004046Y017089D02*
X004072Y017089D01*
X003809Y016988D02*
X003798Y017015D01*
X003781Y017039D01*
X003759Y017058D01*
X003708Y017085D01*
X003652Y017102D01*
X003584Y017111D01*
X003515Y017112D01*
X003446Y017103D01*
X003398Y017090D01*
X003352Y017069D01*
X003320Y017047D01*
X003772Y017047D01*
X003762Y017055D02*
X003332Y017055D01*
X003320Y017047D02*
X003293Y017018D01*
X003273Y016984D01*
X003259Y016947D01*
X003254Y016908D01*
X003253Y016909D01*
X003418Y016909D01*
X003420Y016909D01*
X003420Y016911D01*
X003423Y016933D01*
X003430Y016954D01*
X003443Y016972D01*
X003459Y016987D01*
X003478Y016997D01*
X003501Y017004D01*
X003525Y017006D01*
X003579Y017004D01*
X003594Y017002D01*
X003609Y016996D01*
X003622Y016988D01*
X003633Y016978D01*
X003641Y016966D01*
X003647Y016953D01*
X003652Y016932D01*
X003652Y016910D01*
X003812Y016910D01*
X003812Y016902D02*
X003650Y016902D01*
X003652Y016910D02*
X003647Y016888D01*
X003645Y016883D01*
X003642Y016879D01*
X003630Y016868D01*
X003612Y016858D01*
X003593Y016851D01*
X003541Y016842D01*
X003454Y016833D01*
X003812Y016833D01*
X003812Y016825D02*
X003407Y016825D01*
X003394Y016822D02*
X003335Y016803D01*
X003308Y016789D01*
X003284Y016769D01*
X003264Y016745D01*
X003247Y016711D01*
X003239Y016674D01*
X003239Y016632D01*
X003246Y016591D01*
X003261Y016552D01*
X003273Y016533D01*
X003287Y016517D01*
X003623Y016517D01*
X003615Y016510D02*
X003648Y016538D01*
X003650Y016540D01*
X003653Y016540D01*
X003655Y016539D01*
X003657Y016538D01*
X003658Y016535D01*
X003667Y016494D01*
X003670Y016483D01*
X003671Y016482D01*
X003672Y016481D01*
X003674Y016481D01*
X003833Y016481D01*
X003830Y016489D01*
X003816Y016541D01*
X003812Y016594D01*
X003602Y016594D01*
X003598Y016590D02*
X003586Y016582D01*
X003572Y016577D01*
X003530Y016571D01*
X003469Y016573D01*
X003450Y016577D01*
X003432Y016586D01*
X003417Y016598D01*
X003409Y016609D01*
X003403Y016621D01*
X003400Y016634D01*
X003400Y016658D01*
X003404Y016682D01*
X003413Y016704D01*
X003422Y016717D01*
X003433Y016727D01*
X003453Y016739D01*
X003474Y016747D01*
X003496Y016751D01*
X003553Y016757D01*
X003592Y016764D01*
X003630Y016775D01*
X003638Y016779D01*
X003645Y016786D01*
X003650Y016793D01*
X003652Y016793D01*
X003652Y016769D01*
X003812Y016769D01*
X003812Y016959D01*
X003809Y016988D01*
X003809Y016987D02*
X003623Y016987D01*
X003633Y016978D02*
X003810Y016978D01*
X003811Y016970D02*
X003639Y016970D01*
X003644Y016961D02*
X003812Y016961D01*
X003812Y016953D02*
X003647Y016953D01*
X003649Y016944D02*
X003812Y016944D01*
X003812Y016936D02*
X003651Y016936D01*
X003652Y016927D02*
X003812Y016927D01*
X003812Y016919D02*
X003652Y016919D01*
X003648Y016893D02*
X003812Y016893D01*
X003812Y016884D02*
X003646Y016884D01*
X003639Y016876D02*
X003812Y016876D01*
X003812Y016867D02*
X003629Y016867D01*
X003614Y016859D02*
X003812Y016859D01*
X003812Y016850D02*
X003588Y016850D01*
X003537Y016842D02*
X003812Y016842D01*
X003812Y016816D02*
X003375Y016816D01*
X003394Y016822D02*
X003454Y016833D01*
X003420Y016910D02*
X003254Y016910D01*
X003256Y016919D02*
X003421Y016919D01*
X003422Y016927D02*
X003257Y016927D01*
X003258Y016936D02*
X003424Y016936D01*
X003427Y016944D02*
X003259Y016944D01*
X003261Y016953D02*
X003430Y016953D01*
X003436Y016961D02*
X003264Y016961D01*
X003268Y016970D02*
X003441Y016970D01*
X003450Y016978D02*
X003271Y016978D01*
X003274Y016987D02*
X003460Y016987D01*
X003475Y016996D02*
X003279Y016996D01*
X003285Y017004D02*
X003502Y017004D01*
X003580Y017004D02*
X003802Y017004D01*
X003799Y017013D02*
X003290Y017013D01*
X003296Y017021D02*
X003794Y017021D01*
X003788Y017030D02*
X003304Y017030D01*
X003312Y017038D02*
X003782Y017038D01*
X003749Y017064D02*
X003345Y017064D01*
X003359Y017072D02*
X003732Y017072D01*
X003716Y017081D02*
X003378Y017081D01*
X003397Y017089D02*
X003694Y017089D01*
X003666Y017098D02*
X003427Y017098D01*
X003474Y017107D02*
X003619Y017107D01*
X003610Y016996D02*
X003806Y016996D01*
X003812Y016808D02*
X003349Y016808D01*
X003327Y016799D02*
X003812Y016799D01*
X003812Y016790D02*
X003652Y016790D01*
X003648Y016790D02*
X003311Y016790D01*
X003299Y016782D02*
X003641Y016782D01*
X003652Y016782D02*
X003812Y016782D01*
X003812Y016773D02*
X003652Y016773D01*
X003652Y016765D02*
X003652Y016732D01*
X003649Y016689D01*
X003641Y016646D01*
X003639Y016639D01*
X003635Y016629D01*
X003628Y016619D01*
X003598Y016590D01*
X003591Y016585D02*
X003813Y016585D01*
X003814Y016577D02*
X003570Y016577D01*
X003611Y016603D02*
X003812Y016603D01*
X003812Y016611D02*
X003620Y016611D01*
X003628Y016620D02*
X003812Y016620D01*
X003812Y016628D02*
X003634Y016628D01*
X003638Y016637D02*
X003812Y016637D01*
X003812Y016645D02*
X003641Y016645D01*
X003643Y016654D02*
X003812Y016654D01*
X003813Y016662D02*
X003644Y016662D01*
X003646Y016671D02*
X003813Y016671D01*
X003813Y016679D02*
X003648Y016679D01*
X003649Y016688D02*
X003813Y016688D01*
X003813Y016696D02*
X003650Y016696D01*
X003650Y016705D02*
X003813Y016705D01*
X003813Y016714D02*
X003651Y016714D01*
X003652Y016722D02*
X003813Y016722D01*
X003813Y016731D02*
X003652Y016731D01*
X003652Y016739D02*
X003813Y016739D01*
X003813Y016748D02*
X003652Y016748D01*
X003652Y016756D02*
X003813Y016756D01*
X003813Y016765D02*
X003652Y016765D01*
X003813Y016765D01*
X003812Y016594D01*
X003814Y016568D02*
X003255Y016568D01*
X003258Y016560D02*
X003815Y016560D01*
X003815Y016551D02*
X003262Y016551D01*
X003267Y016543D02*
X003816Y016543D01*
X003818Y016534D02*
X003658Y016534D01*
X003660Y016526D02*
X003820Y016526D01*
X003823Y016517D02*
X003662Y016517D01*
X003664Y016509D02*
X003825Y016509D01*
X003827Y016500D02*
X003666Y016500D01*
X003668Y016491D02*
X003830Y016491D01*
X003833Y016483D02*
X003670Y016483D01*
X003633Y016526D02*
X003279Y016526D01*
X003272Y016534D02*
X003643Y016534D01*
X003615Y016510D02*
X003578Y016489D01*
X003537Y016475D01*
X003474Y016466D01*
X003468Y016466D01*
X003474Y016466D02*
X003409Y016467D01*
X003355Y016479D01*
X003305Y016503D01*
X003287Y016517D01*
X003298Y016509D02*
X003612Y016509D01*
X003597Y016500D02*
X003312Y016500D01*
X003330Y016491D02*
X003582Y016491D01*
X003560Y016483D02*
X003348Y016483D01*
X003377Y016474D02*
X003532Y016474D01*
X003452Y016577D02*
X003252Y016577D01*
X003249Y016585D02*
X003433Y016585D01*
X003422Y016594D02*
X003246Y016594D01*
X003244Y016603D02*
X003414Y016603D01*
X003408Y016611D02*
X003243Y016611D01*
X003241Y016620D02*
X003404Y016620D01*
X003402Y016628D02*
X003240Y016628D01*
X003239Y016637D02*
X003400Y016637D01*
X003400Y016645D02*
X003239Y016645D01*
X003239Y016654D02*
X003400Y016654D01*
X003400Y016662D02*
X003239Y016662D01*
X003239Y016671D02*
X003402Y016671D01*
X003404Y016679D02*
X003240Y016679D01*
X003242Y016688D02*
X003407Y016688D01*
X003410Y016696D02*
X003244Y016696D01*
X003246Y016705D02*
X003414Y016705D01*
X003420Y016714D02*
X003248Y016714D01*
X003253Y016722D02*
X003428Y016722D01*
X003439Y016731D02*
X003257Y016731D01*
X003261Y016739D02*
X003454Y016739D01*
X003478Y016748D02*
X003266Y016748D01*
X003273Y016756D02*
X003545Y016756D01*
X003595Y016765D02*
X003280Y016765D01*
X003289Y016773D02*
X003624Y016773D01*
X003177Y016794D02*
X003166Y016881D01*
X003139Y016964D01*
X003116Y017005D01*
X003085Y017040D01*
X003053Y017066D01*
X003017Y017087D01*
X002977Y017103D01*
X002934Y017110D01*
X002856Y017109D01*
X002837Y017105D01*
X002785Y017084D01*
X002770Y017075D01*
X002756Y017063D01*
X002721Y017025D01*
X002712Y017015D01*
X002710Y017016D01*
X002707Y017019D01*
X002708Y017098D01*
X002707Y017098D01*
X002708Y017098D02*
X002555Y017069D01*
X002555Y017066D01*
X002555Y016259D01*
X002718Y016112D01*
X002718Y016553D01*
X002718Y016675D01*
X002723Y016675D01*
X002725Y016675D01*
X002726Y016676D01*
X002726Y016678D01*
X002726Y016679D01*
X002717Y016706D01*
X002712Y016737D01*
X002711Y016838D01*
X002716Y016871D01*
X002726Y016903D01*
X002743Y016931D01*
X002767Y016959D01*
X002796Y016981D01*
X002811Y016988D01*
X002826Y016991D01*
X002869Y016993D01*
X002892Y016991D01*
X002915Y016985D01*
X002935Y016974D01*
X002966Y016949D01*
X002990Y016917D01*
X003006Y016880D01*
X003014Y016841D01*
X003014Y016763D01*
X003002Y016685D01*
X002990Y016654D01*
X003160Y016654D01*
X003159Y016653D02*
X003138Y016602D01*
X003107Y016555D01*
X003081Y016527D01*
X003051Y016504D01*
X003017Y016487D01*
X002981Y016475D01*
X002933Y016468D01*
X002885Y016467D01*
X002837Y016473D01*
X002804Y016484D01*
X002774Y016501D01*
X002748Y016524D01*
X002727Y016552D01*
X002727Y016669D01*
X002730Y016672D01*
X002730Y016670D01*
X002731Y016666D01*
X002733Y016663D01*
X002735Y016660D01*
X002747Y016637D01*
X002764Y016618D01*
X002785Y016603D01*
X002813Y016591D01*
X002842Y016585D01*
X002879Y016585D01*
X002915Y016592D01*
X002945Y016606D01*
X002971Y016627D01*
X002990Y016654D01*
X002993Y016662D02*
X003162Y016662D01*
X003164Y016671D02*
X002997Y016671D01*
X003000Y016679D02*
X003166Y016679D01*
X003168Y016688D02*
X003003Y016688D01*
X003004Y016696D02*
X003170Y016696D01*
X003172Y016705D02*
X003005Y016705D01*
X003007Y016714D02*
X003173Y016714D01*
X003172Y016707D02*
X003159Y016653D01*
X003156Y016645D02*
X002984Y016645D01*
X002978Y016637D02*
X003152Y016637D01*
X003149Y016628D02*
X002972Y016628D01*
X002962Y016620D02*
X003145Y016620D01*
X003142Y016611D02*
X002951Y016611D01*
X002938Y016603D02*
X003138Y016603D01*
X003132Y016594D02*
X002919Y016594D01*
X002881Y016585D02*
X003127Y016585D01*
X003121Y016577D02*
X002727Y016577D01*
X002727Y016585D02*
X002841Y016585D01*
X002807Y016594D02*
X002727Y016594D01*
X002727Y016603D02*
X002787Y016603D01*
X002774Y016611D02*
X002727Y016611D01*
X002727Y016620D02*
X002763Y016620D01*
X002755Y016628D02*
X002727Y016628D01*
X002727Y016637D02*
X002748Y016637D01*
X002743Y016645D02*
X002727Y016645D01*
X002727Y016654D02*
X002739Y016654D01*
X002734Y016662D02*
X002727Y016662D01*
X002718Y016662D02*
X002555Y016662D01*
X002555Y016654D02*
X002718Y016654D01*
X002718Y016645D02*
X002555Y016645D01*
X002555Y016637D02*
X002718Y016637D01*
X002718Y016628D02*
X002555Y016628D01*
X002555Y016620D02*
X002718Y016620D01*
X002718Y016611D02*
X002555Y016611D01*
X002555Y016603D02*
X002718Y016603D01*
X002718Y016594D02*
X002555Y016594D01*
X002555Y016585D02*
X002718Y016585D01*
X002718Y016577D02*
X002555Y016577D01*
X002555Y016568D02*
X002718Y016568D01*
X002718Y016560D02*
X002555Y016560D01*
X002555Y016551D02*
X002718Y016551D01*
X002718Y016543D02*
X002555Y016543D01*
X002555Y016534D02*
X002718Y016534D01*
X002718Y016526D02*
X002555Y016526D01*
X002555Y016517D02*
X002718Y016517D01*
X002718Y016509D02*
X002555Y016509D01*
X002555Y016500D02*
X002718Y016500D01*
X002718Y016491D02*
X002555Y016491D01*
X002555Y016483D02*
X002718Y016483D01*
X002718Y016474D02*
X002555Y016474D01*
X002555Y016466D02*
X002718Y016466D01*
X002718Y016457D02*
X002555Y016457D01*
X002555Y016449D02*
X002718Y016449D01*
X002718Y016440D02*
X002555Y016440D01*
X002555Y016432D02*
X002718Y016432D01*
X002718Y016423D02*
X002555Y016423D01*
X002555Y016415D02*
X002718Y016415D01*
X002718Y016406D02*
X002555Y016406D01*
X002555Y016397D02*
X002718Y016397D01*
X002718Y016389D02*
X002555Y016389D01*
X002555Y016380D02*
X002718Y016380D01*
X002718Y016372D02*
X002555Y016372D01*
X002555Y016363D02*
X002718Y016363D01*
X002718Y016355D02*
X002555Y016355D01*
X002555Y016346D02*
X002718Y016346D01*
X002718Y016338D02*
X002555Y016338D01*
X002555Y016329D02*
X002718Y016329D01*
X002718Y016321D02*
X002555Y016321D01*
X002555Y016312D02*
X002718Y016312D01*
X002718Y016304D02*
X002555Y016304D01*
X002555Y016295D02*
X002718Y016295D01*
X002718Y016286D02*
X002555Y016286D01*
X002555Y016278D02*
X002718Y016278D01*
X002718Y016269D02*
X002555Y016269D01*
X002555Y016261D02*
X002718Y016261D01*
X002718Y016252D02*
X002563Y016252D01*
X002572Y016244D02*
X002718Y016244D01*
X002718Y016235D02*
X002582Y016235D01*
X002591Y016227D02*
X002718Y016227D01*
X002718Y016218D02*
X002601Y016218D01*
X002610Y016210D02*
X002718Y016210D01*
X002718Y016201D02*
X002620Y016201D01*
X002629Y016192D02*
X002718Y016192D01*
X002718Y016184D02*
X002639Y016184D01*
X002648Y016175D02*
X002718Y016175D01*
X002718Y016167D02*
X002658Y016167D01*
X002667Y016158D02*
X002718Y016158D01*
X002718Y016150D02*
X002677Y016150D01*
X002686Y016141D02*
X002718Y016141D01*
X002718Y016133D02*
X002696Y016133D01*
X002705Y016124D02*
X002718Y016124D01*
X002714Y016116D02*
X002718Y016116D01*
X002833Y016474D02*
X002976Y016474D01*
X003005Y016483D02*
X002806Y016483D01*
X002790Y016491D02*
X003026Y016491D01*
X003043Y016500D02*
X002775Y016500D01*
X002765Y016509D02*
X003057Y016509D01*
X003068Y016517D02*
X002755Y016517D01*
X002746Y016526D02*
X003079Y016526D01*
X003088Y016534D02*
X002740Y016534D01*
X002734Y016543D02*
X003096Y016543D01*
X003104Y016551D02*
X002728Y016551D01*
X002727Y016560D02*
X003110Y016560D01*
X003116Y016568D02*
X002727Y016568D01*
X002729Y016671D02*
X002730Y016671D01*
X002726Y016679D02*
X002555Y016679D01*
X002555Y016671D02*
X002718Y016671D01*
X002723Y016688D02*
X002555Y016688D01*
X002555Y016696D02*
X002720Y016696D01*
X002718Y016705D02*
X002555Y016705D01*
X002555Y016714D02*
X002716Y016714D01*
X002715Y016722D02*
X002555Y016722D01*
X002555Y016731D02*
X002713Y016731D01*
X002712Y016739D02*
X002555Y016739D01*
X002555Y016748D02*
X002712Y016748D01*
X002712Y016756D02*
X002555Y016756D01*
X002555Y016765D02*
X002712Y016765D01*
X002712Y016773D02*
X002555Y016773D01*
X002555Y016782D02*
X002712Y016782D01*
X002712Y016790D02*
X002555Y016790D01*
X002555Y016799D02*
X002712Y016799D01*
X002711Y016808D02*
X002555Y016808D01*
X002555Y016816D02*
X002711Y016816D01*
X002711Y016825D02*
X002555Y016825D01*
X002555Y016833D02*
X002711Y016833D01*
X002712Y016842D02*
X002555Y016842D01*
X002555Y016850D02*
X002713Y016850D01*
X002714Y016859D02*
X002555Y016859D01*
X002555Y016867D02*
X002715Y016867D01*
X002717Y016876D02*
X002555Y016876D01*
X002555Y016884D02*
X002720Y016884D01*
X002723Y016893D02*
X002555Y016893D01*
X002555Y016902D02*
X002726Y016902D01*
X002731Y016910D02*
X002555Y016910D01*
X002555Y016919D02*
X002736Y016919D01*
X002741Y016927D02*
X002555Y016927D01*
X002555Y016936D02*
X002747Y016936D01*
X002755Y016944D02*
X002555Y016944D01*
X002555Y016953D02*
X002762Y016953D01*
X002771Y016961D02*
X002555Y016961D01*
X002555Y016970D02*
X002782Y016970D01*
X002793Y016978D02*
X002555Y016978D01*
X002555Y016987D02*
X002808Y016987D01*
X002741Y017047D02*
X003077Y017047D01*
X003087Y017038D02*
X002733Y017038D01*
X002725Y017030D02*
X003094Y017030D01*
X003102Y017021D02*
X002717Y017021D01*
X002707Y017021D02*
X002555Y017021D01*
X002555Y017013D02*
X003110Y017013D01*
X003117Y017004D02*
X002555Y017004D01*
X002555Y016996D02*
X003122Y016996D01*
X003126Y016987D02*
X002907Y016987D01*
X002927Y016978D02*
X003131Y016978D01*
X003136Y016970D02*
X002940Y016970D01*
X002951Y016961D02*
X003140Y016961D01*
X003143Y016953D02*
X002961Y016953D01*
X002969Y016944D02*
X003145Y016944D01*
X003148Y016936D02*
X002976Y016936D01*
X002982Y016927D02*
X003151Y016927D01*
X003154Y016919D02*
X002989Y016919D01*
X002993Y016910D02*
X003156Y016910D01*
X003159Y016902D02*
X002997Y016902D01*
X003001Y016893D02*
X003162Y016893D01*
X003165Y016884D02*
X003005Y016884D01*
X003007Y016876D02*
X003166Y016876D01*
X003167Y016867D02*
X003009Y016867D01*
X003011Y016859D02*
X003169Y016859D01*
X003170Y016850D02*
X003012Y016850D01*
X003014Y016842D02*
X003171Y016842D01*
X003172Y016833D02*
X003014Y016833D01*
X003014Y016825D02*
X003173Y016825D01*
X003174Y016816D02*
X003014Y016816D01*
X003014Y016808D02*
X003175Y016808D01*
X003176Y016799D02*
X003014Y016799D01*
X003014Y016790D02*
X003177Y016790D01*
X003177Y016794D02*
X003172Y016707D01*
X003173Y016722D02*
X003008Y016722D01*
X003009Y016731D02*
X003173Y016731D01*
X003174Y016739D02*
X003011Y016739D01*
X003012Y016748D02*
X003174Y016748D01*
X003175Y016756D02*
X003013Y016756D01*
X003014Y016765D02*
X003175Y016765D01*
X003176Y016773D02*
X003014Y016773D01*
X003014Y016782D02*
X003176Y016782D01*
X003066Y017055D02*
X002749Y017055D01*
X002757Y017064D02*
X003055Y017064D01*
X003042Y017072D02*
X002767Y017072D01*
X002780Y017081D02*
X003028Y017081D01*
X003011Y017089D02*
X002798Y017089D01*
X002819Y017098D02*
X002989Y017098D01*
X002955Y017107D02*
X002844Y017107D01*
X002708Y017089D02*
X002662Y017089D01*
X002617Y017081D02*
X002708Y017081D01*
X002708Y017072D02*
X002572Y017072D01*
X002555Y017064D02*
X002708Y017064D01*
X002708Y017055D02*
X002555Y017055D01*
X002555Y017047D02*
X002708Y017047D01*
X002707Y017038D02*
X002555Y017038D01*
X002555Y017030D02*
X002707Y017030D01*
X002455Y016954D02*
X002436Y016940D01*
X002359Y016997D01*
X002193Y017050D01*
X002044Y017005D01*
X002063Y016897D01*
X002388Y016708D01*
X002395Y016694D01*
X002351Y016563D01*
X002189Y016527D01*
X001908Y016675D01*
X002060Y016675D01*
X002060Y016673D01*
X002061Y016653D01*
X002067Y016634D01*
X002078Y016616D01*
X002096Y016598D01*
X002118Y016584D01*
X002142Y016575D01*
X002165Y016572D01*
X002218Y016572D01*
X002243Y016575D01*
X002266Y016583D01*
X002287Y016596D01*
X002299Y016608D01*
X002308Y016623D01*
X002313Y016639D01*
X002314Y016656D01*
X002310Y016673D01*
X002303Y016689D01*
X002291Y016701D01*
X002277Y016711D01*
X002233Y016730D01*
X002186Y016742D01*
X002043Y016776D01*
X002011Y016788D01*
X001982Y016805D01*
X001955Y016826D01*
X001942Y016841D01*
X001932Y016859D01*
X001926Y016878D01*
X001922Y016923D01*
X001927Y016968D01*
X001941Y017010D01*
X001953Y017031D01*
X001968Y017049D01*
X001987Y017063D01*
X002038Y017089D01*
X002092Y017105D01*
X002148Y017111D01*
X002219Y017111D01*
X002274Y017106D01*
X002327Y017091D01*
X002370Y017070D01*
X002408Y017040D01*
X002422Y017025D01*
X002433Y017007D01*
X002447Y016976D01*
X002455Y016954D01*
X002453Y016953D02*
X002419Y016953D01*
X002408Y016961D02*
X002453Y016961D01*
X002453Y016953D02*
X002298Y016953D01*
X002296Y016959D02*
X002302Y016944D01*
X002456Y016944D01*
X002455Y016951D02*
X002374Y017002D01*
X002195Y017054D01*
X002030Y017011D01*
X002051Y016891D01*
X002224Y016788D01*
X002391Y016697D01*
X002348Y016569D01*
X002193Y016534D01*
X001908Y016675D01*
X001909Y016661D01*
X001913Y016638D01*
X001930Y016588D01*
X001942Y016565D01*
X001959Y016544D01*
X001979Y016527D01*
X002026Y016497D01*
X002060Y016482D01*
X002096Y016473D01*
X002197Y016466D01*
X002249Y016468D01*
X002301Y016475D01*
X002341Y016486D01*
X002377Y016504D01*
X002411Y016528D01*
X002439Y016557D01*
X002454Y016579D01*
X002465Y016604D01*
X002470Y016630D01*
X002473Y016671D01*
X002382Y016671D01*
X002387Y016671D02*
X002311Y016671D01*
X002313Y016662D02*
X002384Y016662D01*
X002379Y016662D02*
X002472Y016662D01*
X002472Y016654D02*
X002377Y016654D01*
X002382Y016654D02*
X002314Y016654D01*
X002313Y016645D02*
X002379Y016645D01*
X002374Y016645D02*
X002471Y016645D01*
X002471Y016637D02*
X002371Y016637D01*
X002376Y016637D02*
X002312Y016637D01*
X002310Y016628D02*
X002373Y016628D01*
X002368Y016628D02*
X002470Y016628D01*
X002468Y016620D02*
X002365Y016620D01*
X002370Y016620D02*
X002306Y016620D01*
X002301Y016611D02*
X002367Y016611D01*
X002362Y016611D02*
X002466Y016611D01*
X002464Y016603D02*
X002359Y016603D01*
X002364Y016603D02*
X002294Y016603D01*
X002284Y016594D02*
X002361Y016594D01*
X002356Y016594D02*
X002460Y016594D01*
X002457Y016585D02*
X002354Y016585D01*
X002359Y016585D02*
X002269Y016585D01*
X002247Y016577D02*
X002356Y016577D01*
X002351Y016577D02*
X002452Y016577D01*
X002447Y016568D02*
X002344Y016568D01*
X002353Y016568D02*
X002111Y016568D01*
X002107Y016577D02*
X001936Y016577D01*
X001932Y016585D02*
X002090Y016585D01*
X002095Y016577D02*
X002138Y016577D01*
X002124Y016568D02*
X001940Y016568D01*
X001946Y016560D02*
X002141Y016560D01*
X002143Y016551D02*
X002297Y016551D01*
X002306Y016560D02*
X002441Y016560D01*
X002433Y016551D02*
X002269Y016551D01*
X002259Y016543D02*
X002160Y016543D01*
X002159Y016551D02*
X001953Y016551D01*
X001961Y016543D02*
X002176Y016543D01*
X002176Y016534D02*
X002220Y016534D01*
X002231Y016543D02*
X002425Y016543D01*
X002417Y016534D02*
X001971Y016534D01*
X001982Y016526D02*
X002407Y016526D01*
X002395Y016517D02*
X001995Y016517D01*
X002008Y016509D02*
X002384Y016509D01*
X002369Y016500D02*
X002022Y016500D01*
X002039Y016491D02*
X002351Y016491D01*
X002328Y016483D02*
X002057Y016483D01*
X002091Y016474D02*
X002295Y016474D01*
X002336Y016560D02*
X002127Y016560D01*
X002116Y016585D02*
X002079Y016585D01*
X002072Y016594D02*
X001928Y016594D01*
X001925Y016603D02*
X002055Y016603D01*
X002046Y016603D02*
X002092Y016603D01*
X002083Y016611D02*
X002030Y016611D01*
X002038Y016611D02*
X001922Y016611D01*
X001919Y016620D02*
X002021Y016620D01*
X002014Y016620D02*
X002076Y016620D01*
X002071Y016628D02*
X001997Y016628D01*
X002003Y016628D02*
X001917Y016628D01*
X001914Y016637D02*
X001986Y016637D01*
X001981Y016637D02*
X002066Y016637D01*
X002064Y016645D02*
X001965Y016645D01*
X001969Y016645D02*
X001912Y016645D01*
X001910Y016654D02*
X001951Y016654D01*
X001949Y016654D02*
X002061Y016654D01*
X002061Y016662D02*
X001933Y016662D01*
X001934Y016662D02*
X001909Y016662D01*
X001908Y016671D02*
X001917Y016671D01*
X001916Y016671D02*
X002060Y016671D01*
X002062Y016594D02*
X002103Y016594D01*
X002127Y016756D02*
X002305Y016756D01*
X002298Y016748D02*
X002458Y016748D01*
X002456Y016752D02*
X002446Y016768D01*
X002433Y016782D01*
X002406Y016802D01*
X002376Y016818D01*
X002311Y016842D01*
X002243Y016857D01*
X002163Y016873D01*
X002133Y016884D01*
X002105Y016901D01*
X002093Y016914D01*
X002085Y016929D01*
X002082Y016945D01*
X002084Y016961D01*
X002039Y016961D01*
X002040Y016953D02*
X002083Y016953D01*
X002084Y016961D02*
X002091Y016976D01*
X002101Y016988D01*
X002114Y016996D01*
X002132Y017003D01*
X002150Y017006D01*
X002184Y017008D01*
X002218Y017006D01*
X002238Y017002D01*
X002258Y016994D01*
X002275Y016983D01*
X002287Y016972D01*
X002296Y016959D01*
X002294Y016961D02*
X002439Y016961D01*
X002449Y016970D02*
X002396Y016970D01*
X002384Y016978D02*
X002446Y016978D01*
X002442Y016987D02*
X002373Y016987D01*
X002361Y016996D02*
X002438Y016996D01*
X002435Y017004D02*
X002338Y017004D01*
X002338Y017013D02*
X002036Y017013D01*
X002031Y017004D02*
X002139Y017004D01*
X002113Y016996D02*
X002033Y016996D01*
X002034Y016987D02*
X002101Y016987D01*
X002093Y016978D02*
X002036Y016978D01*
X002037Y016970D02*
X002088Y016970D01*
X002083Y016944D02*
X002042Y016944D01*
X002043Y016936D02*
X002084Y016936D01*
X002086Y016927D02*
X002045Y016927D01*
X002046Y016919D02*
X002091Y016919D01*
X002097Y016910D02*
X002048Y016910D01*
X002049Y016902D02*
X002105Y016902D01*
X002118Y016893D02*
X002051Y016893D01*
X002062Y016902D02*
X001924Y016902D01*
X001923Y016910D02*
X002061Y016910D01*
X002059Y016919D02*
X001922Y016919D01*
X001922Y016927D02*
X002058Y016927D01*
X002056Y016936D02*
X001923Y016936D01*
X001924Y016944D02*
X002055Y016944D01*
X002053Y016953D02*
X001925Y016953D01*
X001926Y016961D02*
X002052Y016961D01*
X002050Y016970D02*
X001928Y016970D01*
X001931Y016978D02*
X002049Y016978D01*
X002047Y016987D02*
X001933Y016987D01*
X001936Y016996D02*
X002046Y016996D01*
X002044Y017004D02*
X001939Y017004D01*
X001943Y017013D02*
X002069Y017013D01*
X002068Y017021D02*
X002309Y017021D01*
X002311Y017013D02*
X002430Y017013D01*
X002424Y017021D02*
X002284Y017021D01*
X002280Y017030D02*
X002101Y017030D01*
X002097Y017021D02*
X001947Y017021D01*
X001952Y017030D02*
X002125Y017030D01*
X002134Y017038D02*
X002250Y017038D01*
X002257Y017030D02*
X002417Y017030D01*
X002410Y017038D02*
X002231Y017038D01*
X002221Y017047D02*
X002167Y017047D01*
X002182Y017047D02*
X001967Y017047D01*
X001959Y017038D02*
X002154Y017038D01*
X002204Y017047D02*
X002400Y017047D01*
X002389Y017055D02*
X001977Y017055D01*
X001989Y017064D02*
X002378Y017064D01*
X002365Y017072D02*
X002005Y017072D01*
X002022Y017081D02*
X002348Y017081D01*
X002331Y017089D02*
X002040Y017089D01*
X002068Y017098D02*
X002302Y017098D01*
X002265Y017107D02*
X002106Y017107D01*
X002229Y017004D02*
X002368Y017004D01*
X002385Y016996D02*
X002255Y016996D01*
X002269Y016987D02*
X002398Y016987D01*
X002412Y016978D02*
X002280Y016978D01*
X002288Y016970D02*
X002425Y016970D01*
X002431Y016944D02*
X002442Y016944D01*
X002455Y016951D02*
X002458Y016923D01*
X002305Y016923D01*
X002304Y016934D01*
X002302Y016944D01*
X002304Y016936D02*
X002457Y016936D01*
X002458Y016927D02*
X002305Y016927D01*
X002274Y016850D02*
X002120Y016850D01*
X002129Y016859D02*
X001932Y016859D01*
X001929Y016867D02*
X002114Y016867D01*
X002105Y016859D02*
X002235Y016859D01*
X002192Y016867D02*
X002091Y016867D01*
X002100Y016876D02*
X001927Y016876D01*
X001926Y016884D02*
X002085Y016884D01*
X002077Y016876D02*
X002156Y016876D01*
X002132Y016884D02*
X002062Y016884D01*
X002070Y016893D02*
X001925Y016893D01*
X001937Y016850D02*
X002144Y016850D01*
X002134Y016842D02*
X002312Y016842D01*
X002335Y016833D02*
X002149Y016833D01*
X002159Y016842D02*
X001942Y016842D01*
X001949Y016833D02*
X002173Y016833D01*
X002163Y016825D02*
X002359Y016825D01*
X002380Y016816D02*
X002177Y016816D01*
X002188Y016825D02*
X001957Y016825D01*
X001968Y016816D02*
X002203Y016816D01*
X002192Y016808D02*
X002396Y016808D01*
X002410Y016799D02*
X002206Y016799D01*
X002217Y016808D02*
X001979Y016808D01*
X001992Y016799D02*
X002232Y016799D01*
X002220Y016790D02*
X002422Y016790D01*
X002433Y016782D02*
X002236Y016782D01*
X002247Y016790D02*
X002007Y016790D01*
X002028Y016782D02*
X002261Y016782D01*
X002251Y016773D02*
X002442Y016773D01*
X002448Y016765D02*
X002267Y016765D01*
X002276Y016773D02*
X002055Y016773D01*
X002091Y016765D02*
X002291Y016765D01*
X002283Y016756D02*
X002454Y016756D01*
X002456Y016752D02*
X002469Y016713D01*
X002473Y016671D01*
X002472Y016679D02*
X002385Y016679D01*
X002390Y016679D02*
X002307Y016679D01*
X002303Y016688D02*
X002393Y016688D01*
X002388Y016688D02*
X002472Y016688D01*
X002471Y016696D02*
X002391Y016696D01*
X002394Y016696D02*
X002296Y016696D01*
X002286Y016705D02*
X002390Y016705D01*
X002377Y016705D02*
X002470Y016705D01*
X002469Y016714D02*
X002361Y016714D01*
X002364Y016722D02*
X002251Y016722D01*
X002271Y016714D02*
X002379Y016714D01*
X002350Y016731D02*
X002230Y016731D01*
X002198Y016739D02*
X002335Y016739D01*
X002330Y016731D02*
X002463Y016731D01*
X002461Y016739D02*
X002314Y016739D01*
X002320Y016748D02*
X002163Y016748D01*
X002345Y016722D02*
X002466Y016722D01*
X004386Y016765D02*
X004802Y016765D01*
X004796Y016773D02*
X004386Y016773D01*
X004386Y016782D02*
X004790Y016782D01*
X004785Y016790D02*
X004386Y016790D01*
X004386Y016799D02*
X004779Y016799D01*
X004773Y016808D02*
X004386Y016808D01*
X004386Y016816D02*
X004768Y016816D01*
X004762Y016825D02*
X004386Y016825D01*
X004386Y016833D02*
X004756Y016833D01*
X004750Y016842D02*
X004386Y016842D01*
X004386Y016850D02*
X004745Y016850D01*
X004739Y016859D02*
X004386Y016859D01*
X004386Y016867D02*
X004733Y016867D01*
X004734Y016876D02*
X004555Y016876D01*
X004549Y016876D02*
X004386Y016876D01*
X004386Y016884D02*
X004549Y016884D01*
X004549Y016893D02*
X004386Y016893D01*
X004386Y016902D02*
X004549Y016902D01*
X004549Y016910D02*
X004386Y016910D01*
X004386Y016919D02*
X004549Y016919D01*
X004549Y016927D02*
X004386Y016927D01*
X004386Y016936D02*
X004549Y016936D01*
X004549Y016944D02*
X004386Y016944D01*
X004386Y016953D02*
X004549Y016953D01*
X004549Y016961D02*
X004386Y016961D01*
X004386Y016970D02*
X004549Y016970D01*
X004549Y016978D02*
X004386Y016978D01*
X004386Y016987D02*
X004549Y016987D01*
X004549Y016996D02*
X004386Y016996D01*
X004386Y017004D02*
X004549Y017004D01*
X004549Y017013D02*
X004386Y017013D01*
X004386Y017021D02*
X004549Y017021D01*
X004549Y017030D02*
X004386Y017030D01*
X004386Y017038D02*
X004549Y017038D01*
X004549Y017047D02*
X004386Y017047D01*
X004386Y017055D02*
X004549Y017055D01*
X004549Y017064D02*
X004386Y017064D01*
X004386Y017072D02*
X004549Y017072D01*
X004549Y017081D02*
X004386Y017081D01*
X004386Y017089D02*
X004549Y017089D01*
X004549Y017098D02*
X004386Y017098D01*
X004386Y017107D02*
X004549Y017107D01*
X004549Y017115D02*
X004386Y017115D01*
X004386Y017124D02*
X004549Y017124D01*
X004549Y017132D02*
X004386Y017132D01*
X004386Y017141D02*
X004549Y017141D01*
X004549Y017149D02*
X004386Y017149D01*
X004386Y017158D02*
X004549Y017158D01*
X004549Y017166D02*
X004386Y017166D01*
X004386Y017175D02*
X004549Y017175D01*
X004549Y017183D02*
X004386Y017183D01*
X004386Y017192D02*
X004549Y017192D01*
X004549Y017201D02*
X004386Y017201D01*
X004386Y017209D02*
X004549Y017209D01*
X004549Y017218D02*
X004386Y017218D01*
X004386Y017226D02*
X004549Y017226D01*
X004549Y017235D02*
X004386Y017235D01*
X004393Y017243D02*
X004549Y017243D01*
X004549Y017252D02*
X004408Y017252D01*
X004423Y017260D02*
X004549Y017260D01*
X004549Y017269D02*
X004438Y017269D01*
X004453Y017277D02*
X004549Y017277D01*
X004549Y017286D02*
X004468Y017286D01*
X004483Y017295D02*
X004549Y017295D01*
X004549Y017303D02*
X004498Y017303D01*
X004513Y017312D02*
X004549Y017312D01*
X004549Y017320D02*
X004528Y017320D01*
X004543Y017329D02*
X004549Y017329D01*
X004742Y017329D02*
X004820Y017329D01*
X004828Y017337D02*
X004742Y017337D01*
X004742Y017346D02*
X004835Y017346D01*
X004843Y017354D02*
X004742Y017354D01*
X004742Y017363D02*
X004850Y017363D01*
X004858Y017371D02*
X004742Y017371D01*
X004742Y017380D02*
X004865Y017380D01*
X004873Y017389D02*
X004742Y017389D01*
X004742Y017397D02*
X004881Y017397D01*
X004888Y017406D02*
X004742Y017406D01*
X004742Y017414D02*
X004896Y017414D01*
X004903Y017423D02*
X004742Y017423D01*
X004742Y017431D02*
X004911Y017431D01*
X004919Y017440D02*
X004742Y017440D01*
X004742Y017448D02*
X004926Y017448D01*
X004934Y017457D02*
X004742Y017457D01*
X004742Y017465D02*
X004943Y017465D01*
X004934Y017457D02*
X004968Y017489D01*
X005008Y017512D01*
X005023Y017518D01*
X005038Y017520D01*
X005128Y017520D01*
X005182Y017525D01*
X005234Y017540D01*
X005282Y017563D01*
X005328Y017595D01*
X005368Y017634D01*
X005403Y017677D01*
X005440Y017743D01*
X005465Y017815D01*
X005476Y017890D01*
X005474Y017966D01*
X005466Y018007D01*
X005452Y018046D01*
X005040Y018046D01*
X005032Y018055D02*
X005447Y018055D01*
X005443Y018063D02*
X005024Y018063D01*
X005024Y018064D02*
X005081Y018003D01*
X005096Y017985D01*
X005106Y017964D01*
X005110Y017942D01*
X005109Y017918D01*
X005476Y017918D01*
X005476Y017910D02*
X005106Y017910D01*
X005109Y017918D02*
X005101Y017897D01*
X005088Y017877D01*
X005070Y017862D01*
X005048Y017850D01*
X005024Y017842D01*
X004999Y017838D01*
X004970Y017840D01*
X004942Y017848D01*
X004917Y017863D01*
X004904Y017877D01*
X004895Y017894D01*
X004891Y017912D01*
X004891Y017930D01*
X004895Y017947D01*
X004899Y017954D01*
X004904Y017959D01*
X004937Y017983D01*
X004943Y017986D01*
X004950Y017988D01*
X004957Y017987D01*
X004938Y017990D01*
X004901Y017993D01*
X004864Y017990D01*
X004837Y017983D01*
X004811Y017970D01*
X004789Y017953D01*
X004770Y017931D01*
X004754Y017902D01*
X004745Y017871D01*
X004742Y017838D01*
X004742Y017241D01*
X004934Y017457D01*
X004952Y017474D02*
X004742Y017474D01*
X004742Y017482D02*
X004962Y017482D01*
X004973Y017491D02*
X004742Y017491D01*
X004742Y017500D02*
X004987Y017500D01*
X005001Y017508D02*
X004742Y017508D01*
X004742Y017517D02*
X005020Y017517D01*
X005182Y017525D02*
X004742Y017525D01*
X004742Y017534D02*
X005213Y017534D01*
X005239Y017542D02*
X004742Y017542D01*
X004742Y017551D02*
X005257Y017551D01*
X005274Y017559D02*
X004742Y017559D01*
X004742Y017568D02*
X005289Y017568D01*
X005301Y017576D02*
X004742Y017576D01*
X004742Y017585D02*
X005313Y017585D01*
X005325Y017594D02*
X004742Y017594D01*
X004742Y017602D02*
X005335Y017602D01*
X005344Y017611D02*
X004742Y017611D01*
X004742Y017619D02*
X005353Y017619D01*
X005362Y017628D02*
X004742Y017628D01*
X004742Y017636D02*
X005370Y017636D01*
X005377Y017645D02*
X004742Y017645D01*
X004742Y017653D02*
X005384Y017653D01*
X005391Y017662D02*
X004742Y017662D01*
X004742Y017670D02*
X005398Y017670D01*
X005404Y017679D02*
X004742Y017679D01*
X004742Y017688D02*
X005409Y017688D01*
X005414Y017696D02*
X004742Y017696D01*
X004742Y017705D02*
X005419Y017705D01*
X005423Y017713D02*
X004742Y017713D01*
X004742Y017722D02*
X005428Y017722D01*
X005433Y017730D02*
X004742Y017730D01*
X004742Y017739D02*
X005438Y017739D01*
X005442Y017747D02*
X004742Y017747D01*
X004742Y017756D02*
X005445Y017756D01*
X005448Y017764D02*
X004742Y017764D01*
X004742Y017773D02*
X005451Y017773D01*
X005454Y017781D02*
X004742Y017781D01*
X004742Y017790D02*
X005456Y017790D01*
X005459Y017799D02*
X004742Y017799D01*
X004742Y017807D02*
X005462Y017807D01*
X005465Y017816D02*
X004742Y017816D01*
X004742Y017824D02*
X005466Y017824D01*
X005468Y017833D02*
X004742Y017833D01*
X004742Y017841D02*
X004965Y017841D01*
X004939Y017850D02*
X004743Y017850D01*
X004744Y017858D02*
X004925Y017858D01*
X004914Y017867D02*
X004745Y017867D01*
X004746Y017875D02*
X004906Y017875D01*
X004900Y017884D02*
X004749Y017884D01*
X004751Y017893D02*
X004896Y017893D01*
X004894Y017901D02*
X004754Y017901D01*
X004758Y017910D02*
X004892Y017910D01*
X004891Y017918D02*
X004763Y017918D01*
X004768Y017927D02*
X004891Y017927D01*
X004892Y017935D02*
X004774Y017935D01*
X004781Y017944D02*
X004894Y017944D01*
X004898Y017952D02*
X004788Y017952D01*
X004799Y017961D02*
X004906Y017961D01*
X004918Y017969D02*
X004810Y017969D01*
X004827Y017978D02*
X004930Y017978D01*
X004944Y017987D02*
X004850Y017987D01*
X005007Y018089D02*
X005285Y018089D01*
X005292Y018088D02*
X005269Y018092D01*
X005249Y018102D01*
X005213Y018128D01*
X005196Y018143D01*
X005182Y018159D01*
X005171Y018178D01*
X005162Y018198D01*
X005160Y018211D01*
X005160Y018224D01*
X005167Y018246D01*
X005179Y018265D01*
X005195Y018281D01*
X005215Y018291D01*
X005235Y018297D01*
X005256Y018299D01*
X005280Y018299D01*
X005279Y018300D01*
X005262Y018314D01*
X005242Y018322D01*
X005228Y018328D01*
X005219Y018332D01*
X005185Y018341D01*
X005149Y018344D01*
X005115Y018342D01*
X005082Y018332D01*
X005051Y018317D01*
X005021Y018295D01*
X004993Y018269D01*
X004976Y018245D01*
X004966Y018218D01*
X004962Y018189D01*
X004966Y018160D01*
X004977Y018133D01*
X005024Y018064D01*
X005018Y018072D02*
X005438Y018072D01*
X005434Y018081D02*
X005013Y018081D01*
X005001Y018098D02*
X005258Y018098D01*
X005244Y018106D02*
X004995Y018106D01*
X004990Y018115D02*
X005232Y018115D01*
X005220Y018123D02*
X004984Y018123D01*
X004978Y018132D02*
X005209Y018132D01*
X005199Y018140D02*
X004974Y018140D01*
X004971Y018149D02*
X005191Y018149D01*
X005184Y018157D02*
X004967Y018157D01*
X004965Y018166D02*
X005178Y018166D01*
X005173Y018174D02*
X004964Y018174D01*
X004963Y018183D02*
X005169Y018183D01*
X005165Y018192D02*
X004963Y018192D01*
X004964Y018200D02*
X005162Y018200D01*
X005160Y018209D02*
X004965Y018209D01*
X004966Y018217D02*
X005160Y018217D01*
X005161Y018226D02*
X004969Y018226D01*
X004972Y018234D02*
X005163Y018234D01*
X005166Y018243D02*
X004975Y018243D01*
X004980Y018251D02*
X005170Y018251D01*
X005175Y018260D02*
X004987Y018260D01*
X004993Y018268D02*
X005182Y018268D01*
X005191Y018277D02*
X005001Y018277D01*
X005010Y018286D02*
X005205Y018286D01*
X005226Y018294D02*
X005019Y018294D01*
X005031Y018303D02*
X005276Y018303D01*
X005280Y018299D02*
X005280Y018299D01*
X005265Y018311D02*
X005043Y018311D01*
X005056Y018320D02*
X005248Y018320D01*
X005228Y018328D02*
X005073Y018328D01*
X005098Y018337D02*
X005201Y018337D01*
X005352Y018164D02*
X005352Y018129D01*
X005351Y018124D01*
X005349Y018118D01*
X005337Y018104D01*
X005322Y018093D01*
X005314Y018090D01*
X005292Y018088D01*
X005304Y018089D02*
X005428Y018089D01*
X005432Y018083D02*
X005396Y018128D01*
X005352Y018164D01*
X005352Y018157D02*
X005361Y018157D01*
X005352Y018149D02*
X005371Y018149D01*
X005381Y018140D02*
X005352Y018140D01*
X005352Y018132D02*
X005392Y018132D01*
X005400Y018123D02*
X005351Y018123D01*
X005346Y018115D02*
X005407Y018115D01*
X005414Y018106D02*
X005339Y018106D01*
X005329Y018098D02*
X005421Y018098D01*
X005432Y018083D02*
X005452Y018046D01*
X005455Y018038D02*
X005049Y018038D01*
X005057Y018029D02*
X005458Y018029D01*
X005461Y018021D02*
X005065Y018021D01*
X005073Y018012D02*
X005464Y018012D01*
X005467Y018004D02*
X005081Y018004D01*
X005088Y017995D02*
X005468Y017995D01*
X005470Y017987D02*
X005095Y017987D01*
X005100Y017978D02*
X005472Y017978D01*
X005474Y017969D02*
X005104Y017969D01*
X005107Y017961D02*
X005474Y017961D01*
X005475Y017952D02*
X005108Y017952D01*
X005110Y017944D02*
X005475Y017944D01*
X005475Y017935D02*
X005110Y017935D01*
X005109Y017927D02*
X005475Y017927D01*
X005476Y017901D02*
X005103Y017901D01*
X005098Y017893D02*
X005476Y017893D01*
X005476Y017884D02*
X005092Y017884D01*
X005086Y017875D02*
X005474Y017875D01*
X005473Y017867D02*
X005076Y017867D01*
X005063Y017858D02*
X005472Y017858D01*
X005470Y017850D02*
X005047Y017850D01*
X005019Y017841D02*
X005469Y017841D01*
X005371Y017329D02*
X005275Y017329D01*
X005236Y017320D02*
X005398Y017320D01*
X005398Y017312D02*
X005214Y017312D01*
X005198Y017303D02*
X005398Y017303D01*
X005398Y017295D02*
X005184Y017295D01*
X005171Y017286D02*
X005398Y017286D01*
X005398Y017277D02*
X005162Y017277D01*
X005153Y017269D02*
X005398Y017269D01*
X005398Y017260D02*
X005144Y017260D01*
X005138Y017252D02*
X005398Y017252D01*
X005398Y017243D02*
X005132Y017243D01*
X005127Y017235D02*
X005398Y017235D01*
X005398Y017226D02*
X005123Y017226D01*
X005119Y017218D02*
X005398Y017218D01*
X005398Y017209D02*
X005385Y017209D01*
X005311Y017209D02*
X005299Y017205D01*
X005288Y017197D01*
X005284Y017192D02*
X005114Y017192D01*
X005113Y017183D02*
X005279Y017183D01*
X005275Y017175D02*
X005112Y017175D01*
X005112Y017166D02*
X005272Y017166D01*
X005271Y017158D02*
X005111Y017158D01*
X005110Y017149D02*
X005270Y017149D01*
X005270Y017141D02*
X005109Y017141D01*
X005109Y017132D02*
X005270Y017132D01*
X005270Y017124D02*
X005108Y017124D01*
X005107Y017115D02*
X005270Y017115D01*
X005270Y017107D02*
X005107Y017107D01*
X005107Y017098D02*
X005270Y017098D01*
X004952Y017089D02*
X004768Y017089D01*
X004760Y017081D02*
X004944Y017081D01*
X004935Y017072D02*
X004751Y017072D01*
X004743Y017064D02*
X004926Y017064D01*
X004917Y017055D02*
X004734Y017055D01*
X004726Y017047D02*
X004909Y017047D01*
X004900Y017038D02*
X004717Y017038D01*
X004709Y017030D02*
X004891Y017030D01*
X004882Y017021D02*
X004700Y017021D01*
X004692Y017013D02*
X004874Y017013D01*
X004865Y017004D02*
X004683Y017004D01*
X004674Y016996D02*
X004856Y016996D01*
X004848Y016987D02*
X004666Y016987D01*
X004657Y016978D02*
X004839Y016978D01*
X004830Y016970D02*
X004649Y016970D01*
X004640Y016961D02*
X004821Y016961D01*
X004813Y016953D02*
X004632Y016953D01*
X004623Y016944D02*
X004804Y016944D01*
X004795Y016936D02*
X004615Y016936D01*
X004606Y016927D02*
X004786Y016927D01*
X004778Y016919D02*
X004598Y016919D01*
X004589Y016910D02*
X004769Y016910D01*
X004760Y016902D02*
X004580Y016902D01*
X004572Y016893D02*
X004751Y016893D01*
X004743Y016884D02*
X004563Y016884D01*
X004742Y017243D02*
X004744Y017243D01*
X004742Y017252D02*
X004752Y017252D01*
X004759Y017260D02*
X004742Y017260D01*
X004742Y017269D02*
X004767Y017269D01*
X004774Y017277D02*
X004742Y017277D01*
X004742Y017286D02*
X004782Y017286D01*
X004790Y017295D02*
X004742Y017295D01*
X004742Y017303D02*
X004797Y017303D01*
X004805Y017312D02*
X004742Y017312D01*
X004742Y017320D02*
X004812Y017320D01*
X005858Y017089D02*
X006024Y017089D01*
X006024Y017081D02*
X005858Y017081D01*
X005858Y017072D02*
X006024Y017072D01*
X006024Y017064D02*
X005858Y017064D01*
X005858Y017055D02*
X006024Y017055D01*
X006024Y017047D02*
X005858Y017047D01*
X005858Y017038D02*
X006024Y017038D01*
X006024Y017030D02*
X005858Y017030D01*
X005858Y017021D02*
X006024Y017021D01*
X006024Y017013D02*
X005858Y017013D01*
X005858Y017004D02*
X006024Y017004D01*
X006024Y016996D02*
X005858Y016996D01*
X005858Y016987D02*
X006024Y016987D01*
X006024Y016978D02*
X005858Y016978D01*
X005858Y016970D02*
X006024Y016970D01*
X007092Y016585D02*
X007604Y016585D01*
X007598Y016577D02*
X007098Y016577D01*
X007106Y016568D02*
X007591Y016568D01*
X007582Y016560D02*
X007114Y016560D01*
X007122Y016551D02*
X007574Y016551D01*
X007565Y016543D02*
X007130Y016543D01*
X007141Y016534D02*
X007557Y016534D01*
X007545Y016526D02*
X007152Y016526D01*
X007163Y016517D02*
X007532Y016517D01*
X007519Y016509D02*
X007179Y016509D01*
X007195Y016500D02*
X007506Y016500D01*
X007487Y016491D02*
X007215Y016491D01*
X007241Y016483D02*
X007467Y016483D01*
X007435Y016474D02*
X007284Y016474D01*
X007406Y016594D02*
X007609Y016594D01*
X007615Y016603D02*
X007426Y016603D01*
X007440Y016611D02*
X007620Y016611D01*
X007626Y016620D02*
X007451Y016620D01*
X007459Y016628D02*
X007630Y016628D01*
X007633Y016637D02*
X007466Y016637D01*
X007471Y016645D02*
X007637Y016645D01*
X007640Y016654D02*
X007476Y016654D01*
X007481Y016662D02*
X007643Y016662D01*
X007647Y016671D02*
X007484Y016671D01*
X007487Y016679D02*
X007650Y016679D01*
X007651Y016688D02*
X007490Y016688D01*
X007491Y016696D02*
X007653Y016696D01*
X007654Y016705D02*
X007492Y016705D01*
X007494Y016714D02*
X007654Y016714D01*
X007720Y016722D02*
X007875Y016722D01*
X007875Y016719D02*
X007890Y016673D01*
X007912Y016631D01*
X007979Y016590D01*
X008050Y016581D01*
X008121Y016605D01*
X008165Y016645D01*
X008187Y016694D01*
X008202Y016756D01*
X008202Y016813D01*
X008192Y016890D01*
X008162Y016955D01*
X008128Y016988D01*
X008089Y017009D01*
X008041Y017013D01*
X008037Y017013D01*
X008039Y017130D01*
X008118Y017120D01*
X008182Y017098D01*
X008260Y017044D01*
X008303Y016994D01*
X008344Y016902D01*
X008355Y016816D01*
X008202Y016816D01*
X008202Y016808D02*
X008354Y016808D01*
X008355Y016816D02*
X008345Y016733D01*
X008318Y016636D01*
X008286Y016585D01*
X008239Y016540D01*
X008195Y016509D01*
X008122Y016484D01*
X008023Y016474D01*
X007905Y016490D01*
X007793Y016560D01*
X007730Y016658D01*
X007706Y016811D01*
X007738Y016951D01*
X007822Y017058D01*
X007955Y017124D01*
X008013Y017131D01*
X008015Y017131D01*
X008020Y017129D01*
X008020Y017014D01*
X007976Y017008D01*
X007929Y016982D01*
X007897Y016938D01*
X007881Y016902D01*
X007870Y016843D01*
X007868Y016769D01*
X007875Y016719D01*
X007877Y016714D02*
X007721Y016714D01*
X007723Y016705D02*
X007880Y016705D01*
X007883Y016696D02*
X007724Y016696D01*
X007726Y016688D02*
X007885Y016688D01*
X007888Y016679D02*
X007727Y016679D01*
X007728Y016671D02*
X007891Y016671D01*
X007896Y016662D02*
X007730Y016662D01*
X007733Y016654D02*
X007900Y016654D01*
X007905Y016645D02*
X007739Y016645D01*
X007744Y016637D02*
X007909Y016637D01*
X007917Y016628D02*
X007749Y016628D01*
X007755Y016620D02*
X007931Y016620D01*
X007945Y016611D02*
X007760Y016611D01*
X007766Y016603D02*
X007959Y016603D01*
X007973Y016594D02*
X007771Y016594D01*
X007777Y016585D02*
X008017Y016585D01*
X008063Y016585D02*
X008286Y016585D01*
X008292Y016594D02*
X008088Y016594D01*
X008113Y016603D02*
X008297Y016603D01*
X008302Y016611D02*
X008128Y016611D01*
X008137Y016620D02*
X008308Y016620D01*
X008313Y016628D02*
X008146Y016628D01*
X008156Y016637D02*
X008318Y016637D01*
X008321Y016645D02*
X008165Y016645D01*
X008169Y016654D02*
X008323Y016654D01*
X008325Y016662D02*
X008173Y016662D01*
X008177Y016671D02*
X008328Y016671D01*
X008330Y016679D02*
X008181Y016679D01*
X008184Y016688D02*
X008333Y016688D01*
X008335Y016696D02*
X008188Y016696D01*
X008190Y016705D02*
X008337Y016705D01*
X008340Y016714D02*
X008192Y016714D01*
X008194Y016722D02*
X008342Y016722D01*
X008344Y016731D02*
X008196Y016731D01*
X008198Y016739D02*
X008346Y016739D01*
X008347Y016748D02*
X008200Y016748D01*
X008202Y016756D02*
X008348Y016756D01*
X008349Y016765D02*
X008202Y016765D01*
X008202Y016773D02*
X008350Y016773D01*
X008351Y016782D02*
X008202Y016782D01*
X008202Y016790D02*
X008352Y016790D01*
X008353Y016799D02*
X008202Y016799D01*
X008201Y016825D02*
X008354Y016825D01*
X008353Y016833D02*
X008200Y016833D01*
X008198Y016842D02*
X008352Y016842D01*
X008351Y016850D02*
X008197Y016850D01*
X008196Y016859D02*
X008350Y016859D01*
X008349Y016867D02*
X008195Y016867D01*
X008194Y016876D02*
X008347Y016876D01*
X008346Y016884D02*
X008193Y016884D01*
X008191Y016893D02*
X008345Y016893D01*
X008344Y016902D02*
X008187Y016902D01*
X008183Y016910D02*
X008341Y016910D01*
X008337Y016919D02*
X008179Y016919D01*
X008175Y016927D02*
X008333Y016927D01*
X008329Y016936D02*
X008171Y016936D01*
X008167Y016944D02*
X008325Y016944D01*
X008322Y016953D02*
X008163Y016953D01*
X008156Y016961D02*
X008318Y016961D01*
X008314Y016970D02*
X008147Y016970D01*
X008138Y016978D02*
X008310Y016978D01*
X008306Y016987D02*
X008129Y016987D01*
X008115Y016996D02*
X008302Y016996D01*
X008295Y017004D02*
X008099Y017004D01*
X008048Y017013D02*
X008287Y017013D01*
X008280Y017021D02*
X008037Y017021D01*
X008037Y017030D02*
X008273Y017030D01*
X008265Y017038D02*
X008038Y017038D01*
X008038Y017047D02*
X008256Y017047D01*
X008244Y017055D02*
X008038Y017055D01*
X008038Y017064D02*
X008232Y017064D01*
X008219Y017072D02*
X008038Y017072D01*
X008038Y017081D02*
X008207Y017081D01*
X008195Y017089D02*
X008038Y017089D01*
X008039Y017098D02*
X008182Y017098D01*
X008158Y017107D02*
X008039Y017107D01*
X008039Y017115D02*
X008133Y017115D01*
X008091Y017124D02*
X008039Y017124D01*
X008039Y017134D02*
X008033Y017134D01*
X008033Y017009D01*
X008025Y017007D02*
X008016Y017007D01*
X008025Y017007D02*
X008025Y017134D01*
X008020Y017124D02*
X007954Y017124D01*
X007937Y017115D02*
X008020Y017115D01*
X008020Y017107D02*
X007920Y017107D01*
X007902Y017098D02*
X008020Y017098D01*
X008020Y017089D02*
X007885Y017089D01*
X007868Y017081D02*
X008020Y017081D01*
X008020Y017072D02*
X007851Y017072D01*
X007834Y017064D02*
X008020Y017064D01*
X008020Y017055D02*
X007820Y017055D01*
X007813Y017047D02*
X008020Y017047D01*
X008020Y017038D02*
X007806Y017038D01*
X007800Y017030D02*
X008020Y017030D01*
X008020Y017021D02*
X007793Y017021D01*
X007786Y017013D02*
X008008Y017013D01*
X007969Y017004D02*
X007780Y017004D01*
X007773Y016996D02*
X007953Y016996D01*
X007938Y016987D02*
X007766Y016987D01*
X007760Y016978D02*
X007926Y016978D01*
X007920Y016970D02*
X007753Y016970D01*
X007746Y016961D02*
X007914Y016961D01*
X007908Y016953D02*
X007739Y016953D01*
X007737Y016944D02*
X007902Y016944D01*
X007896Y016936D02*
X007735Y016936D01*
X007733Y016927D02*
X007892Y016927D01*
X007888Y016919D02*
X007731Y016919D01*
X007729Y016910D02*
X007885Y016910D01*
X007881Y016902D02*
X007727Y016902D01*
X007725Y016893D02*
X007879Y016893D01*
X007878Y016884D02*
X007723Y016884D01*
X007721Y016876D02*
X007876Y016876D01*
X007875Y016867D02*
X007719Y016867D01*
X007717Y016859D02*
X007873Y016859D01*
X007871Y016850D02*
X007715Y016850D01*
X007713Y016842D02*
X007870Y016842D01*
X007870Y016833D02*
X007711Y016833D01*
X007709Y016825D02*
X007870Y016825D01*
X008327Y016643D02*
X008339Y016677D01*
X008348Y016711D01*
X008355Y016746D01*
X008359Y016782D01*
X008361Y016817D01*
X008427Y016816D02*
X008597Y016816D01*
X008597Y016808D02*
X008427Y016808D01*
X008427Y016799D02*
X008597Y016799D01*
X008597Y016790D02*
X008427Y016790D01*
X008427Y016782D02*
X008597Y016782D01*
X008597Y016773D02*
X008427Y016773D01*
X008427Y016765D02*
X008597Y016765D01*
X008597Y016756D02*
X008427Y016756D01*
X008427Y016748D02*
X008597Y016748D01*
X008597Y016739D02*
X008427Y016739D01*
X008427Y016731D02*
X008597Y016731D01*
X008597Y016722D02*
X008427Y016722D01*
X008427Y016714D02*
X008597Y016714D01*
X008597Y016705D02*
X008427Y016705D01*
X008427Y016696D02*
X008597Y016696D01*
X008597Y016688D02*
X008427Y016688D01*
X008427Y016679D02*
X008597Y016679D01*
X008597Y016671D02*
X008427Y016671D01*
X008427Y016662D02*
X008597Y016662D01*
X008597Y016654D02*
X008427Y016654D01*
X008427Y016645D02*
X008597Y016645D01*
X008597Y016637D02*
X008427Y016637D01*
X008427Y016628D02*
X008597Y016628D01*
X008597Y016620D02*
X008427Y016620D01*
X008427Y016611D02*
X008597Y016611D01*
X008597Y016603D02*
X008427Y016603D01*
X008427Y016594D02*
X008597Y016594D01*
X008597Y016585D02*
X008427Y016585D01*
X008427Y016577D02*
X008597Y016577D01*
X008597Y016568D02*
X008427Y016568D01*
X008427Y016560D02*
X008597Y016560D01*
X008597Y016551D02*
X008427Y016551D01*
X008427Y016543D02*
X008597Y016543D01*
X008597Y016534D02*
X008427Y016534D01*
X008427Y016526D02*
X008597Y016526D01*
X008597Y016517D02*
X008427Y016517D01*
X008427Y016509D02*
X008597Y016509D01*
X008597Y016500D02*
X008427Y016500D01*
X008427Y016491D02*
X008597Y016491D01*
X008597Y016483D02*
X008427Y016483D01*
X008427Y016481D02*
X008597Y016481D01*
X008597Y016867D01*
X008596Y016892D01*
X008601Y016917D01*
X008613Y016939D01*
X008646Y016977D01*
X008661Y016988D01*
X008678Y016996D01*
X008696Y016999D01*
X008730Y017001D01*
X008750Y017000D01*
X008769Y016994D01*
X008786Y016984D01*
X008800Y016971D01*
X008815Y016949D01*
X008825Y016923D01*
X008828Y016896D01*
X008828Y016480D01*
X008998Y016480D01*
X008998Y016855D01*
X009001Y016899D01*
X009007Y016925D01*
X009018Y016950D01*
X009034Y016971D01*
X009047Y016983D01*
X009063Y016992D01*
X009080Y016997D01*
X009117Y017001D01*
X009153Y016998D01*
X009172Y016993D01*
X009189Y016983D01*
X009203Y016970D01*
X009214Y016954D01*
X009227Y016921D01*
X009231Y016885D01*
X009231Y016480D01*
X009398Y016480D01*
X009398Y016936D01*
X009392Y016979D01*
X009376Y017020D01*
X009353Y017057D01*
X009328Y017083D01*
X009297Y017103D01*
X009263Y017116D01*
X009214Y017126D01*
X009163Y017130D01*
X009128Y017128D01*
X009094Y017119D01*
X009062Y017103D01*
X009027Y017078D01*
X008996Y017048D01*
X008978Y017029D01*
X008975Y017026D01*
X008973Y017025D01*
X008971Y017024D01*
X008954Y017054D01*
X008931Y017081D01*
X008903Y017102D01*
X008872Y017118D01*
X008836Y017128D01*
X008798Y017131D01*
X008744Y017126D01*
X008701Y017116D01*
X008666Y017100D01*
X008636Y017076D01*
X008606Y017045D01*
X008593Y017028D01*
X008584Y017026D01*
X008584Y017113D01*
X008427Y017113D01*
X008427Y016481D01*
X008277Y016577D02*
X007782Y016577D01*
X007788Y016568D02*
X008269Y016568D01*
X008260Y016560D02*
X007794Y016560D01*
X007807Y016551D02*
X008251Y016551D01*
X008242Y016543D02*
X007821Y016543D01*
X007835Y016534D02*
X008231Y016534D01*
X008218Y016526D02*
X007848Y016526D01*
X007862Y016517D02*
X008206Y016517D01*
X008193Y016509D02*
X007876Y016509D01*
X007889Y016500D02*
X008168Y016500D01*
X008143Y016491D02*
X007903Y016491D01*
X007959Y016483D02*
X008109Y016483D01*
X008025Y016474D02*
X008022Y016474D01*
X008109Y016606D02*
X008126Y016616D01*
X008142Y016629D01*
X008155Y016644D01*
X008166Y016660D01*
X008327Y016643D02*
X008315Y016616D01*
X008300Y016591D01*
X008283Y016568D01*
X008263Y016547D01*
X008241Y016529D01*
X008217Y016512D01*
X008191Y016499D01*
X008164Y016488D01*
X007977Y016598D02*
X007959Y016606D01*
X007942Y016616D01*
X007927Y016629D01*
X007914Y016644D01*
X007903Y016660D01*
X007874Y016731D02*
X007719Y016731D01*
X007717Y016739D02*
X007872Y016739D01*
X007871Y016748D02*
X007716Y016748D01*
X007715Y016756D02*
X007870Y016756D01*
X007869Y016765D02*
X007713Y016765D01*
X007712Y016773D02*
X007868Y016773D01*
X007869Y016782D02*
X007711Y016782D01*
X007709Y016790D02*
X007869Y016790D01*
X007869Y016799D02*
X007708Y016799D01*
X007707Y016808D02*
X007869Y016808D01*
X007869Y016816D02*
X007707Y016816D01*
X008186Y016881D02*
X008192Y016848D01*
X008196Y016815D01*
X008197Y016782D01*
X007711Y016722D02*
X007706Y016760D01*
X007705Y016798D01*
X007707Y016836D01*
X007712Y016873D01*
X008197Y016783D02*
X008195Y016751D01*
X008189Y016720D01*
X008179Y016689D01*
X008166Y016661D01*
X007903Y016660D02*
X007893Y016681D01*
X007885Y016703D01*
X007879Y016726D01*
X007876Y016750D01*
X007754Y016605D02*
X007768Y016583D01*
X007786Y016564D01*
X007805Y016546D01*
X007977Y016598D02*
X007999Y016592D01*
X008021Y016589D01*
X008044Y016589D01*
X008066Y016592D01*
X008088Y016598D01*
X008109Y016606D01*
X007754Y016605D02*
X007739Y016633D01*
X007727Y016662D01*
X007718Y016692D01*
X007711Y016722D01*
X008137Y016974D02*
X008154Y016953D01*
X008168Y016931D01*
X008179Y016907D01*
X008187Y016882D01*
X007918Y016959D02*
X007905Y016939D01*
X007893Y016917D01*
X007885Y016895D01*
X007879Y016871D01*
X007876Y016847D01*
X007712Y016873D02*
X007719Y016906D01*
X007730Y016937D01*
X007745Y016967D01*
X007762Y016996D01*
X007783Y017022D01*
X007806Y017046D01*
X007831Y017067D01*
X007859Y017086D01*
X008022Y016467D02*
X008058Y016468D01*
X008094Y016472D01*
X008129Y016479D01*
X008164Y016489D01*
X008127Y017123D02*
X008098Y017129D01*
X008069Y017133D01*
X008039Y017134D01*
X008096Y017000D02*
X008111Y016993D01*
X008124Y016984D01*
X008137Y016974D01*
X008016Y017007D02*
X007997Y017006D01*
X007979Y017001D01*
X007961Y016994D01*
X007945Y016985D01*
X007931Y016973D01*
X007918Y016959D01*
X007805Y016546D02*
X007832Y016526D01*
X007861Y016509D01*
X007891Y016494D01*
X007923Y016483D01*
X007955Y016474D01*
X007988Y016469D01*
X008022Y016467D01*
X007859Y017086D02*
X007890Y017102D01*
X007922Y017115D01*
X007956Y017125D01*
X007990Y017132D01*
X008025Y017135D01*
X008427Y017107D02*
X008584Y017107D01*
X008584Y017098D02*
X008427Y017098D01*
X008427Y017089D02*
X008584Y017089D01*
X008584Y017081D02*
X008427Y017081D01*
X008427Y017072D02*
X008584Y017072D01*
X008584Y017064D02*
X008427Y017064D01*
X008427Y017055D02*
X008584Y017055D01*
X008584Y017047D02*
X008427Y017047D01*
X008427Y017038D02*
X008584Y017038D01*
X008584Y017030D02*
X008427Y017030D01*
X008427Y017021D02*
X009376Y017021D01*
X009379Y017013D02*
X008427Y017013D01*
X008427Y017004D02*
X009382Y017004D01*
X009385Y016996D02*
X009163Y016996D01*
X009182Y016987D02*
X009389Y016987D01*
X009392Y016978D02*
X009194Y016978D01*
X009203Y016970D02*
X009393Y016970D01*
X009394Y016961D02*
X009209Y016961D01*
X009215Y016953D02*
X009396Y016953D01*
X009397Y016944D02*
X009218Y016944D01*
X009221Y016936D02*
X009398Y016936D01*
X009398Y016927D02*
X009224Y016927D01*
X009227Y016919D02*
X009398Y016919D01*
X009398Y016910D02*
X009228Y016910D01*
X009229Y016902D02*
X009398Y016902D01*
X009398Y016893D02*
X009230Y016893D01*
X009231Y016884D02*
X009398Y016884D01*
X009398Y016876D02*
X009231Y016876D01*
X009231Y016867D02*
X009398Y016867D01*
X009398Y016859D02*
X009231Y016859D01*
X009231Y016850D02*
X009398Y016850D01*
X009398Y016842D02*
X009231Y016842D01*
X009231Y016833D02*
X009398Y016833D01*
X009398Y016825D02*
X009231Y016825D01*
X009231Y016816D02*
X009398Y016816D01*
X009398Y016808D02*
X009231Y016808D01*
X009231Y016799D02*
X009398Y016799D01*
X009398Y016790D02*
X009231Y016790D01*
X009231Y016782D02*
X009398Y016782D01*
X009398Y016773D02*
X009231Y016773D01*
X009231Y016765D02*
X009398Y016765D01*
X009398Y016756D02*
X009231Y016756D01*
X009231Y016748D02*
X009398Y016748D01*
X009398Y016739D02*
X009231Y016739D01*
X009231Y016731D02*
X009398Y016731D01*
X009398Y016722D02*
X009231Y016722D01*
X009231Y016714D02*
X009398Y016714D01*
X009398Y016705D02*
X009231Y016705D01*
X009231Y016696D02*
X009398Y016696D01*
X009398Y016688D02*
X009231Y016688D01*
X009231Y016679D02*
X009398Y016679D01*
X009398Y016671D02*
X009231Y016671D01*
X009231Y016662D02*
X009398Y016662D01*
X009398Y016654D02*
X009231Y016654D01*
X009231Y016645D02*
X009398Y016645D01*
X009398Y016637D02*
X009231Y016637D01*
X009231Y016628D02*
X009398Y016628D01*
X009398Y016620D02*
X009231Y016620D01*
X009231Y016611D02*
X009398Y016611D01*
X009398Y016603D02*
X009231Y016603D01*
X009231Y016594D02*
X009398Y016594D01*
X009398Y016585D02*
X009231Y016585D01*
X009231Y016577D02*
X009398Y016577D01*
X009398Y016568D02*
X009231Y016568D01*
X009231Y016560D02*
X009398Y016560D01*
X009398Y016551D02*
X009231Y016551D01*
X009231Y016543D02*
X009398Y016543D01*
X009398Y016534D02*
X009231Y016534D01*
X009231Y016526D02*
X009398Y016526D01*
X009398Y016517D02*
X009231Y016517D01*
X009231Y016509D02*
X009398Y016509D01*
X009398Y016500D02*
X009231Y016500D01*
X009231Y016491D02*
X009398Y016491D01*
X009398Y016483D02*
X009231Y016483D01*
X008998Y016483D02*
X008828Y016483D01*
X008828Y016491D02*
X008998Y016491D01*
X008998Y016500D02*
X008828Y016500D01*
X008828Y016509D02*
X008998Y016509D01*
X008998Y016517D02*
X008828Y016517D01*
X008828Y016526D02*
X008998Y016526D01*
X008998Y016534D02*
X008828Y016534D01*
X008828Y016543D02*
X008998Y016543D01*
X008998Y016551D02*
X008828Y016551D01*
X008828Y016560D02*
X008998Y016560D01*
X008998Y016568D02*
X008828Y016568D01*
X008828Y016577D02*
X008998Y016577D01*
X008998Y016585D02*
X008828Y016585D01*
X008828Y016594D02*
X008998Y016594D01*
X008998Y016603D02*
X008828Y016603D01*
X008828Y016611D02*
X008998Y016611D01*
X008998Y016620D02*
X008828Y016620D01*
X008828Y016628D02*
X008998Y016628D01*
X008998Y016637D02*
X008828Y016637D01*
X008828Y016645D02*
X008998Y016645D01*
X008998Y016654D02*
X008828Y016654D01*
X008828Y016662D02*
X008998Y016662D01*
X008998Y016671D02*
X008828Y016671D01*
X008828Y016679D02*
X008998Y016679D01*
X008998Y016688D02*
X008828Y016688D01*
X008828Y016696D02*
X008998Y016696D01*
X008998Y016705D02*
X008828Y016705D01*
X008828Y016714D02*
X008998Y016714D01*
X008998Y016722D02*
X008828Y016722D01*
X008828Y016731D02*
X008998Y016731D01*
X008998Y016739D02*
X008828Y016739D01*
X008828Y016748D02*
X008998Y016748D01*
X008998Y016756D02*
X008828Y016756D01*
X008828Y016765D02*
X008998Y016765D01*
X008998Y016773D02*
X008828Y016773D01*
X008828Y016782D02*
X008998Y016782D01*
X008998Y016790D02*
X008828Y016790D01*
X008828Y016799D02*
X008998Y016799D01*
X008998Y016808D02*
X008828Y016808D01*
X008828Y016816D02*
X008998Y016816D01*
X008998Y016825D02*
X008828Y016825D01*
X008828Y016833D02*
X008998Y016833D01*
X008998Y016842D02*
X008828Y016842D01*
X008828Y016850D02*
X008998Y016850D01*
X008998Y016859D02*
X008828Y016859D01*
X008828Y016867D02*
X008999Y016867D01*
X009000Y016876D02*
X008828Y016876D01*
X008828Y016884D02*
X009000Y016884D01*
X009001Y016893D02*
X008828Y016893D01*
X008828Y016902D02*
X009002Y016902D01*
X009004Y016910D02*
X008826Y016910D01*
X008825Y016919D02*
X009006Y016919D01*
X009008Y016927D02*
X008823Y016927D01*
X008820Y016936D02*
X009012Y016936D01*
X009016Y016944D02*
X008817Y016944D01*
X008813Y016953D02*
X009021Y016953D01*
X009027Y016961D02*
X008807Y016961D01*
X008801Y016970D02*
X009033Y016970D01*
X009042Y016978D02*
X008792Y016978D01*
X008781Y016987D02*
X009054Y016987D01*
X009075Y016996D02*
X008764Y016996D01*
X008677Y016996D02*
X008427Y016996D01*
X008427Y016987D02*
X008659Y016987D01*
X008648Y016978D02*
X008427Y016978D01*
X008427Y016970D02*
X008640Y016970D01*
X008632Y016961D02*
X008427Y016961D01*
X008427Y016953D02*
X008625Y016953D01*
X008618Y016944D02*
X008427Y016944D01*
X008427Y016936D02*
X008611Y016936D01*
X008607Y016927D02*
X008427Y016927D01*
X008427Y016919D02*
X008602Y016919D01*
X008600Y016910D02*
X008427Y016910D01*
X008427Y016902D02*
X008598Y016902D01*
X008596Y016893D02*
X008427Y016893D01*
X008427Y016884D02*
X008596Y016884D01*
X008597Y016876D02*
X008427Y016876D01*
X008427Y016867D02*
X008597Y016867D01*
X008597Y016859D02*
X008427Y016859D01*
X008427Y016850D02*
X008597Y016850D01*
X008597Y016842D02*
X008427Y016842D01*
X008427Y016833D02*
X008597Y016833D01*
X008597Y016825D02*
X008427Y016825D01*
X007876Y016848D02*
X007874Y016815D01*
X007874Y016783D01*
X007877Y016751D01*
X008033Y017009D02*
X008054Y017008D01*
X008075Y017005D01*
X008095Y016999D01*
X008127Y017123D02*
X008154Y017115D01*
X008181Y017104D01*
X008206Y017091D01*
X008231Y017075D01*
X008253Y017057D01*
X008277Y017033D01*
X008299Y017007D01*
X008318Y016979D01*
X008333Y016949D01*
X008346Y016917D01*
X008354Y016884D01*
X008359Y016851D01*
X008361Y016817D01*
X008594Y017030D02*
X008968Y017030D01*
X008963Y017038D02*
X008601Y017038D01*
X008608Y017047D02*
X008958Y017047D01*
X008953Y017055D02*
X008616Y017055D01*
X008624Y017064D02*
X008945Y017064D01*
X008938Y017072D02*
X008632Y017072D01*
X008642Y017081D02*
X008931Y017081D01*
X008920Y017089D02*
X008653Y017089D01*
X008663Y017098D02*
X008909Y017098D01*
X008895Y017107D02*
X008680Y017107D01*
X008699Y017115D02*
X008878Y017115D01*
X008853Y017124D02*
X008733Y017124D01*
X008979Y017030D02*
X009370Y017030D01*
X009365Y017038D02*
X008987Y017038D01*
X008995Y017047D02*
X009360Y017047D01*
X009354Y017055D02*
X009004Y017055D01*
X009012Y017064D02*
X009347Y017064D01*
X009338Y017072D02*
X009021Y017072D01*
X009031Y017081D02*
X009330Y017081D01*
X009318Y017089D02*
X009043Y017089D01*
X009055Y017098D02*
X009305Y017098D01*
X009289Y017107D02*
X009069Y017107D01*
X009087Y017115D02*
X009266Y017115D01*
X009225Y017124D02*
X009113Y017124D01*
X006443Y016987D02*
X006399Y016985D01*
D16*
X006893Y016573D03*
M02*
