%
M48
M72
T01C0.0276
T02C0.0320
T03C0.0354
T04C0.0400
T05C0.1102
%
T01
X2872Y10718
X2872Y11505
X2872Y12293
X10903Y14005
X12903Y14505
X10903Y15005
X14903Y14505
X16903Y14005
X16903Y15005
X24903Y11505
X26403Y11505
X27403Y11505
X27403Y10505
X26403Y10505
X24903Y10505
T02
X22403Y9505
X21403Y9505
X20403Y9505
X19403Y9505
X18403Y9505
X17403Y9505
X16403Y9505
X15403Y9505
X14403Y9505
X13403Y9505
X12403Y9505
X11403Y9505
X10403Y9505
X9403Y9505
X9403Y12505
X10403Y12505
X11403Y12505
X12403Y12505
X13403Y12505
X14403Y12505
X15403Y12505
X16403Y12505
X17403Y12505
X18403Y12505
X19403Y12505
X20403Y12505
X21403Y12505
X22403Y12505
X7403Y14505
X6403Y14505
X6903Y13755
T03
X5403Y12505
X8403Y12505
X23403Y12505
X23403Y9505
T04
X22903Y7505
X23903Y7505
X21903Y7505
X20903Y7505
X19903Y7505
X18903Y7505
X16903Y5505
X15903Y5505
X14903Y5505
X12903Y7505
X11903Y7505
X10903Y7505
X9903Y7505
X8903Y7505
X7903Y7505
X6903Y7505
X6903Y10505
X7903Y10505
X7903Y11505
X6903Y11505
X5903Y11505
X5903Y10505
X13502Y17608
X14502Y17608
X15502Y17608
X16502Y17608
X17502Y17608
X18502Y17608
X19502Y17608
X20502Y17608
X21502Y17608
X22502Y17608
X23502Y17608
X24502Y17608
X25502Y17608
X26502Y17608
X27502Y17608
X28502Y17608
X26903Y14999
X25903Y14999
X24903Y14999
X30903Y14005
X30903Y13005
X30903Y12005
X30903Y11005
X30903Y10005
X30903Y9005
T05
X1139Y5403
X1139Y17608
X30667Y17608
X30667Y5403
M30
