G75*
G70*
%OFA0B0*%
%FSLAX24Y24*%
%IPPOS*%
%LPD*%
%AMOC8*
5,1,8,0,0,1.08239X$1,22.5*
%
%ADD10C,0.0110*%
%ADD11C,0.0560*%
%ADD12C,0.0640*%
%ADD13C,0.0740*%
%ADD14OC8,0.0740*%
%ADD15C,0.0650*%
%ADD16R,0.0650X0.0650*%
%ADD17R,0.0740X0.0740*%
%ADD18C,0.0100*%
D10*
X025087Y005159D02*
X025186Y005060D01*
X025383Y005060D01*
X025481Y005159D01*
X025087Y005552D01*
X025087Y005159D01*
X025481Y005159D02*
X025481Y005552D01*
X025383Y005651D01*
X025186Y005651D01*
X025087Y005552D01*
X025929Y005651D02*
X026126Y005454D01*
X025929Y005651D02*
X025929Y005060D01*
X026126Y005060D02*
X025732Y005060D01*
X026376Y005651D02*
X026770Y005060D01*
X027021Y005060D02*
X027415Y005060D01*
X027021Y005454D01*
X027021Y005552D01*
X027119Y005651D01*
X027316Y005651D01*
X027415Y005552D01*
X027862Y005651D02*
X027862Y005060D01*
X028059Y005060D02*
X027665Y005060D01*
X028310Y005651D02*
X028704Y005060D01*
X028954Y005159D02*
X029053Y005060D01*
X029250Y005060D01*
X029348Y005159D01*
X029348Y005257D01*
X029250Y005355D01*
X029053Y005355D01*
X028954Y005257D01*
X028954Y005159D01*
X029053Y005355D02*
X028954Y005454D01*
X028954Y005552D01*
X029053Y005651D01*
X029250Y005651D01*
X029348Y005552D01*
X029348Y005454D01*
X029250Y005355D01*
X028059Y005454D02*
X027862Y005651D01*
D11*
X022403Y009225D02*
X022403Y009785D01*
X021403Y009785D02*
X021403Y009225D01*
X020403Y009225D02*
X020403Y009785D01*
X019403Y009785D02*
X019403Y009225D01*
X018403Y009225D02*
X018403Y009785D01*
X017403Y009785D02*
X017403Y009225D01*
X016403Y009225D02*
X016403Y009785D01*
X015403Y009785D02*
X015403Y009225D01*
X014403Y009225D02*
X014403Y009785D01*
X013403Y009785D02*
X013403Y009225D01*
X012403Y009225D02*
X012403Y009785D01*
X011403Y009785D02*
X011403Y009225D01*
X010403Y009225D02*
X010403Y009785D01*
X009403Y009785D02*
X009403Y009225D01*
X009403Y012225D02*
X009403Y012785D01*
X010403Y012785D02*
X010403Y012225D01*
X011403Y012225D02*
X011403Y012785D01*
X012403Y012785D02*
X012403Y012225D01*
X013403Y012225D02*
X013403Y012785D01*
X014403Y012785D02*
X014403Y012225D01*
X015403Y012225D02*
X015403Y012785D01*
X016403Y012785D02*
X016403Y012225D01*
X017403Y012225D02*
X017403Y012785D01*
X018403Y012785D02*
X018403Y012225D01*
X019403Y012225D02*
X019403Y012785D01*
X020403Y012785D02*
X020403Y012225D01*
X021403Y012225D02*
X021403Y012785D01*
X022403Y012785D02*
X022403Y012225D01*
D12*
X002872Y012293D03*
X002872Y011505D03*
X002872Y010718D03*
D13*
X005403Y012505D03*
X006903Y013755D03*
X006403Y014505D03*
X007403Y014505D03*
X008403Y012505D03*
X007903Y007505D03*
X006903Y007505D03*
X008903Y007505D03*
X009903Y007505D03*
X010903Y007505D03*
X011903Y007505D03*
X012903Y007505D03*
X014903Y005505D03*
X015903Y005505D03*
X016903Y005505D03*
X018903Y007505D03*
X019903Y007505D03*
X020903Y007505D03*
X021903Y007505D03*
X022903Y007505D03*
X023903Y007505D03*
X023403Y009505D03*
X023403Y012505D03*
X025903Y014999D03*
X026903Y014999D03*
X030903Y014005D03*
X030903Y013005D03*
X030903Y012005D03*
X030903Y011005D03*
X030903Y010005D03*
X030903Y009005D03*
X027502Y017608D03*
X026502Y017608D03*
X025502Y017608D03*
X024502Y017608D03*
X023502Y017608D03*
X022502Y017608D03*
X021502Y017608D03*
X020502Y017608D03*
X019502Y017608D03*
X018502Y017608D03*
X017502Y017608D03*
X016502Y017608D03*
X015502Y017608D03*
X014502Y017608D03*
X013502Y017608D03*
D14*
X007903Y011505D03*
X006903Y011505D03*
X005903Y011505D03*
X005903Y010505D03*
X006903Y010505D03*
X007903Y010505D03*
D15*
X010903Y014005D03*
X012903Y014505D03*
X010903Y015005D03*
X014903Y014505D03*
X016903Y014005D03*
X016903Y015005D03*
X024903Y011505D03*
X026403Y011505D03*
X027403Y011505D03*
X027403Y010505D03*
X026403Y010505D03*
D16*
X024903Y010505D03*
D17*
X024903Y014999D03*
X028502Y017608D03*
D18*
X001548Y004791D02*
X001364Y004715D01*
X030443Y004715D01*
X030258Y004791D01*
X030056Y004994D01*
X029946Y005259D01*
X029946Y005546D01*
X030056Y005811D01*
X030258Y006014D01*
X030523Y006124D01*
X030810Y006124D01*
X031075Y006014D01*
X031193Y005896D01*
X031193Y008541D01*
X031011Y008465D01*
X030796Y008465D01*
X030597Y008547D01*
X030445Y008699D01*
X030363Y008898D01*
X030363Y009113D01*
X030393Y009184D01*
X027994Y006785D01*
X027812Y006785D01*
X012312Y006785D01*
X012183Y006914D01*
X012096Y007001D01*
X012011Y006965D01*
X011796Y006965D01*
X011623Y007037D01*
X011623Y006914D01*
X011123Y006414D01*
X010994Y006285D01*
X009994Y006285D01*
X009812Y006285D01*
X009096Y007001D01*
X009011Y006965D01*
X008796Y006965D01*
X008597Y007047D01*
X008445Y007199D01*
X008392Y007327D01*
X008344Y007211D01*
X008198Y007064D01*
X008007Y006985D01*
X007953Y006985D01*
X007953Y007455D01*
X007853Y007455D01*
X007853Y006985D01*
X007800Y006985D01*
X007688Y007032D01*
X008994Y005725D01*
X014410Y005725D01*
X014445Y005811D01*
X014597Y005963D01*
X014796Y006045D01*
X015011Y006045D01*
X015209Y005963D01*
X015361Y005811D01*
X015403Y005709D01*
X015445Y005811D01*
X015597Y005963D01*
X015796Y006045D01*
X016011Y006045D01*
X016209Y005963D01*
X016361Y005811D01*
X016414Y005683D01*
X016462Y005800D01*
X016609Y005946D01*
X016800Y006025D01*
X016853Y006025D01*
X016853Y005555D01*
X016953Y005555D01*
X017423Y005555D01*
X017423Y005609D01*
X017344Y005800D01*
X017198Y005946D01*
X017007Y006025D01*
X016953Y006025D01*
X016953Y005555D01*
X016953Y005455D01*
X016953Y004985D01*
X017007Y004985D01*
X017198Y005064D01*
X017344Y005211D01*
X017423Y005402D01*
X017423Y005455D01*
X016953Y005455D01*
X016853Y005455D01*
X016853Y004985D01*
X016800Y004985D01*
X016609Y005064D01*
X016462Y005211D01*
X016414Y005327D01*
X016361Y005199D01*
X016209Y005047D01*
X016011Y004965D01*
X015796Y004965D01*
X015710Y005001D01*
X015623Y004914D01*
X015494Y004785D01*
X004994Y004785D01*
X004812Y004785D01*
X002312Y007285D01*
X002183Y007414D01*
X002183Y011733D01*
X002183Y011915D01*
X002406Y012138D01*
X002382Y012195D01*
X002382Y012390D01*
X002456Y012570D01*
X002594Y012708D01*
X002774Y012783D01*
X002969Y012783D01*
X003149Y012708D01*
X003287Y012570D01*
X003362Y012390D01*
X003362Y012195D01*
X003287Y012015D01*
X003157Y011885D01*
X003270Y011771D01*
X003342Y011599D01*
X003342Y011524D01*
X002891Y011524D01*
X002891Y011486D01*
X003342Y011486D01*
X003342Y011412D01*
X003270Y011239D01*
X003157Y011126D01*
X003287Y010995D01*
X003311Y010938D01*
X005025Y010938D01*
X005183Y011096D01*
X005312Y011225D01*
X005312Y011225D01*
X005366Y011279D01*
X005363Y011282D01*
X005363Y011729D01*
X005663Y012028D01*
X005511Y011965D01*
X005296Y011965D01*
X005097Y012047D01*
X004945Y012199D01*
X004863Y012398D01*
X004863Y012613D01*
X004945Y012811D01*
X005097Y012963D01*
X005296Y013045D01*
X005511Y013045D01*
X005709Y012963D01*
X005861Y012811D01*
X005943Y012613D01*
X005943Y012398D01*
X005861Y012199D01*
X005709Y012047D01*
X005704Y012045D01*
X006127Y012045D01*
X006129Y012043D01*
X006183Y012096D01*
X006183Y014012D01*
X006097Y014047D01*
X005945Y014199D01*
X005863Y014398D01*
X005863Y014613D01*
X005945Y014811D01*
X006097Y014963D01*
X006296Y015045D01*
X006511Y015045D01*
X006709Y014963D01*
X006861Y014811D01*
X006903Y014709D01*
X006945Y014811D01*
X007097Y014963D01*
X007296Y015045D01*
X007511Y015045D01*
X007596Y015010D01*
X009812Y017225D01*
X009994Y017225D01*
X013149Y017225D01*
X013061Y017313D01*
X012982Y017504D01*
X012982Y017558D01*
X013451Y017558D01*
X013451Y017657D01*
X012982Y017657D01*
X012982Y017711D01*
X013061Y017902D01*
X013207Y018048D01*
X013398Y018128D01*
X013452Y018128D01*
X013452Y017658D01*
X013551Y017658D01*
X013551Y018128D01*
X013605Y018128D01*
X013796Y018048D01*
X013942Y017902D01*
X013991Y017785D01*
X014044Y017913D01*
X014196Y018065D01*
X014394Y018148D01*
X014609Y018148D01*
X014807Y018065D01*
X014959Y017913D01*
X015002Y017811D01*
X015044Y017913D01*
X015196Y018065D01*
X015394Y018148D01*
X015609Y018148D01*
X015807Y018065D01*
X015959Y017913D01*
X016002Y017811D01*
X016044Y017913D01*
X016196Y018065D01*
X016394Y018148D01*
X016609Y018148D01*
X016807Y018065D01*
X016959Y017913D01*
X017002Y017811D01*
X017044Y017913D01*
X017196Y018065D01*
X017394Y018148D01*
X017609Y018148D01*
X017807Y018065D01*
X017959Y017913D01*
X018002Y017811D01*
X018044Y017913D01*
X018196Y018065D01*
X018394Y018148D01*
X018609Y018148D01*
X018807Y018065D01*
X018959Y017913D01*
X019012Y017785D01*
X019061Y017902D01*
X019207Y018048D01*
X019398Y018128D01*
X019452Y018128D01*
X019452Y017658D01*
X019551Y017658D01*
X019551Y018128D01*
X019605Y018128D01*
X019796Y018048D01*
X019942Y017902D01*
X020002Y017759D01*
X020061Y017902D01*
X020207Y018048D01*
X020398Y018128D01*
X020452Y018128D01*
X020452Y017658D01*
X020551Y017658D01*
X020551Y018128D01*
X020605Y018128D01*
X020796Y018048D01*
X020942Y017902D01*
X021002Y017759D01*
X021061Y017902D01*
X021207Y018048D01*
X021398Y018128D01*
X021452Y018128D01*
X021452Y017658D01*
X021551Y017658D01*
X021551Y018128D01*
X021605Y018128D01*
X021796Y018048D01*
X021942Y017902D01*
X022002Y017759D01*
X022061Y017902D01*
X022207Y018048D01*
X022398Y018128D01*
X022452Y018128D01*
X022452Y017658D01*
X022551Y017658D01*
X022551Y018128D01*
X022605Y018128D01*
X022796Y018048D01*
X022942Y017902D01*
X022991Y017785D01*
X023044Y017913D01*
X023196Y018065D01*
X023394Y018148D01*
X023609Y018148D01*
X023807Y018065D01*
X023959Y017913D01*
X024002Y017811D01*
X024044Y017913D01*
X024196Y018065D01*
X024394Y018148D01*
X024609Y018148D01*
X024807Y018065D01*
X024959Y017913D01*
X025002Y017811D01*
X025044Y017913D01*
X025196Y018065D01*
X025394Y018148D01*
X025609Y018148D01*
X025807Y018065D01*
X025959Y017913D01*
X026002Y017811D01*
X026044Y017913D01*
X026196Y018065D01*
X026394Y018148D01*
X026609Y018148D01*
X026807Y018065D01*
X026959Y017913D01*
X027002Y017811D01*
X027044Y017913D01*
X027196Y018065D01*
X027394Y018148D01*
X027609Y018148D01*
X027807Y018065D01*
X027959Y017913D01*
X027982Y017860D01*
X027982Y018040D01*
X028069Y018128D01*
X028452Y018128D01*
X028452Y017658D01*
X028551Y017658D01*
X028551Y018128D01*
X028934Y018128D01*
X029022Y018040D01*
X029022Y017657D01*
X028552Y017657D01*
X028552Y017558D01*
X029022Y017558D01*
X029022Y017175D01*
X028934Y017088D01*
X028551Y017088D01*
X028551Y017557D01*
X028452Y017557D01*
X028452Y017088D01*
X028069Y017088D01*
X027982Y017175D01*
X027982Y017355D01*
X027959Y017302D01*
X027807Y017150D01*
X027609Y017068D01*
X027394Y017068D01*
X027311Y017102D01*
X027123Y016914D01*
X027123Y015493D01*
X027209Y015457D01*
X027361Y015305D01*
X027396Y015219D01*
X027818Y015219D01*
X028000Y015219D01*
X030430Y012790D01*
X030383Y012902D01*
X030383Y012955D01*
X030853Y012955D01*
X030853Y013055D01*
X030383Y013055D01*
X030383Y013109D01*
X030462Y013300D01*
X030609Y013446D01*
X030751Y013505D01*
X030609Y013564D01*
X030462Y013711D01*
X030383Y013902D01*
X030383Y013955D01*
X030853Y013955D01*
X030953Y013955D01*
X030953Y013485D01*
X030953Y013055D01*
X030853Y013055D01*
X030853Y013485D01*
X030853Y013955D01*
X030853Y014055D01*
X030383Y014055D01*
X030383Y014109D01*
X030462Y014300D01*
X030609Y014446D01*
X030800Y014525D01*
X030853Y014525D01*
X030853Y014055D01*
X030953Y014055D01*
X030953Y014525D01*
X031007Y014525D01*
X031193Y014448D01*
X031193Y017114D01*
X031075Y016996D01*
X030810Y016886D01*
X030523Y016886D01*
X030258Y016996D01*
X030056Y017199D01*
X029946Y017464D01*
X029946Y017751D01*
X030056Y018016D01*
X030258Y018219D01*
X030443Y018295D01*
X001364Y018295D01*
X001548Y018219D01*
X001751Y018016D01*
X001861Y017751D01*
X001861Y017464D01*
X001751Y017199D01*
X001548Y016996D01*
X001283Y016886D01*
X000996Y016886D01*
X000731Y016996D01*
X000613Y017114D01*
X000613Y005896D01*
X000731Y006014D01*
X000996Y006124D01*
X001283Y006124D01*
X001548Y006014D01*
X001751Y005811D01*
X001861Y005546D01*
X001861Y005259D01*
X001751Y004994D01*
X001548Y004791D01*
X001557Y004801D02*
X004796Y004801D01*
X004698Y004899D02*
X001656Y004899D01*
X001752Y004998D02*
X004599Y004998D01*
X004501Y005096D02*
X001793Y005096D01*
X001834Y005195D02*
X004402Y005195D01*
X004304Y005294D02*
X001861Y005294D01*
X001861Y005392D02*
X004205Y005392D01*
X004107Y005491D02*
X001861Y005491D01*
X001843Y005589D02*
X004008Y005589D01*
X003909Y005688D02*
X001802Y005688D01*
X001761Y005786D02*
X003811Y005786D01*
X003712Y005885D02*
X001677Y005885D01*
X001579Y005983D02*
X003614Y005983D01*
X003515Y006082D02*
X001384Y006082D01*
X000894Y006082D02*
X000613Y006082D01*
X000613Y006180D02*
X003417Y006180D01*
X003318Y006279D02*
X000613Y006279D01*
X000613Y006378D02*
X003220Y006378D01*
X003121Y006476D02*
X000613Y006476D01*
X000613Y006575D02*
X003023Y006575D01*
X002924Y006673D02*
X000613Y006673D01*
X000613Y006772D02*
X002826Y006772D01*
X002727Y006870D02*
X000613Y006870D01*
X000613Y006969D02*
X002628Y006969D01*
X002530Y007067D02*
X000613Y007067D01*
X000613Y007166D02*
X002431Y007166D01*
X002333Y007264D02*
X000613Y007264D01*
X000613Y007363D02*
X002234Y007363D01*
X002183Y007461D02*
X000613Y007461D01*
X000613Y007560D02*
X002183Y007560D01*
X002183Y007659D02*
X000613Y007659D01*
X000613Y007757D02*
X002183Y007757D01*
X002183Y007856D02*
X000613Y007856D01*
X000613Y007954D02*
X002183Y007954D01*
X002183Y008053D02*
X000613Y008053D01*
X000613Y008151D02*
X002183Y008151D01*
X002183Y008250D02*
X000613Y008250D01*
X000613Y008348D02*
X002183Y008348D01*
X002183Y008447D02*
X000613Y008447D01*
X000613Y008545D02*
X002183Y008545D01*
X002183Y008644D02*
X000613Y008644D01*
X000613Y008743D02*
X002183Y008743D01*
X002183Y008841D02*
X000613Y008841D01*
X000613Y008940D02*
X002183Y008940D01*
X002183Y009038D02*
X000613Y009038D01*
X000613Y009137D02*
X002183Y009137D01*
X002183Y009235D02*
X000613Y009235D01*
X000613Y009334D02*
X002183Y009334D01*
X002183Y009432D02*
X000613Y009432D01*
X000613Y009531D02*
X002183Y009531D01*
X002183Y009629D02*
X000613Y009629D01*
X000613Y009728D02*
X002183Y009728D01*
X002183Y009827D02*
X000613Y009827D01*
X000613Y009925D02*
X002183Y009925D01*
X002183Y010024D02*
X000613Y010024D01*
X000613Y010122D02*
X002183Y010122D01*
X002183Y010221D02*
X000613Y010221D01*
X000613Y010319D02*
X002183Y010319D01*
X002183Y010418D02*
X000613Y010418D01*
X000613Y010516D02*
X002183Y010516D01*
X002183Y010615D02*
X000613Y010615D01*
X000613Y010713D02*
X002183Y010713D01*
X002183Y010812D02*
X000613Y010812D01*
X000613Y010911D02*
X002183Y010911D01*
X002183Y011009D02*
X000613Y011009D01*
X000613Y011108D02*
X002183Y011108D01*
X002183Y011206D02*
X000613Y011206D01*
X000613Y011305D02*
X002183Y011305D01*
X002183Y011403D02*
X000613Y011403D01*
X000613Y011502D02*
X002183Y011502D01*
X002183Y011600D02*
X000613Y011600D01*
X000613Y011699D02*
X002183Y011699D01*
X002183Y011797D02*
X000613Y011797D01*
X000613Y011896D02*
X002183Y011896D01*
X002262Y011994D02*
X000613Y011994D01*
X000613Y012093D02*
X002361Y012093D01*
X002383Y012192D02*
X000613Y012192D01*
X000613Y012290D02*
X002382Y012290D01*
X002382Y012389D02*
X000613Y012389D01*
X000613Y012487D02*
X002422Y012487D01*
X002472Y012586D02*
X000613Y012586D01*
X000613Y012684D02*
X002570Y012684D01*
X002872Y012293D02*
X002403Y011824D01*
X002403Y007505D01*
X004903Y005005D01*
X015403Y005005D01*
X015903Y005505D01*
X015435Y005786D02*
X015371Y005786D01*
X015287Y005885D02*
X015519Y005885D01*
X015646Y005983D02*
X015160Y005983D01*
X014646Y005983D02*
X008736Y005983D01*
X008835Y005885D02*
X014519Y005885D01*
X014435Y005786D02*
X008933Y005786D01*
X008903Y005505D02*
X006903Y007505D01*
X005403Y009005D01*
X005403Y011005D01*
X005116Y010718D01*
X002872Y010718D01*
X003273Y011009D02*
X005096Y011009D01*
X005194Y011108D02*
X003175Y011108D01*
X003237Y011206D02*
X005293Y011206D01*
X005363Y011305D02*
X003297Y011305D01*
X003338Y011403D02*
X005363Y011403D01*
X005363Y011502D02*
X002891Y011502D01*
X003300Y011699D02*
X005363Y011699D01*
X005363Y011600D02*
X003341Y011600D01*
X003244Y011797D02*
X005432Y011797D01*
X005530Y011896D02*
X003168Y011896D01*
X003266Y011994D02*
X005225Y011994D01*
X005052Y012093D02*
X003319Y012093D01*
X003360Y012192D02*
X004953Y012192D01*
X004908Y012290D02*
X003362Y012290D01*
X003362Y012389D02*
X004867Y012389D01*
X004863Y012487D02*
X003321Y012487D01*
X003271Y012586D02*
X004863Y012586D01*
X004893Y012684D02*
X003173Y012684D01*
X004934Y012783D02*
X000613Y012783D01*
X000613Y012881D02*
X005016Y012881D01*
X005138Y012980D02*
X000613Y012980D01*
X000613Y013078D02*
X006183Y013078D01*
X006183Y012980D02*
X005668Y012980D01*
X005791Y012881D02*
X006183Y012881D01*
X006183Y012783D02*
X005873Y012783D01*
X005913Y012684D02*
X006183Y012684D01*
X006183Y012586D02*
X005943Y012586D01*
X005943Y012487D02*
X006183Y012487D01*
X006183Y012389D02*
X005939Y012389D01*
X005899Y012290D02*
X006183Y012290D01*
X006183Y012192D02*
X005853Y012192D01*
X005755Y012093D02*
X006180Y012093D01*
X006403Y012005D02*
X006403Y014505D01*
X005920Y014261D02*
X000613Y014261D01*
X000613Y014360D02*
X005879Y014360D01*
X005863Y014458D02*
X000613Y014458D01*
X000613Y014557D02*
X005863Y014557D01*
X005881Y014655D02*
X000613Y014655D01*
X000613Y014754D02*
X005922Y014754D01*
X005987Y014852D02*
X000613Y014852D01*
X000613Y014951D02*
X006085Y014951D01*
X006721Y014951D02*
X007085Y014951D01*
X006987Y014852D02*
X006820Y014852D01*
X006885Y014754D02*
X006922Y014754D01*
X007403Y014505D02*
X009903Y017005D01*
X013903Y017005D01*
X014502Y017604D01*
X014502Y017608D01*
X015002Y017404D02*
X015044Y017302D01*
X015196Y017150D01*
X015394Y017068D01*
X015609Y017068D01*
X015680Y017097D01*
X015308Y016725D01*
X010812Y016725D01*
X010683Y016596D01*
X009183Y015096D01*
X009183Y014914D01*
X009183Y013181D01*
X009148Y013167D01*
X009022Y013040D01*
X008953Y012875D01*
X008953Y012136D01*
X009022Y011970D01*
X009148Y011844D01*
X009314Y011775D01*
X009493Y011775D01*
X009658Y011844D01*
X009785Y011970D01*
X009853Y012136D01*
X009853Y012875D01*
X009785Y013040D01*
X009658Y013167D01*
X009623Y013181D01*
X009623Y014914D01*
X010183Y015474D01*
X010183Y015414D01*
X010183Y013181D01*
X010148Y013167D01*
X010022Y013040D01*
X009953Y012875D01*
X009953Y012136D01*
X010022Y011970D01*
X010148Y011844D01*
X010314Y011775D01*
X010493Y011775D01*
X010658Y011844D01*
X010785Y011970D01*
X010853Y012136D01*
X010853Y012875D01*
X010785Y013040D01*
X010658Y013167D01*
X010623Y013181D01*
X010623Y013585D01*
X010805Y013510D01*
X011002Y013510D01*
X011183Y013585D01*
X011183Y013181D01*
X011148Y013167D01*
X011022Y013040D01*
X010953Y012875D01*
X010953Y012136D01*
X011022Y011970D01*
X011148Y011844D01*
X011314Y011775D01*
X011493Y011775D01*
X011658Y011844D01*
X011785Y011970D01*
X011853Y012136D01*
X011853Y012875D01*
X011785Y013040D01*
X011658Y013167D01*
X011623Y013181D01*
X011623Y013914D01*
X012476Y014767D01*
X012408Y014604D01*
X012408Y014407D01*
X012484Y014225D01*
X012623Y014086D01*
X012805Y014010D01*
X013002Y014010D01*
X013184Y014086D01*
X013323Y014225D01*
X013398Y014407D01*
X013398Y014604D01*
X013323Y014786D01*
X013184Y014925D01*
X013002Y015000D01*
X012805Y015000D01*
X012642Y014933D01*
X012994Y015285D01*
X016308Y015285D01*
X016490Y015285D01*
X018308Y017103D01*
X018394Y017068D01*
X018609Y017068D01*
X018807Y017150D01*
X018959Y017302D01*
X019012Y017430D01*
X019061Y017313D01*
X019207Y017167D01*
X019398Y017088D01*
X019452Y017088D01*
X019452Y017557D01*
X019551Y017557D01*
X019551Y017088D01*
X019605Y017088D01*
X019796Y017167D01*
X019942Y017313D01*
X020002Y017456D01*
X020061Y017313D01*
X020207Y017167D01*
X020398Y017088D01*
X020452Y017088D01*
X020452Y017557D01*
X020551Y017557D01*
X020551Y017088D01*
X020605Y017088D01*
X020796Y017167D01*
X020942Y017313D01*
X021002Y017456D01*
X021061Y017313D01*
X021207Y017167D01*
X021398Y017088D01*
X021452Y017088D01*
X021452Y017557D01*
X021551Y017557D01*
X021551Y017088D01*
X021605Y017088D01*
X021796Y017167D01*
X021942Y017313D01*
X022002Y017456D01*
X022061Y017313D01*
X022207Y017167D01*
X022398Y017088D01*
X022452Y017088D01*
X022452Y017557D01*
X022551Y017557D01*
X022551Y017088D01*
X022605Y017088D01*
X022796Y017167D01*
X022942Y017313D01*
X022991Y017430D01*
X023044Y017302D01*
X023196Y017150D01*
X023394Y017068D01*
X023609Y017068D01*
X023807Y017150D01*
X023959Y017302D01*
X024002Y017404D01*
X024044Y017302D01*
X024196Y017150D01*
X024394Y017068D01*
X024609Y017068D01*
X024807Y017150D01*
X024959Y017302D01*
X025002Y017404D01*
X025044Y017302D01*
X025196Y017150D01*
X025394Y017068D01*
X025609Y017068D01*
X025683Y017098D01*
X025683Y016918D01*
X025683Y015493D01*
X025597Y015457D01*
X025445Y015305D01*
X025423Y015251D01*
X025423Y015431D01*
X025335Y015519D01*
X024953Y015519D01*
X024953Y015049D01*
X024853Y015049D01*
X024853Y014949D01*
X024953Y014949D01*
X024953Y014479D01*
X025335Y014479D01*
X025423Y014567D01*
X025423Y014747D01*
X025445Y014693D01*
X025597Y014541D01*
X025796Y014459D01*
X026011Y014459D01*
X026209Y014541D01*
X026361Y014693D01*
X026403Y014795D01*
X026445Y014693D01*
X026597Y014541D01*
X026796Y014459D01*
X027011Y014459D01*
X027209Y014541D01*
X027361Y014693D01*
X027396Y014779D01*
X027818Y014779D01*
X030399Y012199D01*
X030363Y012113D01*
X030363Y011898D01*
X030399Y011812D01*
X028812Y010225D01*
X027823Y010225D01*
X027898Y010407D01*
X027898Y010604D01*
X027823Y010786D01*
X027684Y010925D01*
X027502Y011000D01*
X027305Y011000D01*
X027244Y010975D01*
X027142Y011078D01*
X027305Y011010D01*
X027502Y011010D01*
X027684Y011086D01*
X027823Y011225D01*
X027898Y011407D01*
X027898Y011604D01*
X027823Y011786D01*
X027684Y011925D01*
X027502Y012000D01*
X027305Y012000D01*
X027123Y011925D01*
X026984Y011786D01*
X026908Y011604D01*
X026908Y011407D01*
X026983Y011225D01*
X026795Y011225D01*
X026806Y011236D01*
X026878Y011411D01*
X026878Y011486D01*
X026422Y011486D01*
X026422Y011524D01*
X026878Y011524D01*
X026878Y011600D01*
X026908Y011600D01*
X026878Y011600D02*
X026806Y011774D01*
X026672Y011908D01*
X026498Y011980D01*
X026422Y011980D01*
X026422Y011524D01*
X026384Y011524D01*
X026384Y011486D01*
X025928Y011486D01*
X025928Y011411D01*
X026000Y011236D01*
X026011Y011225D01*
X025295Y011225D01*
X025306Y011236D01*
X025378Y011411D01*
X025378Y011486D01*
X024922Y011486D01*
X024922Y011524D01*
X025378Y011524D01*
X025378Y011600D01*
X025928Y011600D01*
X025928Y011524D01*
X026384Y011524D01*
X026384Y011980D01*
X026309Y011980D01*
X026134Y011908D01*
X026000Y011774D01*
X025928Y011600D01*
X025969Y011699D02*
X025337Y011699D01*
X025306Y011774D02*
X025172Y011908D01*
X024998Y011980D01*
X024922Y011980D01*
X024922Y011524D01*
X024884Y011524D01*
X024884Y011486D01*
X024428Y011486D01*
X024428Y011411D01*
X024500Y011236D01*
X024511Y011225D01*
X023994Y011225D01*
X023623Y011596D01*
X023623Y012012D01*
X023709Y012047D01*
X023861Y012199D01*
X023943Y012398D01*
X023943Y012613D01*
X023861Y012811D01*
X023709Y012963D01*
X023511Y013045D01*
X023296Y013045D01*
X023097Y012963D01*
X022945Y012811D01*
X022910Y012725D01*
X022853Y012725D01*
X022853Y012875D01*
X022785Y013040D01*
X022658Y013167D01*
X022493Y013235D01*
X022314Y013235D01*
X022148Y013167D01*
X022022Y013040D01*
X021953Y012875D01*
X021953Y012366D01*
X021853Y012266D01*
X021853Y012875D01*
X021785Y013040D01*
X021658Y013167D01*
X021493Y013235D01*
X021314Y013235D01*
X021148Y013167D01*
X021022Y013040D01*
X020953Y012875D01*
X020953Y012136D01*
X021022Y011970D01*
X021148Y011844D01*
X021314Y011775D01*
X021362Y011775D01*
X020312Y010725D01*
X008443Y010725D01*
X008443Y010729D01*
X008153Y011019D01*
X008423Y011290D01*
X008423Y011455D01*
X007953Y011455D01*
X007953Y011555D01*
X008423Y011555D01*
X008423Y011721D01*
X008119Y012025D01*
X007953Y012025D01*
X007953Y011555D01*
X007853Y011555D01*
X007853Y012025D01*
X007688Y012025D01*
X007623Y011960D01*
X007623Y013164D01*
X007623Y013346D01*
X007408Y013562D01*
X007443Y013648D01*
X007443Y013863D01*
X007401Y013965D01*
X007511Y013965D01*
X009183Y013965D01*
X009183Y013867D02*
X007441Y013867D01*
X007443Y013768D02*
X009183Y013768D01*
X009183Y013670D02*
X007443Y013670D01*
X007411Y013571D02*
X009183Y013571D01*
X009183Y013473D02*
X007497Y013473D01*
X007595Y013374D02*
X009183Y013374D01*
X009183Y013276D02*
X007623Y013276D01*
X007623Y013177D02*
X009173Y013177D01*
X009060Y013078D02*
X007623Y013078D01*
X007623Y012980D02*
X008138Y012980D01*
X008097Y012963D02*
X007945Y012811D01*
X007863Y012613D01*
X007863Y012398D01*
X007945Y012199D01*
X008097Y012047D01*
X008296Y011965D01*
X008511Y011965D01*
X008709Y012047D01*
X008861Y012199D01*
X008943Y012398D01*
X008943Y012613D01*
X008861Y012811D01*
X008709Y012963D01*
X008511Y013045D01*
X008296Y013045D01*
X008097Y012963D01*
X008016Y012881D02*
X007623Y012881D01*
X007623Y012783D02*
X007934Y012783D01*
X007893Y012684D02*
X007623Y012684D01*
X007623Y012586D02*
X007863Y012586D01*
X007863Y012487D02*
X007623Y012487D01*
X007623Y012389D02*
X007867Y012389D01*
X007908Y012290D02*
X007623Y012290D01*
X007623Y012192D02*
X007953Y012192D01*
X008052Y012093D02*
X007623Y012093D01*
X007623Y011994D02*
X007657Y011994D01*
X007853Y011994D02*
X007953Y011994D01*
X007953Y011896D02*
X007853Y011896D01*
X007853Y011797D02*
X007953Y011797D01*
X007953Y011699D02*
X007853Y011699D01*
X007853Y011600D02*
X007953Y011600D01*
X007953Y011502D02*
X021089Y011502D01*
X021187Y011600D02*
X008423Y011600D01*
X008423Y011699D02*
X021286Y011699D01*
X021260Y011797D02*
X020546Y011797D01*
X020493Y011775D02*
X020658Y011844D01*
X020785Y011970D01*
X020853Y012136D01*
X020853Y012875D01*
X020785Y013040D01*
X020658Y013167D01*
X020493Y013235D01*
X020314Y013235D01*
X020148Y013167D01*
X020022Y013040D01*
X019953Y012875D01*
X019953Y012136D01*
X020022Y011970D01*
X020148Y011844D01*
X020314Y011775D01*
X020493Y011775D01*
X020260Y011797D02*
X019546Y011797D01*
X019493Y011775D02*
X019658Y011844D01*
X019785Y011970D01*
X019853Y012136D01*
X019853Y012875D01*
X019785Y013040D01*
X019658Y013167D01*
X019493Y013235D01*
X019314Y013235D01*
X019148Y013167D01*
X019022Y013040D01*
X018953Y012875D01*
X018953Y012136D01*
X019022Y011970D01*
X019148Y011844D01*
X019314Y011775D01*
X019493Y011775D01*
X019260Y011797D02*
X018546Y011797D01*
X018493Y011775D02*
X018658Y011844D01*
X018785Y011970D01*
X018853Y012136D01*
X018853Y012875D01*
X018785Y013040D01*
X018658Y013167D01*
X018493Y013235D01*
X018314Y013235D01*
X018148Y013167D01*
X018022Y013040D01*
X017953Y012875D01*
X017953Y012136D01*
X018022Y011970D01*
X018148Y011844D01*
X018314Y011775D01*
X018493Y011775D01*
X018260Y011797D02*
X017546Y011797D01*
X017493Y011775D02*
X017658Y011844D01*
X017785Y011970D01*
X017853Y012136D01*
X017853Y012875D01*
X017785Y013040D01*
X017658Y013167D01*
X017493Y013235D01*
X017314Y013235D01*
X017148Y013167D01*
X017022Y013040D01*
X016953Y012875D01*
X016953Y012136D01*
X017022Y011970D01*
X017148Y011844D01*
X017314Y011775D01*
X017493Y011775D01*
X017260Y011797D02*
X016546Y011797D01*
X016493Y011775D02*
X016658Y011844D01*
X016785Y011970D01*
X016853Y012136D01*
X016853Y012875D01*
X016785Y013040D01*
X016658Y013167D01*
X016493Y013235D01*
X016314Y013235D01*
X016148Y013167D01*
X016022Y013040D01*
X015953Y012875D01*
X015953Y012136D01*
X016022Y011970D01*
X016148Y011844D01*
X016314Y011775D01*
X016493Y011775D01*
X016260Y011797D02*
X015494Y011797D01*
X015489Y011795D02*
X015647Y011861D01*
X015768Y011982D01*
X015833Y012140D01*
X015833Y012475D01*
X015433Y012475D01*
X015433Y011795D01*
X015489Y011795D01*
X015433Y011797D02*
X015373Y011797D01*
X015373Y011795D02*
X015373Y012475D01*
X015433Y012475D01*
X015433Y012535D01*
X015373Y012535D01*
X015373Y012475D01*
X014973Y012475D01*
X014973Y012140D01*
X015039Y011982D01*
X015160Y011861D01*
X015318Y011795D01*
X015373Y011795D01*
X015312Y011797D02*
X014546Y011797D01*
X014493Y011775D02*
X014658Y011844D01*
X014785Y011970D01*
X014853Y012136D01*
X014853Y012875D01*
X014785Y013040D01*
X014658Y013167D01*
X014493Y013235D01*
X014314Y013235D01*
X014148Y013167D01*
X014022Y013040D01*
X013953Y012875D01*
X013953Y012136D01*
X014022Y011970D01*
X014148Y011844D01*
X014314Y011775D01*
X014493Y011775D01*
X014260Y011797D02*
X013546Y011797D01*
X013493Y011775D02*
X013658Y011844D01*
X013785Y011970D01*
X013853Y012136D01*
X013853Y012875D01*
X013785Y013040D01*
X013658Y013167D01*
X013493Y013235D01*
X013314Y013235D01*
X013148Y013167D01*
X013022Y013040D01*
X012953Y012875D01*
X012953Y012136D01*
X013022Y011970D01*
X013148Y011844D01*
X013314Y011775D01*
X013493Y011775D01*
X013260Y011797D02*
X012546Y011797D01*
X012493Y011775D02*
X012658Y011844D01*
X012785Y011970D01*
X012853Y012136D01*
X012853Y012875D01*
X012785Y013040D01*
X012658Y013167D01*
X012493Y013235D01*
X012314Y013235D01*
X012148Y013167D01*
X012022Y013040D01*
X011953Y012875D01*
X011953Y012136D01*
X012022Y011970D01*
X012148Y011844D01*
X012314Y011775D01*
X012493Y011775D01*
X012260Y011797D02*
X011546Y011797D01*
X011710Y011896D02*
X012096Y011896D01*
X012012Y011994D02*
X011795Y011994D01*
X011835Y012093D02*
X011971Y012093D01*
X011953Y012192D02*
X011853Y012192D01*
X011853Y012290D02*
X011953Y012290D01*
X011953Y012389D02*
X011853Y012389D01*
X011853Y012487D02*
X011953Y012487D01*
X011953Y012586D02*
X011853Y012586D01*
X011853Y012684D02*
X011953Y012684D01*
X011953Y012783D02*
X011853Y012783D01*
X011850Y012881D02*
X011956Y012881D01*
X011997Y012980D02*
X011810Y012980D01*
X011746Y013078D02*
X012060Y013078D01*
X012173Y013177D02*
X011633Y013177D01*
X011623Y013276D02*
X029322Y013276D01*
X029223Y013374D02*
X011623Y013374D01*
X011623Y013473D02*
X029125Y013473D01*
X029026Y013571D02*
X017149Y013571D01*
X017184Y013586D02*
X017323Y013725D01*
X017398Y013907D01*
X017398Y014104D01*
X017323Y014286D01*
X017184Y014425D01*
X017002Y014500D01*
X016805Y014500D01*
X016623Y014425D01*
X016484Y014286D01*
X016408Y014104D01*
X016408Y013907D01*
X016484Y013725D01*
X016623Y013586D01*
X016805Y013510D01*
X017002Y013510D01*
X017184Y013586D01*
X017268Y013670D02*
X028927Y013670D01*
X028829Y013768D02*
X017341Y013768D01*
X017382Y013867D02*
X028730Y013867D01*
X028632Y013965D02*
X017398Y013965D01*
X017398Y014064D02*
X028533Y014064D01*
X028435Y014162D02*
X017374Y014162D01*
X017333Y014261D02*
X028336Y014261D01*
X028238Y014360D02*
X017249Y014360D01*
X017103Y014458D02*
X028139Y014458D01*
X028041Y014557D02*
X027224Y014557D01*
X027323Y014655D02*
X027942Y014655D01*
X027844Y014754D02*
X027386Y014754D01*
X026903Y014999D02*
X027909Y014999D01*
X030903Y012005D01*
X028903Y010005D01*
X026903Y010005D01*
X026403Y010505D01*
X025944Y010319D02*
X025398Y010319D01*
X025398Y010221D02*
X025988Y010221D01*
X025984Y010225D02*
X026123Y010086D01*
X026305Y010010D01*
X026502Y010010D01*
X026562Y010035D01*
X026683Y009914D01*
X026812Y009785D01*
X028812Y009785D01*
X028994Y009785D01*
X030393Y011184D01*
X030363Y011113D01*
X030363Y010898D01*
X030399Y010812D01*
X028312Y008725D01*
X013812Y008725D01*
X013683Y008596D01*
X013096Y008010D01*
X013011Y008045D01*
X012796Y008045D01*
X012597Y007963D01*
X012445Y007811D01*
X012403Y007709D01*
X012361Y007811D01*
X012209Y007963D01*
X012011Y008045D01*
X011796Y008045D01*
X011725Y008016D01*
X011994Y008285D01*
X012494Y008285D01*
X012623Y008414D01*
X013100Y008891D01*
X013148Y008844D01*
X013314Y008775D01*
X013493Y008775D01*
X013658Y008844D01*
X013785Y008970D01*
X013853Y009136D01*
X013853Y009875D01*
X013785Y010040D01*
X013658Y010167D01*
X013493Y010235D01*
X013314Y010235D01*
X013148Y010167D01*
X013022Y010040D01*
X012953Y009875D01*
X012953Y009366D01*
X012853Y009266D01*
X012853Y009875D01*
X012785Y010040D01*
X012658Y010167D01*
X012493Y010235D01*
X012314Y010235D01*
X012148Y010167D01*
X012022Y010040D01*
X011953Y009875D01*
X011953Y009366D01*
X011853Y009266D01*
X011853Y009875D01*
X011785Y010040D01*
X011658Y010167D01*
X011493Y010235D01*
X011314Y010235D01*
X011148Y010167D01*
X011022Y010040D01*
X010953Y009875D01*
X010953Y009136D01*
X011022Y008970D01*
X011148Y008844D01*
X011314Y008775D01*
X011362Y008775D01*
X011312Y008725D01*
X010994Y008725D01*
X010812Y008725D01*
X010096Y008010D01*
X010011Y008045D01*
X009796Y008045D01*
X009597Y007963D01*
X009445Y007811D01*
X009403Y007709D01*
X009361Y007811D01*
X009209Y007963D01*
X009011Y008045D01*
X008796Y008045D01*
X008710Y008010D01*
X008434Y008285D01*
X008494Y008285D01*
X009994Y008285D01*
X010123Y008414D01*
X010484Y008775D01*
X010493Y008775D01*
X010658Y008844D01*
X010785Y008970D01*
X010853Y009136D01*
X010853Y009875D01*
X010785Y010040D01*
X010658Y010167D01*
X010493Y010235D01*
X010314Y010235D01*
X010148Y010167D01*
X010022Y010040D01*
X009953Y009875D01*
X009953Y009136D01*
X010022Y008970D01*
X010039Y008953D01*
X009812Y008725D01*
X008494Y008725D01*
X007623Y009596D01*
X007623Y010022D01*
X007679Y009965D01*
X008127Y009965D01*
X008443Y010282D01*
X008443Y010285D01*
X020494Y010285D01*
X020623Y010414D01*
X022101Y011891D01*
X022148Y011844D01*
X022314Y011775D01*
X022493Y011775D01*
X022658Y011844D01*
X022785Y011970D01*
X022853Y012136D01*
X022853Y012285D01*
X022910Y012285D01*
X022945Y012199D01*
X023097Y012047D01*
X023183Y012012D01*
X023183Y011414D01*
X023312Y011285D01*
X023812Y010785D01*
X023994Y010785D01*
X024408Y010785D01*
X024408Y010110D01*
X024508Y010010D01*
X025299Y010010D01*
X025398Y010110D01*
X025398Y010785D01*
X025983Y010785D01*
X025908Y010604D01*
X025908Y010407D01*
X025984Y010225D01*
X026086Y010122D02*
X025398Y010122D01*
X025312Y010024D02*
X026272Y010024D01*
X026534Y010024D02*
X026574Y010024D01*
X026672Y009925D02*
X023747Y009925D01*
X023709Y009963D02*
X023861Y009811D01*
X023943Y009613D01*
X023943Y009398D01*
X023861Y009199D01*
X023709Y009047D01*
X023511Y008965D01*
X023296Y008965D01*
X023097Y009047D01*
X022945Y009199D01*
X022863Y009398D01*
X022863Y009613D01*
X022945Y009811D01*
X023097Y009963D01*
X023296Y010045D01*
X023511Y010045D01*
X023709Y009963D01*
X023563Y010024D02*
X024494Y010024D01*
X024408Y010122D02*
X022703Y010122D01*
X022658Y010167D02*
X022493Y010235D01*
X022314Y010235D01*
X022148Y010167D01*
X022022Y010040D01*
X021953Y009875D01*
X021953Y009136D01*
X022022Y008970D01*
X022148Y008844D01*
X022314Y008775D01*
X022493Y008775D01*
X022658Y008844D01*
X022785Y008970D01*
X022853Y009136D01*
X022853Y009875D01*
X022785Y010040D01*
X022658Y010167D01*
X022528Y010221D02*
X024408Y010221D01*
X024408Y010319D02*
X020528Y010319D01*
X020493Y010235D02*
X020314Y010235D01*
X020148Y010167D01*
X020022Y010040D01*
X019953Y009875D01*
X019953Y009136D01*
X020022Y008970D01*
X020148Y008844D01*
X020314Y008775D01*
X020493Y008775D01*
X020658Y008844D01*
X020785Y008970D01*
X020853Y009136D01*
X020853Y009875D01*
X020785Y010040D01*
X020658Y010167D01*
X020493Y010235D01*
X020528Y010221D02*
X021279Y010221D01*
X021314Y010235D02*
X021148Y010167D01*
X021022Y010040D01*
X020953Y009875D01*
X020953Y009136D01*
X021022Y008970D01*
X021148Y008844D01*
X021314Y008775D01*
X021493Y008775D01*
X021658Y008844D01*
X021785Y008970D01*
X021853Y009136D01*
X021853Y009875D01*
X021785Y010040D01*
X021658Y010167D01*
X021493Y010235D01*
X021314Y010235D01*
X021528Y010221D02*
X022279Y010221D01*
X022104Y010122D02*
X021703Y010122D01*
X021791Y010024D02*
X022015Y010024D01*
X021974Y009925D02*
X021832Y009925D01*
X021853Y009827D02*
X021953Y009827D01*
X021953Y009728D02*
X021853Y009728D01*
X021853Y009629D02*
X021953Y009629D01*
X021953Y009531D02*
X021853Y009531D01*
X021853Y009432D02*
X021953Y009432D01*
X021953Y009334D02*
X021853Y009334D01*
X021853Y009235D02*
X021953Y009235D01*
X021953Y009137D02*
X021853Y009137D01*
X021813Y009038D02*
X021994Y009038D01*
X022052Y008940D02*
X021754Y008940D01*
X021652Y008841D02*
X022154Y008841D01*
X022652Y008841D02*
X028428Y008841D01*
X028329Y008743D02*
X012952Y008743D01*
X013050Y008841D02*
X013154Y008841D01*
X012853Y008644D02*
X013731Y008644D01*
X013632Y008545D02*
X012754Y008545D01*
X012656Y008447D02*
X013534Y008447D01*
X013435Y008348D02*
X012557Y008348D01*
X012403Y008505D02*
X011903Y008505D01*
X011403Y008005D01*
X011403Y007005D01*
X010903Y006505D01*
X009903Y006505D01*
X008903Y007505D01*
X006903Y009505D01*
X006903Y010505D01*
X006523Y010122D02*
X006284Y010122D01*
X006382Y010221D02*
X006424Y010221D01*
X006403Y010242D02*
X006679Y009965D01*
X006683Y009965D01*
X006683Y009414D01*
X006812Y009285D01*
X008118Y007979D01*
X008007Y008025D01*
X007953Y008025D01*
X007953Y007555D01*
X007853Y007555D01*
X007853Y008025D01*
X007800Y008025D01*
X007609Y007946D01*
X007462Y007800D01*
X007414Y007683D01*
X007361Y007811D01*
X007209Y007963D01*
X007011Y008045D01*
X006796Y008045D01*
X006710Y008010D01*
X005623Y009096D01*
X005623Y010022D01*
X005679Y009965D01*
X006127Y009965D01*
X006403Y010242D01*
X006185Y010024D02*
X006621Y010024D01*
X006683Y009925D02*
X005623Y009925D01*
X005623Y009827D02*
X006683Y009827D01*
X006683Y009728D02*
X005623Y009728D01*
X005623Y009629D02*
X006683Y009629D01*
X006683Y009531D02*
X005623Y009531D01*
X005623Y009432D02*
X006683Y009432D01*
X006763Y009334D02*
X005623Y009334D01*
X005623Y009235D02*
X006862Y009235D01*
X006960Y009137D02*
X005623Y009137D01*
X005681Y009038D02*
X007059Y009038D01*
X007158Y008940D02*
X005780Y008940D01*
X005878Y008841D02*
X007256Y008841D01*
X007355Y008743D02*
X005977Y008743D01*
X006075Y008644D02*
X007453Y008644D01*
X007552Y008545D02*
X006174Y008545D01*
X006272Y008447D02*
X007650Y008447D01*
X007749Y008348D02*
X006371Y008348D01*
X006470Y008250D02*
X007847Y008250D01*
X007946Y008151D02*
X006568Y008151D01*
X006667Y008053D02*
X008044Y008053D01*
X007953Y007954D02*
X007853Y007954D01*
X007853Y007856D02*
X007953Y007856D01*
X007953Y007757D02*
X007853Y007757D01*
X007853Y007659D02*
X007953Y007659D01*
X007953Y007560D02*
X007853Y007560D01*
X007853Y007363D02*
X007953Y007363D01*
X007953Y007264D02*
X007853Y007264D01*
X007853Y007166D02*
X007953Y007166D01*
X007953Y007067D02*
X007853Y007067D01*
X007751Y006969D02*
X008787Y006969D01*
X008577Y007067D02*
X008201Y007067D01*
X008299Y007166D02*
X008479Y007166D01*
X008418Y007264D02*
X008366Y007264D01*
X009019Y006969D02*
X009128Y006969D01*
X009227Y006870D02*
X007849Y006870D01*
X007948Y006772D02*
X009326Y006772D01*
X009424Y006673D02*
X008046Y006673D01*
X008145Y006575D02*
X009523Y006575D01*
X009621Y006476D02*
X008243Y006476D01*
X008342Y006378D02*
X009720Y006378D01*
X008638Y006082D02*
X030422Y006082D01*
X030228Y005983D02*
X017108Y005983D01*
X016953Y005983D02*
X016853Y005983D01*
X016853Y005885D02*
X016953Y005885D01*
X016953Y005786D02*
X016853Y005786D01*
X016853Y005688D02*
X016953Y005688D01*
X016953Y005589D02*
X016853Y005589D01*
X016953Y005491D02*
X024862Y005491D01*
X024862Y005459D02*
X024862Y005459D01*
X024862Y005252D01*
X024862Y005065D01*
X024940Y004988D01*
X024994Y004934D01*
X025015Y004913D01*
X025093Y004835D01*
X025289Y004835D01*
X025476Y004835D01*
X025557Y004917D01*
X025639Y004835D01*
X026219Y004835D01*
X026350Y004967D01*
X026350Y005153D01*
X026247Y005257D01*
X026320Y005330D01*
X026635Y004858D01*
X026817Y004821D01*
X026892Y004871D01*
X026928Y004835D01*
X027321Y004835D01*
X027508Y004835D01*
X027540Y004867D01*
X027572Y004835D01*
X028152Y004835D01*
X028284Y004967D01*
X028284Y005153D01*
X028180Y005257D01*
X028253Y005330D01*
X028568Y004858D01*
X028751Y004821D01*
X028884Y004910D01*
X028960Y004835D01*
X029157Y004835D01*
X029343Y004835D01*
X029441Y004934D01*
X029573Y005065D01*
X029573Y005164D01*
X029573Y005350D01*
X029568Y005355D01*
X029573Y005361D01*
X029573Y005645D01*
X029441Y005777D01*
X029343Y005876D01*
X029146Y005876D01*
X028960Y005876D01*
X028960Y005876D01*
X028884Y005800D01*
X028861Y005777D01*
X028805Y005721D01*
X028729Y005646D01*
X028729Y005645D01*
X028729Y005547D01*
X028729Y005427D01*
X028445Y005853D01*
X028263Y005890D01*
X028108Y005786D01*
X028045Y005786D01*
X028087Y005744D02*
X027955Y005876D01*
X027769Y005876D01*
X027637Y005744D01*
X027637Y005648D01*
X027409Y005876D01*
X027223Y005876D01*
X027026Y005876D01*
X026948Y005798D01*
X026928Y005777D01*
X026928Y005777D01*
X026874Y005723D01*
X026796Y005646D01*
X026796Y005459D01*
X026796Y005427D01*
X026512Y005853D01*
X026329Y005890D01*
X026174Y005786D01*
X026164Y005734D01*
X026154Y005744D01*
X026022Y005876D01*
X025835Y005876D01*
X025704Y005744D01*
X025704Y005648D01*
X025608Y005744D01*
X025476Y005876D01*
X025279Y005876D01*
X025093Y005876D01*
X025093Y005876D01*
X025017Y005800D01*
X024994Y005777D01*
X024974Y005757D01*
X024862Y005646D01*
X024862Y005459D01*
X024862Y005392D02*
X017419Y005392D01*
X017378Y005294D02*
X024862Y005294D01*
X024862Y005195D02*
X017328Y005195D01*
X017230Y005096D02*
X024862Y005096D01*
X024930Y004998D02*
X017037Y004998D01*
X016953Y004998D02*
X016853Y004998D01*
X016769Y004998D02*
X016090Y004998D01*
X016258Y005096D02*
X016576Y005096D01*
X016478Y005195D02*
X016357Y005195D01*
X016400Y005294D02*
X016428Y005294D01*
X016853Y005294D02*
X016953Y005294D01*
X016953Y005392D02*
X016853Y005392D01*
X016853Y005195D02*
X016953Y005195D01*
X016953Y005096D02*
X016853Y005096D01*
X017423Y005589D02*
X024862Y005589D01*
X024905Y005688D02*
X017390Y005688D01*
X017350Y005786D02*
X025003Y005786D01*
X024994Y005777D02*
X024994Y005777D01*
X025565Y005786D02*
X025746Y005786D01*
X025704Y005688D02*
X025664Y005688D01*
X026111Y005786D02*
X026174Y005786D01*
X026322Y005885D02*
X017259Y005885D01*
X016699Y005983D02*
X016160Y005983D01*
X016287Y005885D02*
X016547Y005885D01*
X016457Y005786D02*
X016371Y005786D01*
X016412Y005688D02*
X016416Y005688D01*
X015717Y004998D02*
X015707Y004998D01*
X015608Y004899D02*
X025028Y004899D01*
X024994Y004934D02*
X024994Y004934D01*
X025540Y004899D02*
X025574Y004899D01*
X026283Y004899D02*
X026607Y004899D01*
X026541Y004998D02*
X026350Y004998D01*
X026350Y005096D02*
X026475Y005096D01*
X026410Y005195D02*
X026309Y005195D01*
X026283Y005294D02*
X026344Y005294D01*
X026688Y005589D02*
X026796Y005589D01*
X026796Y005491D02*
X026753Y005491D01*
X026838Y005688D02*
X026622Y005688D01*
X026556Y005786D02*
X026937Y005786D01*
X027499Y005786D02*
X027680Y005786D01*
X027637Y005688D02*
X027597Y005688D01*
X028087Y005744D02*
X028097Y005734D01*
X028108Y005786D01*
X028256Y005885D02*
X026353Y005885D01*
X028286Y005885D02*
X030129Y005885D01*
X030045Y005786D02*
X029432Y005786D01*
X029441Y005777D02*
X029441Y005777D01*
X029531Y005688D02*
X030004Y005688D01*
X029964Y005589D02*
X029573Y005589D01*
X029573Y005491D02*
X029946Y005491D01*
X029946Y005392D02*
X029573Y005392D01*
X029573Y005350D02*
X029573Y005350D01*
X029573Y005294D02*
X029946Y005294D01*
X029972Y005195D02*
X029573Y005195D01*
X029573Y005096D02*
X030013Y005096D01*
X030054Y004998D02*
X029506Y004998D01*
X029407Y004899D02*
X030150Y004899D01*
X030249Y004801D02*
X015510Y004801D01*
X014903Y005505D02*
X008903Y005505D01*
X008539Y006180D02*
X031193Y006180D01*
X031193Y006082D02*
X030912Y006082D01*
X031106Y005983D02*
X031193Y005983D01*
X031193Y006279D02*
X008440Y006279D01*
X011087Y006378D02*
X031193Y006378D01*
X031193Y006476D02*
X011185Y006476D01*
X011284Y006575D02*
X031193Y006575D01*
X031193Y006673D02*
X011382Y006673D01*
X011481Y006772D02*
X031193Y006772D01*
X031193Y006870D02*
X028079Y006870D01*
X028178Y006969D02*
X031193Y006969D01*
X031193Y007067D02*
X028276Y007067D01*
X028375Y007166D02*
X031193Y007166D01*
X031193Y007264D02*
X028473Y007264D01*
X028572Y007363D02*
X031193Y007363D01*
X031193Y007461D02*
X028671Y007461D01*
X028769Y007560D02*
X031193Y007560D01*
X031193Y007659D02*
X028868Y007659D01*
X028966Y007757D02*
X031193Y007757D01*
X031193Y007856D02*
X029065Y007856D01*
X029163Y007954D02*
X031193Y007954D01*
X031193Y008053D02*
X029262Y008053D01*
X029360Y008151D02*
X031193Y008151D01*
X031193Y008250D02*
X029459Y008250D01*
X029557Y008348D02*
X031193Y008348D01*
X031193Y008447D02*
X029656Y008447D01*
X029755Y008545D02*
X030602Y008545D01*
X030501Y008644D02*
X029853Y008644D01*
X029952Y008743D02*
X030427Y008743D01*
X030387Y008841D02*
X030050Y008841D01*
X030149Y008940D02*
X030363Y008940D01*
X030363Y009038D02*
X030247Y009038D01*
X030346Y009137D02*
X030373Y009137D01*
X029315Y009728D02*
X023895Y009728D01*
X023936Y009629D02*
X029216Y009629D01*
X029118Y009531D02*
X023943Y009531D01*
X023943Y009432D02*
X029019Y009432D01*
X028921Y009334D02*
X023917Y009334D01*
X023876Y009235D02*
X028822Y009235D01*
X028724Y009137D02*
X023798Y009137D01*
X023687Y009038D02*
X028625Y009038D01*
X028526Y008940D02*
X022754Y008940D01*
X022813Y009038D02*
X023119Y009038D01*
X023008Y009137D02*
X022853Y009137D01*
X022853Y009235D02*
X022930Y009235D01*
X022890Y009334D02*
X022853Y009334D01*
X022853Y009432D02*
X022863Y009432D01*
X022853Y009531D02*
X022863Y009531D01*
X022853Y009629D02*
X022870Y009629D01*
X022853Y009728D02*
X022911Y009728D01*
X022961Y009827D02*
X022853Y009827D01*
X022832Y009925D02*
X023059Y009925D01*
X023244Y010024D02*
X022791Y010024D01*
X023845Y009827D02*
X026771Y009827D01*
X025908Y010418D02*
X025398Y010418D01*
X025398Y010516D02*
X025908Y010516D01*
X025913Y010615D02*
X025398Y010615D01*
X025398Y010713D02*
X025954Y010713D01*
X026903Y011005D02*
X023903Y011005D01*
X023403Y011505D01*
X023403Y012505D01*
X022403Y012505D01*
X020403Y010505D01*
X007903Y010505D01*
X008360Y010812D02*
X020399Y010812D01*
X020497Y010911D02*
X008261Y010911D01*
X008163Y011009D02*
X020596Y011009D01*
X020694Y011108D02*
X008241Y011108D01*
X008339Y011206D02*
X020793Y011206D01*
X020892Y011305D02*
X008423Y011305D01*
X008423Y011403D02*
X020990Y011403D01*
X021317Y011108D02*
X023490Y011108D01*
X023391Y011206D02*
X021415Y011206D01*
X021514Y011305D02*
X023293Y011305D01*
X023194Y011403D02*
X021612Y011403D01*
X021711Y011502D02*
X023183Y011502D01*
X023183Y011600D02*
X021809Y011600D01*
X021908Y011699D02*
X023183Y011699D01*
X023183Y011797D02*
X022546Y011797D01*
X022710Y011896D02*
X023183Y011896D01*
X023183Y011994D02*
X022795Y011994D01*
X022835Y012093D02*
X023052Y012093D01*
X022953Y012192D02*
X022853Y012192D01*
X023623Y011994D02*
X027291Y011994D01*
X027094Y011896D02*
X026684Y011896D01*
X026783Y011797D02*
X026995Y011797D01*
X026948Y011699D02*
X026837Y011699D01*
X026908Y011502D02*
X026422Y011502D01*
X026384Y011502D02*
X024922Y011502D01*
X024884Y011502D02*
X023718Y011502D01*
X023623Y011600D02*
X024428Y011600D01*
X024428Y011524D01*
X024884Y011524D01*
X024884Y011980D01*
X024809Y011980D01*
X024634Y011908D01*
X024500Y011774D01*
X024428Y011600D01*
X024469Y011699D02*
X023623Y011699D01*
X023623Y011797D02*
X024524Y011797D01*
X024622Y011896D02*
X023623Y011896D01*
X023755Y012093D02*
X030363Y012093D01*
X030363Y011994D02*
X027515Y011994D01*
X027712Y011896D02*
X030364Y011896D01*
X030384Y011797D02*
X027811Y011797D01*
X027859Y011699D02*
X030286Y011699D01*
X030187Y011600D02*
X027898Y011600D01*
X027898Y011502D02*
X030089Y011502D01*
X029990Y011403D02*
X027897Y011403D01*
X027856Y011305D02*
X029892Y011305D01*
X029793Y011206D02*
X027804Y011206D01*
X027706Y011108D02*
X029694Y011108D01*
X029596Y011009D02*
X027210Y011009D01*
X026903Y011005D02*
X027403Y010505D01*
X027862Y010319D02*
X028906Y010319D01*
X029005Y010418D02*
X027898Y010418D01*
X027898Y010516D02*
X029103Y010516D01*
X029202Y010615D02*
X027893Y010615D01*
X027853Y010713D02*
X029300Y010713D01*
X029399Y010812D02*
X027796Y010812D01*
X027698Y010911D02*
X029497Y010911D01*
X029922Y010713D02*
X030300Y010713D01*
X030202Y010615D02*
X029824Y010615D01*
X029725Y010516D02*
X030103Y010516D01*
X030005Y010418D02*
X029627Y010418D01*
X029528Y010319D02*
X029906Y010319D01*
X029808Y010221D02*
X029430Y010221D01*
X029331Y010122D02*
X029709Y010122D01*
X029610Y010024D02*
X029233Y010024D01*
X029134Y009925D02*
X029512Y009925D01*
X029413Y009827D02*
X029036Y009827D01*
X030903Y010005D02*
X027903Y007005D01*
X012403Y007005D01*
X011903Y007505D01*
X012316Y007856D02*
X012490Y007856D01*
X012423Y007757D02*
X012383Y007757D01*
X012218Y007954D02*
X012589Y007954D01*
X013140Y008053D02*
X011762Y008053D01*
X011860Y008151D02*
X013238Y008151D01*
X013337Y008250D02*
X011959Y008250D01*
X012403Y008505D02*
X013403Y009505D01*
X012953Y009531D02*
X012853Y009531D01*
X012853Y009629D02*
X012953Y009629D01*
X012953Y009728D02*
X012853Y009728D01*
X012853Y009827D02*
X012953Y009827D01*
X012974Y009925D02*
X012832Y009925D01*
X012791Y010024D02*
X013015Y010024D01*
X013104Y010122D02*
X012703Y010122D01*
X012528Y010221D02*
X013279Y010221D01*
X013528Y010221D02*
X014279Y010221D01*
X014314Y010235D02*
X014148Y010167D01*
X014022Y010040D01*
X013953Y009875D01*
X013953Y009136D01*
X014022Y008970D01*
X014148Y008844D01*
X014314Y008775D01*
X014493Y008775D01*
X014658Y008844D01*
X014785Y008970D01*
X014853Y009136D01*
X014853Y009875D01*
X014785Y010040D01*
X014658Y010167D01*
X014493Y010235D01*
X014314Y010235D01*
X014528Y010221D02*
X015279Y010221D01*
X015314Y010235D02*
X015148Y010167D01*
X015022Y010040D01*
X014953Y009875D01*
X014953Y009136D01*
X015022Y008970D01*
X015148Y008844D01*
X015314Y008775D01*
X015493Y008775D01*
X015658Y008844D01*
X015785Y008970D01*
X015853Y009136D01*
X015853Y009875D01*
X015785Y010040D01*
X015658Y010167D01*
X015493Y010235D01*
X015314Y010235D01*
X015528Y010221D02*
X017279Y010221D01*
X017314Y010235D02*
X017148Y010167D01*
X017022Y010040D01*
X016953Y009875D01*
X016953Y009136D01*
X017022Y008970D01*
X017148Y008844D01*
X017314Y008775D01*
X017493Y008775D01*
X017658Y008844D01*
X017785Y008970D01*
X017853Y009136D01*
X017853Y009875D01*
X017785Y010040D01*
X017658Y010167D01*
X017493Y010235D01*
X017314Y010235D01*
X017528Y010221D02*
X018279Y010221D01*
X018314Y010235D02*
X018148Y010167D01*
X018022Y010040D01*
X017953Y009875D01*
X017953Y009136D01*
X018022Y008970D01*
X018148Y008844D01*
X018314Y008775D01*
X018493Y008775D01*
X018658Y008844D01*
X018785Y008970D01*
X018853Y009136D01*
X018853Y009875D01*
X018785Y010040D01*
X018658Y010167D01*
X018493Y010235D01*
X018314Y010235D01*
X018528Y010221D02*
X019279Y010221D01*
X019314Y010235D02*
X019148Y010167D01*
X019022Y010040D01*
X018953Y009875D01*
X018953Y009136D01*
X019022Y008970D01*
X019148Y008844D01*
X019314Y008775D01*
X019493Y008775D01*
X019658Y008844D01*
X019785Y008970D01*
X019853Y009136D01*
X019853Y009875D01*
X019785Y010040D01*
X019658Y010167D01*
X019493Y010235D01*
X019314Y010235D01*
X019528Y010221D02*
X020279Y010221D01*
X020104Y010122D02*
X019703Y010122D01*
X019791Y010024D02*
X020015Y010024D01*
X019974Y009925D02*
X019832Y009925D01*
X019853Y009827D02*
X019953Y009827D01*
X019953Y009728D02*
X019853Y009728D01*
X019853Y009629D02*
X019953Y009629D01*
X019953Y009531D02*
X019853Y009531D01*
X019853Y009432D02*
X019953Y009432D01*
X019953Y009334D02*
X019853Y009334D01*
X019853Y009235D02*
X019953Y009235D01*
X019953Y009137D02*
X019853Y009137D01*
X019813Y009038D02*
X019994Y009038D01*
X020052Y008940D02*
X019754Y008940D01*
X019652Y008841D02*
X020154Y008841D01*
X020652Y008841D02*
X021154Y008841D01*
X021052Y008940D02*
X020754Y008940D01*
X020813Y009038D02*
X020994Y009038D01*
X020953Y009137D02*
X020853Y009137D01*
X020853Y009235D02*
X020953Y009235D01*
X020953Y009334D02*
X020853Y009334D01*
X020853Y009432D02*
X020953Y009432D01*
X020953Y009531D02*
X020853Y009531D01*
X020853Y009629D02*
X020953Y009629D01*
X020953Y009728D02*
X020853Y009728D01*
X020853Y009827D02*
X020953Y009827D01*
X020974Y009925D02*
X020832Y009925D01*
X020791Y010024D02*
X021015Y010024D01*
X021104Y010122D02*
X020703Y010122D01*
X020627Y010418D02*
X024408Y010418D01*
X024408Y010516D02*
X020725Y010516D01*
X020824Y010615D02*
X024408Y010615D01*
X024408Y010713D02*
X020922Y010713D01*
X021021Y010812D02*
X023785Y010812D01*
X023687Y010911D02*
X021120Y010911D01*
X021218Y011009D02*
X023588Y011009D01*
X023915Y011305D02*
X024472Y011305D01*
X024431Y011403D02*
X023816Y011403D01*
X024884Y011600D02*
X024922Y011600D01*
X024922Y011699D02*
X024884Y011699D01*
X024884Y011797D02*
X024922Y011797D01*
X024922Y011896D02*
X024884Y011896D01*
X025184Y011896D02*
X026122Y011896D01*
X026024Y011797D02*
X025283Y011797D01*
X025306Y011774D02*
X025378Y011600D01*
X025375Y011403D02*
X025931Y011403D01*
X025972Y011305D02*
X025334Y011305D01*
X026384Y011600D02*
X026422Y011600D01*
X026422Y011699D02*
X026384Y011699D01*
X026384Y011797D02*
X026422Y011797D01*
X026422Y011896D02*
X026384Y011896D01*
X026875Y011403D02*
X026910Y011403D01*
X026950Y011305D02*
X026834Y011305D01*
X023939Y012389D02*
X030209Y012389D01*
X030307Y012290D02*
X023899Y012290D01*
X023853Y012192D02*
X030396Y012192D01*
X030110Y012487D02*
X023943Y012487D01*
X023943Y012586D02*
X030011Y012586D01*
X029913Y012684D02*
X023913Y012684D01*
X023873Y012783D02*
X029814Y012783D01*
X029716Y012881D02*
X023791Y012881D01*
X023668Y012980D02*
X029617Y012980D01*
X029519Y013078D02*
X022746Y013078D01*
X022810Y012980D02*
X023138Y012980D01*
X023016Y012881D02*
X022850Y012881D01*
X022853Y012783D02*
X022934Y012783D01*
X022633Y013177D02*
X029420Y013177D01*
X029747Y013473D02*
X030673Y013473D01*
X030602Y013571D02*
X029648Y013571D01*
X029550Y013670D02*
X030503Y013670D01*
X030438Y013768D02*
X029451Y013768D01*
X029353Y013867D02*
X030398Y013867D01*
X030853Y013867D02*
X030953Y013867D01*
X030953Y013768D02*
X030853Y013768D01*
X030853Y013670D02*
X030953Y013670D01*
X030953Y013571D02*
X030853Y013571D01*
X030853Y013473D02*
X030953Y013473D01*
X030953Y013374D02*
X030853Y013374D01*
X030853Y013276D02*
X030953Y013276D01*
X030953Y013177D02*
X030853Y013177D01*
X030853Y013078D02*
X030953Y013078D01*
X030853Y012980D02*
X030239Y012980D01*
X030141Y013078D02*
X030383Y013078D01*
X030411Y013177D02*
X030042Y013177D01*
X029944Y013276D02*
X030452Y013276D01*
X030537Y013374D02*
X029845Y013374D01*
X030338Y012881D02*
X030392Y012881D01*
X030853Y013965D02*
X029254Y013965D01*
X029156Y014064D02*
X030383Y014064D01*
X030405Y014162D02*
X029057Y014162D01*
X028958Y014261D02*
X030446Y014261D01*
X030522Y014360D02*
X028860Y014360D01*
X028761Y014458D02*
X030638Y014458D01*
X030853Y014458D02*
X030953Y014458D01*
X030953Y014360D02*
X030853Y014360D01*
X030853Y014261D02*
X030953Y014261D01*
X030953Y014162D02*
X030853Y014162D01*
X030853Y014064D02*
X030953Y014064D01*
X031168Y014458D02*
X031193Y014458D01*
X031193Y014557D02*
X028663Y014557D01*
X028564Y014655D02*
X031193Y014655D01*
X031193Y014754D02*
X028466Y014754D01*
X028367Y014852D02*
X031193Y014852D01*
X031193Y014951D02*
X028269Y014951D01*
X028170Y015049D02*
X031193Y015049D01*
X031193Y015148D02*
X028072Y015148D01*
X027385Y015246D02*
X031193Y015246D01*
X031193Y015345D02*
X027321Y015345D01*
X027223Y015444D02*
X031193Y015444D01*
X031193Y015542D02*
X027123Y015542D01*
X027123Y015641D02*
X031193Y015641D01*
X031193Y015739D02*
X027123Y015739D01*
X027123Y015838D02*
X031193Y015838D01*
X031193Y015936D02*
X027123Y015936D01*
X027123Y016035D02*
X031193Y016035D01*
X031193Y016133D02*
X027123Y016133D01*
X027123Y016232D02*
X031193Y016232D01*
X031193Y016330D02*
X027123Y016330D01*
X027123Y016429D02*
X031193Y016429D01*
X031193Y016527D02*
X027123Y016527D01*
X027123Y016626D02*
X031193Y016626D01*
X031193Y016725D02*
X027123Y016725D01*
X027123Y016823D02*
X031193Y016823D01*
X031193Y016922D02*
X030896Y016922D01*
X031099Y017020D02*
X031193Y017020D01*
X030438Y016922D02*
X027131Y016922D01*
X027229Y017020D02*
X030234Y017020D01*
X030136Y017119D02*
X028965Y017119D01*
X029022Y017217D02*
X030048Y017217D01*
X030007Y017316D02*
X029022Y017316D01*
X029022Y017414D02*
X029966Y017414D01*
X029946Y017513D02*
X029022Y017513D01*
X029022Y017710D02*
X029946Y017710D01*
X029946Y017611D02*
X028552Y017611D01*
X028551Y017513D02*
X028452Y017513D01*
X028452Y017414D02*
X028551Y017414D01*
X028551Y017316D02*
X028452Y017316D01*
X028452Y017217D02*
X028551Y017217D01*
X028551Y017119D02*
X028452Y017119D01*
X028038Y017119D02*
X027733Y017119D01*
X027875Y017217D02*
X027982Y017217D01*
X027982Y017316D02*
X027965Y017316D01*
X027502Y017604D02*
X026903Y017005D01*
X026903Y014999D01*
X026420Y014754D02*
X026386Y014754D01*
X026323Y014655D02*
X026484Y014655D01*
X026582Y014557D02*
X026224Y014557D01*
X025582Y014557D02*
X025413Y014557D01*
X025423Y014655D02*
X025484Y014655D01*
X024953Y014655D02*
X024853Y014655D01*
X024853Y014557D02*
X024953Y014557D01*
X024853Y014479D02*
X024853Y014949D01*
X024383Y014949D01*
X024383Y014567D01*
X024471Y014479D01*
X024853Y014479D01*
X024853Y014754D02*
X024953Y014754D01*
X024953Y014852D02*
X024853Y014852D01*
X024853Y014951D02*
X017378Y014951D01*
X017378Y014986D02*
X016922Y014986D01*
X016922Y014530D01*
X016998Y014530D01*
X017172Y014603D01*
X017306Y014736D01*
X017378Y014911D01*
X017378Y014986D01*
X017378Y015024D02*
X016922Y015024D01*
X016922Y014986D01*
X016884Y014986D01*
X016884Y014530D01*
X016809Y014530D01*
X016634Y014603D01*
X016500Y014736D01*
X016428Y014911D01*
X016428Y014986D01*
X016884Y014986D01*
X016884Y015024D01*
X016428Y015024D01*
X016428Y015100D01*
X016500Y015274D01*
X016634Y015408D01*
X016809Y015480D01*
X016884Y015480D01*
X016884Y015024D01*
X016922Y015024D01*
X016922Y015480D01*
X016998Y015480D01*
X017172Y015408D01*
X017306Y015274D01*
X017378Y015100D01*
X017378Y015024D01*
X017378Y015049D02*
X024383Y015049D01*
X024853Y015049D01*
X024853Y015519D01*
X024471Y015519D01*
X024383Y015431D01*
X024383Y015049D01*
X024383Y015148D02*
X017358Y015148D01*
X017317Y015246D02*
X024383Y015246D01*
X024383Y015345D02*
X017235Y015345D01*
X017086Y015444D02*
X024395Y015444D01*
X024853Y015444D02*
X024953Y015444D01*
X024953Y015345D02*
X024853Y015345D01*
X024853Y015246D02*
X024953Y015246D01*
X024953Y015148D02*
X024853Y015148D01*
X024383Y014852D02*
X017354Y014852D01*
X017313Y014754D02*
X024383Y014754D01*
X024383Y014655D02*
X017225Y014655D01*
X017061Y014557D02*
X024394Y014557D01*
X025423Y015345D02*
X025485Y015345D01*
X025411Y015444D02*
X025584Y015444D01*
X025683Y015542D02*
X016747Y015542D01*
X016720Y015444D02*
X016649Y015444D01*
X016571Y015345D02*
X016550Y015345D01*
X016489Y015246D02*
X012955Y015246D01*
X012857Y015148D02*
X016448Y015148D01*
X016428Y015049D02*
X012758Y015049D01*
X012686Y014951D02*
X012660Y014951D01*
X012470Y014754D02*
X012463Y014754D01*
X012430Y014655D02*
X012364Y014655D01*
X012408Y014557D02*
X012266Y014557D01*
X012167Y014458D02*
X012408Y014458D01*
X012428Y014360D02*
X012069Y014360D01*
X011970Y014261D02*
X012469Y014261D01*
X012546Y014162D02*
X011871Y014162D01*
X011773Y014064D02*
X012675Y014064D01*
X013131Y014064D02*
X014675Y014064D01*
X014623Y014086D02*
X014805Y014010D01*
X015002Y014010D01*
X015184Y014086D01*
X015323Y014225D01*
X015398Y014407D01*
X015398Y014604D01*
X015323Y014786D01*
X015184Y014925D01*
X015002Y015000D01*
X014805Y015000D01*
X014623Y014925D01*
X014484Y014786D01*
X014408Y014604D01*
X014408Y014407D01*
X014484Y014225D01*
X014623Y014086D01*
X014546Y014162D02*
X013260Y014162D01*
X013338Y014261D02*
X014469Y014261D01*
X014428Y014360D02*
X013379Y014360D01*
X013398Y014458D02*
X014408Y014458D01*
X014408Y014557D02*
X013398Y014557D01*
X013377Y014655D02*
X014429Y014655D01*
X014470Y014754D02*
X013336Y014754D01*
X013256Y014852D02*
X014550Y014852D01*
X014686Y014951D02*
X013121Y014951D01*
X012432Y015345D02*
X011235Y015345D01*
X011172Y015408D02*
X011306Y015274D01*
X011378Y015100D01*
X011378Y015024D01*
X010922Y015024D01*
X010922Y014986D01*
X010922Y014530D01*
X010998Y014530D01*
X011172Y014603D01*
X011306Y014736D01*
X011378Y014911D01*
X011378Y014986D01*
X010922Y014986D01*
X010884Y014986D01*
X010884Y014530D01*
X010809Y014530D01*
X010634Y014603D01*
X010623Y014614D01*
X010623Y014425D01*
X010805Y014500D01*
X011002Y014500D01*
X011184Y014425D01*
X011323Y014286D01*
X011337Y014250D01*
X012683Y015596D01*
X012812Y015725D01*
X016308Y015725D01*
X017680Y017097D01*
X017609Y017068D01*
X017394Y017068D01*
X017308Y017103D01*
X015990Y015785D01*
X015808Y015785D01*
X010994Y015785D01*
X010623Y015414D01*
X010623Y015397D01*
X010634Y015408D01*
X010809Y015480D01*
X010884Y015480D01*
X010884Y015024D01*
X010922Y015024D01*
X010922Y015480D01*
X010998Y015480D01*
X011172Y015408D01*
X011086Y015444D02*
X012530Y015444D01*
X012629Y015542D02*
X010751Y015542D01*
X010720Y015444D02*
X010653Y015444D01*
X010884Y015444D02*
X010922Y015444D01*
X010922Y015345D02*
X010884Y015345D01*
X010884Y015246D02*
X010922Y015246D01*
X010922Y015148D02*
X010884Y015148D01*
X010884Y015049D02*
X010922Y015049D01*
X010922Y014951D02*
X010884Y014951D01*
X010884Y014852D02*
X010922Y014852D01*
X010922Y014754D02*
X010884Y014754D01*
X010884Y014655D02*
X010922Y014655D01*
X010922Y014557D02*
X010884Y014557D01*
X010745Y014557D02*
X010623Y014557D01*
X010623Y014458D02*
X010703Y014458D01*
X011061Y014557D02*
X011643Y014557D01*
X011545Y014458D02*
X011103Y014458D01*
X011249Y014360D02*
X011446Y014360D01*
X011348Y014261D02*
X011333Y014261D01*
X011403Y014005D02*
X012903Y015505D01*
X016399Y015505D01*
X018502Y017608D01*
X019003Y017809D02*
X019022Y017809D01*
X019066Y017907D02*
X018962Y017907D01*
X018867Y018006D02*
X019164Y018006D01*
X019342Y018104D02*
X018714Y018104D01*
X018289Y018104D02*
X017714Y018104D01*
X017867Y018006D02*
X018136Y018006D01*
X018041Y017907D02*
X017962Y017907D01*
X017289Y018104D02*
X016714Y018104D01*
X016867Y018006D02*
X017136Y018006D01*
X017041Y017907D02*
X016962Y017907D01*
X016502Y017608D02*
X015399Y016505D01*
X010903Y016505D01*
X009403Y015005D01*
X009403Y012505D01*
X008953Y012487D02*
X008943Y012487D01*
X008939Y012389D02*
X008953Y012389D01*
X008953Y012290D02*
X008899Y012290D01*
X008853Y012192D02*
X008953Y012192D01*
X008971Y012093D02*
X008755Y012093D01*
X008581Y011994D02*
X009012Y011994D01*
X009096Y011896D02*
X008248Y011896D01*
X008225Y011994D02*
X008149Y011994D01*
X008346Y011797D02*
X009260Y011797D01*
X009546Y011797D02*
X010260Y011797D01*
X010096Y011896D02*
X009710Y011896D01*
X009795Y011994D02*
X010012Y011994D01*
X009971Y012093D02*
X009835Y012093D01*
X009853Y012192D02*
X009953Y012192D01*
X009953Y012290D02*
X009853Y012290D01*
X009853Y012389D02*
X009953Y012389D01*
X009953Y012487D02*
X009853Y012487D01*
X009853Y012586D02*
X009953Y012586D01*
X009953Y012684D02*
X009853Y012684D01*
X009853Y012783D02*
X009953Y012783D01*
X009956Y012881D02*
X009850Y012881D01*
X009810Y012980D02*
X009997Y012980D01*
X010060Y013078D02*
X009746Y013078D01*
X009633Y013177D02*
X010173Y013177D01*
X010183Y013276D02*
X009623Y013276D01*
X009623Y013374D02*
X010183Y013374D01*
X010183Y013473D02*
X009623Y013473D01*
X009623Y013571D02*
X010183Y013571D01*
X010183Y013670D02*
X009623Y013670D01*
X009623Y013768D02*
X010183Y013768D01*
X010183Y013867D02*
X009623Y013867D01*
X009623Y013965D02*
X010183Y013965D01*
X010183Y014064D02*
X009623Y014064D01*
X009623Y014162D02*
X010183Y014162D01*
X010183Y014261D02*
X009623Y014261D01*
X009623Y014360D02*
X010183Y014360D01*
X010183Y014458D02*
X009623Y014458D01*
X009623Y014557D02*
X010183Y014557D01*
X010183Y014655D02*
X009623Y014655D01*
X009623Y014754D02*
X010183Y014754D01*
X010183Y014852D02*
X009623Y014852D01*
X009660Y014951D02*
X010183Y014951D01*
X010183Y015049D02*
X009758Y015049D01*
X009857Y015148D02*
X010183Y015148D01*
X010183Y015246D02*
X009955Y015246D01*
X010054Y015345D02*
X010183Y015345D01*
X010183Y015444D02*
X010153Y015444D01*
X010403Y015505D02*
X010903Y016005D01*
X015899Y016005D01*
X017502Y017608D01*
X017603Y017020D02*
X017225Y017020D01*
X017127Y016922D02*
X017505Y016922D01*
X017406Y016823D02*
X017028Y016823D01*
X016930Y016725D02*
X017307Y016725D01*
X017209Y016626D02*
X016831Y016626D01*
X016733Y016527D02*
X017110Y016527D01*
X017012Y016429D02*
X016634Y016429D01*
X016535Y016330D02*
X016913Y016330D01*
X016815Y016232D02*
X016437Y016232D01*
X016338Y016133D02*
X016716Y016133D01*
X016618Y016035D02*
X016240Y016035D01*
X016141Y015936D02*
X016519Y015936D01*
X016421Y015838D02*
X016043Y015838D01*
X016322Y015739D02*
X010948Y015739D01*
X010850Y015641D02*
X012727Y015641D01*
X012333Y015246D02*
X011317Y015246D01*
X011358Y015148D02*
X012235Y015148D01*
X012136Y015049D02*
X011378Y015049D01*
X011378Y014951D02*
X012038Y014951D01*
X011939Y014852D02*
X011354Y014852D01*
X011313Y014754D02*
X011841Y014754D01*
X011742Y014655D02*
X011225Y014655D01*
X011403Y014005D02*
X011403Y012505D01*
X010953Y012487D02*
X010853Y012487D01*
X010853Y012389D02*
X010953Y012389D01*
X010953Y012290D02*
X010853Y012290D01*
X010853Y012192D02*
X010953Y012192D01*
X010971Y012093D02*
X010835Y012093D01*
X010795Y011994D02*
X011012Y011994D01*
X011096Y011896D02*
X010710Y011896D01*
X010546Y011797D02*
X011260Y011797D01*
X012710Y011896D02*
X013096Y011896D01*
X013012Y011994D02*
X012795Y011994D01*
X012835Y012093D02*
X012971Y012093D01*
X012953Y012192D02*
X012853Y012192D01*
X012853Y012290D02*
X012953Y012290D01*
X012953Y012389D02*
X012853Y012389D01*
X012853Y012487D02*
X012953Y012487D01*
X012953Y012586D02*
X012853Y012586D01*
X012853Y012684D02*
X012953Y012684D01*
X012953Y012783D02*
X012853Y012783D01*
X012850Y012881D02*
X012956Y012881D01*
X012997Y012980D02*
X012810Y012980D01*
X012746Y013078D02*
X013060Y013078D01*
X013173Y013177D02*
X012633Y013177D01*
X013633Y013177D02*
X014173Y013177D01*
X014060Y013078D02*
X013746Y013078D01*
X013810Y012980D02*
X013997Y012980D01*
X013956Y012881D02*
X013850Y012881D01*
X013853Y012783D02*
X013953Y012783D01*
X013953Y012684D02*
X013853Y012684D01*
X013853Y012586D02*
X013953Y012586D01*
X013953Y012487D02*
X013853Y012487D01*
X013853Y012389D02*
X013953Y012389D01*
X013953Y012290D02*
X013853Y012290D01*
X013853Y012192D02*
X013953Y012192D01*
X013971Y012093D02*
X013835Y012093D01*
X013795Y011994D02*
X014012Y011994D01*
X014096Y011896D02*
X013710Y011896D01*
X014710Y011896D02*
X015124Y011896D01*
X015033Y011994D02*
X014795Y011994D01*
X014835Y012093D02*
X014992Y012093D01*
X014973Y012192D02*
X014853Y012192D01*
X014853Y012290D02*
X014973Y012290D01*
X014973Y012389D02*
X014853Y012389D01*
X014853Y012487D02*
X015373Y012487D01*
X015373Y012535D02*
X014973Y012535D01*
X014973Y012871D01*
X015039Y013029D01*
X015160Y013150D01*
X015318Y013215D01*
X015373Y013215D01*
X015373Y012535D01*
X015373Y012586D02*
X015433Y012586D01*
X015433Y012535D02*
X015433Y013215D01*
X015489Y013215D01*
X015647Y013150D01*
X015768Y013029D01*
X015833Y012871D01*
X015833Y012535D01*
X015433Y012535D01*
X015433Y012487D02*
X015953Y012487D01*
X015953Y012389D02*
X015833Y012389D01*
X015833Y012290D02*
X015953Y012290D01*
X015953Y012192D02*
X015833Y012192D01*
X015814Y012093D02*
X015971Y012093D01*
X016012Y011994D02*
X015773Y011994D01*
X015682Y011896D02*
X016096Y011896D01*
X016710Y011896D02*
X017096Y011896D01*
X017012Y011994D02*
X016795Y011994D01*
X016835Y012093D02*
X016971Y012093D01*
X016953Y012192D02*
X016853Y012192D01*
X016853Y012290D02*
X016953Y012290D01*
X016953Y012389D02*
X016853Y012389D01*
X016853Y012487D02*
X016953Y012487D01*
X016953Y012586D02*
X016853Y012586D01*
X016853Y012684D02*
X016953Y012684D01*
X016953Y012783D02*
X016853Y012783D01*
X016850Y012881D02*
X016956Y012881D01*
X016997Y012980D02*
X016810Y012980D01*
X016746Y013078D02*
X017060Y013078D01*
X017173Y013177D02*
X016633Y013177D01*
X016173Y013177D02*
X015581Y013177D01*
X015433Y013177D02*
X015373Y013177D01*
X015373Y013078D02*
X015433Y013078D01*
X015433Y012980D02*
X015373Y012980D01*
X015373Y012881D02*
X015433Y012881D01*
X015433Y012783D02*
X015373Y012783D01*
X015373Y012684D02*
X015433Y012684D01*
X015433Y012389D02*
X015373Y012389D01*
X015373Y012290D02*
X015433Y012290D01*
X015433Y012192D02*
X015373Y012192D01*
X015373Y012093D02*
X015433Y012093D01*
X015433Y011994D02*
X015373Y011994D01*
X015373Y011896D02*
X015433Y011896D01*
X015833Y012586D02*
X015953Y012586D01*
X015953Y012684D02*
X015833Y012684D01*
X015833Y012783D02*
X015953Y012783D01*
X015956Y012881D02*
X015829Y012881D01*
X015788Y012980D02*
X015997Y012980D01*
X016060Y013078D02*
X015718Y013078D01*
X015226Y013177D02*
X014633Y013177D01*
X014746Y013078D02*
X015088Y013078D01*
X015018Y012980D02*
X014810Y012980D01*
X014850Y012881D02*
X014978Y012881D01*
X014973Y012783D02*
X014853Y012783D01*
X014853Y012684D02*
X014973Y012684D01*
X014973Y012586D02*
X014853Y012586D01*
X016539Y013670D02*
X011623Y013670D01*
X011623Y013768D02*
X016465Y013768D01*
X016425Y013867D02*
X011623Y013867D01*
X011674Y013965D02*
X016408Y013965D01*
X016408Y014064D02*
X015131Y014064D01*
X015260Y014162D02*
X016433Y014162D01*
X016473Y014261D02*
X015338Y014261D01*
X015379Y014360D02*
X016557Y014360D01*
X016703Y014458D02*
X015398Y014458D01*
X015398Y014557D02*
X016745Y014557D01*
X016884Y014557D02*
X016922Y014557D01*
X016922Y014655D02*
X016884Y014655D01*
X016884Y014754D02*
X016922Y014754D01*
X016922Y014852D02*
X016884Y014852D01*
X016884Y014951D02*
X016922Y014951D01*
X016922Y015049D02*
X016884Y015049D01*
X016884Y015148D02*
X016922Y015148D01*
X016922Y015246D02*
X016884Y015246D01*
X016884Y015345D02*
X016922Y015345D01*
X016922Y015444D02*
X016884Y015444D01*
X016846Y015641D02*
X025683Y015641D01*
X025683Y015739D02*
X016944Y015739D01*
X017043Y015838D02*
X025683Y015838D01*
X025683Y015936D02*
X017141Y015936D01*
X017240Y016035D02*
X025683Y016035D01*
X025683Y016133D02*
X017338Y016133D01*
X017437Y016232D02*
X025683Y016232D01*
X025683Y016330D02*
X017535Y016330D01*
X017634Y016429D02*
X025683Y016429D01*
X025683Y016527D02*
X017733Y016527D01*
X017831Y016626D02*
X025683Y016626D01*
X025683Y016725D02*
X017930Y016725D01*
X018028Y016823D02*
X025683Y016823D01*
X025683Y016922D02*
X018127Y016922D01*
X018225Y017020D02*
X025683Y017020D01*
X025903Y017009D02*
X026502Y017608D01*
X026962Y017907D02*
X027041Y017907D01*
X027136Y018006D02*
X026867Y018006D01*
X026714Y018104D02*
X027289Y018104D01*
X027714Y018104D02*
X028046Y018104D01*
X027982Y018006D02*
X027867Y018006D01*
X027962Y017907D02*
X027982Y017907D01*
X028452Y017907D02*
X028551Y017907D01*
X028551Y017809D02*
X028452Y017809D01*
X028452Y017710D02*
X028551Y017710D01*
X029022Y017809D02*
X029970Y017809D01*
X030010Y017907D02*
X029022Y017907D01*
X029022Y018006D02*
X030051Y018006D01*
X030144Y018104D02*
X028957Y018104D01*
X028551Y018104D02*
X028452Y018104D01*
X028452Y018006D02*
X028551Y018006D01*
X027502Y017608D02*
X027502Y017604D01*
X026289Y018104D02*
X025714Y018104D01*
X025867Y018006D02*
X026136Y018006D01*
X026041Y017907D02*
X025962Y017907D01*
X025289Y018104D02*
X024714Y018104D01*
X024867Y018006D02*
X025136Y018006D01*
X025041Y017907D02*
X024962Y017907D01*
X024289Y018104D02*
X023714Y018104D01*
X023867Y018006D02*
X024136Y018006D01*
X024041Y017907D02*
X023962Y017907D01*
X023289Y018104D02*
X022661Y018104D01*
X022551Y018104D02*
X022452Y018104D01*
X022452Y018006D02*
X022551Y018006D01*
X022551Y017907D02*
X022452Y017907D01*
X022452Y017809D02*
X022551Y017809D01*
X022551Y017710D02*
X022452Y017710D01*
X022451Y017657D02*
X022451Y017558D01*
X022022Y017558D01*
X021552Y017558D01*
X021552Y017657D01*
X022022Y017657D01*
X022451Y017657D01*
X022451Y017611D02*
X021552Y017611D01*
X021551Y017513D02*
X021452Y017513D01*
X021451Y017558D02*
X020982Y017558D01*
X020552Y017558D01*
X020552Y017657D01*
X020982Y017657D01*
X021451Y017657D01*
X021451Y017558D01*
X021451Y017611D02*
X020552Y017611D01*
X020551Y017513D02*
X020452Y017513D01*
X020451Y017558D02*
X020022Y017558D01*
X019552Y017558D01*
X019552Y017657D01*
X020022Y017657D01*
X020451Y017657D01*
X020451Y017558D01*
X020451Y017611D02*
X019552Y017611D01*
X019551Y017513D02*
X019452Y017513D01*
X019452Y017414D02*
X019551Y017414D01*
X019551Y017316D02*
X019452Y017316D01*
X019452Y017217D02*
X019551Y017217D01*
X019551Y017119D02*
X019452Y017119D01*
X019323Y017119D02*
X018733Y017119D01*
X018875Y017217D02*
X019156Y017217D01*
X019060Y017316D02*
X018965Y017316D01*
X019006Y017414D02*
X019019Y017414D01*
X019680Y017119D02*
X020323Y017119D01*
X020452Y017119D02*
X020551Y017119D01*
X020551Y017217D02*
X020452Y017217D01*
X020452Y017316D02*
X020551Y017316D01*
X020551Y017414D02*
X020452Y017414D01*
X020156Y017217D02*
X019847Y017217D01*
X019944Y017316D02*
X020060Y017316D01*
X020019Y017414D02*
X019984Y017414D01*
X019551Y017710D02*
X019452Y017710D01*
X019452Y017809D02*
X019551Y017809D01*
X019551Y017907D02*
X019452Y017907D01*
X019452Y018006D02*
X019551Y018006D01*
X019551Y018104D02*
X019452Y018104D01*
X019661Y018104D02*
X020342Y018104D01*
X020452Y018104D02*
X020551Y018104D01*
X020551Y018006D02*
X020452Y018006D01*
X020452Y017907D02*
X020551Y017907D01*
X020551Y017809D02*
X020452Y017809D01*
X020452Y017710D02*
X020551Y017710D01*
X020937Y017907D02*
X021066Y017907D01*
X021022Y017809D02*
X020981Y017809D01*
X020839Y018006D02*
X021164Y018006D01*
X021342Y018104D02*
X020661Y018104D01*
X020164Y018006D02*
X019839Y018006D01*
X019937Y017907D02*
X020066Y017907D01*
X020022Y017809D02*
X019981Y017809D01*
X020984Y017414D02*
X021019Y017414D01*
X021060Y017316D02*
X020944Y017316D01*
X020847Y017217D02*
X021156Y017217D01*
X021323Y017119D02*
X020680Y017119D01*
X021452Y017119D02*
X021551Y017119D01*
X021551Y017217D02*
X021452Y017217D01*
X021452Y017316D02*
X021551Y017316D01*
X021551Y017414D02*
X021452Y017414D01*
X021680Y017119D02*
X022323Y017119D01*
X022452Y017119D02*
X022551Y017119D01*
X022551Y017217D02*
X022452Y017217D01*
X022452Y017316D02*
X022551Y017316D01*
X022551Y017414D02*
X022452Y017414D01*
X022452Y017513D02*
X022551Y017513D01*
X022944Y017316D02*
X023038Y017316D01*
X022997Y017414D02*
X022984Y017414D01*
X022847Y017217D02*
X023128Y017217D01*
X023271Y017119D02*
X022680Y017119D01*
X022156Y017217D02*
X021847Y017217D01*
X021944Y017316D02*
X022060Y017316D01*
X022019Y017414D02*
X021984Y017414D01*
X021551Y017710D02*
X021452Y017710D01*
X021452Y017809D02*
X021551Y017809D01*
X021551Y017907D02*
X021452Y017907D01*
X021452Y018006D02*
X021551Y018006D01*
X021551Y018104D02*
X021452Y018104D01*
X021661Y018104D02*
X022342Y018104D01*
X022164Y018006D02*
X021839Y018006D01*
X021937Y017907D02*
X022066Y017907D01*
X022022Y017809D02*
X021981Y017809D01*
X022839Y018006D02*
X023136Y018006D01*
X023041Y017907D02*
X022937Y017907D01*
X022981Y017809D02*
X023000Y017809D01*
X023965Y017316D02*
X024038Y017316D01*
X024128Y017217D02*
X023875Y017217D01*
X023733Y017119D02*
X024271Y017119D01*
X024733Y017119D02*
X025271Y017119D01*
X025128Y017217D02*
X024875Y017217D01*
X024965Y017316D02*
X025038Y017316D01*
X025903Y017009D02*
X025903Y014999D01*
X022173Y013177D02*
X021633Y013177D01*
X021746Y013078D02*
X022060Y013078D01*
X021997Y012980D02*
X021810Y012980D01*
X021850Y012881D02*
X021956Y012881D01*
X021953Y012783D02*
X021853Y012783D01*
X021853Y012684D02*
X021953Y012684D01*
X021953Y012586D02*
X021853Y012586D01*
X021853Y012487D02*
X021953Y012487D01*
X021953Y012389D02*
X021853Y012389D01*
X021853Y012290D02*
X021877Y012290D01*
X021096Y011896D02*
X020710Y011896D01*
X020795Y011994D02*
X021012Y011994D01*
X020971Y012093D02*
X020835Y012093D01*
X020853Y012192D02*
X020953Y012192D01*
X020953Y012290D02*
X020853Y012290D01*
X020853Y012389D02*
X020953Y012389D01*
X020953Y012487D02*
X020853Y012487D01*
X020853Y012586D02*
X020953Y012586D01*
X020953Y012684D02*
X020853Y012684D01*
X020853Y012783D02*
X020953Y012783D01*
X020956Y012881D02*
X020850Y012881D01*
X020810Y012980D02*
X020997Y012980D01*
X021060Y013078D02*
X020746Y013078D01*
X020633Y013177D02*
X021173Y013177D01*
X020173Y013177D02*
X019633Y013177D01*
X019746Y013078D02*
X020060Y013078D01*
X019997Y012980D02*
X019810Y012980D01*
X019850Y012881D02*
X019956Y012881D01*
X019953Y012783D02*
X019853Y012783D01*
X019853Y012684D02*
X019953Y012684D01*
X019953Y012586D02*
X019853Y012586D01*
X019853Y012487D02*
X019953Y012487D01*
X019953Y012389D02*
X019853Y012389D01*
X019853Y012290D02*
X019953Y012290D01*
X019953Y012192D02*
X019853Y012192D01*
X019835Y012093D02*
X019971Y012093D01*
X020012Y011994D02*
X019795Y011994D01*
X019710Y011896D02*
X020096Y011896D01*
X019096Y011896D02*
X018710Y011896D01*
X018795Y011994D02*
X019012Y011994D01*
X018971Y012093D02*
X018835Y012093D01*
X018853Y012192D02*
X018953Y012192D01*
X018953Y012290D02*
X018853Y012290D01*
X018853Y012389D02*
X018953Y012389D01*
X018953Y012487D02*
X018853Y012487D01*
X018853Y012586D02*
X018953Y012586D01*
X018953Y012684D02*
X018853Y012684D01*
X018853Y012783D02*
X018953Y012783D01*
X018956Y012881D02*
X018850Y012881D01*
X018810Y012980D02*
X018997Y012980D01*
X019060Y013078D02*
X018746Y013078D01*
X018633Y013177D02*
X019173Y013177D01*
X018173Y013177D02*
X017633Y013177D01*
X017746Y013078D02*
X018060Y013078D01*
X017997Y012980D02*
X017810Y012980D01*
X017850Y012881D02*
X017956Y012881D01*
X017953Y012783D02*
X017853Y012783D01*
X017853Y012684D02*
X017953Y012684D01*
X017953Y012586D02*
X017853Y012586D01*
X017853Y012487D02*
X017953Y012487D01*
X017953Y012389D02*
X017853Y012389D01*
X017853Y012290D02*
X017953Y012290D01*
X017953Y012192D02*
X017853Y012192D01*
X017835Y012093D02*
X017971Y012093D01*
X018012Y011994D02*
X017795Y011994D01*
X017710Y011896D02*
X018096Y011896D01*
X018104Y010122D02*
X017703Y010122D01*
X017791Y010024D02*
X018015Y010024D01*
X017974Y009925D02*
X017832Y009925D01*
X017853Y009827D02*
X017953Y009827D01*
X017953Y009728D02*
X017853Y009728D01*
X017853Y009629D02*
X017953Y009629D01*
X017953Y009531D02*
X017853Y009531D01*
X017853Y009432D02*
X017953Y009432D01*
X017953Y009334D02*
X017853Y009334D01*
X017853Y009235D02*
X017953Y009235D01*
X017953Y009137D02*
X017853Y009137D01*
X017813Y009038D02*
X017994Y009038D01*
X018052Y008940D02*
X017754Y008940D01*
X017652Y008841D02*
X018154Y008841D01*
X018652Y008841D02*
X019154Y008841D01*
X019052Y008940D02*
X018754Y008940D01*
X018813Y009038D02*
X018994Y009038D01*
X018953Y009137D02*
X018853Y009137D01*
X018853Y009235D02*
X018953Y009235D01*
X018953Y009334D02*
X018853Y009334D01*
X018853Y009432D02*
X018953Y009432D01*
X018953Y009531D02*
X018853Y009531D01*
X018853Y009629D02*
X018953Y009629D01*
X018953Y009728D02*
X018853Y009728D01*
X018853Y009827D02*
X018953Y009827D01*
X018974Y009925D02*
X018832Y009925D01*
X018791Y010024D02*
X019015Y010024D01*
X019104Y010122D02*
X018703Y010122D01*
X017104Y010122D02*
X016674Y010122D01*
X016647Y010150D02*
X016489Y010215D01*
X016433Y010215D01*
X016433Y009535D01*
X016373Y009535D01*
X016373Y009475D01*
X016433Y009475D01*
X016433Y008795D01*
X016489Y008795D01*
X016647Y008861D01*
X016768Y008982D01*
X016833Y009140D01*
X016833Y009475D01*
X016433Y009475D01*
X016433Y009535D01*
X016833Y009535D01*
X016833Y009871D01*
X016768Y010029D01*
X016647Y010150D01*
X016770Y010024D02*
X017015Y010024D01*
X016974Y009925D02*
X016811Y009925D01*
X016833Y009827D02*
X016953Y009827D01*
X016953Y009728D02*
X016833Y009728D01*
X016833Y009629D02*
X016953Y009629D01*
X016953Y009531D02*
X016433Y009531D01*
X016373Y009535D02*
X016373Y010215D01*
X016318Y010215D01*
X016160Y010150D01*
X016039Y010029D01*
X015973Y009871D01*
X015973Y009535D01*
X016373Y009535D01*
X016373Y009531D02*
X015853Y009531D01*
X015853Y009629D02*
X015973Y009629D01*
X015973Y009728D02*
X015853Y009728D01*
X015853Y009827D02*
X015973Y009827D01*
X015996Y009925D02*
X015832Y009925D01*
X015791Y010024D02*
X016037Y010024D01*
X016132Y010122D02*
X015703Y010122D01*
X015104Y010122D02*
X014703Y010122D01*
X014791Y010024D02*
X015015Y010024D01*
X014974Y009925D02*
X014832Y009925D01*
X014853Y009827D02*
X014953Y009827D01*
X014953Y009728D02*
X014853Y009728D01*
X014853Y009629D02*
X014953Y009629D01*
X014953Y009531D02*
X014853Y009531D01*
X014853Y009432D02*
X014953Y009432D01*
X014953Y009334D02*
X014853Y009334D01*
X014853Y009235D02*
X014953Y009235D01*
X014953Y009137D02*
X014853Y009137D01*
X014813Y009038D02*
X014994Y009038D01*
X015052Y008940D02*
X014754Y008940D01*
X014652Y008841D02*
X015154Y008841D01*
X015652Y008841D02*
X016207Y008841D01*
X016160Y008861D02*
X016318Y008795D01*
X016373Y008795D01*
X016373Y009475D01*
X015973Y009475D01*
X015973Y009140D01*
X016039Y008982D01*
X016160Y008861D01*
X016081Y008940D02*
X015754Y008940D01*
X015813Y009038D02*
X016015Y009038D01*
X015974Y009137D02*
X015853Y009137D01*
X015853Y009235D02*
X015973Y009235D01*
X015973Y009334D02*
X015853Y009334D01*
X015853Y009432D02*
X015973Y009432D01*
X016373Y009432D02*
X016433Y009432D01*
X016433Y009334D02*
X016373Y009334D01*
X016373Y009235D02*
X016433Y009235D01*
X016433Y009137D02*
X016373Y009137D01*
X016373Y009038D02*
X016433Y009038D01*
X016433Y008940D02*
X016373Y008940D01*
X016373Y008841D02*
X016433Y008841D01*
X016599Y008841D02*
X017154Y008841D01*
X017052Y008940D02*
X016726Y008940D01*
X016791Y009038D02*
X016994Y009038D01*
X016953Y009137D02*
X016832Y009137D01*
X016833Y009235D02*
X016953Y009235D01*
X016953Y009334D02*
X016833Y009334D01*
X016833Y009432D02*
X016953Y009432D01*
X016433Y009629D02*
X016373Y009629D01*
X016373Y009728D02*
X016433Y009728D01*
X016433Y009827D02*
X016373Y009827D01*
X016373Y009925D02*
X016433Y009925D01*
X016433Y010024D02*
X016373Y010024D01*
X016373Y010122D02*
X016433Y010122D01*
X014104Y010122D02*
X013703Y010122D01*
X013791Y010024D02*
X014015Y010024D01*
X013974Y009925D02*
X013832Y009925D01*
X013853Y009827D02*
X013953Y009827D01*
X013953Y009728D02*
X013853Y009728D01*
X013853Y009629D02*
X013953Y009629D01*
X013953Y009531D02*
X013853Y009531D01*
X013853Y009432D02*
X013953Y009432D01*
X013953Y009334D02*
X013853Y009334D01*
X013853Y009235D02*
X013953Y009235D01*
X013953Y009137D02*
X013853Y009137D01*
X013813Y009038D02*
X013994Y009038D01*
X014052Y008940D02*
X013754Y008940D01*
X013652Y008841D02*
X014154Y008841D01*
X013903Y008505D02*
X028403Y008505D01*
X030903Y011005D01*
X030363Y011009D02*
X030218Y011009D01*
X030120Y010911D02*
X030363Y010911D01*
X030399Y010812D02*
X030021Y010812D01*
X030317Y011108D02*
X030363Y011108D01*
X022260Y011797D02*
X022006Y011797D01*
X016657Y013571D02*
X011623Y013571D01*
X011183Y013571D02*
X011149Y013571D01*
X011183Y013473D02*
X010623Y013473D01*
X010623Y013571D02*
X010657Y013571D01*
X010623Y013374D02*
X011183Y013374D01*
X011183Y013276D02*
X010623Y013276D01*
X010633Y013177D02*
X011173Y013177D01*
X011060Y013078D02*
X010746Y013078D01*
X010810Y012980D02*
X010997Y012980D01*
X010956Y012881D02*
X010850Y012881D01*
X010853Y012783D02*
X010953Y012783D01*
X010953Y012684D02*
X010853Y012684D01*
X010853Y012586D02*
X010953Y012586D01*
X010403Y012505D02*
X010403Y015505D01*
X009925Y015838D02*
X009047Y015838D01*
X009145Y015936D02*
X010023Y015936D01*
X010122Y016035D02*
X009244Y016035D01*
X009342Y016133D02*
X010220Y016133D01*
X010319Y016232D02*
X009441Y016232D01*
X009539Y016330D02*
X010417Y016330D01*
X010516Y016429D02*
X009638Y016429D01*
X009737Y016527D02*
X010614Y016527D01*
X010713Y016626D02*
X009835Y016626D01*
X009934Y016725D02*
X010811Y016725D01*
X009994Y016785D02*
X013994Y016785D01*
X014123Y016914D01*
X014311Y017102D01*
X014394Y017068D01*
X014609Y017068D01*
X014807Y017150D01*
X014959Y017302D01*
X015002Y017404D01*
X014965Y017316D02*
X015038Y017316D01*
X015128Y017217D02*
X014875Y017217D01*
X014733Y017119D02*
X015271Y017119D01*
X015505Y016922D02*
X014131Y016922D01*
X014229Y017020D02*
X015603Y017020D01*
X015406Y016823D02*
X014032Y016823D01*
X013060Y017316D02*
X001799Y017316D01*
X001840Y017414D02*
X013019Y017414D01*
X012982Y017513D02*
X001861Y017513D01*
X001861Y017611D02*
X013451Y017611D01*
X013452Y017710D02*
X013551Y017710D01*
X013551Y017809D02*
X013452Y017809D01*
X013452Y017907D02*
X013551Y017907D01*
X013551Y018006D02*
X013452Y018006D01*
X013452Y018104D02*
X013551Y018104D01*
X013661Y018104D02*
X014289Y018104D01*
X014136Y018006D02*
X013839Y018006D01*
X013937Y017907D02*
X014041Y017907D01*
X014000Y017809D02*
X013981Y017809D01*
X013342Y018104D02*
X001663Y018104D01*
X001755Y018006D02*
X013164Y018006D01*
X013066Y017907D02*
X001796Y017907D01*
X001837Y017809D02*
X013022Y017809D01*
X012982Y017710D02*
X001861Y017710D01*
X001758Y017217D02*
X009804Y017217D01*
X009706Y017119D02*
X001670Y017119D01*
X001572Y017020D02*
X009607Y017020D01*
X009509Y016922D02*
X001368Y016922D01*
X000911Y016922D02*
X000613Y016922D01*
X000613Y017020D02*
X000707Y017020D01*
X000613Y016823D02*
X009410Y016823D01*
X009311Y016725D02*
X000613Y016725D01*
X000613Y016626D02*
X009213Y016626D01*
X009114Y016527D02*
X000613Y016527D01*
X000613Y016429D02*
X009016Y016429D01*
X008917Y016330D02*
X000613Y016330D01*
X000613Y016232D02*
X008819Y016232D01*
X008720Y016133D02*
X000613Y016133D01*
X000613Y016035D02*
X008622Y016035D01*
X008523Y015936D02*
X000613Y015936D01*
X000613Y015838D02*
X008425Y015838D01*
X008326Y015739D02*
X000613Y015739D01*
X000613Y015641D02*
X008227Y015641D01*
X008129Y015542D02*
X000613Y015542D01*
X000613Y015444D02*
X008030Y015444D01*
X007932Y015345D02*
X000613Y015345D01*
X000613Y015246D02*
X007833Y015246D01*
X007735Y015148D02*
X000613Y015148D01*
X000613Y015049D02*
X007636Y015049D01*
X008061Y014852D02*
X009183Y014852D01*
X009183Y014754D02*
X007963Y014754D01*
X007908Y014698D02*
X009994Y016785D01*
X009826Y015739D02*
X008948Y015739D01*
X008850Y015641D02*
X009727Y015641D01*
X009629Y015542D02*
X008751Y015542D01*
X008653Y015444D02*
X009530Y015444D01*
X009432Y015345D02*
X008554Y015345D01*
X008455Y015246D02*
X009333Y015246D01*
X009235Y015148D02*
X008357Y015148D01*
X008258Y015049D02*
X009183Y015049D01*
X009183Y014951D02*
X008160Y014951D01*
X007908Y014698D02*
X007943Y014613D01*
X007943Y014398D01*
X007861Y014199D01*
X007709Y014047D01*
X007511Y013965D01*
X007726Y014064D02*
X009183Y014064D01*
X009183Y014162D02*
X007824Y014162D01*
X007886Y014261D02*
X009183Y014261D01*
X009183Y014360D02*
X007927Y014360D01*
X007943Y014458D02*
X009183Y014458D01*
X009183Y014557D02*
X007943Y014557D01*
X007925Y014655D02*
X009183Y014655D01*
X007403Y013255D02*
X006903Y013755D01*
X006183Y013768D02*
X000613Y013768D01*
X000613Y013670D02*
X006183Y013670D01*
X006183Y013571D02*
X000613Y013571D01*
X000613Y013473D02*
X006183Y013473D01*
X006183Y013374D02*
X000613Y013374D01*
X000613Y013276D02*
X006183Y013276D01*
X006183Y013177D02*
X000613Y013177D01*
X000613Y013867D02*
X006183Y013867D01*
X006183Y013965D02*
X000613Y013965D01*
X000613Y014064D02*
X006081Y014064D01*
X005982Y014162D02*
X000613Y014162D01*
X005581Y011994D02*
X005629Y011994D01*
X005903Y011505D02*
X006403Y012005D01*
X005903Y011505D02*
X005403Y011005D01*
X007623Y009925D02*
X008974Y009925D01*
X008953Y009875D02*
X008953Y009136D01*
X009022Y008970D01*
X009148Y008844D01*
X009314Y008775D01*
X009493Y008775D01*
X009658Y008844D01*
X009785Y008970D01*
X009853Y009136D01*
X009853Y009875D01*
X009785Y010040D01*
X009658Y010167D01*
X009493Y010235D01*
X009314Y010235D01*
X009148Y010167D01*
X009022Y010040D01*
X008953Y009875D01*
X008953Y009827D02*
X007623Y009827D01*
X007623Y009728D02*
X008953Y009728D01*
X008953Y009629D02*
X007623Y009629D01*
X007689Y009531D02*
X008953Y009531D01*
X008953Y009432D02*
X007787Y009432D01*
X007886Y009334D02*
X008953Y009334D01*
X008953Y009235D02*
X007984Y009235D01*
X008083Y009137D02*
X008953Y009137D01*
X008994Y009038D02*
X008181Y009038D01*
X008280Y008940D02*
X009052Y008940D01*
X009154Y008841D02*
X008378Y008841D01*
X008477Y008743D02*
X009829Y008743D01*
X009928Y008841D02*
X009652Y008841D01*
X009754Y008940D02*
X010026Y008940D01*
X009994Y009038D02*
X009813Y009038D01*
X009853Y009137D02*
X009953Y009137D01*
X009953Y009235D02*
X009853Y009235D01*
X009853Y009334D02*
X009953Y009334D01*
X009953Y009432D02*
X009853Y009432D01*
X009853Y009531D02*
X009953Y009531D01*
X009953Y009629D02*
X009853Y009629D01*
X009853Y009728D02*
X009953Y009728D01*
X009953Y009827D02*
X009853Y009827D01*
X009832Y009925D02*
X009974Y009925D01*
X010015Y010024D02*
X009791Y010024D01*
X009703Y010122D02*
X010104Y010122D01*
X010279Y010221D02*
X009528Y010221D01*
X009279Y010221D02*
X008382Y010221D01*
X008284Y010122D02*
X009104Y010122D01*
X009015Y010024D02*
X008185Y010024D01*
X007403Y009505D02*
X007403Y013255D01*
X008668Y012980D02*
X008997Y012980D01*
X008956Y012881D02*
X008791Y012881D01*
X008873Y012783D02*
X008953Y012783D01*
X008953Y012684D02*
X008913Y012684D01*
X008943Y012586D02*
X008953Y012586D01*
X010528Y010221D02*
X011279Y010221D01*
X011104Y010122D02*
X010703Y010122D01*
X010791Y010024D02*
X011015Y010024D01*
X010974Y009925D02*
X010832Y009925D01*
X010853Y009827D02*
X010953Y009827D01*
X010953Y009728D02*
X010853Y009728D01*
X010853Y009629D02*
X010953Y009629D01*
X010953Y009531D02*
X010853Y009531D01*
X010853Y009432D02*
X010953Y009432D01*
X010953Y009334D02*
X010853Y009334D01*
X010853Y009235D02*
X010953Y009235D01*
X010953Y009137D02*
X010853Y009137D01*
X010813Y009038D02*
X010994Y009038D01*
X011052Y008940D02*
X010754Y008940D01*
X010652Y008841D02*
X011154Y008841D01*
X011329Y008743D02*
X010452Y008743D01*
X010353Y008644D02*
X010731Y008644D01*
X010632Y008545D02*
X010255Y008545D01*
X010156Y008447D02*
X010534Y008447D01*
X010435Y008348D02*
X010057Y008348D01*
X009903Y008505D02*
X008403Y008505D01*
X007403Y009505D01*
X009903Y008505D02*
X010403Y009005D01*
X010403Y009505D01*
X011403Y009505D02*
X011403Y009005D01*
X011853Y009334D02*
X011921Y009334D01*
X011953Y009432D02*
X011853Y009432D01*
X011853Y009531D02*
X011953Y009531D01*
X011953Y009629D02*
X011853Y009629D01*
X011853Y009728D02*
X011953Y009728D01*
X011953Y009827D02*
X011853Y009827D01*
X011832Y009925D02*
X011974Y009925D01*
X012015Y010024D02*
X011791Y010024D01*
X011703Y010122D02*
X012104Y010122D01*
X012279Y010221D02*
X011528Y010221D01*
X012403Y009505D02*
X011403Y008505D01*
X010903Y008505D01*
X009903Y007505D01*
X009490Y007856D02*
X009316Y007856D01*
X009383Y007757D02*
X009423Y007757D01*
X009589Y007954D02*
X009218Y007954D01*
X008667Y008053D02*
X010140Y008053D01*
X010238Y008151D02*
X008568Y008151D01*
X008470Y008250D02*
X010337Y008250D01*
X012903Y007505D02*
X013903Y008505D01*
X012921Y009334D02*
X012853Y009334D01*
X012853Y009432D02*
X012953Y009432D01*
X012128Y006969D02*
X012019Y006969D01*
X012227Y006870D02*
X011579Y006870D01*
X011623Y006969D02*
X011787Y006969D01*
X007628Y007954D02*
X007218Y007954D01*
X007316Y007856D02*
X007518Y007856D01*
X007445Y007757D02*
X007383Y007757D01*
X000700Y005983D02*
X000613Y005983D01*
X015377Y014655D02*
X016581Y014655D01*
X016493Y014754D02*
X015336Y014754D01*
X015256Y014852D02*
X016452Y014852D01*
X016428Y014951D02*
X015121Y014951D01*
X015041Y017907D02*
X014962Y017907D01*
X014867Y018006D02*
X015136Y018006D01*
X015289Y018104D02*
X014714Y018104D01*
X015714Y018104D02*
X016289Y018104D01*
X016136Y018006D02*
X015867Y018006D01*
X015962Y017907D02*
X016041Y017907D01*
X030242Y018203D02*
X001564Y018203D01*
X028490Y005786D02*
X028870Y005786D01*
X028861Y005777D02*
X028861Y005777D01*
X028772Y005688D02*
X028556Y005688D01*
X028621Y005589D02*
X028729Y005589D01*
X028729Y005491D02*
X028687Y005491D01*
X028278Y005294D02*
X028217Y005294D01*
X028242Y005195D02*
X028343Y005195D01*
X028284Y005096D02*
X028409Y005096D01*
X028475Y004998D02*
X028284Y004998D01*
X028216Y004899D02*
X028540Y004899D01*
X028868Y004899D02*
X028896Y004899D01*
M02*
