%
M48
M72
T01C0.0236
T02C0.0320
T03C0.0350
T04C0.0472
T05C0.0512
T06C0.1000
%
T01
X9631Y11709
X9631Y14709
X15631Y7209
T02
X17631Y7209
X17631Y8209
X17131Y10709
X16131Y10709
X15131Y10709
X14131Y10709
X13131Y10709
X12131Y10709
X10631Y9209
X8631Y9209
X8631Y13209
X10631Y13209
X12131Y13709
X13131Y13709
X14131Y13709
X15131Y13709
X16131Y13709
X17131Y13709
X18131Y13709
X19131Y13709
X19131Y15459
X17131Y15459
X15131Y15459
X13131Y15459
X13381Y18209
X13381Y19209
X16631Y19209
X16631Y18209
X9631Y18009
X9631Y19009
X2631Y16709
X2631Y15709
X2631Y5509
X2631Y4509
X13131Y7209
X13131Y8209
X14631Y3809
X14631Y2809
X18131Y10709
X19131Y10709
T03
X18631Y5209
X18631Y4209
X6631Y19709
X5631Y19709
X4131Y19709
X3131Y19709
T04
X9631Y4678
X7663Y2709
X7663Y1725
X11600Y1725
X11600Y2709
T05
X11600Y4678
X10615Y4678
X8647Y4678
X7663Y4678
X9631Y2709
X5631Y9009
X5631Y11009
X5631Y13009
X1631Y13009
X1631Y11009
X1631Y9009
T06
X1131Y2209
X1131Y19709
X18631Y19709
X18631Y2209
M30
