G75*
G70*
%OFA0B0*%
%FSLAX24Y24*%
%IPPOS*%
%LPD*%
%AMOC8*
5,1,8,0,0,1.08239X$1,22.5*
%
%ADD10C,0.0000*%
%ADD11C,0.0050*%
%ADD12C,0.0060*%
%ADD13C,0.0070*%
%ADD14C,0.0120*%
%ADD15C,0.0040*%
%ADD16C,0.0080*%
%ADD17C,0.0010*%
D10*
X000131Y001209D02*
X000131Y020809D01*
X019731Y020809D01*
X019731Y001209D01*
X000131Y001209D01*
X000631Y002209D02*
X000633Y002253D01*
X000639Y002297D01*
X000649Y002340D01*
X000662Y002382D01*
X000679Y002423D01*
X000700Y002462D01*
X000724Y002499D01*
X000751Y002534D01*
X000781Y002566D01*
X000814Y002596D01*
X000850Y002622D01*
X000887Y002646D01*
X000927Y002665D01*
X000968Y002682D01*
X001011Y002694D01*
X001054Y002703D01*
X001098Y002708D01*
X001142Y002709D01*
X001186Y002706D01*
X001230Y002699D01*
X001273Y002688D01*
X001315Y002674D01*
X001355Y002656D01*
X001394Y002634D01*
X001430Y002610D01*
X001464Y002582D01*
X001496Y002551D01*
X001525Y002517D01*
X001551Y002481D01*
X001573Y002443D01*
X001592Y002403D01*
X001607Y002361D01*
X001619Y002319D01*
X001627Y002275D01*
X001631Y002231D01*
X001631Y002187D01*
X001627Y002143D01*
X001619Y002099D01*
X001607Y002057D01*
X001592Y002015D01*
X001573Y001975D01*
X001551Y001937D01*
X001525Y001901D01*
X001496Y001867D01*
X001464Y001836D01*
X001430Y001808D01*
X001394Y001784D01*
X001355Y001762D01*
X001315Y001744D01*
X001273Y001730D01*
X001230Y001719D01*
X001186Y001712D01*
X001142Y001709D01*
X001098Y001710D01*
X001054Y001715D01*
X001011Y001724D01*
X000968Y001736D01*
X000927Y001753D01*
X000887Y001772D01*
X000850Y001796D01*
X000814Y001822D01*
X000781Y001852D01*
X000751Y001884D01*
X000724Y001919D01*
X000700Y001956D01*
X000679Y001995D01*
X000662Y002036D01*
X000649Y002078D01*
X000639Y002121D01*
X000633Y002165D01*
X000631Y002209D01*
X007427Y001725D02*
X007429Y001755D01*
X007435Y001785D01*
X007444Y001814D01*
X007457Y001841D01*
X007474Y001866D01*
X007493Y001889D01*
X007516Y001910D01*
X007541Y001927D01*
X007567Y001941D01*
X007596Y001951D01*
X007625Y001958D01*
X007655Y001961D01*
X007686Y001960D01*
X007716Y001955D01*
X007745Y001946D01*
X007772Y001934D01*
X007798Y001919D01*
X007822Y001900D01*
X007843Y001878D01*
X007861Y001854D01*
X007876Y001827D01*
X007887Y001799D01*
X007895Y001770D01*
X007899Y001740D01*
X007899Y001710D01*
X007895Y001680D01*
X007887Y001651D01*
X007876Y001623D01*
X007861Y001596D01*
X007843Y001572D01*
X007822Y001550D01*
X007798Y001531D01*
X007772Y001516D01*
X007745Y001504D01*
X007716Y001495D01*
X007686Y001490D01*
X007655Y001489D01*
X007625Y001492D01*
X007596Y001499D01*
X007567Y001509D01*
X007541Y001523D01*
X007516Y001540D01*
X007493Y001561D01*
X007474Y001584D01*
X007457Y001609D01*
X007444Y001636D01*
X007435Y001665D01*
X007429Y001695D01*
X007427Y001725D01*
X007427Y002709D02*
X007429Y002739D01*
X007435Y002769D01*
X007444Y002798D01*
X007457Y002825D01*
X007474Y002850D01*
X007493Y002873D01*
X007516Y002894D01*
X007541Y002911D01*
X007567Y002925D01*
X007596Y002935D01*
X007625Y002942D01*
X007655Y002945D01*
X007686Y002944D01*
X007716Y002939D01*
X007745Y002930D01*
X007772Y002918D01*
X007798Y002903D01*
X007822Y002884D01*
X007843Y002862D01*
X007861Y002838D01*
X007876Y002811D01*
X007887Y002783D01*
X007895Y002754D01*
X007899Y002724D01*
X007899Y002694D01*
X007895Y002664D01*
X007887Y002635D01*
X007876Y002607D01*
X007861Y002580D01*
X007843Y002556D01*
X007822Y002534D01*
X007798Y002515D01*
X007772Y002500D01*
X007745Y002488D01*
X007716Y002479D01*
X007686Y002474D01*
X007655Y002473D01*
X007625Y002476D01*
X007596Y002483D01*
X007567Y002493D01*
X007541Y002507D01*
X007516Y002524D01*
X007493Y002545D01*
X007474Y002568D01*
X007457Y002593D01*
X007444Y002620D01*
X007435Y002649D01*
X007429Y002679D01*
X007427Y002709D01*
X009395Y004678D02*
X009397Y004708D01*
X009403Y004738D01*
X009412Y004767D01*
X009425Y004794D01*
X009442Y004819D01*
X009461Y004842D01*
X009484Y004863D01*
X009509Y004880D01*
X009535Y004894D01*
X009564Y004904D01*
X009593Y004911D01*
X009623Y004914D01*
X009654Y004913D01*
X009684Y004908D01*
X009713Y004899D01*
X009740Y004887D01*
X009766Y004872D01*
X009790Y004853D01*
X009811Y004831D01*
X009829Y004807D01*
X009844Y004780D01*
X009855Y004752D01*
X009863Y004723D01*
X009867Y004693D01*
X009867Y004663D01*
X009863Y004633D01*
X009855Y004604D01*
X009844Y004576D01*
X009829Y004549D01*
X009811Y004525D01*
X009790Y004503D01*
X009766Y004484D01*
X009740Y004469D01*
X009713Y004457D01*
X009684Y004448D01*
X009654Y004443D01*
X009623Y004442D01*
X009593Y004445D01*
X009564Y004452D01*
X009535Y004462D01*
X009509Y004476D01*
X009484Y004493D01*
X009461Y004514D01*
X009442Y004537D01*
X009425Y004562D01*
X009412Y004589D01*
X009403Y004618D01*
X009397Y004648D01*
X009395Y004678D01*
X011364Y002709D02*
X011366Y002739D01*
X011372Y002769D01*
X011381Y002798D01*
X011394Y002825D01*
X011411Y002850D01*
X011430Y002873D01*
X011453Y002894D01*
X011478Y002911D01*
X011504Y002925D01*
X011533Y002935D01*
X011562Y002942D01*
X011592Y002945D01*
X011623Y002944D01*
X011653Y002939D01*
X011682Y002930D01*
X011709Y002918D01*
X011735Y002903D01*
X011759Y002884D01*
X011780Y002862D01*
X011798Y002838D01*
X011813Y002811D01*
X011824Y002783D01*
X011832Y002754D01*
X011836Y002724D01*
X011836Y002694D01*
X011832Y002664D01*
X011824Y002635D01*
X011813Y002607D01*
X011798Y002580D01*
X011780Y002556D01*
X011759Y002534D01*
X011735Y002515D01*
X011709Y002500D01*
X011682Y002488D01*
X011653Y002479D01*
X011623Y002474D01*
X011592Y002473D01*
X011562Y002476D01*
X011533Y002483D01*
X011504Y002493D01*
X011478Y002507D01*
X011453Y002524D01*
X011430Y002545D01*
X011411Y002568D01*
X011394Y002593D01*
X011381Y002620D01*
X011372Y002649D01*
X011366Y002679D01*
X011364Y002709D01*
X011364Y001725D02*
X011366Y001755D01*
X011372Y001785D01*
X011381Y001814D01*
X011394Y001841D01*
X011411Y001866D01*
X011430Y001889D01*
X011453Y001910D01*
X011478Y001927D01*
X011504Y001941D01*
X011533Y001951D01*
X011562Y001958D01*
X011592Y001961D01*
X011623Y001960D01*
X011653Y001955D01*
X011682Y001946D01*
X011709Y001934D01*
X011735Y001919D01*
X011759Y001900D01*
X011780Y001878D01*
X011798Y001854D01*
X011813Y001827D01*
X011824Y001799D01*
X011832Y001770D01*
X011836Y001740D01*
X011836Y001710D01*
X011832Y001680D01*
X011824Y001651D01*
X011813Y001623D01*
X011798Y001596D01*
X011780Y001572D01*
X011759Y001550D01*
X011735Y001531D01*
X011709Y001516D01*
X011682Y001504D01*
X011653Y001495D01*
X011623Y001490D01*
X011592Y001489D01*
X011562Y001492D01*
X011533Y001499D01*
X011504Y001509D01*
X011478Y001523D01*
X011453Y001540D01*
X011430Y001561D01*
X011411Y001584D01*
X011394Y001609D01*
X011381Y001636D01*
X011372Y001665D01*
X011366Y001695D01*
X011364Y001725D01*
X018131Y002209D02*
X018133Y002253D01*
X018139Y002297D01*
X018149Y002340D01*
X018162Y002382D01*
X018179Y002423D01*
X018200Y002462D01*
X018224Y002499D01*
X018251Y002534D01*
X018281Y002566D01*
X018314Y002596D01*
X018350Y002622D01*
X018387Y002646D01*
X018427Y002665D01*
X018468Y002682D01*
X018511Y002694D01*
X018554Y002703D01*
X018598Y002708D01*
X018642Y002709D01*
X018686Y002706D01*
X018730Y002699D01*
X018773Y002688D01*
X018815Y002674D01*
X018855Y002656D01*
X018894Y002634D01*
X018930Y002610D01*
X018964Y002582D01*
X018996Y002551D01*
X019025Y002517D01*
X019051Y002481D01*
X019073Y002443D01*
X019092Y002403D01*
X019107Y002361D01*
X019119Y002319D01*
X019127Y002275D01*
X019131Y002231D01*
X019131Y002187D01*
X019127Y002143D01*
X019119Y002099D01*
X019107Y002057D01*
X019092Y002015D01*
X019073Y001975D01*
X019051Y001937D01*
X019025Y001901D01*
X018996Y001867D01*
X018964Y001836D01*
X018930Y001808D01*
X018894Y001784D01*
X018855Y001762D01*
X018815Y001744D01*
X018773Y001730D01*
X018730Y001719D01*
X018686Y001712D01*
X018642Y001709D01*
X018598Y001710D01*
X018554Y001715D01*
X018511Y001724D01*
X018468Y001736D01*
X018427Y001753D01*
X018387Y001772D01*
X018350Y001796D01*
X018314Y001822D01*
X018281Y001852D01*
X018251Y001884D01*
X018224Y001919D01*
X018200Y001956D01*
X018179Y001995D01*
X018162Y002036D01*
X018149Y002078D01*
X018139Y002121D01*
X018133Y002165D01*
X018131Y002209D01*
X018131Y019709D02*
X018133Y019753D01*
X018139Y019797D01*
X018149Y019840D01*
X018162Y019882D01*
X018179Y019923D01*
X018200Y019962D01*
X018224Y019999D01*
X018251Y020034D01*
X018281Y020066D01*
X018314Y020096D01*
X018350Y020122D01*
X018387Y020146D01*
X018427Y020165D01*
X018468Y020182D01*
X018511Y020194D01*
X018554Y020203D01*
X018598Y020208D01*
X018642Y020209D01*
X018686Y020206D01*
X018730Y020199D01*
X018773Y020188D01*
X018815Y020174D01*
X018855Y020156D01*
X018894Y020134D01*
X018930Y020110D01*
X018964Y020082D01*
X018996Y020051D01*
X019025Y020017D01*
X019051Y019981D01*
X019073Y019943D01*
X019092Y019903D01*
X019107Y019861D01*
X019119Y019819D01*
X019127Y019775D01*
X019131Y019731D01*
X019131Y019687D01*
X019127Y019643D01*
X019119Y019599D01*
X019107Y019557D01*
X019092Y019515D01*
X019073Y019475D01*
X019051Y019437D01*
X019025Y019401D01*
X018996Y019367D01*
X018964Y019336D01*
X018930Y019308D01*
X018894Y019284D01*
X018855Y019262D01*
X018815Y019244D01*
X018773Y019230D01*
X018730Y019219D01*
X018686Y019212D01*
X018642Y019209D01*
X018598Y019210D01*
X018554Y019215D01*
X018511Y019224D01*
X018468Y019236D01*
X018427Y019253D01*
X018387Y019272D01*
X018350Y019296D01*
X018314Y019322D01*
X018281Y019352D01*
X018251Y019384D01*
X018224Y019419D01*
X018200Y019456D01*
X018179Y019495D01*
X018162Y019536D01*
X018149Y019578D01*
X018139Y019621D01*
X018133Y019665D01*
X018131Y019709D01*
X000631Y019709D02*
X000633Y019753D01*
X000639Y019797D01*
X000649Y019840D01*
X000662Y019882D01*
X000679Y019923D01*
X000700Y019962D01*
X000724Y019999D01*
X000751Y020034D01*
X000781Y020066D01*
X000814Y020096D01*
X000850Y020122D01*
X000887Y020146D01*
X000927Y020165D01*
X000968Y020182D01*
X001011Y020194D01*
X001054Y020203D01*
X001098Y020208D01*
X001142Y020209D01*
X001186Y020206D01*
X001230Y020199D01*
X001273Y020188D01*
X001315Y020174D01*
X001355Y020156D01*
X001394Y020134D01*
X001430Y020110D01*
X001464Y020082D01*
X001496Y020051D01*
X001525Y020017D01*
X001551Y019981D01*
X001573Y019943D01*
X001592Y019903D01*
X001607Y019861D01*
X001619Y019819D01*
X001627Y019775D01*
X001631Y019731D01*
X001631Y019687D01*
X001627Y019643D01*
X001619Y019599D01*
X001607Y019557D01*
X001592Y019515D01*
X001573Y019475D01*
X001551Y019437D01*
X001525Y019401D01*
X001496Y019367D01*
X001464Y019336D01*
X001430Y019308D01*
X001394Y019284D01*
X001355Y019262D01*
X001315Y019244D01*
X001273Y019230D01*
X001230Y019219D01*
X001186Y019212D01*
X001142Y019209D01*
X001098Y019210D01*
X001054Y019215D01*
X001011Y019224D01*
X000968Y019236D01*
X000927Y019253D01*
X000887Y019272D01*
X000850Y019296D01*
X000814Y019322D01*
X000781Y019352D01*
X000751Y019384D01*
X000724Y019419D01*
X000700Y019456D01*
X000679Y019495D01*
X000662Y019536D01*
X000649Y019578D01*
X000639Y019621D01*
X000633Y019665D01*
X000631Y019709D01*
D11*
X002631Y019209D02*
X002631Y020209D01*
X004631Y020209D01*
X004631Y019209D01*
X002631Y019209D01*
X005131Y019209D02*
X007131Y019209D01*
X007131Y020209D01*
X005131Y020209D01*
X005131Y019209D01*
X002026Y016270D02*
X002026Y016120D01*
X001951Y016045D01*
X001951Y015885D02*
X002026Y015810D01*
X002026Y015659D01*
X001951Y015584D01*
X001651Y015584D01*
X001576Y015659D01*
X001576Y015810D01*
X001651Y015885D01*
X001651Y016045D02*
X001576Y016120D01*
X001576Y016270D01*
X001651Y016345D01*
X001726Y016345D01*
X001801Y016270D01*
X001876Y016345D01*
X001951Y016345D01*
X002026Y016270D01*
X001801Y016270D02*
X001801Y016195D01*
X000131Y014009D02*
X008131Y014009D01*
X008131Y008009D01*
X000131Y008009D01*
X000131Y014009D01*
X008806Y013859D02*
X008881Y013784D01*
X009031Y013784D01*
X009106Y013859D01*
X009266Y013859D02*
X009341Y013784D01*
X009492Y013784D01*
X009567Y013859D01*
X009567Y014160D01*
X009492Y014235D01*
X009341Y014235D01*
X009266Y014160D01*
X009266Y014085D01*
X009341Y014010D01*
X009567Y014010D01*
X009106Y014160D02*
X009031Y014235D01*
X008881Y014235D01*
X008806Y014160D01*
X008806Y013859D01*
X011006Y012155D02*
X011456Y012155D01*
X011456Y012005D02*
X011456Y012305D01*
X011156Y012005D02*
X011006Y012155D01*
X011081Y011845D02*
X011006Y011770D01*
X011006Y011620D01*
X011081Y011545D01*
X011156Y011545D01*
X011231Y011620D01*
X011231Y011770D01*
X011306Y011845D01*
X011381Y011845D01*
X011456Y011770D01*
X011456Y011620D01*
X011381Y011545D01*
X011381Y011385D02*
X011006Y011385D01*
X011006Y011084D02*
X011381Y011084D01*
X011456Y011159D01*
X011456Y011310D01*
X011381Y011385D01*
X011531Y011695D02*
X010931Y011695D01*
X009952Y010235D02*
X009802Y010235D01*
X009727Y010160D01*
X009727Y009859D01*
X010027Y010160D01*
X010027Y009859D01*
X009952Y009784D01*
X009802Y009784D01*
X009727Y009859D01*
X009567Y009784D02*
X009266Y009784D01*
X009416Y009784D02*
X009416Y010235D01*
X009266Y010085D01*
X009106Y010160D02*
X009031Y010235D01*
X008881Y010235D01*
X008806Y010160D01*
X008806Y009859D01*
X008881Y009784D01*
X009031Y009784D01*
X009106Y009859D01*
X009952Y010235D02*
X010027Y010160D01*
X014236Y007649D02*
X014461Y007424D01*
X014461Y007724D01*
X014686Y007649D02*
X014236Y007649D01*
X014311Y007264D02*
X014236Y007189D01*
X014236Y007039D01*
X014311Y006964D01*
X014611Y006964D01*
X014686Y007039D01*
X014686Y007189D01*
X014611Y007264D01*
X018131Y005709D02*
X018131Y003709D01*
X019131Y003709D01*
X019131Y005709D01*
X018131Y005709D01*
X018811Y006964D02*
X019111Y006964D01*
X019186Y007039D01*
X019186Y007189D01*
X019111Y007264D01*
X019111Y007424D02*
X019186Y007499D01*
X019186Y007649D01*
X019111Y007724D01*
X018961Y007724D01*
X018886Y007649D01*
X018886Y007574D01*
X018961Y007424D01*
X018736Y007424D01*
X018736Y007724D01*
X018811Y007264D02*
X018736Y007189D01*
X018736Y007039D01*
X018811Y006964D01*
X016111Y003324D02*
X016036Y003324D01*
X015961Y003249D01*
X015961Y003024D01*
X016111Y003024D01*
X016186Y003099D01*
X016186Y003249D01*
X016111Y003324D01*
X015811Y003174D02*
X015961Y003024D01*
X015811Y003174D02*
X015736Y003324D01*
X015811Y002864D02*
X015736Y002789D01*
X015736Y002639D01*
X015811Y002564D01*
X016111Y002564D01*
X016186Y002639D01*
X016186Y002789D01*
X016111Y002864D01*
X014846Y014434D02*
X014546Y014434D01*
X014696Y014434D02*
X014696Y014885D01*
X014546Y014735D01*
X014385Y014434D02*
X014085Y014434D01*
X014235Y014434D02*
X014235Y014885D01*
X014085Y014735D01*
X013925Y014810D02*
X013850Y014885D01*
X013700Y014885D01*
X013625Y014810D01*
X013625Y014509D01*
X013700Y014434D01*
X013850Y014434D01*
X013925Y014509D01*
X014081Y017064D02*
X014231Y017064D01*
X014306Y017139D01*
X014466Y017139D02*
X014466Y017215D01*
X014541Y017290D01*
X014692Y017290D01*
X014767Y017215D01*
X014767Y017139D01*
X014692Y017064D01*
X014541Y017064D01*
X014466Y017139D01*
X014541Y017290D02*
X014466Y017365D01*
X014466Y017440D01*
X014541Y017515D01*
X014692Y017515D01*
X014767Y017440D01*
X014767Y017365D01*
X014692Y017290D01*
X014306Y017440D02*
X014231Y017515D01*
X014081Y017515D01*
X014006Y017440D01*
X014006Y017139D01*
X014081Y017064D01*
X015576Y018159D02*
X015651Y018084D01*
X015951Y018084D01*
X016026Y018159D01*
X016026Y018310D01*
X015951Y018385D01*
X015951Y018545D02*
X016026Y018545D01*
X015951Y018545D02*
X015651Y018845D01*
X015576Y018845D01*
X015576Y018545D01*
X015651Y018385D02*
X015576Y018310D01*
X015576Y018159D01*
X017700Y014885D02*
X017625Y014810D01*
X017625Y014509D01*
X017700Y014434D01*
X017850Y014434D01*
X017925Y014509D01*
X018085Y014434D02*
X018385Y014434D01*
X018235Y014434D02*
X018235Y014885D01*
X018085Y014735D01*
X017925Y014810D02*
X017850Y014885D01*
X017700Y014885D01*
X018546Y014810D02*
X018621Y014885D01*
X018771Y014885D01*
X018846Y014810D01*
X018846Y014735D01*
X018546Y014434D01*
X018846Y014434D01*
D12*
X018781Y015009D02*
X017481Y015009D01*
X017455Y015011D01*
X017429Y015016D01*
X017404Y015024D01*
X017381Y015036D01*
X017359Y015050D01*
X017340Y015068D01*
X017322Y015087D01*
X017308Y015109D01*
X017296Y015132D01*
X017288Y015157D01*
X017283Y015183D01*
X017281Y015209D01*
X017631Y015459D02*
X018001Y015459D01*
X018251Y015459D02*
X018631Y015459D01*
X018981Y015209D02*
X018979Y015183D01*
X018974Y015157D01*
X018966Y015132D01*
X018954Y015109D01*
X018940Y015087D01*
X018922Y015068D01*
X018903Y015050D01*
X018881Y015036D01*
X018858Y015024D01*
X018833Y015016D01*
X018807Y015011D01*
X018781Y015009D01*
X018981Y015709D02*
X018979Y015735D01*
X018974Y015761D01*
X018966Y015786D01*
X018954Y015809D01*
X018940Y015831D01*
X018922Y015850D01*
X018903Y015868D01*
X018881Y015882D01*
X018858Y015894D01*
X018833Y015902D01*
X018807Y015907D01*
X018781Y015909D01*
X017481Y015909D01*
X017455Y015907D01*
X017429Y015902D01*
X017404Y015894D01*
X017381Y015882D01*
X017359Y015868D01*
X017340Y015850D01*
X017322Y015831D01*
X017308Y015809D01*
X017296Y015786D01*
X017288Y015761D01*
X017283Y015735D01*
X017281Y015709D01*
X016631Y017509D02*
X016631Y017809D01*
X016781Y017659D02*
X016481Y017659D01*
X015281Y018709D02*
X015283Y018782D01*
X015289Y018855D01*
X015299Y018927D01*
X015313Y018999D01*
X015330Y019070D01*
X015352Y019140D01*
X015377Y019209D01*
X015406Y019276D01*
X015438Y019341D01*
X015474Y019405D01*
X015514Y019467D01*
X015556Y019526D01*
X015602Y019583D01*
X015651Y019637D01*
X015703Y019689D01*
X015757Y019738D01*
X015814Y019784D01*
X015873Y019826D01*
X015935Y019866D01*
X015999Y019902D01*
X016064Y019934D01*
X016131Y019963D01*
X016200Y019988D01*
X016270Y020010D01*
X016341Y020027D01*
X016413Y020041D01*
X016485Y020051D01*
X016558Y020057D01*
X016631Y020059D01*
X016704Y020057D01*
X016777Y020051D01*
X016849Y020041D01*
X016921Y020027D01*
X016992Y020010D01*
X017062Y019988D01*
X017131Y019963D01*
X017198Y019934D01*
X017263Y019902D01*
X017327Y019866D01*
X017389Y019826D01*
X017448Y019784D01*
X017505Y019738D01*
X017559Y019689D01*
X017611Y019637D01*
X017660Y019583D01*
X017706Y019526D01*
X017748Y019467D01*
X017788Y019405D01*
X017824Y019341D01*
X017856Y019276D01*
X017885Y019209D01*
X017910Y019140D01*
X017932Y019070D01*
X017949Y018999D01*
X017963Y018927D01*
X017973Y018855D01*
X017979Y018782D01*
X017981Y018709D01*
X017979Y018636D01*
X017973Y018563D01*
X017963Y018491D01*
X017949Y018419D01*
X017932Y018348D01*
X017910Y018278D01*
X017885Y018209D01*
X017856Y018142D01*
X017824Y018077D01*
X017788Y018013D01*
X017748Y017951D01*
X017706Y017892D01*
X017660Y017835D01*
X017611Y017781D01*
X017559Y017729D01*
X017505Y017680D01*
X017448Y017634D01*
X017389Y017592D01*
X017327Y017552D01*
X017263Y017516D01*
X017198Y017484D01*
X017131Y017455D01*
X017062Y017430D01*
X016992Y017408D01*
X016921Y017391D01*
X016849Y017377D01*
X016777Y017367D01*
X016704Y017361D01*
X016631Y017359D01*
X016558Y017361D01*
X016485Y017367D01*
X016413Y017377D01*
X016341Y017391D01*
X016270Y017408D01*
X016200Y017430D01*
X016131Y017455D01*
X016064Y017484D01*
X015999Y017516D01*
X015935Y017552D01*
X015873Y017592D01*
X015814Y017634D01*
X015757Y017680D01*
X015703Y017729D01*
X015651Y017781D01*
X015602Y017835D01*
X015556Y017892D01*
X015514Y017951D01*
X015474Y018013D01*
X015438Y018077D01*
X015406Y018142D01*
X015377Y018209D01*
X015352Y018278D01*
X015330Y018348D01*
X015313Y018419D01*
X015299Y018491D01*
X015289Y018563D01*
X015283Y018636D01*
X015281Y018709D01*
X013531Y017659D02*
X013231Y017659D01*
X013381Y017509D02*
X013381Y017809D01*
X012031Y018709D02*
X012033Y018782D01*
X012039Y018855D01*
X012049Y018927D01*
X012063Y018999D01*
X012080Y019070D01*
X012102Y019140D01*
X012127Y019209D01*
X012156Y019276D01*
X012188Y019341D01*
X012224Y019405D01*
X012264Y019467D01*
X012306Y019526D01*
X012352Y019583D01*
X012401Y019637D01*
X012453Y019689D01*
X012507Y019738D01*
X012564Y019784D01*
X012623Y019826D01*
X012685Y019866D01*
X012749Y019902D01*
X012814Y019934D01*
X012881Y019963D01*
X012950Y019988D01*
X013020Y020010D01*
X013091Y020027D01*
X013163Y020041D01*
X013235Y020051D01*
X013308Y020057D01*
X013381Y020059D01*
X013454Y020057D01*
X013527Y020051D01*
X013599Y020041D01*
X013671Y020027D01*
X013742Y020010D01*
X013812Y019988D01*
X013881Y019963D01*
X013948Y019934D01*
X014013Y019902D01*
X014077Y019866D01*
X014139Y019826D01*
X014198Y019784D01*
X014255Y019738D01*
X014309Y019689D01*
X014361Y019637D01*
X014410Y019583D01*
X014456Y019526D01*
X014498Y019467D01*
X014538Y019405D01*
X014574Y019341D01*
X014606Y019276D01*
X014635Y019209D01*
X014660Y019140D01*
X014682Y019070D01*
X014699Y018999D01*
X014713Y018927D01*
X014723Y018855D01*
X014729Y018782D01*
X014731Y018709D01*
X014729Y018636D01*
X014723Y018563D01*
X014713Y018491D01*
X014699Y018419D01*
X014682Y018348D01*
X014660Y018278D01*
X014635Y018209D01*
X014606Y018142D01*
X014574Y018077D01*
X014538Y018013D01*
X014498Y017951D01*
X014456Y017892D01*
X014410Y017835D01*
X014361Y017781D01*
X014309Y017729D01*
X014255Y017680D01*
X014198Y017634D01*
X014139Y017592D01*
X014077Y017552D01*
X014013Y017516D01*
X013948Y017484D01*
X013881Y017455D01*
X013812Y017430D01*
X013742Y017408D01*
X013671Y017391D01*
X013599Y017377D01*
X013527Y017367D01*
X013454Y017361D01*
X013381Y017359D01*
X013308Y017361D01*
X013235Y017367D01*
X013163Y017377D01*
X013091Y017391D01*
X013020Y017408D01*
X012950Y017430D01*
X012881Y017455D01*
X012814Y017484D01*
X012749Y017516D01*
X012685Y017552D01*
X012623Y017592D01*
X012564Y017634D01*
X012507Y017680D01*
X012453Y017729D01*
X012401Y017781D01*
X012352Y017835D01*
X012306Y017892D01*
X012264Y017951D01*
X012224Y018013D01*
X012188Y018077D01*
X012156Y018142D01*
X012127Y018209D01*
X012102Y018278D01*
X012080Y018348D01*
X012063Y018419D01*
X012049Y018491D01*
X012039Y018563D01*
X012033Y018636D01*
X012031Y018709D01*
X009781Y017459D02*
X009481Y017459D01*
X009631Y017309D02*
X009631Y017609D01*
X008281Y018509D02*
X008283Y018582D01*
X008289Y018655D01*
X008299Y018727D01*
X008313Y018799D01*
X008330Y018870D01*
X008352Y018940D01*
X008377Y019009D01*
X008406Y019076D01*
X008438Y019141D01*
X008474Y019205D01*
X008514Y019267D01*
X008556Y019326D01*
X008602Y019383D01*
X008651Y019437D01*
X008703Y019489D01*
X008757Y019538D01*
X008814Y019584D01*
X008873Y019626D01*
X008935Y019666D01*
X008999Y019702D01*
X009064Y019734D01*
X009131Y019763D01*
X009200Y019788D01*
X009270Y019810D01*
X009341Y019827D01*
X009413Y019841D01*
X009485Y019851D01*
X009558Y019857D01*
X009631Y019859D01*
X009704Y019857D01*
X009777Y019851D01*
X009849Y019841D01*
X009921Y019827D01*
X009992Y019810D01*
X010062Y019788D01*
X010131Y019763D01*
X010198Y019734D01*
X010263Y019702D01*
X010327Y019666D01*
X010389Y019626D01*
X010448Y019584D01*
X010505Y019538D01*
X010559Y019489D01*
X010611Y019437D01*
X010660Y019383D01*
X010706Y019326D01*
X010748Y019267D01*
X010788Y019205D01*
X010824Y019141D01*
X010856Y019076D01*
X010885Y019009D01*
X010910Y018940D01*
X010932Y018870D01*
X010949Y018799D01*
X010963Y018727D01*
X010973Y018655D01*
X010979Y018582D01*
X010981Y018509D01*
X010979Y018436D01*
X010973Y018363D01*
X010963Y018291D01*
X010949Y018219D01*
X010932Y018148D01*
X010910Y018078D01*
X010885Y018009D01*
X010856Y017942D01*
X010824Y017877D01*
X010788Y017813D01*
X010748Y017751D01*
X010706Y017692D01*
X010660Y017635D01*
X010611Y017581D01*
X010559Y017529D01*
X010505Y017480D01*
X010448Y017434D01*
X010389Y017392D01*
X010327Y017352D01*
X010263Y017316D01*
X010198Y017284D01*
X010131Y017255D01*
X010062Y017230D01*
X009992Y017208D01*
X009921Y017191D01*
X009849Y017177D01*
X009777Y017167D01*
X009704Y017161D01*
X009631Y017159D01*
X009558Y017161D01*
X009485Y017167D01*
X009413Y017177D01*
X009341Y017191D01*
X009270Y017208D01*
X009200Y017230D01*
X009131Y017255D01*
X009064Y017284D01*
X008999Y017316D01*
X008935Y017352D01*
X008873Y017392D01*
X008814Y017434D01*
X008757Y017480D01*
X008703Y017529D01*
X008651Y017581D01*
X008602Y017635D01*
X008556Y017692D01*
X008514Y017751D01*
X008474Y017813D01*
X008438Y017877D01*
X008406Y017942D01*
X008377Y018009D01*
X008352Y018078D01*
X008330Y018148D01*
X008313Y018219D01*
X008299Y018291D01*
X008289Y018363D01*
X008283Y018436D01*
X008281Y018509D01*
X008981Y013659D02*
X010281Y013659D01*
X010307Y013657D01*
X010333Y013652D01*
X010358Y013644D01*
X010381Y013632D01*
X010403Y013618D01*
X010422Y013600D01*
X010440Y013581D01*
X010454Y013559D01*
X010466Y013536D01*
X010474Y013511D01*
X010479Y013485D01*
X010481Y013459D01*
X010131Y013209D02*
X009761Y013209D01*
X009511Y013209D02*
X009131Y013209D01*
X008781Y013459D02*
X008783Y013485D01*
X008788Y013511D01*
X008796Y013536D01*
X008808Y013559D01*
X008822Y013581D01*
X008840Y013600D01*
X008859Y013618D01*
X008881Y013632D01*
X008904Y013644D01*
X008929Y013652D01*
X008955Y013657D01*
X008981Y013659D01*
X008781Y012959D02*
X008783Y012933D01*
X008788Y012907D01*
X008796Y012882D01*
X008808Y012859D01*
X008822Y012837D01*
X008840Y012818D01*
X008859Y012800D01*
X008881Y012786D01*
X008904Y012774D01*
X008929Y012766D01*
X008955Y012761D01*
X008981Y012759D01*
X010281Y012759D01*
X010307Y012761D01*
X010333Y012766D01*
X010358Y012774D01*
X010381Y012786D01*
X010403Y012800D01*
X010422Y012818D01*
X010440Y012837D01*
X010454Y012859D01*
X010466Y012882D01*
X010474Y012907D01*
X010479Y012933D01*
X010481Y012959D01*
X011631Y012609D02*
X011631Y013359D01*
X019631Y013359D01*
X019631Y011059D01*
X011631Y011059D01*
X011631Y011809D01*
X011670Y011811D01*
X011709Y011817D01*
X011747Y011826D01*
X011784Y011839D01*
X011820Y011856D01*
X011853Y011876D01*
X011885Y011900D01*
X011914Y011926D01*
X011940Y011955D01*
X011964Y011987D01*
X011984Y012020D01*
X012001Y012056D01*
X012014Y012093D01*
X012023Y012131D01*
X012029Y012170D01*
X012031Y012209D01*
X012029Y012248D01*
X012023Y012287D01*
X012014Y012325D01*
X012001Y012362D01*
X011984Y012398D01*
X011964Y012431D01*
X011940Y012463D01*
X011914Y012492D01*
X011885Y012518D01*
X011853Y012542D01*
X011820Y012562D01*
X011784Y012579D01*
X011747Y012592D01*
X011709Y012601D01*
X011670Y012607D01*
X011631Y012609D01*
X013481Y015009D02*
X014781Y015009D01*
X014807Y015011D01*
X014833Y015016D01*
X014858Y015024D01*
X014881Y015036D01*
X014903Y015050D01*
X014922Y015068D01*
X014940Y015087D01*
X014954Y015109D01*
X014966Y015132D01*
X014974Y015157D01*
X014979Y015183D01*
X014981Y015209D01*
X014631Y015459D02*
X014251Y015459D01*
X014001Y015459D02*
X013631Y015459D01*
X013281Y015209D02*
X013283Y015183D01*
X013288Y015157D01*
X013296Y015132D01*
X013308Y015109D01*
X013322Y015087D01*
X013340Y015068D01*
X013359Y015050D01*
X013381Y015036D01*
X013404Y015024D01*
X013429Y015016D01*
X013455Y015011D01*
X013481Y015009D01*
X013281Y015709D02*
X013283Y015735D01*
X013288Y015761D01*
X013296Y015786D01*
X013308Y015809D01*
X013322Y015831D01*
X013340Y015850D01*
X013359Y015868D01*
X013381Y015882D01*
X013404Y015894D01*
X013429Y015902D01*
X013455Y015907D01*
X013481Y015909D01*
X014781Y015909D01*
X014807Y015907D01*
X014833Y015902D01*
X014858Y015894D01*
X014881Y015882D01*
X014903Y015868D01*
X014922Y015850D01*
X014940Y015831D01*
X014954Y015809D01*
X014966Y015786D01*
X014974Y015761D01*
X014979Y015735D01*
X014981Y015709D01*
X010281Y009659D02*
X008981Y009659D01*
X008955Y009657D01*
X008929Y009652D01*
X008904Y009644D01*
X008881Y009632D01*
X008859Y009618D01*
X008840Y009600D01*
X008822Y009581D01*
X008808Y009559D01*
X008796Y009536D01*
X008788Y009511D01*
X008783Y009485D01*
X008781Y009459D01*
X009131Y009209D02*
X009511Y009209D01*
X009761Y009209D02*
X010131Y009209D01*
X010481Y009459D02*
X010479Y009485D01*
X010474Y009511D01*
X010466Y009536D01*
X010454Y009559D01*
X010440Y009581D01*
X010422Y009600D01*
X010403Y009618D01*
X010381Y009632D01*
X010358Y009644D01*
X010333Y009652D01*
X010307Y009657D01*
X010281Y009659D01*
X010481Y008959D02*
X010479Y008933D01*
X010474Y008907D01*
X010466Y008882D01*
X010454Y008859D01*
X010440Y008837D01*
X010422Y008818D01*
X010403Y008800D01*
X010381Y008786D01*
X010358Y008774D01*
X010333Y008766D01*
X010307Y008761D01*
X010281Y008759D01*
X008981Y008759D01*
X008955Y008761D01*
X008929Y008766D01*
X008904Y008774D01*
X008881Y008786D01*
X008859Y008800D01*
X008840Y008818D01*
X008822Y008837D01*
X008808Y008859D01*
X008796Y008882D01*
X008788Y008907D01*
X008783Y008933D01*
X008781Y008959D01*
X012981Y008759D02*
X013281Y008759D01*
X013131Y008909D02*
X013131Y008609D01*
X011781Y007709D02*
X011783Y007782D01*
X011789Y007855D01*
X011799Y007927D01*
X011813Y007999D01*
X011830Y008070D01*
X011852Y008140D01*
X011877Y008209D01*
X011906Y008276D01*
X011938Y008341D01*
X011974Y008405D01*
X012014Y008467D01*
X012056Y008526D01*
X012102Y008583D01*
X012151Y008637D01*
X012203Y008689D01*
X012257Y008738D01*
X012314Y008784D01*
X012373Y008826D01*
X012435Y008866D01*
X012499Y008902D01*
X012564Y008934D01*
X012631Y008963D01*
X012700Y008988D01*
X012770Y009010D01*
X012841Y009027D01*
X012913Y009041D01*
X012985Y009051D01*
X013058Y009057D01*
X013131Y009059D01*
X013204Y009057D01*
X013277Y009051D01*
X013349Y009041D01*
X013421Y009027D01*
X013492Y009010D01*
X013562Y008988D01*
X013631Y008963D01*
X013698Y008934D01*
X013763Y008902D01*
X013827Y008866D01*
X013889Y008826D01*
X013948Y008784D01*
X014005Y008738D01*
X014059Y008689D01*
X014111Y008637D01*
X014160Y008583D01*
X014206Y008526D01*
X014248Y008467D01*
X014288Y008405D01*
X014324Y008341D01*
X014356Y008276D01*
X014385Y008209D01*
X014410Y008140D01*
X014432Y008070D01*
X014449Y007999D01*
X014463Y007927D01*
X014473Y007855D01*
X014479Y007782D01*
X014481Y007709D01*
X014479Y007636D01*
X014473Y007563D01*
X014463Y007491D01*
X014449Y007419D01*
X014432Y007348D01*
X014410Y007278D01*
X014385Y007209D01*
X014356Y007142D01*
X014324Y007077D01*
X014288Y007013D01*
X014248Y006951D01*
X014206Y006892D01*
X014160Y006835D01*
X014111Y006781D01*
X014059Y006729D01*
X014005Y006680D01*
X013948Y006634D01*
X013889Y006592D01*
X013827Y006552D01*
X013763Y006516D01*
X013698Y006484D01*
X013631Y006455D01*
X013562Y006430D01*
X013492Y006408D01*
X013421Y006391D01*
X013349Y006377D01*
X013277Y006367D01*
X013204Y006361D01*
X013131Y006359D01*
X013058Y006361D01*
X012985Y006367D01*
X012913Y006377D01*
X012841Y006391D01*
X012770Y006408D01*
X012700Y006430D01*
X012631Y006455D01*
X012564Y006484D01*
X012499Y006516D01*
X012435Y006552D01*
X012373Y006592D01*
X012314Y006634D01*
X012257Y006680D01*
X012203Y006729D01*
X012151Y006781D01*
X012102Y006835D01*
X012056Y006892D01*
X012014Y006951D01*
X011974Y007013D01*
X011938Y007077D01*
X011906Y007142D01*
X011877Y007209D01*
X011852Y007278D01*
X011830Y007348D01*
X011813Y007419D01*
X011799Y007491D01*
X011789Y007563D01*
X011783Y007636D01*
X011781Y007709D01*
X014631Y004509D02*
X014631Y004209D01*
X014481Y004359D02*
X014781Y004359D01*
X013281Y003309D02*
X013283Y003382D01*
X013289Y003455D01*
X013299Y003527D01*
X013313Y003599D01*
X013330Y003670D01*
X013352Y003740D01*
X013377Y003809D01*
X013406Y003876D01*
X013438Y003941D01*
X013474Y004005D01*
X013514Y004067D01*
X013556Y004126D01*
X013602Y004183D01*
X013651Y004237D01*
X013703Y004289D01*
X013757Y004338D01*
X013814Y004384D01*
X013873Y004426D01*
X013935Y004466D01*
X013999Y004502D01*
X014064Y004534D01*
X014131Y004563D01*
X014200Y004588D01*
X014270Y004610D01*
X014341Y004627D01*
X014413Y004641D01*
X014485Y004651D01*
X014558Y004657D01*
X014631Y004659D01*
X014704Y004657D01*
X014777Y004651D01*
X014849Y004641D01*
X014921Y004627D01*
X014992Y004610D01*
X015062Y004588D01*
X015131Y004563D01*
X015198Y004534D01*
X015263Y004502D01*
X015327Y004466D01*
X015389Y004426D01*
X015448Y004384D01*
X015505Y004338D01*
X015559Y004289D01*
X015611Y004237D01*
X015660Y004183D01*
X015706Y004126D01*
X015748Y004067D01*
X015788Y004005D01*
X015824Y003941D01*
X015856Y003876D01*
X015885Y003809D01*
X015910Y003740D01*
X015932Y003670D01*
X015949Y003599D01*
X015963Y003527D01*
X015973Y003455D01*
X015979Y003382D01*
X015981Y003309D01*
X015979Y003236D01*
X015973Y003163D01*
X015963Y003091D01*
X015949Y003019D01*
X015932Y002948D01*
X015910Y002878D01*
X015885Y002809D01*
X015856Y002742D01*
X015824Y002677D01*
X015788Y002613D01*
X015748Y002551D01*
X015706Y002492D01*
X015660Y002435D01*
X015611Y002381D01*
X015559Y002329D01*
X015505Y002280D01*
X015448Y002234D01*
X015389Y002192D01*
X015327Y002152D01*
X015263Y002116D01*
X015198Y002084D01*
X015131Y002055D01*
X015062Y002030D01*
X014992Y002008D01*
X014921Y001991D01*
X014849Y001977D01*
X014777Y001967D01*
X014704Y001961D01*
X014631Y001959D01*
X014558Y001961D01*
X014485Y001967D01*
X014413Y001977D01*
X014341Y001991D01*
X014270Y002008D01*
X014200Y002030D01*
X014131Y002055D01*
X014064Y002084D01*
X013999Y002116D01*
X013935Y002152D01*
X013873Y002192D01*
X013814Y002234D01*
X013757Y002280D01*
X013703Y002329D01*
X013651Y002381D01*
X013602Y002435D01*
X013556Y002492D01*
X013514Y002551D01*
X013474Y002613D01*
X013438Y002677D01*
X013406Y002742D01*
X013377Y002809D01*
X013352Y002878D01*
X013330Y002948D01*
X013313Y003019D01*
X013299Y003091D01*
X013289Y003163D01*
X013283Y003236D01*
X013281Y003309D01*
X016281Y007709D02*
X016283Y007782D01*
X016289Y007855D01*
X016299Y007927D01*
X016313Y007999D01*
X016330Y008070D01*
X016352Y008140D01*
X016377Y008209D01*
X016406Y008276D01*
X016438Y008341D01*
X016474Y008405D01*
X016514Y008467D01*
X016556Y008526D01*
X016602Y008583D01*
X016651Y008637D01*
X016703Y008689D01*
X016757Y008738D01*
X016814Y008784D01*
X016873Y008826D01*
X016935Y008866D01*
X016999Y008902D01*
X017064Y008934D01*
X017131Y008963D01*
X017200Y008988D01*
X017270Y009010D01*
X017341Y009027D01*
X017413Y009041D01*
X017485Y009051D01*
X017558Y009057D01*
X017631Y009059D01*
X017704Y009057D01*
X017777Y009051D01*
X017849Y009041D01*
X017921Y009027D01*
X017992Y009010D01*
X018062Y008988D01*
X018131Y008963D01*
X018198Y008934D01*
X018263Y008902D01*
X018327Y008866D01*
X018389Y008826D01*
X018448Y008784D01*
X018505Y008738D01*
X018559Y008689D01*
X018611Y008637D01*
X018660Y008583D01*
X018706Y008526D01*
X018748Y008467D01*
X018788Y008405D01*
X018824Y008341D01*
X018856Y008276D01*
X018885Y008209D01*
X018910Y008140D01*
X018932Y008070D01*
X018949Y007999D01*
X018963Y007927D01*
X018973Y007855D01*
X018979Y007782D01*
X018981Y007709D01*
X018979Y007636D01*
X018973Y007563D01*
X018963Y007491D01*
X018949Y007419D01*
X018932Y007348D01*
X018910Y007278D01*
X018885Y007209D01*
X018856Y007142D01*
X018824Y007077D01*
X018788Y007013D01*
X018748Y006951D01*
X018706Y006892D01*
X018660Y006835D01*
X018611Y006781D01*
X018559Y006729D01*
X018505Y006680D01*
X018448Y006634D01*
X018389Y006592D01*
X018327Y006552D01*
X018263Y006516D01*
X018198Y006484D01*
X018131Y006455D01*
X018062Y006430D01*
X017992Y006408D01*
X017921Y006391D01*
X017849Y006377D01*
X017777Y006367D01*
X017704Y006361D01*
X017631Y006359D01*
X017558Y006361D01*
X017485Y006367D01*
X017413Y006377D01*
X017341Y006391D01*
X017270Y006408D01*
X017200Y006430D01*
X017131Y006455D01*
X017064Y006484D01*
X016999Y006516D01*
X016935Y006552D01*
X016873Y006592D01*
X016814Y006634D01*
X016757Y006680D01*
X016703Y006729D01*
X016651Y006781D01*
X016602Y006835D01*
X016556Y006892D01*
X016514Y006951D01*
X016474Y007013D01*
X016438Y007077D01*
X016406Y007142D01*
X016377Y007209D01*
X016352Y007278D01*
X016330Y007348D01*
X016313Y007419D01*
X016299Y007491D01*
X016289Y007563D01*
X016283Y007636D01*
X016281Y007709D01*
X017481Y008759D02*
X017781Y008759D01*
X017631Y008909D02*
X017631Y008609D01*
X002781Y006059D02*
X002481Y006059D01*
X002631Y006209D02*
X002631Y005909D01*
X001281Y005009D02*
X001283Y005082D01*
X001289Y005155D01*
X001299Y005227D01*
X001313Y005299D01*
X001330Y005370D01*
X001352Y005440D01*
X001377Y005509D01*
X001406Y005576D01*
X001438Y005641D01*
X001474Y005705D01*
X001514Y005767D01*
X001556Y005826D01*
X001602Y005883D01*
X001651Y005937D01*
X001703Y005989D01*
X001757Y006038D01*
X001814Y006084D01*
X001873Y006126D01*
X001935Y006166D01*
X001999Y006202D01*
X002064Y006234D01*
X002131Y006263D01*
X002200Y006288D01*
X002270Y006310D01*
X002341Y006327D01*
X002413Y006341D01*
X002485Y006351D01*
X002558Y006357D01*
X002631Y006359D01*
X002704Y006357D01*
X002777Y006351D01*
X002849Y006341D01*
X002921Y006327D01*
X002992Y006310D01*
X003062Y006288D01*
X003131Y006263D01*
X003198Y006234D01*
X003263Y006202D01*
X003327Y006166D01*
X003389Y006126D01*
X003448Y006084D01*
X003505Y006038D01*
X003559Y005989D01*
X003611Y005937D01*
X003660Y005883D01*
X003706Y005826D01*
X003748Y005767D01*
X003788Y005705D01*
X003824Y005641D01*
X003856Y005576D01*
X003885Y005509D01*
X003910Y005440D01*
X003932Y005370D01*
X003949Y005299D01*
X003963Y005227D01*
X003973Y005155D01*
X003979Y005082D01*
X003981Y005009D01*
X003979Y004936D01*
X003973Y004863D01*
X003963Y004791D01*
X003949Y004719D01*
X003932Y004648D01*
X003910Y004578D01*
X003885Y004509D01*
X003856Y004442D01*
X003824Y004377D01*
X003788Y004313D01*
X003748Y004251D01*
X003706Y004192D01*
X003660Y004135D01*
X003611Y004081D01*
X003559Y004029D01*
X003505Y003980D01*
X003448Y003934D01*
X003389Y003892D01*
X003327Y003852D01*
X003263Y003816D01*
X003198Y003784D01*
X003131Y003755D01*
X003062Y003730D01*
X002992Y003708D01*
X002921Y003691D01*
X002849Y003677D01*
X002777Y003667D01*
X002704Y003661D01*
X002631Y003659D01*
X002558Y003661D01*
X002485Y003667D01*
X002413Y003677D01*
X002341Y003691D01*
X002270Y003708D01*
X002200Y003730D01*
X002131Y003755D01*
X002064Y003784D01*
X001999Y003816D01*
X001935Y003852D01*
X001873Y003892D01*
X001814Y003934D01*
X001757Y003980D01*
X001703Y004029D01*
X001651Y004081D01*
X001602Y004135D01*
X001556Y004192D01*
X001514Y004251D01*
X001474Y004313D01*
X001438Y004377D01*
X001406Y004442D01*
X001377Y004509D01*
X001352Y004578D01*
X001330Y004648D01*
X001313Y004719D01*
X001299Y004791D01*
X001289Y004863D01*
X001283Y004936D01*
X001281Y005009D01*
X002631Y015009D02*
X002631Y015309D01*
X002781Y015159D02*
X002481Y015159D01*
X001281Y016209D02*
X001283Y016282D01*
X001289Y016355D01*
X001299Y016427D01*
X001313Y016499D01*
X001330Y016570D01*
X001352Y016640D01*
X001377Y016709D01*
X001406Y016776D01*
X001438Y016841D01*
X001474Y016905D01*
X001514Y016967D01*
X001556Y017026D01*
X001602Y017083D01*
X001651Y017137D01*
X001703Y017189D01*
X001757Y017238D01*
X001814Y017284D01*
X001873Y017326D01*
X001935Y017366D01*
X001999Y017402D01*
X002064Y017434D01*
X002131Y017463D01*
X002200Y017488D01*
X002270Y017510D01*
X002341Y017527D01*
X002413Y017541D01*
X002485Y017551D01*
X002558Y017557D01*
X002631Y017559D01*
X002704Y017557D01*
X002777Y017551D01*
X002849Y017541D01*
X002921Y017527D01*
X002992Y017510D01*
X003062Y017488D01*
X003131Y017463D01*
X003198Y017434D01*
X003263Y017402D01*
X003327Y017366D01*
X003389Y017326D01*
X003448Y017284D01*
X003505Y017238D01*
X003559Y017189D01*
X003611Y017137D01*
X003660Y017083D01*
X003706Y017026D01*
X003748Y016967D01*
X003788Y016905D01*
X003824Y016841D01*
X003856Y016776D01*
X003885Y016709D01*
X003910Y016640D01*
X003932Y016570D01*
X003949Y016499D01*
X003963Y016427D01*
X003973Y016355D01*
X003979Y016282D01*
X003981Y016209D01*
X003979Y016136D01*
X003973Y016063D01*
X003963Y015991D01*
X003949Y015919D01*
X003932Y015848D01*
X003910Y015778D01*
X003885Y015709D01*
X003856Y015642D01*
X003824Y015577D01*
X003788Y015513D01*
X003748Y015451D01*
X003706Y015392D01*
X003660Y015335D01*
X003611Y015281D01*
X003559Y015229D01*
X003505Y015180D01*
X003448Y015134D01*
X003389Y015092D01*
X003327Y015052D01*
X003263Y015016D01*
X003198Y014984D01*
X003131Y014955D01*
X003062Y014930D01*
X002992Y014908D01*
X002921Y014891D01*
X002849Y014877D01*
X002777Y014867D01*
X002704Y014861D01*
X002631Y014859D01*
X002558Y014861D01*
X002485Y014867D01*
X002413Y014877D01*
X002341Y014891D01*
X002270Y014908D01*
X002200Y014930D01*
X002131Y014955D01*
X002064Y014984D01*
X001999Y015016D01*
X001935Y015052D01*
X001873Y015092D01*
X001814Y015134D01*
X001757Y015180D01*
X001703Y015229D01*
X001651Y015281D01*
X001602Y015335D01*
X001556Y015392D01*
X001514Y015451D01*
X001474Y015513D01*
X001438Y015577D01*
X001406Y015642D01*
X001377Y015709D01*
X001352Y015778D01*
X001330Y015848D01*
X001313Y015919D01*
X001299Y015991D01*
X001289Y016063D01*
X001283Y016136D01*
X001281Y016209D01*
D13*
X010477Y019650D02*
X010582Y019544D01*
X010792Y019544D01*
X010897Y019650D01*
X011121Y019544D02*
X011542Y019544D01*
X011332Y019544D02*
X011332Y020175D01*
X011121Y019965D01*
X010897Y020070D02*
X010792Y020175D01*
X010582Y020175D01*
X010477Y020070D01*
X010477Y019650D01*
X004796Y005220D02*
X004796Y004800D01*
X004376Y005220D01*
X004271Y005220D01*
X004166Y005115D01*
X004166Y004905D01*
X004271Y004800D01*
X004271Y004576D02*
X004166Y004471D01*
X004166Y004260D01*
X004271Y004155D01*
X004691Y004155D01*
X004796Y004260D01*
X004796Y004471D01*
X004691Y004576D01*
D14*
X009511Y008909D02*
X009511Y009209D01*
X009511Y009509D01*
X009761Y009509D02*
X009761Y009209D01*
X009761Y008909D01*
X009761Y012909D02*
X009761Y013209D01*
X009761Y013509D01*
X009511Y013509D02*
X009511Y013209D01*
X009511Y012909D01*
X014001Y015159D02*
X014001Y015459D01*
X014001Y015759D01*
X014251Y015759D02*
X014251Y015459D01*
X014251Y015159D01*
X018001Y015159D02*
X018001Y015459D01*
X018001Y015759D01*
X018251Y015759D02*
X018251Y015459D01*
X018251Y015159D01*
D15*
X018299Y005440D02*
X018299Y005133D01*
X018146Y004979D01*
X017992Y005133D01*
X017992Y005440D01*
X017839Y005363D02*
X017762Y005440D01*
X017609Y005440D01*
X017532Y005363D01*
X017839Y005363D02*
X017839Y005286D01*
X017532Y004979D01*
X017839Y004979D01*
X017379Y004979D02*
X017072Y004979D01*
X017225Y004979D02*
X017225Y005440D01*
X017072Y005286D01*
X016918Y005210D02*
X016611Y005210D01*
X016458Y005286D02*
X016381Y005210D01*
X016458Y005133D01*
X016458Y005056D01*
X016381Y004979D01*
X016228Y004979D01*
X016151Y005056D01*
X016304Y005210D02*
X016381Y005210D01*
X016458Y005286D02*
X016458Y005363D01*
X016381Y005440D01*
X016228Y005440D01*
X016151Y005363D01*
X005958Y009606D02*
X005881Y009529D01*
X005728Y009529D01*
X005651Y009606D01*
X005804Y009760D02*
X005881Y009760D01*
X005958Y009683D01*
X005958Y009606D01*
X005881Y009760D02*
X005958Y009836D01*
X005958Y009913D01*
X005881Y009990D01*
X005728Y009990D01*
X005651Y009913D01*
X004881Y010779D02*
X004651Y010779D01*
X004651Y011240D01*
X004881Y011240D01*
X004958Y011163D01*
X004958Y011086D01*
X004881Y011010D01*
X004651Y011010D01*
X004881Y011010D02*
X004958Y010933D01*
X004958Y010856D01*
X004881Y010779D01*
X005651Y011529D02*
X005958Y011836D01*
X005958Y011913D01*
X005881Y011990D01*
X005728Y011990D01*
X005651Y011913D01*
X005651Y011529D02*
X005958Y011529D01*
X005958Y013529D02*
X005651Y013529D01*
X005804Y013529D02*
X005804Y013990D01*
X005651Y013836D01*
X001958Y013529D02*
X001651Y013529D01*
X001804Y013529D02*
X001804Y013990D01*
X001651Y013836D01*
X001728Y011990D02*
X001651Y011913D01*
X001728Y011990D02*
X001881Y011990D01*
X001958Y011913D01*
X001958Y011836D01*
X001651Y011529D01*
X001958Y011529D01*
X000958Y011086D02*
X000958Y010779D01*
X000958Y011010D02*
X000651Y011010D01*
X000651Y011086D02*
X000651Y010779D01*
X000651Y011086D02*
X000804Y011240D01*
X000958Y011086D01*
X001728Y009990D02*
X001881Y009990D01*
X001958Y009913D01*
X001958Y009836D01*
X001881Y009760D01*
X001958Y009683D01*
X001958Y009606D01*
X001881Y009529D01*
X001728Y009529D01*
X001651Y009606D01*
X001804Y009760D02*
X001881Y009760D01*
X001651Y009913D02*
X001728Y009990D01*
X002651Y018479D02*
X002958Y018479D01*
X003111Y018479D02*
X003418Y018479D01*
X003572Y018479D02*
X003572Y018940D01*
X003879Y018940D01*
X004032Y018940D02*
X004339Y018940D01*
X004186Y018940D02*
X004186Y018479D01*
X003725Y018710D02*
X003572Y018710D01*
X003418Y018940D02*
X003111Y018940D01*
X003111Y018479D01*
X003111Y018710D02*
X003265Y018710D01*
X002651Y018940D02*
X002651Y018479D01*
X005003Y018479D02*
X005003Y018940D01*
X005233Y018940D01*
X005309Y018863D01*
X005309Y018710D01*
X005233Y018633D01*
X005003Y018633D01*
X005156Y018633D02*
X005309Y018479D01*
X005463Y018479D02*
X005616Y018479D01*
X005540Y018479D02*
X005540Y018940D01*
X005616Y018940D02*
X005463Y018940D01*
X005770Y018863D02*
X005770Y018556D01*
X005846Y018479D01*
X006000Y018479D01*
X006077Y018556D01*
X006077Y018710D01*
X005923Y018710D01*
X005770Y018863D02*
X005846Y018940D01*
X006000Y018940D01*
X006077Y018863D01*
X006230Y018940D02*
X006230Y018479D01*
X006230Y018710D02*
X006537Y018710D01*
X006537Y018940D02*
X006537Y018479D01*
X006844Y018479D02*
X006844Y018940D01*
X006691Y018940D02*
X006997Y018940D01*
D16*
X007269Y005662D02*
X007269Y005269D01*
X007269Y005662D02*
X011993Y005662D01*
X011993Y005269D01*
X011993Y004087D02*
X011993Y001331D01*
X007269Y001331D01*
X007269Y004087D01*
D17*
X008476Y002412D02*
X008626Y002412D01*
X008626Y002362D02*
X008626Y002462D01*
X008526Y002362D02*
X008476Y002412D01*
X008476Y002315D02*
X008601Y002315D01*
X008626Y002289D01*
X008626Y002239D01*
X008601Y002214D01*
X008476Y002214D01*
M02*
