G75*
G70*
%OFA0B0*%
%FSLAX24Y24*%
%IPPOS*%
%LPD*%
%AMOC8*
5,1,8,0,0,1.08239X$1,22.5*
%
%ADD10C,0.0000*%
%ADD11C,0.0520*%
%ADD12OC8,0.0630*%
%ADD13C,0.0630*%
%ADD14OC8,0.0520*%
%ADD15C,0.0768*%
%ADD16C,0.0860*%
%ADD17R,0.0650X0.0650*%
%ADD18C,0.0650*%
%ADD19C,0.0200*%
%ADD20C,0.0356*%
%ADD21C,0.0100*%
%ADD22C,0.0300*%
D10*
X000131Y001209D02*
X000131Y020809D01*
X019731Y020809D01*
X019731Y001209D01*
X000131Y001209D01*
X000631Y002209D02*
X000633Y002253D01*
X000639Y002297D01*
X000649Y002340D01*
X000662Y002382D01*
X000679Y002423D01*
X000700Y002462D01*
X000724Y002499D01*
X000751Y002534D01*
X000781Y002566D01*
X000814Y002596D01*
X000850Y002622D01*
X000887Y002646D01*
X000927Y002665D01*
X000968Y002682D01*
X001011Y002694D01*
X001054Y002703D01*
X001098Y002708D01*
X001142Y002709D01*
X001186Y002706D01*
X001230Y002699D01*
X001273Y002688D01*
X001315Y002674D01*
X001355Y002656D01*
X001394Y002634D01*
X001430Y002610D01*
X001464Y002582D01*
X001496Y002551D01*
X001525Y002517D01*
X001551Y002481D01*
X001573Y002443D01*
X001592Y002403D01*
X001607Y002361D01*
X001619Y002319D01*
X001627Y002275D01*
X001631Y002231D01*
X001631Y002187D01*
X001627Y002143D01*
X001619Y002099D01*
X001607Y002057D01*
X001592Y002015D01*
X001573Y001975D01*
X001551Y001937D01*
X001525Y001901D01*
X001496Y001867D01*
X001464Y001836D01*
X001430Y001808D01*
X001394Y001784D01*
X001355Y001762D01*
X001315Y001744D01*
X001273Y001730D01*
X001230Y001719D01*
X001186Y001712D01*
X001142Y001709D01*
X001098Y001710D01*
X001054Y001715D01*
X001011Y001724D01*
X000968Y001736D01*
X000927Y001753D01*
X000887Y001772D01*
X000850Y001796D01*
X000814Y001822D01*
X000781Y001852D01*
X000751Y001884D01*
X000724Y001919D01*
X000700Y001956D01*
X000679Y001995D01*
X000662Y002036D01*
X000649Y002078D01*
X000639Y002121D01*
X000633Y002165D01*
X000631Y002209D01*
X007427Y001725D02*
X007429Y001755D01*
X007435Y001785D01*
X007444Y001814D01*
X007457Y001841D01*
X007474Y001866D01*
X007493Y001889D01*
X007516Y001910D01*
X007541Y001927D01*
X007567Y001941D01*
X007596Y001951D01*
X007625Y001958D01*
X007655Y001961D01*
X007686Y001960D01*
X007716Y001955D01*
X007745Y001946D01*
X007772Y001934D01*
X007798Y001919D01*
X007822Y001900D01*
X007843Y001878D01*
X007861Y001854D01*
X007876Y001827D01*
X007887Y001799D01*
X007895Y001770D01*
X007899Y001740D01*
X007899Y001710D01*
X007895Y001680D01*
X007887Y001651D01*
X007876Y001623D01*
X007861Y001596D01*
X007843Y001572D01*
X007822Y001550D01*
X007798Y001531D01*
X007772Y001516D01*
X007745Y001504D01*
X007716Y001495D01*
X007686Y001490D01*
X007655Y001489D01*
X007625Y001492D01*
X007596Y001499D01*
X007567Y001509D01*
X007541Y001523D01*
X007516Y001540D01*
X007493Y001561D01*
X007474Y001584D01*
X007457Y001609D01*
X007444Y001636D01*
X007435Y001665D01*
X007429Y001695D01*
X007427Y001725D01*
X007427Y002709D02*
X007429Y002739D01*
X007435Y002769D01*
X007444Y002798D01*
X007457Y002825D01*
X007474Y002850D01*
X007493Y002873D01*
X007516Y002894D01*
X007541Y002911D01*
X007567Y002925D01*
X007596Y002935D01*
X007625Y002942D01*
X007655Y002945D01*
X007686Y002944D01*
X007716Y002939D01*
X007745Y002930D01*
X007772Y002918D01*
X007798Y002903D01*
X007822Y002884D01*
X007843Y002862D01*
X007861Y002838D01*
X007876Y002811D01*
X007887Y002783D01*
X007895Y002754D01*
X007899Y002724D01*
X007899Y002694D01*
X007895Y002664D01*
X007887Y002635D01*
X007876Y002607D01*
X007861Y002580D01*
X007843Y002556D01*
X007822Y002534D01*
X007798Y002515D01*
X007772Y002500D01*
X007745Y002488D01*
X007716Y002479D01*
X007686Y002474D01*
X007655Y002473D01*
X007625Y002476D01*
X007596Y002483D01*
X007567Y002493D01*
X007541Y002507D01*
X007516Y002524D01*
X007493Y002545D01*
X007474Y002568D01*
X007457Y002593D01*
X007444Y002620D01*
X007435Y002649D01*
X007429Y002679D01*
X007427Y002709D01*
X009395Y004678D02*
X009397Y004708D01*
X009403Y004738D01*
X009412Y004767D01*
X009425Y004794D01*
X009442Y004819D01*
X009461Y004842D01*
X009484Y004863D01*
X009509Y004880D01*
X009535Y004894D01*
X009564Y004904D01*
X009593Y004911D01*
X009623Y004914D01*
X009654Y004913D01*
X009684Y004908D01*
X009713Y004899D01*
X009740Y004887D01*
X009766Y004872D01*
X009790Y004853D01*
X009811Y004831D01*
X009829Y004807D01*
X009844Y004780D01*
X009855Y004752D01*
X009863Y004723D01*
X009867Y004693D01*
X009867Y004663D01*
X009863Y004633D01*
X009855Y004604D01*
X009844Y004576D01*
X009829Y004549D01*
X009811Y004525D01*
X009790Y004503D01*
X009766Y004484D01*
X009740Y004469D01*
X009713Y004457D01*
X009684Y004448D01*
X009654Y004443D01*
X009623Y004442D01*
X009593Y004445D01*
X009564Y004452D01*
X009535Y004462D01*
X009509Y004476D01*
X009484Y004493D01*
X009461Y004514D01*
X009442Y004537D01*
X009425Y004562D01*
X009412Y004589D01*
X009403Y004618D01*
X009397Y004648D01*
X009395Y004678D01*
X011364Y002709D02*
X011366Y002739D01*
X011372Y002769D01*
X011381Y002798D01*
X011394Y002825D01*
X011411Y002850D01*
X011430Y002873D01*
X011453Y002894D01*
X011478Y002911D01*
X011504Y002925D01*
X011533Y002935D01*
X011562Y002942D01*
X011592Y002945D01*
X011623Y002944D01*
X011653Y002939D01*
X011682Y002930D01*
X011709Y002918D01*
X011735Y002903D01*
X011759Y002884D01*
X011780Y002862D01*
X011798Y002838D01*
X011813Y002811D01*
X011824Y002783D01*
X011832Y002754D01*
X011836Y002724D01*
X011836Y002694D01*
X011832Y002664D01*
X011824Y002635D01*
X011813Y002607D01*
X011798Y002580D01*
X011780Y002556D01*
X011759Y002534D01*
X011735Y002515D01*
X011709Y002500D01*
X011682Y002488D01*
X011653Y002479D01*
X011623Y002474D01*
X011592Y002473D01*
X011562Y002476D01*
X011533Y002483D01*
X011504Y002493D01*
X011478Y002507D01*
X011453Y002524D01*
X011430Y002545D01*
X011411Y002568D01*
X011394Y002593D01*
X011381Y002620D01*
X011372Y002649D01*
X011366Y002679D01*
X011364Y002709D01*
X011364Y001725D02*
X011366Y001755D01*
X011372Y001785D01*
X011381Y001814D01*
X011394Y001841D01*
X011411Y001866D01*
X011430Y001889D01*
X011453Y001910D01*
X011478Y001927D01*
X011504Y001941D01*
X011533Y001951D01*
X011562Y001958D01*
X011592Y001961D01*
X011623Y001960D01*
X011653Y001955D01*
X011682Y001946D01*
X011709Y001934D01*
X011735Y001919D01*
X011759Y001900D01*
X011780Y001878D01*
X011798Y001854D01*
X011813Y001827D01*
X011824Y001799D01*
X011832Y001770D01*
X011836Y001740D01*
X011836Y001710D01*
X011832Y001680D01*
X011824Y001651D01*
X011813Y001623D01*
X011798Y001596D01*
X011780Y001572D01*
X011759Y001550D01*
X011735Y001531D01*
X011709Y001516D01*
X011682Y001504D01*
X011653Y001495D01*
X011623Y001490D01*
X011592Y001489D01*
X011562Y001492D01*
X011533Y001499D01*
X011504Y001509D01*
X011478Y001523D01*
X011453Y001540D01*
X011430Y001561D01*
X011411Y001584D01*
X011394Y001609D01*
X011381Y001636D01*
X011372Y001665D01*
X011366Y001695D01*
X011364Y001725D01*
X018131Y002209D02*
X018133Y002253D01*
X018139Y002297D01*
X018149Y002340D01*
X018162Y002382D01*
X018179Y002423D01*
X018200Y002462D01*
X018224Y002499D01*
X018251Y002534D01*
X018281Y002566D01*
X018314Y002596D01*
X018350Y002622D01*
X018387Y002646D01*
X018427Y002665D01*
X018468Y002682D01*
X018511Y002694D01*
X018554Y002703D01*
X018598Y002708D01*
X018642Y002709D01*
X018686Y002706D01*
X018730Y002699D01*
X018773Y002688D01*
X018815Y002674D01*
X018855Y002656D01*
X018894Y002634D01*
X018930Y002610D01*
X018964Y002582D01*
X018996Y002551D01*
X019025Y002517D01*
X019051Y002481D01*
X019073Y002443D01*
X019092Y002403D01*
X019107Y002361D01*
X019119Y002319D01*
X019127Y002275D01*
X019131Y002231D01*
X019131Y002187D01*
X019127Y002143D01*
X019119Y002099D01*
X019107Y002057D01*
X019092Y002015D01*
X019073Y001975D01*
X019051Y001937D01*
X019025Y001901D01*
X018996Y001867D01*
X018964Y001836D01*
X018930Y001808D01*
X018894Y001784D01*
X018855Y001762D01*
X018815Y001744D01*
X018773Y001730D01*
X018730Y001719D01*
X018686Y001712D01*
X018642Y001709D01*
X018598Y001710D01*
X018554Y001715D01*
X018511Y001724D01*
X018468Y001736D01*
X018427Y001753D01*
X018387Y001772D01*
X018350Y001796D01*
X018314Y001822D01*
X018281Y001852D01*
X018251Y001884D01*
X018224Y001919D01*
X018200Y001956D01*
X018179Y001995D01*
X018162Y002036D01*
X018149Y002078D01*
X018139Y002121D01*
X018133Y002165D01*
X018131Y002209D01*
X018131Y019709D02*
X018133Y019753D01*
X018139Y019797D01*
X018149Y019840D01*
X018162Y019882D01*
X018179Y019923D01*
X018200Y019962D01*
X018224Y019999D01*
X018251Y020034D01*
X018281Y020066D01*
X018314Y020096D01*
X018350Y020122D01*
X018387Y020146D01*
X018427Y020165D01*
X018468Y020182D01*
X018511Y020194D01*
X018554Y020203D01*
X018598Y020208D01*
X018642Y020209D01*
X018686Y020206D01*
X018730Y020199D01*
X018773Y020188D01*
X018815Y020174D01*
X018855Y020156D01*
X018894Y020134D01*
X018930Y020110D01*
X018964Y020082D01*
X018996Y020051D01*
X019025Y020017D01*
X019051Y019981D01*
X019073Y019943D01*
X019092Y019903D01*
X019107Y019861D01*
X019119Y019819D01*
X019127Y019775D01*
X019131Y019731D01*
X019131Y019687D01*
X019127Y019643D01*
X019119Y019599D01*
X019107Y019557D01*
X019092Y019515D01*
X019073Y019475D01*
X019051Y019437D01*
X019025Y019401D01*
X018996Y019367D01*
X018964Y019336D01*
X018930Y019308D01*
X018894Y019284D01*
X018855Y019262D01*
X018815Y019244D01*
X018773Y019230D01*
X018730Y019219D01*
X018686Y019212D01*
X018642Y019209D01*
X018598Y019210D01*
X018554Y019215D01*
X018511Y019224D01*
X018468Y019236D01*
X018427Y019253D01*
X018387Y019272D01*
X018350Y019296D01*
X018314Y019322D01*
X018281Y019352D01*
X018251Y019384D01*
X018224Y019419D01*
X018200Y019456D01*
X018179Y019495D01*
X018162Y019536D01*
X018149Y019578D01*
X018139Y019621D01*
X018133Y019665D01*
X018131Y019709D01*
X000631Y019709D02*
X000633Y019753D01*
X000639Y019797D01*
X000649Y019840D01*
X000662Y019882D01*
X000679Y019923D01*
X000700Y019962D01*
X000724Y019999D01*
X000751Y020034D01*
X000781Y020066D01*
X000814Y020096D01*
X000850Y020122D01*
X000887Y020146D01*
X000927Y020165D01*
X000968Y020182D01*
X001011Y020194D01*
X001054Y020203D01*
X001098Y020208D01*
X001142Y020209D01*
X001186Y020206D01*
X001230Y020199D01*
X001273Y020188D01*
X001315Y020174D01*
X001355Y020156D01*
X001394Y020134D01*
X001430Y020110D01*
X001464Y020082D01*
X001496Y020051D01*
X001525Y020017D01*
X001551Y019981D01*
X001573Y019943D01*
X001592Y019903D01*
X001607Y019861D01*
X001619Y019819D01*
X001627Y019775D01*
X001631Y019731D01*
X001631Y019687D01*
X001627Y019643D01*
X001619Y019599D01*
X001607Y019557D01*
X001592Y019515D01*
X001573Y019475D01*
X001551Y019437D01*
X001525Y019401D01*
X001496Y019367D01*
X001464Y019336D01*
X001430Y019308D01*
X001394Y019284D01*
X001355Y019262D01*
X001315Y019244D01*
X001273Y019230D01*
X001230Y019219D01*
X001186Y019212D01*
X001142Y019209D01*
X001098Y019210D01*
X001054Y019215D01*
X001011Y019224D01*
X000968Y019236D01*
X000927Y019253D01*
X000887Y019272D01*
X000850Y019296D01*
X000814Y019322D01*
X000781Y019352D01*
X000751Y019384D01*
X000724Y019419D01*
X000700Y019456D01*
X000679Y019495D01*
X000662Y019536D01*
X000649Y019578D01*
X000639Y019621D01*
X000633Y019665D01*
X000631Y019709D01*
D11*
X012131Y013969D02*
X012131Y013449D01*
X013131Y013449D02*
X013131Y013969D01*
X014131Y013969D02*
X014131Y013449D01*
X015131Y013449D02*
X015131Y013969D01*
X016131Y013969D02*
X016131Y013449D01*
X017131Y013449D02*
X017131Y013969D01*
X018131Y013969D02*
X018131Y013449D01*
X019131Y013449D02*
X019131Y013969D01*
X019131Y010969D02*
X019131Y010449D01*
X018131Y010449D02*
X018131Y010969D01*
X017131Y010969D02*
X017131Y010449D01*
X016131Y010449D02*
X016131Y010969D01*
X015131Y010969D02*
X015131Y010449D01*
X014131Y010449D02*
X014131Y010969D01*
X013131Y010969D02*
X013131Y010449D01*
X012131Y010449D02*
X012131Y010969D01*
D12*
X013131Y007209D03*
X014631Y002809D03*
X017631Y007209D03*
X009631Y019009D03*
X013381Y019209D03*
X016631Y019209D03*
X002631Y016709D03*
X002631Y004509D03*
D13*
X002631Y005509D03*
X002631Y015709D03*
X009631Y018009D03*
X013381Y018209D03*
X016631Y018209D03*
X017631Y008209D03*
X014631Y003809D03*
X013131Y008209D03*
D14*
X010631Y009209D03*
X008631Y009209D03*
X008631Y013209D03*
X010631Y013209D03*
X013131Y015459D03*
X015131Y015459D03*
X017131Y015459D03*
X019131Y015459D03*
D15*
X005631Y013009D03*
X005631Y011009D03*
X005631Y009009D03*
X001631Y009009D03*
X001631Y011009D03*
X001631Y013009D03*
D16*
X007663Y004678D03*
X008647Y004678D03*
X010615Y004678D03*
X011600Y004678D03*
X009631Y002709D03*
D17*
X018631Y004209D03*
X005631Y019709D03*
X004131Y019709D03*
D18*
X003131Y019709D03*
X006631Y019709D03*
X018631Y005209D03*
D19*
X017631Y008209D02*
X018131Y008709D01*
X019131Y009709D01*
X019131Y010709D01*
X018131Y010709D02*
X018131Y010209D01*
X017631Y009709D01*
X011131Y009709D01*
X010631Y009209D01*
X008631Y009209D02*
X006831Y011009D01*
X005631Y011009D01*
X004131Y013709D02*
X008131Y013709D01*
X008631Y013209D01*
X010631Y013209D02*
X011131Y012709D01*
X017631Y012709D01*
X018131Y013209D01*
X018131Y013709D01*
X015631Y007209D02*
X014631Y006209D01*
X014631Y003809D01*
X004131Y013709D02*
X001631Y011209D01*
X001631Y011009D01*
D20*
X009631Y011709D03*
X009631Y014709D03*
X015631Y007209D03*
D21*
X015389Y007516D02*
X013567Y007516D01*
X013656Y007427D02*
X013351Y007732D01*
X013428Y007764D01*
X013576Y007912D01*
X013656Y008105D01*
X013656Y008314D01*
X013576Y008507D01*
X013428Y008654D01*
X013235Y008734D01*
X013027Y008734D01*
X012834Y008654D01*
X012686Y008507D01*
X012606Y008314D01*
X012606Y008105D01*
X012686Y007912D01*
X012834Y007764D01*
X012911Y007732D01*
X012606Y007427D01*
X012606Y006992D01*
X012914Y006684D01*
X013348Y006684D01*
X013656Y006992D01*
X013656Y007427D01*
X013656Y007418D02*
X015297Y007418D01*
X015302Y007429D02*
X015243Y007287D01*
X015243Y007260D01*
X014368Y006385D01*
X014321Y006271D01*
X014321Y006148D01*
X014321Y004242D01*
X014186Y004107D01*
X014106Y003914D01*
X014106Y003705D01*
X014186Y003512D01*
X014334Y003364D01*
X014411Y003332D01*
X014106Y003027D01*
X014106Y002592D01*
X014414Y002284D01*
X014848Y002284D01*
X015156Y002592D01*
X015156Y003027D01*
X014851Y003332D01*
X014928Y003364D01*
X015076Y003512D01*
X015156Y003705D01*
X015156Y003914D01*
X015076Y004107D01*
X014941Y004242D01*
X014941Y006081D01*
X015681Y006821D01*
X015708Y006821D01*
X015851Y006880D01*
X015960Y006990D01*
X016019Y007132D01*
X016019Y007287D01*
X015960Y007429D01*
X015851Y007538D01*
X015708Y007598D01*
X015554Y007598D01*
X015411Y007538D01*
X015302Y007429D01*
X015256Y007319D02*
X013656Y007319D01*
X013656Y007221D02*
X015204Y007221D01*
X015105Y007122D02*
X013656Y007122D01*
X013656Y007024D02*
X015007Y007024D01*
X014908Y006925D02*
X013589Y006925D01*
X013490Y006826D02*
X014810Y006826D01*
X014711Y006728D02*
X013392Y006728D01*
X012870Y006728D02*
X004359Y006728D01*
X004436Y006806D02*
X004491Y006938D01*
X004491Y007081D01*
X004491Y011060D01*
X004780Y011349D01*
X005131Y011349D01*
X005128Y011346D01*
X005037Y011128D01*
X005037Y010891D01*
X005128Y010673D01*
X005295Y010506D01*
X005513Y010416D01*
X005749Y010416D01*
X005967Y010506D01*
X006134Y010673D01*
X006145Y010699D01*
X006703Y010699D01*
X008161Y009241D01*
X008161Y009015D01*
X008436Y008739D01*
X008826Y008739D01*
X009101Y009015D01*
X009101Y009404D01*
X008826Y009679D01*
X008599Y009679D01*
X007007Y011272D01*
X006893Y011319D01*
X006769Y011319D01*
X006145Y011319D01*
X006134Y011346D01*
X006131Y011349D01*
X009486Y011349D01*
X009554Y011321D01*
X009708Y011321D01*
X009776Y011349D01*
X011846Y011349D01*
X011733Y011236D01*
X011661Y011063D01*
X011661Y010356D01*
X011733Y010183D01*
X011865Y010051D01*
X011941Y010019D01*
X011069Y010019D01*
X010955Y009972D01*
X010868Y009885D01*
X010663Y009679D01*
X010436Y009679D01*
X010161Y009404D01*
X010161Y009015D01*
X010436Y008739D01*
X010826Y008739D01*
X011101Y009015D01*
X011101Y009241D01*
X011259Y009399D01*
X017569Y009399D01*
X017693Y009399D01*
X017807Y009447D01*
X018307Y009947D01*
X018394Y010034D01*
X018403Y010057D01*
X018529Y010183D01*
X018601Y010356D01*
X018601Y011063D01*
X018529Y011236D01*
X018397Y011368D01*
X018224Y011439D01*
X018038Y011439D01*
X017865Y011368D01*
X017733Y011236D01*
X017661Y011063D01*
X017661Y010356D01*
X017713Y010230D01*
X017503Y010019D01*
X017321Y010019D01*
X017397Y010051D01*
X017529Y010183D01*
X017601Y010356D01*
X017601Y011063D01*
X017529Y011236D01*
X017397Y011368D01*
X017224Y011439D01*
X017038Y011439D01*
X016865Y011368D01*
X016733Y011236D01*
X016661Y011063D01*
X016661Y010356D01*
X016733Y010183D01*
X016865Y010051D01*
X016941Y010019D01*
X016321Y010019D01*
X016397Y010051D01*
X016529Y010183D01*
X016601Y010356D01*
X016601Y011063D01*
X016529Y011236D01*
X016397Y011368D01*
X016224Y011439D01*
X016038Y011439D01*
X015865Y011368D01*
X015733Y011236D01*
X015661Y011063D01*
X015661Y010356D01*
X015733Y010183D01*
X015865Y010051D01*
X015941Y010019D01*
X015321Y010019D01*
X015397Y010051D01*
X015529Y010183D01*
X015601Y010356D01*
X015601Y011063D01*
X015529Y011236D01*
X015397Y011368D01*
X015224Y011439D01*
X015038Y011439D01*
X014865Y011368D01*
X014733Y011236D01*
X014661Y011063D01*
X014661Y010356D01*
X014733Y010183D01*
X014865Y010051D01*
X014941Y010019D01*
X014321Y010019D01*
X014397Y010051D01*
X014529Y010183D01*
X014601Y010356D01*
X014601Y011063D01*
X014529Y011236D01*
X014397Y011368D01*
X014224Y011439D01*
X014038Y011439D01*
X013865Y011368D01*
X013733Y011236D01*
X013661Y011063D01*
X013661Y010356D01*
X013733Y010183D01*
X013865Y010051D01*
X013941Y010019D01*
X013321Y010019D01*
X013397Y010051D01*
X013529Y010183D01*
X013601Y010356D01*
X013601Y011063D01*
X013529Y011236D01*
X013491Y011274D01*
X013491Y011281D01*
X013436Y011413D01*
X012835Y012015D01*
X012703Y012069D01*
X012559Y012069D01*
X009776Y012069D01*
X009708Y012098D01*
X009554Y012098D01*
X009486Y012069D01*
X004703Y012069D01*
X004559Y012069D01*
X004427Y012015D01*
X003927Y011515D01*
X003826Y011413D01*
X003771Y011281D01*
X003771Y007159D01*
X002647Y006034D01*
X002527Y006034D01*
X002334Y005954D01*
X002186Y005807D01*
X002106Y005614D01*
X002106Y005405D01*
X002186Y005212D01*
X002329Y005069D01*
X001280Y005069D01*
X000991Y005359D01*
X000991Y017560D01*
X002757Y019327D01*
X002828Y019256D01*
X003025Y019174D01*
X003237Y019174D01*
X003434Y019256D01*
X003585Y019406D01*
X003596Y019434D01*
X003596Y019297D01*
X003719Y019174D01*
X004543Y019174D01*
X004666Y019297D01*
X004666Y020121D01*
X004543Y020244D01*
X003719Y020244D01*
X003596Y020121D01*
X003596Y019985D01*
X003585Y020012D01*
X003434Y020163D01*
X003237Y020244D01*
X003025Y020244D01*
X002828Y020163D01*
X002734Y020069D01*
X002703Y020069D01*
X002559Y020069D01*
X002427Y020015D01*
X001742Y019330D01*
X001841Y019568D01*
X001841Y019851D01*
X001733Y020112D01*
X001533Y020311D01*
X001272Y020419D01*
X000990Y020419D01*
X000729Y020311D01*
X000529Y020112D01*
X000421Y019851D01*
X000421Y019568D01*
X000529Y019307D01*
X000729Y019108D01*
X000990Y018999D01*
X001272Y018999D01*
X001511Y019098D01*
X000427Y018015D01*
X000341Y017928D01*
X000341Y020599D01*
X019521Y020599D01*
X019521Y015734D01*
X019326Y015929D01*
X018936Y015929D01*
X018661Y015654D01*
X018661Y015265D01*
X018936Y014989D01*
X019326Y014989D01*
X019521Y015185D01*
X019521Y014244D01*
X019397Y014368D01*
X019224Y014439D01*
X019038Y014439D01*
X018865Y014368D01*
X018733Y014236D01*
X018661Y014063D01*
X018661Y013356D01*
X018733Y013183D01*
X018865Y013051D01*
X019038Y012979D01*
X019224Y012979D01*
X019397Y013051D01*
X019521Y013175D01*
X019521Y011244D01*
X019397Y011368D01*
X019224Y011439D01*
X019038Y011439D01*
X018865Y011368D01*
X018733Y011236D01*
X018661Y011063D01*
X018661Y010356D01*
X018733Y010183D01*
X018821Y010095D01*
X018821Y009838D01*
X017868Y008885D01*
X017718Y008734D01*
X017527Y008734D01*
X017334Y008654D01*
X017186Y008507D01*
X017106Y008314D01*
X017106Y008105D01*
X017186Y007912D01*
X017334Y007764D01*
X017411Y007732D01*
X017106Y007427D01*
X017106Y006992D01*
X017414Y006684D01*
X017848Y006684D01*
X018156Y006992D01*
X018156Y007427D01*
X017851Y007732D01*
X017928Y007764D01*
X018076Y007912D01*
X018156Y008105D01*
X018156Y008296D01*
X018307Y008447D01*
X019307Y009447D01*
X019394Y009534D01*
X019441Y009648D01*
X019441Y010095D01*
X019521Y010175D01*
X019521Y001419D01*
X011925Y001419D01*
X011978Y001472D01*
X012046Y001636D01*
X012046Y001814D01*
X011978Y001978D01*
X011852Y002103D01*
X011688Y002171D01*
X011511Y002171D01*
X011347Y002103D01*
X011221Y001978D01*
X011153Y001814D01*
X011153Y001636D01*
X011221Y001472D01*
X011274Y001419D01*
X007988Y001419D01*
X008041Y001472D01*
X008109Y001636D01*
X008109Y001814D01*
X008041Y001978D01*
X007915Y002103D01*
X007751Y002171D01*
X007574Y002171D01*
X007410Y002103D01*
X007284Y001978D01*
X007216Y001814D01*
X007216Y001636D01*
X007284Y001472D01*
X007337Y001419D01*
X000341Y001419D01*
X000341Y004990D01*
X000826Y004506D01*
X000927Y004404D01*
X001059Y004349D01*
X002106Y004349D01*
X002106Y004292D01*
X002414Y003984D01*
X002848Y003984D01*
X003156Y004292D01*
X003156Y004727D01*
X002851Y005032D01*
X002928Y005064D01*
X003076Y005212D01*
X003156Y005405D01*
X003156Y005525D01*
X004436Y006806D01*
X004445Y006826D02*
X012772Y006826D01*
X012673Y006925D02*
X004486Y006925D01*
X004491Y007024D02*
X012606Y007024D01*
X012606Y007122D02*
X004491Y007122D01*
X004491Y007221D02*
X012606Y007221D01*
X012606Y007319D02*
X004491Y007319D01*
X004491Y007418D02*
X012606Y007418D01*
X012695Y007516D02*
X004491Y007516D01*
X004491Y007615D02*
X012794Y007615D01*
X012892Y007713D02*
X004491Y007713D01*
X004491Y007812D02*
X012786Y007812D01*
X012688Y007910D02*
X004491Y007910D01*
X004491Y008009D02*
X012646Y008009D01*
X012606Y008107D02*
X004491Y008107D01*
X004491Y008206D02*
X012606Y008206D01*
X012606Y008305D02*
X004491Y008305D01*
X004491Y008403D02*
X012643Y008403D01*
X012684Y008502D02*
X005957Y008502D01*
X005967Y008506D02*
X006134Y008673D01*
X006225Y008891D01*
X006225Y009128D01*
X006134Y009346D01*
X005967Y009513D01*
X005749Y009603D01*
X005513Y009603D01*
X005295Y009513D01*
X005128Y009346D01*
X005037Y009128D01*
X005037Y008891D01*
X005128Y008673D01*
X005295Y008506D01*
X005513Y008416D01*
X005749Y008416D01*
X005967Y008506D01*
X006062Y008600D02*
X012779Y008600D01*
X012940Y008699D02*
X006145Y008699D01*
X006186Y008797D02*
X008379Y008797D01*
X008280Y008896D02*
X006225Y008896D01*
X006225Y008994D02*
X008181Y008994D01*
X008161Y009093D02*
X006225Y009093D01*
X006198Y009191D02*
X008161Y009191D01*
X008112Y009290D02*
X006158Y009290D01*
X006092Y009389D02*
X008014Y009389D01*
X007915Y009487D02*
X005993Y009487D01*
X005792Y009586D02*
X007816Y009586D01*
X007718Y009684D02*
X004491Y009684D01*
X004491Y009586D02*
X005470Y009586D01*
X005269Y009487D02*
X004491Y009487D01*
X004491Y009389D02*
X005170Y009389D01*
X005104Y009290D02*
X004491Y009290D01*
X004491Y009191D02*
X005064Y009191D01*
X005037Y009093D02*
X004491Y009093D01*
X004491Y008994D02*
X005037Y008994D01*
X005037Y008896D02*
X004491Y008896D01*
X004491Y008797D02*
X005076Y008797D01*
X005117Y008699D02*
X004491Y008699D01*
X004491Y008600D02*
X005200Y008600D01*
X005305Y008502D02*
X004491Y008502D01*
X003771Y008502D02*
X001957Y008502D01*
X001967Y008506D02*
X002134Y008673D01*
X002225Y008891D01*
X002225Y009128D01*
X002134Y009346D01*
X001967Y009513D01*
X001749Y009603D01*
X001513Y009603D01*
X001295Y009513D01*
X001128Y009346D01*
X001037Y009128D01*
X001037Y008891D01*
X001128Y008673D01*
X001295Y008506D01*
X001513Y008416D01*
X001749Y008416D01*
X001967Y008506D01*
X002062Y008600D02*
X003771Y008600D01*
X003771Y008699D02*
X002145Y008699D01*
X002186Y008797D02*
X003771Y008797D01*
X003771Y008896D02*
X002225Y008896D01*
X002225Y008994D02*
X003771Y008994D01*
X003771Y009093D02*
X002225Y009093D01*
X002198Y009191D02*
X003771Y009191D01*
X003771Y009290D02*
X002158Y009290D01*
X002092Y009389D02*
X003771Y009389D01*
X003771Y009487D02*
X001993Y009487D01*
X001792Y009586D02*
X003771Y009586D01*
X003771Y009684D02*
X000991Y009684D01*
X000991Y009586D02*
X001470Y009586D01*
X001269Y009487D02*
X000991Y009487D01*
X000991Y009389D02*
X001170Y009389D01*
X001104Y009290D02*
X000991Y009290D01*
X000991Y009191D02*
X001064Y009191D01*
X001037Y009093D02*
X000991Y009093D01*
X000991Y008994D02*
X001037Y008994D01*
X001037Y008896D02*
X000991Y008896D01*
X000991Y008797D02*
X001076Y008797D01*
X001117Y008699D02*
X000991Y008699D01*
X000991Y008600D02*
X001200Y008600D01*
X001305Y008502D02*
X000991Y008502D01*
X000991Y008403D02*
X003771Y008403D01*
X003771Y008305D02*
X000991Y008305D01*
X000991Y008206D02*
X003771Y008206D01*
X003771Y008107D02*
X000991Y008107D01*
X000991Y008009D02*
X003771Y008009D01*
X003771Y007910D02*
X000991Y007910D01*
X000991Y007812D02*
X003771Y007812D01*
X003771Y007713D02*
X000991Y007713D01*
X000991Y007615D02*
X003771Y007615D01*
X003771Y007516D02*
X000991Y007516D01*
X000991Y007418D02*
X003771Y007418D01*
X003771Y007319D02*
X000991Y007319D01*
X000991Y007221D02*
X003771Y007221D01*
X003735Y007122D02*
X000991Y007122D01*
X000991Y007024D02*
X003636Y007024D01*
X003537Y006925D02*
X000991Y006925D01*
X000991Y006826D02*
X003439Y006826D01*
X003340Y006728D02*
X000991Y006728D01*
X000991Y006629D02*
X003242Y006629D01*
X003143Y006531D02*
X000991Y006531D01*
X000991Y006432D02*
X003045Y006432D01*
X002946Y006334D02*
X000991Y006334D01*
X000991Y006235D02*
X002848Y006235D01*
X002749Y006137D02*
X000991Y006137D01*
X000991Y006038D02*
X002651Y006038D01*
X002319Y005940D02*
X000991Y005940D01*
X000991Y005841D02*
X002220Y005841D01*
X002159Y005742D02*
X000991Y005742D01*
X000991Y005644D02*
X002119Y005644D01*
X002106Y005545D02*
X000991Y005545D01*
X000991Y005447D02*
X002106Y005447D01*
X002129Y005348D02*
X001001Y005348D01*
X001100Y005250D02*
X002170Y005250D01*
X002247Y005151D02*
X001198Y005151D01*
X000673Y004658D02*
X000341Y004658D01*
X000341Y004560D02*
X000771Y004560D01*
X000870Y004461D02*
X000341Y004461D01*
X000341Y004363D02*
X001027Y004363D01*
X000574Y004757D02*
X000341Y004757D01*
X000341Y004856D02*
X000476Y004856D01*
X000377Y004954D02*
X000341Y004954D01*
X000341Y004264D02*
X002134Y004264D01*
X002232Y004166D02*
X000341Y004166D01*
X000341Y004067D02*
X002331Y004067D01*
X002931Y004067D02*
X007465Y004067D01*
X007535Y004038D02*
X007790Y004038D01*
X008025Y004135D01*
X008155Y004265D01*
X008284Y004135D01*
X008519Y004038D01*
X008774Y004038D01*
X009009Y004135D01*
X009189Y004315D01*
X009244Y004447D01*
X009253Y004425D01*
X009378Y004300D01*
X009542Y004232D01*
X009720Y004232D01*
X009884Y004300D01*
X010009Y004425D01*
X010018Y004447D01*
X010073Y004315D01*
X010253Y004135D01*
X010488Y004038D01*
X010743Y004038D01*
X010978Y004135D01*
X011107Y004265D01*
X011237Y004135D01*
X011472Y004038D01*
X011727Y004038D01*
X011962Y004135D01*
X012142Y004315D01*
X012239Y004551D01*
X012239Y004805D01*
X012142Y005040D01*
X011962Y005220D01*
X011727Y005318D01*
X011472Y005318D01*
X011237Y005220D01*
X011107Y005091D01*
X010978Y005220D01*
X010743Y005318D01*
X010488Y005318D01*
X010253Y005220D01*
X010073Y005040D01*
X010018Y004909D01*
X010009Y004931D01*
X009884Y005056D01*
X009720Y005124D01*
X009542Y005124D01*
X009378Y005056D01*
X009253Y004931D01*
X009244Y004909D01*
X009189Y005040D01*
X009009Y005220D01*
X008774Y005318D01*
X008519Y005318D01*
X008284Y005220D01*
X008155Y005091D01*
X008025Y005220D01*
X007790Y005318D01*
X007535Y005318D01*
X007300Y005220D01*
X007120Y005040D01*
X007023Y004805D01*
X007023Y004551D01*
X007120Y004315D01*
X007300Y004135D01*
X007535Y004038D01*
X007270Y004166D02*
X003030Y004166D01*
X003128Y004264D02*
X007171Y004264D01*
X007100Y004363D02*
X003156Y004363D01*
X003156Y004461D02*
X007059Y004461D01*
X007023Y004560D02*
X003156Y004560D01*
X003156Y004658D02*
X007023Y004658D01*
X007023Y004757D02*
X003126Y004757D01*
X003027Y004856D02*
X007043Y004856D01*
X007084Y004954D02*
X002929Y004954D01*
X002900Y005053D02*
X007132Y005053D01*
X007231Y005151D02*
X003015Y005151D01*
X003092Y005250D02*
X007371Y005250D01*
X007954Y005250D02*
X008355Y005250D01*
X008215Y005151D02*
X008094Y005151D01*
X008154Y004264D02*
X008155Y004264D01*
X008254Y004166D02*
X008055Y004166D01*
X007860Y004067D02*
X008449Y004067D01*
X008845Y004067D02*
X010417Y004067D01*
X010222Y004166D02*
X009040Y004166D01*
X009138Y004264D02*
X009464Y004264D01*
X009315Y004363D02*
X009209Y004363D01*
X009225Y004954D02*
X009276Y004954D01*
X009177Y005053D02*
X009375Y005053D01*
X009079Y005151D02*
X010183Y005151D01*
X010085Y005053D02*
X009887Y005053D01*
X009986Y004954D02*
X010037Y004954D01*
X010323Y005250D02*
X008939Y005250D01*
X009798Y004264D02*
X010124Y004264D01*
X010053Y004363D02*
X009947Y004363D01*
X010813Y004067D02*
X011402Y004067D01*
X011207Y004166D02*
X011008Y004166D01*
X011107Y004264D02*
X011108Y004264D01*
X011797Y004067D02*
X014170Y004067D01*
X014129Y003969D02*
X000341Y003969D01*
X000341Y003870D02*
X014106Y003870D01*
X014106Y003772D02*
X000341Y003772D01*
X000341Y003673D02*
X014119Y003673D01*
X014160Y003574D02*
X000341Y003574D01*
X000341Y003476D02*
X014222Y003476D01*
X014321Y003377D02*
X000341Y003377D01*
X000341Y003279D02*
X009333Y003279D01*
X009268Y003252D02*
X009504Y003349D01*
X009758Y003349D01*
X009994Y003252D01*
X010174Y003072D01*
X010271Y002837D01*
X010271Y002582D01*
X010174Y002347D01*
X009994Y002167D01*
X009758Y002069D01*
X009504Y002069D01*
X009268Y002167D01*
X009088Y002347D01*
X008991Y002582D01*
X008991Y002837D01*
X009088Y003072D01*
X009268Y003252D01*
X009197Y003180D02*
X000341Y003180D01*
X000341Y003082D02*
X007404Y003082D01*
X007410Y003088D02*
X007284Y002962D01*
X007216Y002798D01*
X007216Y002621D01*
X007284Y002457D01*
X007410Y002331D01*
X007574Y002263D01*
X007751Y002263D01*
X007915Y002331D01*
X008041Y002457D01*
X008109Y002621D01*
X008109Y002798D01*
X008041Y002962D01*
X007915Y003088D01*
X007751Y003156D01*
X007574Y003156D01*
X007410Y003088D01*
X007305Y002983D02*
X000341Y002983D01*
X000341Y002885D02*
X000906Y002885D01*
X000990Y002919D02*
X000729Y002811D01*
X000529Y002612D01*
X000421Y002351D01*
X000421Y002068D01*
X000529Y001807D01*
X000729Y001608D01*
X000990Y001499D01*
X001272Y001499D01*
X001533Y001608D01*
X001733Y001807D01*
X001841Y002068D01*
X001841Y002351D01*
X001733Y002612D01*
X001533Y002811D01*
X001272Y002919D01*
X000990Y002919D01*
X000704Y002786D02*
X000341Y002786D01*
X000341Y002688D02*
X000605Y002688D01*
X000520Y002589D02*
X000341Y002589D01*
X000341Y002491D02*
X000479Y002491D01*
X000438Y002392D02*
X000341Y002392D01*
X000341Y002293D02*
X000421Y002293D01*
X000421Y002195D02*
X000341Y002195D01*
X000341Y002096D02*
X000421Y002096D01*
X000450Y001998D02*
X000341Y001998D01*
X000341Y001899D02*
X000491Y001899D01*
X000536Y001801D02*
X000341Y001801D01*
X000341Y001702D02*
X000634Y001702D01*
X000738Y001604D02*
X000341Y001604D01*
X000341Y001505D02*
X000976Y001505D01*
X001286Y001505D02*
X007271Y001505D01*
X007230Y001604D02*
X001524Y001604D01*
X001628Y001702D02*
X007216Y001702D01*
X007216Y001801D02*
X001726Y001801D01*
X001771Y001899D02*
X007252Y001899D01*
X007304Y001998D02*
X001812Y001998D01*
X001841Y002096D02*
X007403Y002096D01*
X007501Y002293D02*
X001841Y002293D01*
X001841Y002195D02*
X009240Y002195D01*
X009142Y002293D02*
X007824Y002293D01*
X007976Y002392D02*
X009070Y002392D01*
X009029Y002491D02*
X008055Y002491D01*
X008096Y002589D02*
X008991Y002589D01*
X008991Y002688D02*
X008109Y002688D01*
X008109Y002786D02*
X008991Y002786D01*
X009011Y002885D02*
X008073Y002885D01*
X008020Y002983D02*
X009052Y002983D01*
X009098Y003082D02*
X007921Y003082D01*
X007252Y002885D02*
X001356Y002885D01*
X001558Y002786D02*
X007216Y002786D01*
X007216Y002688D02*
X001657Y002688D01*
X001742Y002589D02*
X007229Y002589D01*
X007270Y002491D02*
X001783Y002491D01*
X001824Y002392D02*
X007349Y002392D01*
X007922Y002096D02*
X009439Y002096D01*
X009823Y002096D02*
X011340Y002096D01*
X011241Y001998D02*
X008021Y001998D01*
X008073Y001899D02*
X011189Y001899D01*
X011153Y001801D02*
X008109Y001801D01*
X008109Y001702D02*
X011153Y001702D01*
X011167Y001604D02*
X008095Y001604D01*
X008054Y001505D02*
X011208Y001505D01*
X011511Y002263D02*
X011688Y002263D01*
X011852Y002331D01*
X011978Y002457D01*
X012046Y002621D01*
X012046Y002798D01*
X011978Y002962D01*
X011852Y003088D01*
X011688Y003156D01*
X011511Y003156D01*
X011347Y003088D01*
X011221Y002962D01*
X011153Y002798D01*
X011153Y002621D01*
X011221Y002457D01*
X011347Y002331D01*
X011511Y002263D01*
X011438Y002293D02*
X010120Y002293D01*
X010192Y002392D02*
X011286Y002392D01*
X011207Y002491D02*
X010233Y002491D01*
X010271Y002589D02*
X011166Y002589D01*
X011153Y002688D02*
X010271Y002688D01*
X010271Y002786D02*
X011153Y002786D01*
X011189Y002885D02*
X010251Y002885D01*
X010210Y002983D02*
X011242Y002983D01*
X011341Y003082D02*
X010164Y003082D01*
X010065Y003180D02*
X014259Y003180D01*
X014161Y003082D02*
X011858Y003082D01*
X011957Y002983D02*
X014106Y002983D01*
X014106Y002885D02*
X012010Y002885D01*
X012046Y002786D02*
X014106Y002786D01*
X014106Y002688D02*
X012046Y002688D01*
X012033Y002589D02*
X014109Y002589D01*
X014207Y002491D02*
X011992Y002491D01*
X011913Y002392D02*
X014306Y002392D01*
X014405Y002293D02*
X011761Y002293D01*
X011859Y002096D02*
X017921Y002096D01*
X017921Y002068D02*
X018029Y001807D01*
X018229Y001608D01*
X018490Y001499D01*
X018772Y001499D01*
X019033Y001608D01*
X019233Y001807D01*
X019341Y002068D01*
X019341Y002351D01*
X019233Y002612D01*
X019033Y002811D01*
X018772Y002919D01*
X018490Y002919D01*
X018229Y002811D01*
X018029Y002612D01*
X017921Y002351D01*
X017921Y002068D01*
X017950Y001998D02*
X011958Y001998D01*
X012010Y001899D02*
X017991Y001899D01*
X018036Y001801D02*
X012046Y001801D01*
X012046Y001702D02*
X018134Y001702D01*
X018238Y001604D02*
X012032Y001604D01*
X011991Y001505D02*
X018476Y001505D01*
X018786Y001505D02*
X019521Y001505D01*
X019521Y001604D02*
X019024Y001604D01*
X019128Y001702D02*
X019521Y001702D01*
X019521Y001801D02*
X019226Y001801D01*
X019271Y001899D02*
X019521Y001899D01*
X019521Y001998D02*
X019312Y001998D01*
X019341Y002096D02*
X019521Y002096D01*
X019521Y002195D02*
X019341Y002195D01*
X019341Y002293D02*
X019521Y002293D01*
X019521Y002392D02*
X019324Y002392D01*
X019283Y002491D02*
X019521Y002491D01*
X019521Y002589D02*
X019242Y002589D01*
X019157Y002688D02*
X019521Y002688D01*
X019521Y002786D02*
X019058Y002786D01*
X018856Y002885D02*
X019521Y002885D01*
X019521Y002983D02*
X015156Y002983D01*
X015156Y002885D02*
X018406Y002885D01*
X018204Y002786D02*
X015156Y002786D01*
X015156Y002688D02*
X018105Y002688D01*
X018020Y002589D02*
X015153Y002589D01*
X015055Y002491D02*
X017979Y002491D01*
X017938Y002392D02*
X014956Y002392D01*
X014857Y002293D02*
X017921Y002293D01*
X017921Y002195D02*
X010022Y002195D01*
X009929Y003279D02*
X014358Y003279D01*
X014904Y003279D02*
X019521Y003279D01*
X019521Y003377D02*
X014941Y003377D01*
X015040Y003476D02*
X019521Y003476D01*
X019521Y003574D02*
X015102Y003574D01*
X015143Y003673D02*
X019521Y003673D01*
X019521Y003772D02*
X019140Y003772D01*
X019166Y003797D02*
X019166Y004621D01*
X019043Y004744D01*
X018731Y004744D01*
X018742Y004746D01*
X018813Y004769D01*
X018880Y004803D01*
X018940Y004847D01*
X018993Y004900D01*
X019037Y004960D01*
X019071Y005027D01*
X019094Y005098D01*
X019106Y005172D01*
X018669Y005172D01*
X018669Y005247D01*
X019106Y005247D01*
X019094Y005321D01*
X019071Y005392D01*
X019037Y005458D01*
X018993Y005519D01*
X018940Y005572D01*
X018880Y005616D01*
X018813Y005650D01*
X018742Y005673D01*
X018669Y005684D01*
X018669Y005247D01*
X018593Y005247D01*
X018593Y005172D01*
X018156Y005172D01*
X018168Y005098D01*
X018191Y005027D01*
X018225Y004960D01*
X018269Y004900D01*
X018322Y004847D01*
X018382Y004803D01*
X018449Y004769D01*
X018520Y004746D01*
X018531Y004744D01*
X018219Y004744D01*
X018096Y004621D01*
X018096Y003797D01*
X018219Y003674D01*
X019043Y003674D01*
X019166Y003797D01*
X019166Y003870D02*
X019521Y003870D01*
X019521Y003969D02*
X019166Y003969D01*
X019166Y004067D02*
X019521Y004067D01*
X019521Y004166D02*
X019166Y004166D01*
X019166Y004264D02*
X019521Y004264D01*
X019521Y004363D02*
X019166Y004363D01*
X019166Y004461D02*
X019521Y004461D01*
X019521Y004560D02*
X019166Y004560D01*
X019129Y004658D02*
X019521Y004658D01*
X019521Y004757D02*
X018776Y004757D01*
X018949Y004856D02*
X019521Y004856D01*
X019521Y004954D02*
X019033Y004954D01*
X019079Y005053D02*
X019521Y005053D01*
X019521Y005151D02*
X019103Y005151D01*
X019106Y005250D02*
X019521Y005250D01*
X019521Y005348D02*
X019085Y005348D01*
X019043Y005447D02*
X019521Y005447D01*
X019521Y005545D02*
X018967Y005545D01*
X018825Y005644D02*
X019521Y005644D01*
X019521Y005742D02*
X014941Y005742D01*
X014941Y005644D02*
X018437Y005644D01*
X018449Y005650D02*
X018382Y005616D01*
X018322Y005572D01*
X018269Y005519D01*
X018225Y005458D01*
X018191Y005392D01*
X018168Y005321D01*
X018156Y005247D01*
X018593Y005247D01*
X018593Y005684D01*
X018520Y005673D01*
X018449Y005650D01*
X018593Y005644D02*
X018669Y005644D01*
X018669Y005545D02*
X018593Y005545D01*
X018593Y005447D02*
X018669Y005447D01*
X018669Y005348D02*
X018593Y005348D01*
X018593Y005250D02*
X018669Y005250D01*
X018295Y005545D02*
X014941Y005545D01*
X014941Y005447D02*
X018219Y005447D01*
X018177Y005348D02*
X014941Y005348D01*
X014941Y005250D02*
X018156Y005250D01*
X018159Y005151D02*
X014941Y005151D01*
X014941Y005053D02*
X018183Y005053D01*
X018229Y004954D02*
X014941Y004954D01*
X014941Y004856D02*
X018313Y004856D01*
X018486Y004757D02*
X014941Y004757D01*
X014941Y004658D02*
X018133Y004658D01*
X018096Y004560D02*
X014941Y004560D01*
X014941Y004461D02*
X018096Y004461D01*
X018096Y004363D02*
X014941Y004363D01*
X014941Y004264D02*
X018096Y004264D01*
X018096Y004166D02*
X015017Y004166D01*
X015092Y004067D02*
X018096Y004067D01*
X018096Y003969D02*
X015133Y003969D01*
X015156Y003870D02*
X018096Y003870D01*
X018122Y003772D02*
X015156Y003772D01*
X015003Y003180D02*
X019521Y003180D01*
X019521Y003082D02*
X015101Y003082D01*
X014245Y004166D02*
X011992Y004166D01*
X012091Y004264D02*
X014321Y004264D01*
X014321Y004363D02*
X012162Y004363D01*
X012202Y004461D02*
X014321Y004461D01*
X014321Y004560D02*
X012239Y004560D01*
X012239Y004658D02*
X014321Y004658D01*
X014321Y004757D02*
X012239Y004757D01*
X012219Y004856D02*
X014321Y004856D01*
X014321Y004954D02*
X012178Y004954D01*
X012130Y005053D02*
X014321Y005053D01*
X014321Y005151D02*
X012031Y005151D01*
X011891Y005250D02*
X014321Y005250D01*
X014321Y005348D02*
X003132Y005348D01*
X003156Y005447D02*
X014321Y005447D01*
X014321Y005545D02*
X003176Y005545D01*
X003275Y005644D02*
X014321Y005644D01*
X014321Y005742D02*
X003373Y005742D01*
X003472Y005841D02*
X014321Y005841D01*
X014321Y005940D02*
X003570Y005940D01*
X003669Y006038D02*
X014321Y006038D01*
X014321Y006137D02*
X003767Y006137D01*
X003866Y006235D02*
X014321Y006235D01*
X014347Y006334D02*
X003964Y006334D01*
X004063Y006432D02*
X014415Y006432D01*
X014514Y006531D02*
X004161Y006531D01*
X004260Y006629D02*
X014613Y006629D01*
X014997Y006137D02*
X019521Y006137D01*
X019521Y006235D02*
X015095Y006235D01*
X015194Y006334D02*
X019521Y006334D01*
X019521Y006432D02*
X015292Y006432D01*
X015391Y006531D02*
X019521Y006531D01*
X019521Y006629D02*
X015489Y006629D01*
X015588Y006728D02*
X017370Y006728D01*
X017272Y006826D02*
X015720Y006826D01*
X015895Y006925D02*
X017173Y006925D01*
X017106Y007024D02*
X015974Y007024D01*
X016015Y007122D02*
X017106Y007122D01*
X017106Y007221D02*
X016019Y007221D01*
X016006Y007319D02*
X017106Y007319D01*
X017106Y007418D02*
X015965Y007418D01*
X015873Y007516D02*
X017195Y007516D01*
X017294Y007615D02*
X013468Y007615D01*
X013370Y007713D02*
X017392Y007713D01*
X017286Y007812D02*
X013476Y007812D01*
X013574Y007910D02*
X017188Y007910D01*
X017146Y008009D02*
X013616Y008009D01*
X013656Y008107D02*
X017106Y008107D01*
X017106Y008206D02*
X013656Y008206D01*
X013656Y008305D02*
X017106Y008305D01*
X017143Y008403D02*
X013619Y008403D01*
X013578Y008502D02*
X017184Y008502D01*
X017279Y008600D02*
X013483Y008600D01*
X013322Y008699D02*
X017440Y008699D01*
X017780Y008797D02*
X010884Y008797D01*
X010982Y008896D02*
X017879Y008896D01*
X017978Y008994D02*
X011081Y008994D01*
X011101Y009093D02*
X018076Y009093D01*
X018175Y009191D02*
X011101Y009191D01*
X011150Y009290D02*
X018273Y009290D01*
X018372Y009389D02*
X011249Y009389D01*
X010766Y009783D02*
X008496Y009783D01*
X008398Y009881D02*
X010864Y009881D01*
X010974Y009980D02*
X008299Y009980D01*
X008200Y010078D02*
X011837Y010078D01*
X011739Y010177D02*
X008102Y010177D01*
X008003Y010275D02*
X011694Y010275D01*
X011661Y010374D02*
X007905Y010374D01*
X007806Y010473D02*
X011661Y010473D01*
X011661Y010571D02*
X007708Y010571D01*
X007609Y010670D02*
X011661Y010670D01*
X011661Y010768D02*
X007511Y010768D01*
X007412Y010867D02*
X011661Y010867D01*
X011661Y010965D02*
X007314Y010965D01*
X007215Y011064D02*
X011661Y011064D01*
X011702Y011162D02*
X007116Y011162D01*
X007018Y011261D02*
X011758Y011261D01*
X012751Y012049D02*
X019521Y012049D01*
X019521Y011951D02*
X012899Y011951D01*
X012997Y011852D02*
X019521Y011852D01*
X019521Y011754D02*
X013096Y011754D01*
X013194Y011655D02*
X019521Y011655D01*
X019521Y011556D02*
X013293Y011556D01*
X013392Y011458D02*
X019521Y011458D01*
X019521Y011359D02*
X019406Y011359D01*
X019504Y011261D02*
X019521Y011261D01*
X018856Y011359D02*
X018406Y011359D01*
X018504Y011261D02*
X018758Y011261D01*
X018702Y011162D02*
X018560Y011162D01*
X018601Y011064D02*
X018661Y011064D01*
X018661Y010965D02*
X018601Y010965D01*
X018601Y010867D02*
X018661Y010867D01*
X018661Y010768D02*
X018601Y010768D01*
X018601Y010670D02*
X018661Y010670D01*
X018661Y010571D02*
X018601Y010571D01*
X018601Y010473D02*
X018661Y010473D01*
X018661Y010374D02*
X018601Y010374D01*
X018568Y010275D02*
X018694Y010275D01*
X018739Y010177D02*
X018523Y010177D01*
X018425Y010078D02*
X018821Y010078D01*
X018821Y009980D02*
X018340Y009980D01*
X018241Y009881D02*
X018821Y009881D01*
X018766Y009783D02*
X018143Y009783D01*
X018044Y009684D02*
X018667Y009684D01*
X018569Y009586D02*
X017946Y009586D01*
X017847Y009487D02*
X018470Y009487D01*
X018953Y009093D02*
X019521Y009093D01*
X019521Y009191D02*
X019051Y009191D01*
X019150Y009290D02*
X019521Y009290D01*
X019521Y009389D02*
X019249Y009389D01*
X019347Y009487D02*
X019521Y009487D01*
X019521Y009586D02*
X019415Y009586D01*
X019441Y009684D02*
X019521Y009684D01*
X019521Y009783D02*
X019441Y009783D01*
X019441Y009881D02*
X019521Y009881D01*
X019521Y009980D02*
X019441Y009980D01*
X019441Y010078D02*
X019521Y010078D01*
X019521Y008994D02*
X018854Y008994D01*
X018756Y008896D02*
X019521Y008896D01*
X019521Y008797D02*
X018657Y008797D01*
X018559Y008699D02*
X019521Y008699D01*
X019521Y008600D02*
X018460Y008600D01*
X018362Y008502D02*
X019521Y008502D01*
X019521Y008403D02*
X018263Y008403D01*
X018165Y008305D02*
X019521Y008305D01*
X019521Y008206D02*
X018156Y008206D01*
X018156Y008107D02*
X019521Y008107D01*
X019521Y008009D02*
X018116Y008009D01*
X018074Y007910D02*
X019521Y007910D01*
X019521Y007812D02*
X017976Y007812D01*
X017870Y007713D02*
X019521Y007713D01*
X019521Y007615D02*
X017968Y007615D01*
X018067Y007516D02*
X019521Y007516D01*
X019521Y007418D02*
X018156Y007418D01*
X018156Y007319D02*
X019521Y007319D01*
X019521Y007221D02*
X018156Y007221D01*
X018156Y007122D02*
X019521Y007122D01*
X019521Y007024D02*
X018156Y007024D01*
X018089Y006925D02*
X019521Y006925D01*
X019521Y006826D02*
X017990Y006826D01*
X017892Y006728D02*
X019521Y006728D01*
X019521Y006038D02*
X014941Y006038D01*
X014941Y005940D02*
X019521Y005940D01*
X019521Y005841D02*
X014941Y005841D01*
X011308Y005250D02*
X010907Y005250D01*
X011047Y005151D02*
X011168Y005151D01*
X010379Y008797D02*
X008884Y008797D01*
X008982Y008896D02*
X010280Y008896D01*
X010181Y008994D02*
X009081Y008994D01*
X009101Y009093D02*
X010161Y009093D01*
X010161Y009191D02*
X009101Y009191D01*
X009101Y009290D02*
X010161Y009290D01*
X010161Y009389D02*
X009101Y009389D01*
X009018Y009487D02*
X010244Y009487D01*
X010343Y009586D02*
X008919Y009586D01*
X008595Y009684D02*
X010667Y009684D01*
X011069Y012399D02*
X011193Y012399D01*
X017693Y012399D01*
X017807Y012447D01*
X017894Y012534D01*
X018394Y013034D01*
X018403Y013057D01*
X018529Y013183D01*
X018601Y013356D01*
X018601Y014063D01*
X018529Y014236D01*
X018397Y014368D01*
X018224Y014439D01*
X018038Y014439D01*
X017865Y014368D01*
X017733Y014236D01*
X017661Y014063D01*
X017661Y013356D01*
X017713Y013230D01*
X017503Y013019D01*
X017321Y013019D01*
X017397Y013051D01*
X017529Y013183D01*
X017601Y013356D01*
X017601Y014063D01*
X017529Y014236D01*
X017397Y014368D01*
X017224Y014439D01*
X017038Y014439D01*
X016865Y014368D01*
X016733Y014236D01*
X016661Y014063D01*
X016661Y013356D01*
X016733Y013183D01*
X016865Y013051D01*
X016941Y013019D01*
X016321Y013019D01*
X016397Y013051D01*
X016529Y013183D01*
X016601Y013356D01*
X016601Y014063D01*
X016529Y014236D01*
X016416Y014349D01*
X016703Y014349D01*
X016835Y014404D01*
X016936Y014506D01*
X017436Y015006D01*
X018920Y015006D01*
X018822Y015104D02*
X017477Y015104D01*
X017491Y015138D02*
X017491Y015155D01*
X017601Y015265D01*
X017601Y015654D01*
X017326Y015929D01*
X016936Y015929D01*
X016661Y015654D01*
X016661Y015265D01*
X016669Y015257D01*
X016482Y015069D01*
X015406Y015069D01*
X015601Y015265D01*
X015601Y015654D01*
X015326Y015929D01*
X014936Y015929D01*
X014661Y015654D01*
X014661Y015265D01*
X014856Y015069D01*
X013406Y015069D01*
X013601Y015265D01*
X013601Y015654D01*
X013326Y015929D01*
X012936Y015929D01*
X012826Y015819D01*
X012330Y015819D01*
X010156Y017994D01*
X010156Y018114D01*
X010076Y018307D01*
X009928Y018454D01*
X009928Y018455D02*
X012984Y018455D01*
X012983Y018453D02*
X012950Y018388D01*
X012927Y018318D01*
X012916Y018246D01*
X012916Y018239D01*
X013351Y018239D01*
X013351Y018179D01*
X013411Y018179D01*
X013411Y017744D01*
X013418Y017744D01*
X013490Y017756D01*
X013559Y017779D01*
X013625Y017812D01*
X013684Y017855D01*
X013736Y017906D01*
X013779Y017966D01*
X013812Y018031D01*
X013835Y018101D01*
X013846Y018173D01*
X013846Y018179D01*
X013411Y018179D01*
X013411Y018239D01*
X013846Y018239D01*
X013846Y018246D01*
X013835Y018318D01*
X013812Y018388D01*
X013779Y018453D01*
X013736Y018512D01*
X013684Y018564D01*
X013625Y018607D01*
X013559Y018640D01*
X013490Y018663D01*
X013418Y018674D01*
X013411Y018674D01*
X013411Y018240D01*
X013351Y018240D01*
X013351Y018674D01*
X013344Y018674D01*
X013272Y018663D01*
X013203Y018640D01*
X013137Y018607D01*
X013078Y018564D01*
X013026Y018512D01*
X012983Y018453D01*
X012940Y018356D02*
X010027Y018356D01*
X010097Y018257D02*
X012918Y018257D01*
X012916Y018179D02*
X012916Y018173D01*
X012927Y018101D01*
X012950Y018031D01*
X012983Y017966D01*
X013026Y017906D01*
X013078Y017855D01*
X013137Y017812D01*
X013203Y017779D01*
X013272Y017756D01*
X013344Y017744D01*
X013351Y017744D01*
X013351Y018179D01*
X012916Y018179D01*
X012918Y018159D02*
X010137Y018159D01*
X010156Y018060D02*
X012941Y018060D01*
X012986Y017962D02*
X010188Y017962D01*
X010286Y017863D02*
X013070Y017863D01*
X013245Y017765D02*
X010385Y017765D01*
X010483Y017666D02*
X019521Y017666D01*
X019521Y017568D02*
X010582Y017568D01*
X010680Y017469D02*
X019521Y017469D01*
X019521Y017371D02*
X010779Y017371D01*
X010878Y017272D02*
X019521Y017272D01*
X019521Y017173D02*
X010976Y017173D01*
X011075Y017075D02*
X019521Y017075D01*
X019521Y016976D02*
X011173Y016976D01*
X011272Y016878D02*
X019521Y016878D01*
X019521Y016779D02*
X011370Y016779D01*
X011469Y016681D02*
X019521Y016681D01*
X019521Y016582D02*
X011567Y016582D01*
X011666Y016484D02*
X019521Y016484D01*
X019521Y016385D02*
X011764Y016385D01*
X011863Y016287D02*
X019521Y016287D01*
X019521Y016188D02*
X011961Y016188D01*
X012060Y016089D02*
X019521Y016089D01*
X019521Y015991D02*
X012159Y015991D01*
X012257Y015892D02*
X012899Y015892D01*
X013363Y015892D02*
X014899Y015892D01*
X014801Y015794D02*
X013461Y015794D01*
X013560Y015695D02*
X014702Y015695D01*
X014661Y015597D02*
X013601Y015597D01*
X013601Y015498D02*
X014661Y015498D01*
X014661Y015400D02*
X013601Y015400D01*
X013601Y015301D02*
X014661Y015301D01*
X014723Y015203D02*
X013539Y015203D01*
X013440Y015104D02*
X014822Y015104D01*
X015440Y015104D02*
X016517Y015104D01*
X016615Y015203D02*
X015539Y015203D01*
X015601Y015301D02*
X016661Y015301D01*
X016661Y015400D02*
X015601Y015400D01*
X015601Y015498D02*
X016661Y015498D01*
X016661Y015597D02*
X015601Y015597D01*
X015560Y015695D02*
X016702Y015695D01*
X016801Y015794D02*
X015461Y015794D01*
X015363Y015892D02*
X016899Y015892D01*
X017363Y015892D02*
X018899Y015892D01*
X018801Y015794D02*
X017461Y015794D01*
X017560Y015695D02*
X018702Y015695D01*
X018661Y015597D02*
X017601Y015597D01*
X017601Y015498D02*
X018661Y015498D01*
X018661Y015400D02*
X017601Y015400D01*
X017601Y015301D02*
X018661Y015301D01*
X018723Y015203D02*
X017539Y015203D01*
X017491Y015138D02*
X017436Y015006D01*
X017338Y014907D02*
X019521Y014907D01*
X019521Y015006D02*
X019342Y015006D01*
X019440Y015104D02*
X019521Y015104D01*
X019521Y014808D02*
X017239Y014808D01*
X017141Y014710D02*
X019521Y014710D01*
X019521Y014611D02*
X017042Y014611D01*
X016943Y014513D02*
X019521Y014513D01*
X019521Y014414D02*
X019285Y014414D01*
X019449Y014316D02*
X019521Y014316D01*
X018977Y014414D02*
X018285Y014414D01*
X018449Y014316D02*
X018813Y014316D01*
X018725Y014217D02*
X018537Y014217D01*
X018578Y014119D02*
X018684Y014119D01*
X018661Y014020D02*
X018601Y014020D01*
X018601Y013922D02*
X018661Y013922D01*
X018661Y013823D02*
X018601Y013823D01*
X018601Y013724D02*
X018661Y013724D01*
X018661Y013626D02*
X018601Y013626D01*
X018601Y013527D02*
X018661Y013527D01*
X018661Y013429D02*
X018601Y013429D01*
X018590Y013330D02*
X018672Y013330D01*
X018712Y013232D02*
X018550Y013232D01*
X018479Y013133D02*
X018783Y013133D01*
X018904Y013035D02*
X018394Y013035D01*
X018296Y012936D02*
X019521Y012936D01*
X019521Y012838D02*
X018198Y012838D01*
X018099Y012739D02*
X019521Y012739D01*
X019521Y012640D02*
X018000Y012640D01*
X017902Y012542D02*
X019521Y012542D01*
X019521Y012443D02*
X017799Y012443D01*
X017518Y013035D02*
X017358Y013035D01*
X017479Y013133D02*
X017616Y013133D01*
X017550Y013232D02*
X017712Y013232D01*
X017672Y013330D02*
X017590Y013330D01*
X017601Y013429D02*
X017661Y013429D01*
X017661Y013527D02*
X017601Y013527D01*
X017601Y013626D02*
X017661Y013626D01*
X017661Y013724D02*
X017601Y013724D01*
X017601Y013823D02*
X017661Y013823D01*
X017661Y013922D02*
X017601Y013922D01*
X017601Y014020D02*
X017661Y014020D01*
X017684Y014119D02*
X017578Y014119D01*
X017537Y014217D02*
X017725Y014217D01*
X017813Y014316D02*
X017449Y014316D01*
X017285Y014414D02*
X017977Y014414D01*
X016977Y014414D02*
X016845Y014414D01*
X016813Y014316D02*
X016449Y014316D01*
X016537Y014217D02*
X016725Y014217D01*
X016684Y014119D02*
X016578Y014119D01*
X016601Y014020D02*
X016661Y014020D01*
X016661Y013922D02*
X016601Y013922D01*
X016601Y013823D02*
X016661Y013823D01*
X016661Y013724D02*
X016601Y013724D01*
X016601Y013626D02*
X016661Y013626D01*
X016661Y013527D02*
X016601Y013527D01*
X016601Y013429D02*
X016661Y013429D01*
X016672Y013330D02*
X016590Y013330D01*
X016550Y013232D02*
X016712Y013232D01*
X016783Y013133D02*
X016479Y013133D01*
X016358Y013035D02*
X016904Y013035D01*
X016856Y011359D02*
X016406Y011359D01*
X016504Y011261D02*
X016758Y011261D01*
X016702Y011162D02*
X016560Y011162D01*
X016601Y011064D02*
X016661Y011064D01*
X016661Y010965D02*
X016601Y010965D01*
X016601Y010867D02*
X016661Y010867D01*
X016661Y010768D02*
X016601Y010768D01*
X016601Y010670D02*
X016661Y010670D01*
X016661Y010571D02*
X016601Y010571D01*
X016601Y010473D02*
X016661Y010473D01*
X016661Y010374D02*
X016601Y010374D01*
X016568Y010275D02*
X016694Y010275D01*
X016739Y010177D02*
X016523Y010177D01*
X016425Y010078D02*
X016837Y010078D01*
X017425Y010078D02*
X017562Y010078D01*
X017523Y010177D02*
X017660Y010177D01*
X017694Y010275D02*
X017568Y010275D01*
X017601Y010374D02*
X017661Y010374D01*
X017661Y010473D02*
X017601Y010473D01*
X017601Y010571D02*
X017661Y010571D01*
X017661Y010670D02*
X017601Y010670D01*
X017601Y010768D02*
X017661Y010768D01*
X017661Y010867D02*
X017601Y010867D01*
X017601Y010965D02*
X017661Y010965D01*
X017661Y011064D02*
X017601Y011064D01*
X017560Y011162D02*
X017702Y011162D01*
X017758Y011261D02*
X017504Y011261D01*
X017406Y011359D02*
X017856Y011359D01*
X019521Y012148D02*
X003008Y012148D01*
X003106Y012246D02*
X019521Y012246D01*
X019521Y012345D02*
X003205Y012345D01*
X003303Y012443D02*
X005446Y012443D01*
X005513Y012416D02*
X005749Y012416D01*
X005967Y012506D01*
X006134Y012673D01*
X006225Y012891D01*
X006225Y013128D01*
X006134Y013346D01*
X006081Y013399D01*
X008003Y013399D01*
X008161Y013241D01*
X008161Y013015D01*
X008436Y012739D01*
X008826Y012739D01*
X009101Y013015D01*
X009101Y013404D01*
X008826Y013679D01*
X008599Y013679D01*
X008307Y013972D01*
X008193Y014019D01*
X008069Y014019D01*
X004069Y014019D01*
X003955Y013972D01*
X003868Y013885D01*
X001586Y011603D01*
X001513Y011603D01*
X001295Y011513D01*
X001128Y011346D01*
X001037Y011128D01*
X001037Y010891D01*
X001128Y010673D01*
X001295Y010506D01*
X001513Y010416D01*
X001749Y010416D01*
X001967Y010506D01*
X002134Y010673D01*
X002225Y010891D01*
X002225Y011128D01*
X002155Y011295D01*
X004259Y013399D01*
X005181Y013399D01*
X005128Y013346D01*
X005037Y013128D01*
X005037Y012891D01*
X005128Y012673D01*
X005295Y012506D01*
X005513Y012416D01*
X005259Y012542D02*
X003402Y012542D01*
X003500Y012640D02*
X005160Y012640D01*
X005100Y012739D02*
X003599Y012739D01*
X003697Y012838D02*
X005059Y012838D01*
X005037Y012936D02*
X003796Y012936D01*
X003895Y013035D02*
X005037Y013035D01*
X005040Y013133D02*
X003993Y013133D01*
X004092Y013232D02*
X005080Y013232D01*
X005121Y013330D02*
X004190Y013330D01*
X003708Y013724D02*
X000991Y013724D01*
X000991Y013626D02*
X003609Y013626D01*
X003511Y013527D02*
X001932Y013527D01*
X001967Y013513D02*
X001749Y013603D01*
X001513Y013603D01*
X001295Y013513D01*
X001128Y013346D01*
X001037Y013128D01*
X001037Y012891D01*
X001128Y012673D01*
X001295Y012506D01*
X001513Y012416D01*
X001749Y012416D01*
X001967Y012506D01*
X002134Y012673D01*
X002225Y012891D01*
X002225Y013128D01*
X002134Y013346D01*
X001967Y013513D01*
X002051Y013429D02*
X003412Y013429D01*
X003313Y013330D02*
X002141Y013330D01*
X002182Y013232D02*
X003215Y013232D01*
X003116Y013133D02*
X002223Y013133D01*
X002225Y013035D02*
X003018Y013035D01*
X002919Y012936D02*
X002225Y012936D01*
X002203Y012838D02*
X002821Y012838D01*
X002722Y012739D02*
X002162Y012739D01*
X002102Y012640D02*
X002624Y012640D01*
X002525Y012542D02*
X002003Y012542D01*
X001816Y012443D02*
X002427Y012443D01*
X002328Y012345D02*
X000991Y012345D01*
X000991Y012443D02*
X001446Y012443D01*
X001259Y012542D02*
X000991Y012542D01*
X000991Y012640D02*
X001160Y012640D01*
X001100Y012739D02*
X000991Y012739D01*
X000991Y012838D02*
X001059Y012838D01*
X001037Y012936D02*
X000991Y012936D01*
X000991Y013035D02*
X001037Y013035D01*
X001040Y013133D02*
X000991Y013133D01*
X000991Y013232D02*
X001080Y013232D01*
X001121Y013330D02*
X000991Y013330D01*
X000991Y013429D02*
X001211Y013429D01*
X001330Y013527D02*
X000991Y013527D01*
X000991Y013823D02*
X003806Y013823D01*
X003905Y013922D02*
X000991Y013922D01*
X000991Y014020D02*
X011724Y014020D01*
X011721Y014002D02*
X011731Y014065D01*
X011751Y014127D01*
X011780Y014184D01*
X011818Y014237D01*
X011864Y014282D01*
X011916Y014320D01*
X011974Y014349D01*
X011974Y014349D01*
X009776Y014349D01*
X009708Y014321D01*
X009554Y014321D01*
X009411Y014380D01*
X009302Y014490D01*
X009243Y014632D01*
X009243Y014787D01*
X009302Y014929D01*
X009411Y015038D01*
X009554Y015098D01*
X009708Y015098D01*
X009776Y015069D01*
X012856Y015069D01*
X012826Y015099D01*
X012253Y015099D01*
X012109Y015099D01*
X011977Y015154D01*
X009647Y017484D01*
X009615Y017484D01*
X009535Y017404D01*
X009403Y017349D01*
X009259Y017349D01*
X003280Y017349D01*
X003007Y017076D01*
X003156Y016927D01*
X003156Y016492D01*
X002851Y016187D01*
X002928Y016154D01*
X003076Y016007D01*
X003156Y015814D01*
X003156Y015605D01*
X003076Y015412D01*
X002928Y015264D01*
X002735Y015184D01*
X002527Y015184D01*
X002334Y015264D01*
X002186Y015412D01*
X002106Y015605D01*
X002106Y015814D01*
X002186Y016007D01*
X002334Y016154D01*
X002411Y016187D01*
X002106Y016492D01*
X002106Y016927D01*
X002271Y017092D01*
X002271Y017138D01*
X002271Y017281D01*
X002326Y017413D01*
X002826Y017913D01*
X002927Y018015D01*
X003059Y018069D01*
X009106Y018069D01*
X009106Y018114D01*
X009186Y018307D01*
X009334Y018454D01*
X009334Y018455D02*
X001885Y018455D01*
X001984Y018553D02*
X009345Y018553D01*
X009411Y018487D02*
X009334Y018454D01*
X009411Y018487D02*
X009241Y018657D01*
X009127Y018704D01*
X008482Y019349D01*
X007028Y019349D01*
X006934Y019256D01*
X006737Y019174D01*
X006525Y019174D01*
X006328Y019256D01*
X006177Y019406D01*
X006166Y019434D01*
X006166Y019297D01*
X006043Y019174D01*
X005219Y019174D01*
X005096Y019297D01*
X005096Y020121D01*
X005219Y020244D01*
X006043Y020244D01*
X006166Y020121D01*
X006166Y019985D01*
X006177Y020012D01*
X006328Y020163D01*
X006525Y020244D01*
X006737Y020244D01*
X006934Y020163D01*
X007028Y020069D01*
X008703Y020069D01*
X008835Y020015D01*
X008936Y019913D01*
X009364Y019485D01*
X009414Y019534D01*
X009848Y019534D01*
X010156Y019227D01*
X010156Y018792D01*
X009851Y018487D01*
X009928Y018454D01*
X009917Y018553D02*
X013067Y018553D01*
X013164Y018684D02*
X013598Y018684D01*
X013906Y018992D01*
X013906Y019427D01*
X013598Y019734D01*
X013164Y019734D01*
X012856Y019427D01*
X012856Y018992D01*
X013164Y018684D01*
X013237Y018652D02*
X010016Y018652D01*
X010114Y018750D02*
X013098Y018750D01*
X012999Y018849D02*
X010156Y018849D01*
X010156Y018947D02*
X012901Y018947D01*
X012856Y019046D02*
X010156Y019046D01*
X010156Y019144D02*
X012856Y019144D01*
X012856Y019243D02*
X010140Y019243D01*
X010041Y019341D02*
X012856Y019341D01*
X012869Y019440D02*
X009943Y019440D01*
X009311Y019539D02*
X012968Y019539D01*
X013066Y019637D02*
X009212Y019637D01*
X009114Y019736D02*
X017921Y019736D01*
X017921Y019834D02*
X009015Y019834D01*
X008917Y019933D02*
X017955Y019933D01*
X017921Y019851D02*
X017921Y019568D01*
X018029Y019307D01*
X018229Y019108D01*
X018490Y018999D01*
X018772Y018999D01*
X019033Y019108D01*
X019233Y019307D01*
X019341Y019568D01*
X019341Y019851D01*
X019233Y020112D01*
X019033Y020311D01*
X018772Y020419D01*
X018490Y020419D01*
X018229Y020311D01*
X018029Y020112D01*
X017921Y019851D01*
X017996Y020031D02*
X008795Y020031D01*
X008490Y019341D02*
X007020Y019341D01*
X006903Y019243D02*
X008588Y019243D01*
X008687Y019144D02*
X002575Y019144D01*
X002476Y019046D02*
X008786Y019046D01*
X008884Y018947D02*
X002378Y018947D01*
X002279Y018849D02*
X008983Y018849D01*
X009081Y018750D02*
X002181Y018750D01*
X002082Y018652D02*
X009246Y018652D01*
X009235Y018356D02*
X001787Y018356D01*
X001688Y018257D02*
X009166Y018257D01*
X009125Y018159D02*
X001590Y018159D01*
X001491Y018060D02*
X003038Y018060D01*
X002874Y017962D02*
X001392Y017962D01*
X001294Y017863D02*
X002776Y017863D01*
X002677Y017765D02*
X001195Y017765D01*
X001097Y017666D02*
X002579Y017666D01*
X002480Y017568D02*
X000998Y017568D01*
X000991Y017469D02*
X002382Y017469D01*
X002308Y017371D02*
X000991Y017371D01*
X000991Y017272D02*
X002271Y017272D01*
X002271Y017173D02*
X000991Y017173D01*
X000991Y017075D02*
X002254Y017075D01*
X002156Y016976D02*
X000991Y016976D01*
X000991Y016878D02*
X002106Y016878D01*
X002106Y016779D02*
X000991Y016779D01*
X000991Y016681D02*
X002106Y016681D01*
X002106Y016582D02*
X000991Y016582D01*
X000991Y016484D02*
X002114Y016484D01*
X002213Y016385D02*
X000991Y016385D01*
X000991Y016287D02*
X002311Y016287D01*
X002410Y016188D02*
X000991Y016188D01*
X000991Y016089D02*
X002269Y016089D01*
X002179Y015991D02*
X000991Y015991D01*
X000991Y015892D02*
X002139Y015892D01*
X002106Y015794D02*
X000991Y015794D01*
X000991Y015695D02*
X002106Y015695D01*
X002109Y015597D02*
X000991Y015597D01*
X000991Y015498D02*
X002150Y015498D01*
X002198Y015400D02*
X000991Y015400D01*
X000991Y015301D02*
X002297Y015301D01*
X002483Y015203D02*
X000991Y015203D01*
X000991Y015104D02*
X012098Y015104D01*
X011929Y015203D02*
X002779Y015203D01*
X002965Y015301D02*
X011830Y015301D01*
X011732Y015400D02*
X003064Y015400D01*
X003112Y015498D02*
X011633Y015498D01*
X011535Y015597D02*
X003153Y015597D01*
X003156Y015695D02*
X011436Y015695D01*
X011337Y015794D02*
X003156Y015794D01*
X003123Y015892D02*
X011239Y015892D01*
X011140Y015991D02*
X003083Y015991D01*
X002993Y016089D02*
X011042Y016089D01*
X010943Y016188D02*
X002852Y016188D01*
X002951Y016287D02*
X010845Y016287D01*
X010746Y016385D02*
X003049Y016385D01*
X003148Y016484D02*
X010648Y016484D01*
X010549Y016582D02*
X003156Y016582D01*
X003156Y016681D02*
X010451Y016681D01*
X010352Y016779D02*
X003156Y016779D01*
X003156Y016878D02*
X010254Y016878D01*
X010155Y016976D02*
X003106Y016976D01*
X003008Y017075D02*
X010056Y017075D01*
X009958Y017173D02*
X003104Y017173D01*
X003203Y017272D02*
X009859Y017272D01*
X009761Y017371D02*
X009454Y017371D01*
X009600Y017469D02*
X009662Y017469D01*
X009378Y015006D02*
X000991Y015006D01*
X000991Y014907D02*
X009293Y014907D01*
X009252Y014808D02*
X000991Y014808D01*
X000991Y014710D02*
X009243Y014710D01*
X009252Y014611D02*
X000991Y014611D01*
X000991Y014513D02*
X009292Y014513D01*
X009377Y014414D02*
X000991Y014414D01*
X000991Y014316D02*
X011910Y014316D01*
X011804Y014217D02*
X000991Y014217D01*
X000991Y014119D02*
X011748Y014119D01*
X011721Y014002D02*
X011721Y013739D01*
X012101Y013739D01*
X012101Y013679D01*
X012161Y013679D01*
X012161Y013039D01*
X012163Y013039D01*
X012227Y013050D01*
X012288Y013069D01*
X012346Y013099D01*
X012398Y013137D01*
X012444Y013182D01*
X012482Y013235D01*
X012511Y013292D01*
X012531Y013353D01*
X012541Y013417D01*
X012541Y013679D01*
X012161Y013679D01*
X012161Y013739D01*
X012541Y013739D01*
X012541Y014002D01*
X012531Y014065D01*
X012511Y014127D01*
X012482Y014184D01*
X012444Y014237D01*
X012398Y014282D01*
X012346Y014320D01*
X012288Y014349D01*
X012846Y014349D01*
X012733Y014236D01*
X012661Y014063D01*
X012661Y013356D01*
X012733Y013183D01*
X012865Y013051D01*
X012941Y013019D01*
X011259Y013019D01*
X011101Y013178D01*
X011101Y013404D01*
X010826Y013679D01*
X010436Y013679D01*
X010161Y013404D01*
X010161Y013015D01*
X010436Y012739D01*
X010663Y012739D01*
X006162Y012739D01*
X006203Y012838D02*
X008338Y012838D01*
X008240Y012936D02*
X006225Y012936D01*
X006225Y013035D02*
X008161Y013035D01*
X008161Y013133D02*
X006223Y013133D01*
X006182Y013232D02*
X008161Y013232D01*
X008072Y013330D02*
X006141Y013330D01*
X006102Y012640D02*
X010762Y012640D01*
X010860Y012542D02*
X006003Y012542D01*
X005816Y012443D02*
X010963Y012443D01*
X010955Y012447D02*
X011069Y012399D01*
X010955Y012447D02*
X010663Y012739D01*
X010338Y012838D02*
X008924Y012838D01*
X009022Y012936D02*
X010240Y012936D01*
X010161Y013035D02*
X009101Y013035D01*
X009101Y013133D02*
X010161Y013133D01*
X010161Y013232D02*
X009101Y013232D01*
X009101Y013330D02*
X010161Y013330D01*
X010186Y013429D02*
X009076Y013429D01*
X008978Y013527D02*
X010284Y013527D01*
X010383Y013626D02*
X008879Y013626D01*
X008554Y013724D02*
X012101Y013724D01*
X012101Y013679D02*
X011721Y013679D01*
X011721Y013417D01*
X011731Y013353D01*
X011751Y013292D01*
X011780Y013235D01*
X011818Y013182D01*
X011864Y013137D01*
X011916Y013099D01*
X011974Y013069D01*
X012035Y013050D01*
X012099Y013039D01*
X012101Y013039D01*
X012101Y013679D01*
X012101Y013626D02*
X012161Y013626D01*
X012161Y013724D02*
X012661Y013724D01*
X012661Y013626D02*
X012541Y013626D01*
X012541Y013527D02*
X012661Y013527D01*
X012661Y013429D02*
X012541Y013429D01*
X012523Y013330D02*
X012672Y013330D01*
X012712Y013232D02*
X012480Y013232D01*
X012393Y013133D02*
X012783Y013133D01*
X012904Y013035D02*
X011244Y013035D01*
X011146Y013133D02*
X011869Y013133D01*
X011782Y013232D02*
X011101Y013232D01*
X011101Y013330D02*
X011739Y013330D01*
X011721Y013429D02*
X011076Y013429D01*
X010978Y013527D02*
X011721Y013527D01*
X011721Y013626D02*
X010879Y013626D01*
X011721Y013823D02*
X008456Y013823D01*
X008357Y013922D02*
X011721Y013922D01*
X012101Y013527D02*
X012161Y013527D01*
X012161Y013429D02*
X012101Y013429D01*
X012101Y013330D02*
X012161Y013330D01*
X012161Y013232D02*
X012101Y013232D01*
X012101Y013133D02*
X012161Y013133D01*
X012541Y013823D02*
X012661Y013823D01*
X012661Y013922D02*
X012541Y013922D01*
X012538Y014020D02*
X012661Y014020D01*
X012684Y014119D02*
X012514Y014119D01*
X012458Y014217D02*
X012725Y014217D01*
X012813Y014316D02*
X012352Y014316D01*
X012288Y014349D02*
X012288Y014349D01*
X013459Y011359D02*
X013856Y011359D01*
X013758Y011261D02*
X013504Y011261D01*
X013560Y011162D02*
X013702Y011162D01*
X013661Y011064D02*
X013601Y011064D01*
X013601Y010965D02*
X013661Y010965D01*
X013661Y010867D02*
X013601Y010867D01*
X013601Y010768D02*
X013661Y010768D01*
X013661Y010670D02*
X013601Y010670D01*
X013601Y010571D02*
X013661Y010571D01*
X013661Y010473D02*
X013601Y010473D01*
X013601Y010374D02*
X013661Y010374D01*
X013694Y010275D02*
X013568Y010275D01*
X013523Y010177D02*
X013739Y010177D01*
X013837Y010078D02*
X013425Y010078D01*
X014425Y010078D02*
X014837Y010078D01*
X014739Y010177D02*
X014523Y010177D01*
X014568Y010275D02*
X014694Y010275D01*
X014661Y010374D02*
X014601Y010374D01*
X014601Y010473D02*
X014661Y010473D01*
X014661Y010571D02*
X014601Y010571D01*
X014601Y010670D02*
X014661Y010670D01*
X014661Y010768D02*
X014601Y010768D01*
X014601Y010867D02*
X014661Y010867D01*
X014661Y010965D02*
X014601Y010965D01*
X014601Y011064D02*
X014661Y011064D01*
X014702Y011162D02*
X014560Y011162D01*
X014504Y011261D02*
X014758Y011261D01*
X014856Y011359D02*
X014406Y011359D01*
X015406Y011359D02*
X015856Y011359D01*
X015758Y011261D02*
X015504Y011261D01*
X015560Y011162D02*
X015702Y011162D01*
X015661Y011064D02*
X015601Y011064D01*
X015601Y010965D02*
X015661Y010965D01*
X015661Y010867D02*
X015601Y010867D01*
X015601Y010768D02*
X015661Y010768D01*
X015661Y010670D02*
X015601Y010670D01*
X015601Y010571D02*
X015661Y010571D01*
X015661Y010473D02*
X015601Y010473D01*
X015601Y010374D02*
X015661Y010374D01*
X015694Y010275D02*
X015568Y010275D01*
X015523Y010177D02*
X015739Y010177D01*
X015837Y010078D02*
X015425Y010078D01*
X019358Y013035D02*
X019521Y013035D01*
X019521Y013133D02*
X019479Y013133D01*
X019461Y015794D02*
X019521Y015794D01*
X019521Y015892D02*
X019363Y015892D01*
X019521Y017765D02*
X016929Y017765D01*
X016928Y017764D02*
X017076Y017912D01*
X017156Y018105D01*
X017156Y018314D01*
X017076Y018507D01*
X016928Y018654D01*
X016851Y018687D01*
X017156Y018992D01*
X017156Y019427D01*
X016848Y019734D01*
X016414Y019734D01*
X016106Y019427D01*
X016106Y018992D01*
X016411Y018687D01*
X016334Y018654D01*
X016186Y018507D01*
X016106Y018314D01*
X016106Y018105D01*
X016186Y017912D01*
X016334Y017764D01*
X016527Y017684D01*
X016735Y017684D01*
X016928Y017764D01*
X017027Y017863D02*
X019521Y017863D01*
X019521Y017962D02*
X017097Y017962D01*
X017137Y018060D02*
X019521Y018060D01*
X019521Y018159D02*
X017156Y018159D01*
X017156Y018257D02*
X019521Y018257D01*
X019521Y018356D02*
X017139Y018356D01*
X017098Y018455D02*
X019521Y018455D01*
X019521Y018553D02*
X017030Y018553D01*
X016931Y018652D02*
X019521Y018652D01*
X019521Y018750D02*
X016914Y018750D01*
X017013Y018849D02*
X019521Y018849D01*
X019521Y018947D02*
X017111Y018947D01*
X017156Y019046D02*
X018378Y019046D01*
X018192Y019144D02*
X017156Y019144D01*
X017156Y019243D02*
X018093Y019243D01*
X018015Y019341D02*
X017156Y019341D01*
X017143Y019440D02*
X017974Y019440D01*
X017933Y019539D02*
X017044Y019539D01*
X016946Y019637D02*
X017921Y019637D01*
X018047Y020130D02*
X006967Y020130D01*
X006776Y020228D02*
X018146Y020228D01*
X018266Y020327D02*
X001496Y020327D01*
X001616Y020228D02*
X002986Y020228D01*
X002795Y020130D02*
X001715Y020130D01*
X001766Y020031D02*
X002467Y020031D01*
X002345Y019933D02*
X001807Y019933D01*
X001841Y019834D02*
X002247Y019834D01*
X002148Y019736D02*
X001841Y019736D01*
X001841Y019637D02*
X002050Y019637D01*
X001951Y019539D02*
X001829Y019539D01*
X001852Y019440D02*
X001788Y019440D01*
X001754Y019341D02*
X001747Y019341D01*
X001458Y019046D02*
X001384Y019046D01*
X001360Y018947D02*
X000341Y018947D01*
X000341Y018849D02*
X001261Y018849D01*
X001163Y018750D02*
X000341Y018750D01*
X000341Y018652D02*
X001064Y018652D01*
X000966Y018553D02*
X000341Y018553D01*
X000341Y018455D02*
X000867Y018455D01*
X000769Y018356D02*
X000341Y018356D01*
X000341Y018257D02*
X000670Y018257D01*
X000571Y018159D02*
X000341Y018159D01*
X000341Y018060D02*
X000473Y018060D01*
X000374Y017962D02*
X000341Y017962D01*
X000341Y019046D02*
X000878Y019046D01*
X000692Y019144D02*
X000341Y019144D01*
X000341Y019243D02*
X000593Y019243D01*
X000515Y019341D02*
X000341Y019341D01*
X000341Y019440D02*
X000474Y019440D01*
X000433Y019539D02*
X000341Y019539D01*
X000341Y019637D02*
X000421Y019637D01*
X000421Y019736D02*
X000341Y019736D01*
X000341Y019834D02*
X000421Y019834D01*
X000455Y019933D02*
X000341Y019933D01*
X000341Y020031D02*
X000496Y020031D01*
X000547Y020130D02*
X000341Y020130D01*
X000341Y020228D02*
X000646Y020228D01*
X000766Y020327D02*
X000341Y020327D01*
X000341Y020425D02*
X019521Y020425D01*
X019521Y020327D02*
X018996Y020327D01*
X019116Y020228D02*
X019521Y020228D01*
X019521Y020130D02*
X019215Y020130D01*
X019266Y020031D02*
X019521Y020031D01*
X019521Y019933D02*
X019307Y019933D01*
X019341Y019834D02*
X019521Y019834D01*
X019521Y019736D02*
X019341Y019736D01*
X019341Y019637D02*
X019521Y019637D01*
X019521Y019539D02*
X019329Y019539D01*
X019288Y019440D02*
X019521Y019440D01*
X019521Y019341D02*
X019247Y019341D01*
X019169Y019243D02*
X019521Y019243D01*
X019521Y019144D02*
X019070Y019144D01*
X018884Y019046D02*
X019521Y019046D01*
X019521Y020524D02*
X000341Y020524D01*
X002674Y019243D02*
X002859Y019243D01*
X003403Y019243D02*
X003651Y019243D01*
X003596Y019341D02*
X003520Y019341D01*
X003566Y020031D02*
X003596Y020031D01*
X003604Y020130D02*
X003467Y020130D01*
X003276Y020228D02*
X003703Y020228D01*
X004559Y020228D02*
X005203Y020228D01*
X005104Y020130D02*
X004658Y020130D01*
X004666Y020031D02*
X005096Y020031D01*
X005096Y019933D02*
X004666Y019933D01*
X004666Y019834D02*
X005096Y019834D01*
X005096Y019736D02*
X004666Y019736D01*
X004666Y019637D02*
X005096Y019637D01*
X005096Y019539D02*
X004666Y019539D01*
X004666Y019440D02*
X005096Y019440D01*
X005096Y019341D02*
X004666Y019341D01*
X004611Y019243D02*
X005151Y019243D01*
X006111Y019243D02*
X006359Y019243D01*
X006242Y019341D02*
X006166Y019341D01*
X006166Y020031D02*
X006196Y020031D01*
X006158Y020130D02*
X006295Y020130D01*
X006486Y020228D02*
X006059Y020228D01*
X013351Y018652D02*
X013411Y018652D01*
X013411Y018553D02*
X013351Y018553D01*
X013351Y018455D02*
X013411Y018455D01*
X013411Y018356D02*
X013351Y018356D01*
X013351Y018257D02*
X013411Y018257D01*
X013411Y018159D02*
X013351Y018159D01*
X013351Y018060D02*
X013411Y018060D01*
X013411Y017962D02*
X013351Y017962D01*
X013351Y017863D02*
X013411Y017863D01*
X013411Y017765D02*
X013351Y017765D01*
X013517Y017765D02*
X016333Y017765D01*
X016235Y017863D02*
X013692Y017863D01*
X013776Y017962D02*
X016165Y017962D01*
X016124Y018060D02*
X013821Y018060D01*
X013844Y018159D02*
X016106Y018159D01*
X016106Y018257D02*
X013844Y018257D01*
X013822Y018356D02*
X016124Y018356D01*
X016164Y018455D02*
X013778Y018455D01*
X013695Y018553D02*
X016232Y018553D01*
X016331Y018652D02*
X013525Y018652D01*
X013664Y018750D02*
X016348Y018750D01*
X016249Y018849D02*
X013763Y018849D01*
X013861Y018947D02*
X016151Y018947D01*
X016106Y019046D02*
X013906Y019046D01*
X013906Y019144D02*
X016106Y019144D01*
X016106Y019243D02*
X013906Y019243D01*
X013906Y019341D02*
X016106Y019341D01*
X016119Y019440D02*
X013893Y019440D01*
X013794Y019539D02*
X016218Y019539D01*
X016316Y019637D02*
X013696Y019637D01*
X006732Y010670D02*
X006131Y010670D01*
X006032Y010571D02*
X006831Y010571D01*
X006930Y010473D02*
X005887Y010473D01*
X005375Y010473D02*
X004491Y010473D01*
X004491Y010571D02*
X005230Y010571D01*
X005131Y010670D02*
X004491Y010670D01*
X004491Y010768D02*
X005088Y010768D01*
X005047Y010867D02*
X004491Y010867D01*
X004491Y010965D02*
X005037Y010965D01*
X005037Y011064D02*
X004494Y011064D01*
X004593Y011162D02*
X005052Y011162D01*
X005092Y011261D02*
X004692Y011261D01*
X004166Y011754D02*
X002614Y011754D01*
X002712Y011852D02*
X004265Y011852D01*
X004363Y011951D02*
X002811Y011951D01*
X002909Y012049D02*
X004511Y012049D01*
X004068Y011655D02*
X002515Y011655D01*
X002416Y011556D02*
X003969Y011556D01*
X003927Y011515D02*
X003927Y011515D01*
X003870Y011458D02*
X002318Y011458D01*
X002219Y011359D02*
X003804Y011359D01*
X003771Y011261D02*
X002170Y011261D01*
X002210Y011162D02*
X003771Y011162D01*
X003771Y011064D02*
X002225Y011064D01*
X002225Y010965D02*
X003771Y010965D01*
X003771Y010867D02*
X002215Y010867D01*
X002174Y010768D02*
X003771Y010768D01*
X003771Y010670D02*
X002131Y010670D01*
X002032Y010571D02*
X003771Y010571D01*
X003771Y010473D02*
X001887Y010473D01*
X001375Y010473D02*
X000991Y010473D01*
X000991Y010571D02*
X001230Y010571D01*
X001131Y010670D02*
X000991Y010670D01*
X000991Y010768D02*
X001088Y010768D01*
X001047Y010867D02*
X000991Y010867D01*
X000991Y010965D02*
X001037Y010965D01*
X001037Y011064D02*
X000991Y011064D01*
X000991Y011162D02*
X001052Y011162D01*
X001092Y011261D02*
X000991Y011261D01*
X000991Y011359D02*
X001141Y011359D01*
X001240Y011458D02*
X000991Y011458D01*
X000991Y011556D02*
X001400Y011556D01*
X001638Y011655D02*
X000991Y011655D01*
X000991Y011754D02*
X001737Y011754D01*
X001835Y011852D02*
X000991Y011852D01*
X000991Y011951D02*
X001934Y011951D01*
X002032Y012049D02*
X000991Y012049D01*
X000991Y012148D02*
X002131Y012148D01*
X002229Y012246D02*
X000991Y012246D01*
X000991Y010374D02*
X003771Y010374D01*
X003771Y010275D02*
X000991Y010275D01*
X000991Y010177D02*
X003771Y010177D01*
X003771Y010078D02*
X000991Y010078D01*
X000991Y009980D02*
X003771Y009980D01*
X003771Y009881D02*
X000991Y009881D01*
X000991Y009783D02*
X003771Y009783D01*
X004491Y009783D02*
X007619Y009783D01*
X007521Y009881D02*
X004491Y009881D01*
X004491Y009980D02*
X007422Y009980D01*
X007324Y010078D02*
X004491Y010078D01*
X004491Y010177D02*
X007225Y010177D01*
X007127Y010275D02*
X004491Y010275D01*
X004491Y010374D02*
X007028Y010374D01*
D22*
X004631Y011709D02*
X004131Y011209D01*
X004131Y007009D01*
X002631Y005509D01*
X002431Y004709D02*
X002631Y004509D01*
X002431Y004709D02*
X001131Y004709D01*
X000631Y005209D01*
X000631Y017709D01*
X002631Y019709D01*
X003131Y019709D01*
X003131Y017709D02*
X009331Y017709D01*
X009631Y018009D01*
X012181Y015459D01*
X013131Y015459D01*
X009631Y014709D02*
X016631Y014709D01*
X017131Y015209D01*
X017131Y015459D01*
X013131Y011209D02*
X013131Y010709D01*
X013131Y011209D02*
X012631Y011709D01*
X009631Y011709D01*
X004631Y011709D01*
X002631Y016709D02*
X002631Y017209D01*
X003131Y017709D01*
X006631Y019709D02*
X008631Y019709D01*
X009331Y019009D01*
X009631Y019009D01*
M02*
