G75*
G70*
%OFA0B0*%
%FSLAX24Y24*%
%IPPOS*%
%LPD*%
%AMOC8*
5,1,8,0,0,1.08239X$1,22.5*
%
%ADD10C,0.0000*%
%ADD11C,0.0520*%
%ADD12OC8,0.0630*%
%ADD13C,0.0630*%
%ADD14OC8,0.0520*%
%ADD15C,0.0768*%
%ADD16C,0.0860*%
%ADD17R,0.0650X0.0650*%
%ADD18C,0.0650*%
%ADD19C,0.0300*%
%ADD20C,0.0356*%
%ADD21C,0.0200*%
%ADD22C,0.0100*%
D10*
X000131Y001209D02*
X000131Y020809D01*
X019731Y020809D01*
X019731Y001209D01*
X000131Y001209D01*
X000631Y002209D02*
X000633Y002253D01*
X000639Y002297D01*
X000649Y002340D01*
X000662Y002382D01*
X000679Y002423D01*
X000700Y002462D01*
X000724Y002499D01*
X000751Y002534D01*
X000781Y002566D01*
X000814Y002596D01*
X000850Y002622D01*
X000887Y002646D01*
X000927Y002665D01*
X000968Y002682D01*
X001011Y002694D01*
X001054Y002703D01*
X001098Y002708D01*
X001142Y002709D01*
X001186Y002706D01*
X001230Y002699D01*
X001273Y002688D01*
X001315Y002674D01*
X001355Y002656D01*
X001394Y002634D01*
X001430Y002610D01*
X001464Y002582D01*
X001496Y002551D01*
X001525Y002517D01*
X001551Y002481D01*
X001573Y002443D01*
X001592Y002403D01*
X001607Y002361D01*
X001619Y002319D01*
X001627Y002275D01*
X001631Y002231D01*
X001631Y002187D01*
X001627Y002143D01*
X001619Y002099D01*
X001607Y002057D01*
X001592Y002015D01*
X001573Y001975D01*
X001551Y001937D01*
X001525Y001901D01*
X001496Y001867D01*
X001464Y001836D01*
X001430Y001808D01*
X001394Y001784D01*
X001355Y001762D01*
X001315Y001744D01*
X001273Y001730D01*
X001230Y001719D01*
X001186Y001712D01*
X001142Y001709D01*
X001098Y001710D01*
X001054Y001715D01*
X001011Y001724D01*
X000968Y001736D01*
X000927Y001753D01*
X000887Y001772D01*
X000850Y001796D01*
X000814Y001822D01*
X000781Y001852D01*
X000751Y001884D01*
X000724Y001919D01*
X000700Y001956D01*
X000679Y001995D01*
X000662Y002036D01*
X000649Y002078D01*
X000639Y002121D01*
X000633Y002165D01*
X000631Y002209D01*
X007427Y001725D02*
X007429Y001755D01*
X007435Y001785D01*
X007444Y001814D01*
X007457Y001841D01*
X007474Y001866D01*
X007493Y001889D01*
X007516Y001910D01*
X007541Y001927D01*
X007567Y001941D01*
X007596Y001951D01*
X007625Y001958D01*
X007655Y001961D01*
X007686Y001960D01*
X007716Y001955D01*
X007745Y001946D01*
X007772Y001934D01*
X007798Y001919D01*
X007822Y001900D01*
X007843Y001878D01*
X007861Y001854D01*
X007876Y001827D01*
X007887Y001799D01*
X007895Y001770D01*
X007899Y001740D01*
X007899Y001710D01*
X007895Y001680D01*
X007887Y001651D01*
X007876Y001623D01*
X007861Y001596D01*
X007843Y001572D01*
X007822Y001550D01*
X007798Y001531D01*
X007772Y001516D01*
X007745Y001504D01*
X007716Y001495D01*
X007686Y001490D01*
X007655Y001489D01*
X007625Y001492D01*
X007596Y001499D01*
X007567Y001509D01*
X007541Y001523D01*
X007516Y001540D01*
X007493Y001561D01*
X007474Y001584D01*
X007457Y001609D01*
X007444Y001636D01*
X007435Y001665D01*
X007429Y001695D01*
X007427Y001725D01*
X007427Y002709D02*
X007429Y002739D01*
X007435Y002769D01*
X007444Y002798D01*
X007457Y002825D01*
X007474Y002850D01*
X007493Y002873D01*
X007516Y002894D01*
X007541Y002911D01*
X007567Y002925D01*
X007596Y002935D01*
X007625Y002942D01*
X007655Y002945D01*
X007686Y002944D01*
X007716Y002939D01*
X007745Y002930D01*
X007772Y002918D01*
X007798Y002903D01*
X007822Y002884D01*
X007843Y002862D01*
X007861Y002838D01*
X007876Y002811D01*
X007887Y002783D01*
X007895Y002754D01*
X007899Y002724D01*
X007899Y002694D01*
X007895Y002664D01*
X007887Y002635D01*
X007876Y002607D01*
X007861Y002580D01*
X007843Y002556D01*
X007822Y002534D01*
X007798Y002515D01*
X007772Y002500D01*
X007745Y002488D01*
X007716Y002479D01*
X007686Y002474D01*
X007655Y002473D01*
X007625Y002476D01*
X007596Y002483D01*
X007567Y002493D01*
X007541Y002507D01*
X007516Y002524D01*
X007493Y002545D01*
X007474Y002568D01*
X007457Y002593D01*
X007444Y002620D01*
X007435Y002649D01*
X007429Y002679D01*
X007427Y002709D01*
X009395Y004678D02*
X009397Y004708D01*
X009403Y004738D01*
X009412Y004767D01*
X009425Y004794D01*
X009442Y004819D01*
X009461Y004842D01*
X009484Y004863D01*
X009509Y004880D01*
X009535Y004894D01*
X009564Y004904D01*
X009593Y004911D01*
X009623Y004914D01*
X009654Y004913D01*
X009684Y004908D01*
X009713Y004899D01*
X009740Y004887D01*
X009766Y004872D01*
X009790Y004853D01*
X009811Y004831D01*
X009829Y004807D01*
X009844Y004780D01*
X009855Y004752D01*
X009863Y004723D01*
X009867Y004693D01*
X009867Y004663D01*
X009863Y004633D01*
X009855Y004604D01*
X009844Y004576D01*
X009829Y004549D01*
X009811Y004525D01*
X009790Y004503D01*
X009766Y004484D01*
X009740Y004469D01*
X009713Y004457D01*
X009684Y004448D01*
X009654Y004443D01*
X009623Y004442D01*
X009593Y004445D01*
X009564Y004452D01*
X009535Y004462D01*
X009509Y004476D01*
X009484Y004493D01*
X009461Y004514D01*
X009442Y004537D01*
X009425Y004562D01*
X009412Y004589D01*
X009403Y004618D01*
X009397Y004648D01*
X009395Y004678D01*
X011364Y002709D02*
X011366Y002739D01*
X011372Y002769D01*
X011381Y002798D01*
X011394Y002825D01*
X011411Y002850D01*
X011430Y002873D01*
X011453Y002894D01*
X011478Y002911D01*
X011504Y002925D01*
X011533Y002935D01*
X011562Y002942D01*
X011592Y002945D01*
X011623Y002944D01*
X011653Y002939D01*
X011682Y002930D01*
X011709Y002918D01*
X011735Y002903D01*
X011759Y002884D01*
X011780Y002862D01*
X011798Y002838D01*
X011813Y002811D01*
X011824Y002783D01*
X011832Y002754D01*
X011836Y002724D01*
X011836Y002694D01*
X011832Y002664D01*
X011824Y002635D01*
X011813Y002607D01*
X011798Y002580D01*
X011780Y002556D01*
X011759Y002534D01*
X011735Y002515D01*
X011709Y002500D01*
X011682Y002488D01*
X011653Y002479D01*
X011623Y002474D01*
X011592Y002473D01*
X011562Y002476D01*
X011533Y002483D01*
X011504Y002493D01*
X011478Y002507D01*
X011453Y002524D01*
X011430Y002545D01*
X011411Y002568D01*
X011394Y002593D01*
X011381Y002620D01*
X011372Y002649D01*
X011366Y002679D01*
X011364Y002709D01*
X011364Y001725D02*
X011366Y001755D01*
X011372Y001785D01*
X011381Y001814D01*
X011394Y001841D01*
X011411Y001866D01*
X011430Y001889D01*
X011453Y001910D01*
X011478Y001927D01*
X011504Y001941D01*
X011533Y001951D01*
X011562Y001958D01*
X011592Y001961D01*
X011623Y001960D01*
X011653Y001955D01*
X011682Y001946D01*
X011709Y001934D01*
X011735Y001919D01*
X011759Y001900D01*
X011780Y001878D01*
X011798Y001854D01*
X011813Y001827D01*
X011824Y001799D01*
X011832Y001770D01*
X011836Y001740D01*
X011836Y001710D01*
X011832Y001680D01*
X011824Y001651D01*
X011813Y001623D01*
X011798Y001596D01*
X011780Y001572D01*
X011759Y001550D01*
X011735Y001531D01*
X011709Y001516D01*
X011682Y001504D01*
X011653Y001495D01*
X011623Y001490D01*
X011592Y001489D01*
X011562Y001492D01*
X011533Y001499D01*
X011504Y001509D01*
X011478Y001523D01*
X011453Y001540D01*
X011430Y001561D01*
X011411Y001584D01*
X011394Y001609D01*
X011381Y001636D01*
X011372Y001665D01*
X011366Y001695D01*
X011364Y001725D01*
X018131Y002209D02*
X018133Y002253D01*
X018139Y002297D01*
X018149Y002340D01*
X018162Y002382D01*
X018179Y002423D01*
X018200Y002462D01*
X018224Y002499D01*
X018251Y002534D01*
X018281Y002566D01*
X018314Y002596D01*
X018350Y002622D01*
X018387Y002646D01*
X018427Y002665D01*
X018468Y002682D01*
X018511Y002694D01*
X018554Y002703D01*
X018598Y002708D01*
X018642Y002709D01*
X018686Y002706D01*
X018730Y002699D01*
X018773Y002688D01*
X018815Y002674D01*
X018855Y002656D01*
X018894Y002634D01*
X018930Y002610D01*
X018964Y002582D01*
X018996Y002551D01*
X019025Y002517D01*
X019051Y002481D01*
X019073Y002443D01*
X019092Y002403D01*
X019107Y002361D01*
X019119Y002319D01*
X019127Y002275D01*
X019131Y002231D01*
X019131Y002187D01*
X019127Y002143D01*
X019119Y002099D01*
X019107Y002057D01*
X019092Y002015D01*
X019073Y001975D01*
X019051Y001937D01*
X019025Y001901D01*
X018996Y001867D01*
X018964Y001836D01*
X018930Y001808D01*
X018894Y001784D01*
X018855Y001762D01*
X018815Y001744D01*
X018773Y001730D01*
X018730Y001719D01*
X018686Y001712D01*
X018642Y001709D01*
X018598Y001710D01*
X018554Y001715D01*
X018511Y001724D01*
X018468Y001736D01*
X018427Y001753D01*
X018387Y001772D01*
X018350Y001796D01*
X018314Y001822D01*
X018281Y001852D01*
X018251Y001884D01*
X018224Y001919D01*
X018200Y001956D01*
X018179Y001995D01*
X018162Y002036D01*
X018149Y002078D01*
X018139Y002121D01*
X018133Y002165D01*
X018131Y002209D01*
X018131Y019709D02*
X018133Y019753D01*
X018139Y019797D01*
X018149Y019840D01*
X018162Y019882D01*
X018179Y019923D01*
X018200Y019962D01*
X018224Y019999D01*
X018251Y020034D01*
X018281Y020066D01*
X018314Y020096D01*
X018350Y020122D01*
X018387Y020146D01*
X018427Y020165D01*
X018468Y020182D01*
X018511Y020194D01*
X018554Y020203D01*
X018598Y020208D01*
X018642Y020209D01*
X018686Y020206D01*
X018730Y020199D01*
X018773Y020188D01*
X018815Y020174D01*
X018855Y020156D01*
X018894Y020134D01*
X018930Y020110D01*
X018964Y020082D01*
X018996Y020051D01*
X019025Y020017D01*
X019051Y019981D01*
X019073Y019943D01*
X019092Y019903D01*
X019107Y019861D01*
X019119Y019819D01*
X019127Y019775D01*
X019131Y019731D01*
X019131Y019687D01*
X019127Y019643D01*
X019119Y019599D01*
X019107Y019557D01*
X019092Y019515D01*
X019073Y019475D01*
X019051Y019437D01*
X019025Y019401D01*
X018996Y019367D01*
X018964Y019336D01*
X018930Y019308D01*
X018894Y019284D01*
X018855Y019262D01*
X018815Y019244D01*
X018773Y019230D01*
X018730Y019219D01*
X018686Y019212D01*
X018642Y019209D01*
X018598Y019210D01*
X018554Y019215D01*
X018511Y019224D01*
X018468Y019236D01*
X018427Y019253D01*
X018387Y019272D01*
X018350Y019296D01*
X018314Y019322D01*
X018281Y019352D01*
X018251Y019384D01*
X018224Y019419D01*
X018200Y019456D01*
X018179Y019495D01*
X018162Y019536D01*
X018149Y019578D01*
X018139Y019621D01*
X018133Y019665D01*
X018131Y019709D01*
X000631Y019709D02*
X000633Y019753D01*
X000639Y019797D01*
X000649Y019840D01*
X000662Y019882D01*
X000679Y019923D01*
X000700Y019962D01*
X000724Y019999D01*
X000751Y020034D01*
X000781Y020066D01*
X000814Y020096D01*
X000850Y020122D01*
X000887Y020146D01*
X000927Y020165D01*
X000968Y020182D01*
X001011Y020194D01*
X001054Y020203D01*
X001098Y020208D01*
X001142Y020209D01*
X001186Y020206D01*
X001230Y020199D01*
X001273Y020188D01*
X001315Y020174D01*
X001355Y020156D01*
X001394Y020134D01*
X001430Y020110D01*
X001464Y020082D01*
X001496Y020051D01*
X001525Y020017D01*
X001551Y019981D01*
X001573Y019943D01*
X001592Y019903D01*
X001607Y019861D01*
X001619Y019819D01*
X001627Y019775D01*
X001631Y019731D01*
X001631Y019687D01*
X001627Y019643D01*
X001619Y019599D01*
X001607Y019557D01*
X001592Y019515D01*
X001573Y019475D01*
X001551Y019437D01*
X001525Y019401D01*
X001496Y019367D01*
X001464Y019336D01*
X001430Y019308D01*
X001394Y019284D01*
X001355Y019262D01*
X001315Y019244D01*
X001273Y019230D01*
X001230Y019219D01*
X001186Y019212D01*
X001142Y019209D01*
X001098Y019210D01*
X001054Y019215D01*
X001011Y019224D01*
X000968Y019236D01*
X000927Y019253D01*
X000887Y019272D01*
X000850Y019296D01*
X000814Y019322D01*
X000781Y019352D01*
X000751Y019384D01*
X000724Y019419D01*
X000700Y019456D01*
X000679Y019495D01*
X000662Y019536D01*
X000649Y019578D01*
X000639Y019621D01*
X000633Y019665D01*
X000631Y019709D01*
D11*
X012131Y013969D02*
X012131Y013449D01*
X013131Y013449D02*
X013131Y013969D01*
X014131Y013969D02*
X014131Y013449D01*
X015131Y013449D02*
X015131Y013969D01*
X016131Y013969D02*
X016131Y013449D01*
X017131Y013449D02*
X017131Y013969D01*
X018131Y013969D02*
X018131Y013449D01*
X019131Y013449D02*
X019131Y013969D01*
X019131Y010969D02*
X019131Y010449D01*
X018131Y010449D02*
X018131Y010969D01*
X017131Y010969D02*
X017131Y010449D01*
X016131Y010449D02*
X016131Y010969D01*
X015131Y010969D02*
X015131Y010449D01*
X014131Y010449D02*
X014131Y010969D01*
X013131Y010969D02*
X013131Y010449D01*
X012131Y010449D02*
X012131Y010969D01*
D12*
X013131Y007209D03*
X014631Y002809D03*
X017631Y007209D03*
X009631Y019009D03*
X013381Y019209D03*
X016631Y019209D03*
X002631Y016709D03*
X002631Y004509D03*
D13*
X002631Y005509D03*
X002631Y015709D03*
X009631Y018009D03*
X013381Y018209D03*
X016631Y018209D03*
X017631Y008209D03*
X014631Y003809D03*
X013131Y008209D03*
D14*
X010631Y009209D03*
X008631Y009209D03*
X008631Y013209D03*
X010631Y013209D03*
X013131Y015459D03*
X015131Y015459D03*
X017131Y015459D03*
X019131Y015459D03*
D15*
X005631Y013009D03*
X005631Y011009D03*
X005631Y009009D03*
X001631Y009009D03*
X001631Y011009D03*
X001631Y013009D03*
D16*
X007663Y004678D03*
X008647Y004678D03*
X010615Y004678D03*
X011600Y004678D03*
X009631Y002709D03*
D17*
X018631Y004209D03*
X005631Y019709D03*
X004131Y019709D03*
D18*
X003131Y019709D03*
X006631Y019709D03*
X018631Y005209D03*
D19*
X013631Y005209D01*
X011631Y007209D01*
X011631Y009709D01*
X010631Y010709D01*
X009631Y010709D01*
X006631Y013709D01*
X006631Y015209D01*
X007131Y015709D01*
X012131Y015709D01*
X012131Y016959D01*
X013381Y018209D01*
X012131Y018709D02*
X010131Y016709D01*
X005631Y016709D01*
X004631Y015709D01*
X002631Y015709D01*
X009631Y014709D02*
X009631Y011709D01*
X012131Y013709D02*
X012131Y015709D01*
X013131Y015459D02*
X013131Y013709D01*
X014131Y013709D02*
X014131Y016709D01*
X014631Y017209D01*
X014631Y019709D01*
X014131Y020209D01*
X012631Y020209D01*
X012131Y019709D01*
X012131Y018709D01*
X016131Y017709D02*
X016131Y015209D01*
X017131Y014209D01*
X017131Y013709D01*
X014131Y010709D02*
X014131Y008709D01*
X013631Y008209D01*
X013131Y008209D01*
X013131Y007209D02*
X012631Y007209D01*
X012131Y007709D01*
X012131Y008709D01*
X013131Y009709D01*
X013131Y010709D01*
X016131Y017709D02*
X016631Y018209D01*
D20*
X009631Y014709D03*
X009631Y011709D03*
X015631Y007209D03*
D21*
X015631Y007709D01*
X017131Y009209D01*
X017131Y010709D01*
X011600Y006241D02*
X009631Y008209D01*
X009631Y009009D01*
X005631Y013009D01*
X003131Y011509D02*
X001631Y013009D01*
X003131Y011509D02*
X003131Y008709D01*
X007163Y004678D01*
X007663Y004678D01*
X011600Y004678D02*
X011600Y006241D01*
D22*
X011897Y006334D02*
X011998Y006334D01*
X011909Y006303D02*
X011862Y006417D01*
X009941Y008338D01*
X009941Y008948D01*
X009941Y009071D01*
X009894Y009185D01*
X006214Y012865D01*
X006225Y012891D01*
X006225Y013128D01*
X006134Y013346D01*
X005967Y013513D01*
X005749Y013603D01*
X005513Y013603D01*
X005295Y013513D01*
X005128Y013346D01*
X005037Y013128D01*
X005037Y012891D01*
X005128Y012673D01*
X005295Y012506D01*
X005513Y012416D01*
X005749Y012416D01*
X005776Y012427D01*
X008523Y009679D01*
X008436Y009679D01*
X008161Y009404D01*
X008161Y009015D01*
X008436Y008739D01*
X008826Y008739D01*
X009101Y009015D01*
X009101Y009101D01*
X009321Y008881D01*
X009321Y008148D01*
X009368Y008034D01*
X009455Y007947D01*
X009455Y007947D01*
X011290Y006113D01*
X011290Y005242D01*
X011237Y005220D01*
X011107Y005091D01*
X010978Y005220D01*
X010743Y005318D01*
X010488Y005318D01*
X010253Y005220D01*
X010073Y005040D01*
X010018Y004909D01*
X010009Y004931D01*
X009884Y005056D01*
X009720Y005124D01*
X009542Y005124D01*
X009378Y005056D01*
X009253Y004931D01*
X009244Y004909D01*
X009189Y005040D01*
X009009Y005220D01*
X008774Y005318D01*
X008519Y005318D01*
X008284Y005220D01*
X008155Y005091D01*
X008025Y005220D01*
X007790Y005318D01*
X007535Y005318D01*
X007300Y005220D01*
X007179Y005100D01*
X003441Y008838D01*
X003441Y011448D01*
X003441Y011571D01*
X003394Y011685D01*
X002214Y012865D01*
X002225Y012891D01*
X002225Y013128D01*
X002134Y013346D01*
X001967Y013513D01*
X001749Y013603D01*
X001513Y013603D01*
X001295Y013513D01*
X001128Y013346D01*
X001037Y013128D01*
X001037Y012891D01*
X001128Y012673D01*
X001295Y012506D01*
X001513Y012416D01*
X001749Y012416D01*
X001776Y012427D01*
X002821Y011381D01*
X002821Y008648D01*
X002868Y008534D01*
X002955Y008447D01*
X006987Y004415D01*
X007098Y004369D01*
X007120Y004315D01*
X007300Y004135D01*
X007535Y004038D01*
X007790Y004038D01*
X008025Y004135D01*
X008155Y004265D01*
X008284Y004135D01*
X008519Y004038D01*
X008774Y004038D01*
X009009Y004135D01*
X009189Y004315D01*
X009244Y004447D01*
X009253Y004425D01*
X009378Y004300D01*
X009542Y004232D01*
X009720Y004232D01*
X009884Y004300D01*
X010009Y004425D01*
X010018Y004447D01*
X010073Y004315D01*
X010253Y004135D01*
X010488Y004038D01*
X010743Y004038D01*
X010978Y004135D01*
X011107Y004265D01*
X011237Y004135D01*
X011472Y004038D01*
X011727Y004038D01*
X011962Y004135D01*
X012142Y004315D01*
X012239Y004551D01*
X012239Y004805D01*
X012142Y005040D01*
X011962Y005220D01*
X011909Y005242D01*
X011909Y006179D01*
X011909Y006303D01*
X011909Y006235D02*
X012096Y006235D01*
X012195Y006137D02*
X011909Y006137D01*
X011909Y006038D02*
X012293Y006038D01*
X012392Y005940D02*
X011909Y005940D01*
X011909Y005841D02*
X012490Y005841D01*
X012589Y005742D02*
X011909Y005742D01*
X011909Y005644D02*
X012687Y005644D01*
X012786Y005545D02*
X011909Y005545D01*
X011909Y005447D02*
X012885Y005447D01*
X012983Y005348D02*
X011909Y005348D01*
X011909Y005250D02*
X013082Y005250D01*
X013180Y005151D02*
X012031Y005151D01*
X012130Y005053D02*
X013279Y005053D01*
X013377Y004954D02*
X012178Y004954D01*
X012219Y004856D02*
X013545Y004856D01*
X013559Y004849D02*
X013703Y004849D01*
X018234Y004849D01*
X018328Y004756D01*
X018501Y004684D01*
X018286Y004684D01*
X018248Y004674D01*
X018214Y004654D01*
X018186Y004627D01*
X018166Y004592D01*
X018156Y004554D01*
X018156Y004247D01*
X018593Y004247D01*
X018593Y004172D01*
X018156Y004172D01*
X018156Y003865D01*
X018166Y003827D01*
X018186Y003792D01*
X018214Y003764D01*
X018248Y003745D01*
X018286Y003734D01*
X018593Y003734D01*
X018593Y004172D01*
X018669Y004172D01*
X018669Y004247D01*
X019106Y004247D01*
X019106Y004554D01*
X019096Y004592D01*
X019076Y004627D01*
X019048Y004654D01*
X019014Y004674D01*
X018976Y004684D01*
X018761Y004684D01*
X018934Y004756D01*
X019085Y004906D01*
X019166Y005103D01*
X019166Y005316D01*
X019085Y005512D01*
X018934Y005663D01*
X018737Y005744D01*
X018525Y005744D01*
X018328Y005663D01*
X018234Y005569D01*
X013780Y005569D01*
X012458Y006891D01*
X012559Y006849D01*
X012703Y006849D01*
X012749Y006849D01*
X012914Y006684D01*
X013348Y006684D01*
X013656Y006992D01*
X013656Y007427D01*
X013351Y007732D01*
X013428Y007764D01*
X013513Y007849D01*
X013559Y007849D01*
X013703Y007849D01*
X013835Y007904D01*
X014335Y008404D01*
X014436Y008506D01*
X014491Y008638D01*
X014491Y010145D01*
X014529Y010183D01*
X014601Y010356D01*
X014601Y011063D01*
X014529Y011236D01*
X014397Y011368D01*
X014224Y011439D01*
X014038Y011439D01*
X013865Y011368D01*
X013733Y011236D01*
X013661Y011063D01*
X013661Y010356D01*
X013733Y010183D01*
X013771Y010145D01*
X013771Y008859D01*
X013498Y008585D01*
X013428Y008654D01*
X013235Y008734D01*
X013027Y008734D01*
X012834Y008654D01*
X012686Y008507D01*
X012606Y008314D01*
X012606Y008105D01*
X012686Y007912D01*
X012834Y007764D01*
X012911Y007732D01*
X012764Y007585D01*
X012491Y007859D01*
X012491Y008560D01*
X013335Y009404D01*
X013436Y009506D01*
X013491Y009638D01*
X013491Y010145D01*
X013529Y010183D01*
X013601Y010356D01*
X013601Y011063D01*
X013529Y011236D01*
X013397Y011368D01*
X013224Y011439D01*
X013038Y011439D01*
X012865Y011368D01*
X012733Y011236D01*
X012661Y011063D01*
X012661Y010356D01*
X012733Y010183D01*
X012771Y010145D01*
X012771Y009859D01*
X011991Y009078D01*
X011991Y009638D01*
X011991Y009781D01*
X011936Y009913D01*
X010936Y010913D01*
X010835Y011015D01*
X010703Y011069D01*
X009780Y011069D01*
X009510Y011339D01*
X009554Y011321D01*
X009708Y011321D01*
X009851Y011380D01*
X009960Y011490D01*
X010019Y011632D01*
X010019Y011787D01*
X009991Y011854D01*
X009991Y014564D01*
X010019Y014632D01*
X010019Y014787D01*
X009960Y014929D01*
X009851Y015038D01*
X009708Y015098D01*
X009554Y015098D01*
X009411Y015038D01*
X009302Y014929D01*
X009243Y014787D01*
X009243Y014632D01*
X009271Y014564D01*
X009271Y011854D01*
X009243Y011787D01*
X009243Y011632D01*
X009261Y011588D01*
X006991Y013859D01*
X006991Y015060D01*
X007280Y015349D01*
X011771Y015349D01*
X011771Y014274D01*
X011733Y014236D01*
X011661Y014063D01*
X011661Y013356D01*
X011733Y013183D01*
X011865Y013051D01*
X012038Y012979D01*
X012224Y012979D01*
X012397Y013051D01*
X012529Y013183D01*
X012601Y013356D01*
X012601Y014063D01*
X012529Y014236D01*
X012491Y014274D01*
X012491Y015638D01*
X012491Y015781D01*
X012491Y016810D01*
X013365Y017684D01*
X013485Y017684D01*
X013678Y017764D01*
X013826Y017912D01*
X013906Y018105D01*
X013906Y018314D01*
X013826Y018507D01*
X013678Y018654D01*
X013485Y018734D01*
X013277Y018734D01*
X013084Y018654D01*
X012936Y018507D01*
X012856Y018314D01*
X012856Y018194D01*
X011826Y017163D01*
X011771Y017031D01*
X011771Y016888D01*
X011771Y016069D01*
X007059Y016069D01*
X006927Y016015D01*
X006826Y015913D01*
X006326Y015413D01*
X006271Y015281D01*
X006271Y015138D01*
X006271Y013638D01*
X006326Y013506D01*
X006427Y013404D01*
X009427Y010404D01*
X009559Y010349D01*
X009703Y010349D01*
X010482Y010349D01*
X011271Y009560D01*
X011271Y007138D01*
X011326Y007006D01*
X011427Y006904D01*
X013427Y004904D01*
X013559Y004849D01*
X013706Y005644D02*
X018309Y005644D01*
X018520Y005742D02*
X013607Y005742D01*
X013509Y005841D02*
X019521Y005841D01*
X019521Y005742D02*
X018742Y005742D01*
X018953Y005644D02*
X019521Y005644D01*
X019521Y005545D02*
X019052Y005545D01*
X019112Y005447D02*
X019521Y005447D01*
X019521Y005348D02*
X019153Y005348D01*
X019166Y005250D02*
X019521Y005250D01*
X019521Y005151D02*
X019166Y005151D01*
X019145Y005053D02*
X019521Y005053D01*
X019521Y004954D02*
X019104Y004954D01*
X019034Y004856D02*
X019521Y004856D01*
X019521Y004757D02*
X018935Y004757D01*
X019041Y004658D02*
X019521Y004658D01*
X019521Y004560D02*
X019104Y004560D01*
X019106Y004461D02*
X019521Y004461D01*
X019521Y004363D02*
X019106Y004363D01*
X019106Y004264D02*
X019521Y004264D01*
X019521Y004166D02*
X019106Y004166D01*
X019106Y004172D02*
X018669Y004172D01*
X018669Y003734D01*
X018976Y003734D01*
X019014Y003745D01*
X019048Y003764D01*
X019076Y003792D01*
X019096Y003827D01*
X019106Y003865D01*
X019106Y004172D01*
X019106Y004067D02*
X019521Y004067D01*
X019521Y003969D02*
X019106Y003969D01*
X019106Y003870D02*
X019521Y003870D01*
X019521Y003772D02*
X019055Y003772D01*
X018669Y003772D02*
X018593Y003772D01*
X018593Y003870D02*
X018669Y003870D01*
X018669Y003969D02*
X018593Y003969D01*
X018593Y004067D02*
X018669Y004067D01*
X018669Y004166D02*
X018593Y004166D01*
X018156Y004166D02*
X015017Y004166D01*
X015076Y004107D02*
X014928Y004254D01*
X014735Y004334D01*
X014527Y004334D01*
X014334Y004254D01*
X014186Y004107D01*
X014106Y003914D01*
X014106Y003705D01*
X014186Y003512D01*
X014334Y003364D01*
X014527Y003284D01*
X014735Y003284D01*
X014928Y003364D01*
X015076Y003512D01*
X015156Y003705D01*
X015156Y003914D01*
X015076Y004107D01*
X015092Y004067D02*
X018156Y004067D01*
X018156Y003969D02*
X015133Y003969D01*
X015156Y003870D02*
X018156Y003870D01*
X018207Y003772D02*
X015156Y003772D01*
X015143Y003673D02*
X019521Y003673D01*
X019521Y003574D02*
X015102Y003574D01*
X015040Y003476D02*
X019521Y003476D01*
X019521Y003377D02*
X014941Y003377D01*
X014824Y003274D02*
X014661Y003274D01*
X014661Y002840D01*
X014601Y002840D01*
X014601Y003274D01*
X014438Y003274D01*
X014166Y003002D01*
X014166Y002839D01*
X014601Y002839D01*
X014601Y002779D01*
X014661Y002779D01*
X014661Y002344D01*
X014824Y002344D01*
X015096Y002617D01*
X015096Y002779D01*
X014661Y002779D01*
X014661Y002839D01*
X015096Y002839D01*
X015096Y003002D01*
X014824Y003274D01*
X014918Y003180D02*
X019521Y003180D01*
X019521Y003082D02*
X015016Y003082D01*
X015096Y002983D02*
X019521Y002983D01*
X019521Y002885D02*
X018856Y002885D01*
X018772Y002919D02*
X019033Y002811D01*
X019233Y002612D01*
X019341Y002351D01*
X019341Y002068D01*
X019233Y001807D01*
X019033Y001608D01*
X018772Y001499D01*
X018490Y001499D01*
X018229Y001608D01*
X018029Y001807D01*
X017921Y002068D01*
X017921Y002351D01*
X018029Y002612D01*
X018229Y002811D01*
X018490Y002919D01*
X018772Y002919D01*
X019058Y002786D02*
X019521Y002786D01*
X019521Y002688D02*
X019157Y002688D01*
X019242Y002589D02*
X019521Y002589D01*
X019521Y002491D02*
X019283Y002491D01*
X019324Y002392D02*
X019521Y002392D01*
X019521Y002293D02*
X019341Y002293D01*
X019341Y002195D02*
X019521Y002195D01*
X019521Y002096D02*
X019341Y002096D01*
X019312Y001998D02*
X019521Y001998D01*
X019521Y001899D02*
X019271Y001899D01*
X019226Y001801D02*
X019521Y001801D01*
X019521Y001702D02*
X019128Y001702D01*
X019024Y001604D02*
X019521Y001604D01*
X019521Y001505D02*
X018786Y001505D01*
X018476Y001505D02*
X011991Y001505D01*
X011978Y001472D02*
X012046Y001636D01*
X012046Y001814D01*
X011978Y001978D01*
X011852Y002103D01*
X011688Y002171D01*
X011511Y002171D01*
X011347Y002103D01*
X011221Y001978D01*
X011153Y001814D01*
X011153Y001636D01*
X011221Y001472D01*
X011274Y001419D01*
X007988Y001419D01*
X008041Y001472D01*
X008109Y001636D01*
X008109Y001814D01*
X008041Y001978D01*
X007915Y002103D01*
X007751Y002171D01*
X007574Y002171D01*
X007410Y002103D01*
X007284Y001978D01*
X007216Y001814D01*
X007216Y001636D01*
X007284Y001472D01*
X007337Y001419D01*
X000341Y001419D01*
X000341Y020599D01*
X019521Y020599D01*
X019521Y015649D01*
X019301Y015869D01*
X019161Y015869D01*
X019161Y015490D01*
X019101Y015490D01*
X019101Y015869D01*
X018961Y015869D01*
X018721Y015629D01*
X018721Y015489D01*
X019101Y015489D01*
X019101Y015429D01*
X019161Y015429D01*
X019161Y015049D01*
X019301Y015049D01*
X019521Y015270D01*
X019521Y014096D01*
X019511Y014127D01*
X019482Y014184D01*
X019444Y014237D01*
X019398Y014282D01*
X019346Y014320D01*
X019288Y014349D01*
X019227Y014369D01*
X019163Y014379D01*
X019161Y014379D01*
X019161Y013740D01*
X019101Y013740D01*
X019101Y014379D01*
X019099Y014379D01*
X019035Y014369D01*
X018974Y014349D01*
X018916Y014320D01*
X018864Y014282D01*
X018818Y014237D01*
X018780Y014184D01*
X018751Y014127D01*
X018731Y014065D01*
X018721Y014002D01*
X018721Y013739D01*
X019101Y013739D01*
X019101Y013679D01*
X019161Y013679D01*
X019161Y013039D01*
X019163Y013039D01*
X019227Y013050D01*
X019288Y013069D01*
X019346Y013099D01*
X019398Y013137D01*
X019444Y013182D01*
X019482Y013235D01*
X019511Y013292D01*
X019521Y013323D01*
X019521Y011244D01*
X019397Y011368D01*
X019224Y011439D01*
X019038Y011439D01*
X018865Y011368D01*
X018733Y011236D01*
X018661Y011063D01*
X018661Y010356D01*
X018733Y010183D01*
X018865Y010051D01*
X019038Y009979D01*
X019224Y009979D01*
X019397Y010051D01*
X019521Y010175D01*
X019521Y001419D01*
X011925Y001419D01*
X011978Y001472D01*
X012032Y001604D02*
X018238Y001604D01*
X018134Y001702D02*
X012046Y001702D01*
X012046Y001801D02*
X018036Y001801D01*
X017991Y001899D02*
X012010Y001899D01*
X011958Y001998D02*
X017950Y001998D01*
X017921Y002096D02*
X011859Y002096D01*
X011761Y002293D02*
X017921Y002293D01*
X017921Y002195D02*
X009899Y002195D01*
X009935Y002213D02*
X009854Y002172D01*
X009767Y002144D01*
X009681Y002130D01*
X009681Y002659D01*
X009581Y002659D01*
X009581Y002130D01*
X009495Y002144D01*
X009408Y002172D01*
X009327Y002213D01*
X009253Y002267D01*
X009189Y002332D01*
X009135Y002405D01*
X009094Y002487D01*
X009065Y002574D01*
X009052Y002659D01*
X009581Y002659D01*
X009581Y002759D01*
X009052Y002759D01*
X009065Y002845D01*
X009094Y002932D01*
X009135Y003013D01*
X009189Y003087D01*
X009253Y003152D01*
X009327Y003205D01*
X009408Y003247D01*
X009495Y003275D01*
X009581Y003289D01*
X009581Y002760D01*
X009681Y002760D01*
X009681Y003289D01*
X009767Y003275D01*
X009854Y003247D01*
X009935Y003205D01*
X010009Y003152D01*
X010073Y003087D01*
X010127Y003013D01*
X010169Y002932D01*
X010197Y002845D01*
X010210Y002759D01*
X009681Y002759D01*
X009681Y002659D01*
X010210Y002659D01*
X010197Y002574D01*
X010169Y002487D01*
X010127Y002405D01*
X010073Y002332D01*
X010009Y002267D01*
X009935Y002213D01*
X010035Y002293D02*
X011438Y002293D01*
X011511Y002263D02*
X011347Y002331D01*
X011221Y002457D01*
X011153Y002621D01*
X011153Y002798D01*
X011221Y002962D01*
X011347Y003088D01*
X011511Y003156D01*
X011688Y003156D01*
X011852Y003088D01*
X011978Y002962D01*
X012046Y002798D01*
X012046Y002621D01*
X011978Y002457D01*
X011852Y002331D01*
X011688Y002263D01*
X011511Y002263D01*
X011340Y002096D02*
X007922Y002096D01*
X008021Y001998D02*
X011241Y001998D01*
X011189Y001899D02*
X008073Y001899D01*
X008109Y001801D02*
X011153Y001801D01*
X011153Y001702D02*
X008109Y001702D01*
X008095Y001604D02*
X011167Y001604D01*
X011208Y001505D02*
X008054Y001505D01*
X007751Y002263D02*
X007574Y002263D01*
X007410Y002331D01*
X007284Y002457D01*
X007216Y002621D01*
X007216Y002798D01*
X007284Y002962D01*
X007410Y003088D01*
X007574Y003156D01*
X007751Y003156D01*
X007915Y003088D01*
X008041Y002962D01*
X008109Y002798D01*
X008109Y002621D01*
X008041Y002457D01*
X007915Y002331D01*
X007751Y002263D01*
X007824Y002293D02*
X009227Y002293D01*
X009145Y002392D02*
X007976Y002392D01*
X008055Y002491D02*
X009092Y002491D01*
X009063Y002589D02*
X008096Y002589D01*
X008109Y002688D02*
X009581Y002688D01*
X009581Y002786D02*
X009681Y002786D01*
X009681Y002688D02*
X011153Y002688D01*
X011153Y002786D02*
X010206Y002786D01*
X010184Y002885D02*
X011189Y002885D01*
X011242Y002983D02*
X010142Y002983D01*
X010077Y003082D02*
X011341Y003082D01*
X011858Y003082D02*
X014246Y003082D01*
X014166Y002983D02*
X011957Y002983D01*
X012010Y002885D02*
X014166Y002885D01*
X014166Y002779D02*
X014166Y002617D01*
X014438Y002344D01*
X014601Y002344D01*
X014601Y002779D01*
X014166Y002779D01*
X014166Y002688D02*
X012046Y002688D01*
X012046Y002786D02*
X014601Y002786D01*
X014661Y002786D02*
X018204Y002786D01*
X018105Y002688D02*
X015096Y002688D01*
X015068Y002589D02*
X018020Y002589D01*
X017979Y002491D02*
X014970Y002491D01*
X014871Y002392D02*
X017938Y002392D01*
X018406Y002885D02*
X015096Y002885D01*
X014661Y002885D02*
X014601Y002885D01*
X014601Y002983D02*
X014661Y002983D01*
X014661Y003082D02*
X014601Y003082D01*
X014601Y003180D02*
X014661Y003180D01*
X014344Y003180D02*
X009970Y003180D01*
X009743Y003279D02*
X019521Y003279D01*
X018156Y004264D02*
X014905Y004264D01*
X014357Y004264D02*
X012091Y004264D01*
X012162Y004363D02*
X018156Y004363D01*
X018156Y004461D02*
X012202Y004461D01*
X012239Y004560D02*
X018158Y004560D01*
X018221Y004658D02*
X012239Y004658D01*
X012239Y004757D02*
X018327Y004757D01*
X019521Y005940D02*
X013410Y005940D01*
X013311Y006038D02*
X019521Y006038D01*
X019521Y006137D02*
X013213Y006137D01*
X013114Y006235D02*
X019521Y006235D01*
X019521Y006334D02*
X013016Y006334D01*
X012917Y006432D02*
X019521Y006432D01*
X019521Y006531D02*
X012819Y006531D01*
X012720Y006629D02*
X019521Y006629D01*
X019521Y006728D02*
X013392Y006728D01*
X013490Y006826D02*
X015541Y006826D01*
X015554Y006821D02*
X015708Y006821D01*
X015851Y006880D01*
X015960Y006990D01*
X016019Y007132D01*
X016019Y007287D01*
X015960Y007429D01*
X015941Y007448D01*
X015941Y007581D01*
X017394Y009034D01*
X017441Y009148D01*
X017441Y009271D01*
X017441Y010095D01*
X017529Y010183D01*
X017601Y010356D01*
X017601Y011063D01*
X017529Y011236D01*
X017397Y011368D01*
X017224Y011439D01*
X017038Y011439D01*
X016865Y011368D01*
X016733Y011236D01*
X016661Y011063D01*
X016661Y010356D01*
X016733Y010183D01*
X016821Y010095D01*
X016821Y009338D01*
X015368Y007885D01*
X015321Y007771D01*
X015321Y007648D01*
X015321Y007448D01*
X015302Y007429D01*
X015243Y007287D01*
X015243Y007132D01*
X015302Y006990D01*
X015411Y006880D01*
X015554Y006821D01*
X015720Y006826D02*
X017356Y006826D01*
X017438Y006744D02*
X017166Y007017D01*
X017166Y007179D01*
X017601Y007179D01*
X017661Y007179D01*
X017661Y006744D01*
X017824Y006744D01*
X018096Y007017D01*
X018096Y007179D01*
X017661Y007179D01*
X017661Y007239D01*
X018096Y007239D01*
X018096Y007402D01*
X017824Y007674D01*
X017661Y007674D01*
X017661Y007240D01*
X017601Y007240D01*
X017601Y007674D01*
X017438Y007674D01*
X017166Y007402D01*
X017166Y007239D01*
X017601Y007239D01*
X017601Y007179D01*
X017601Y006744D01*
X017438Y006744D01*
X017601Y006826D02*
X017661Y006826D01*
X017661Y006925D02*
X017601Y006925D01*
X017601Y007024D02*
X017661Y007024D01*
X017661Y007122D02*
X017601Y007122D01*
X017601Y007221D02*
X016019Y007221D01*
X016006Y007319D02*
X017166Y007319D01*
X017182Y007418D02*
X015965Y007418D01*
X015941Y007516D02*
X017280Y007516D01*
X017379Y007615D02*
X015975Y007615D01*
X016073Y007713D02*
X017457Y007713D01*
X017527Y007684D02*
X017735Y007684D01*
X017928Y007764D01*
X018076Y007912D01*
X018156Y008105D01*
X018156Y008314D01*
X018076Y008507D01*
X017928Y008654D01*
X017735Y008734D01*
X017527Y008734D01*
X017334Y008654D01*
X017186Y008507D01*
X017106Y008314D01*
X017106Y008105D01*
X017186Y007912D01*
X017334Y007764D01*
X017527Y007684D01*
X017601Y007615D02*
X017661Y007615D01*
X017661Y007516D02*
X017601Y007516D01*
X017601Y007418D02*
X017661Y007418D01*
X017661Y007319D02*
X017601Y007319D01*
X017661Y007221D02*
X019521Y007221D01*
X019521Y007319D02*
X018096Y007319D01*
X018080Y007418D02*
X019521Y007418D01*
X019521Y007516D02*
X017982Y007516D01*
X017883Y007615D02*
X019521Y007615D01*
X019521Y007713D02*
X017805Y007713D01*
X017976Y007812D02*
X019521Y007812D01*
X019521Y007910D02*
X018074Y007910D01*
X018116Y008009D02*
X019521Y008009D01*
X019521Y008107D02*
X018156Y008107D01*
X018156Y008206D02*
X019521Y008206D01*
X019521Y008305D02*
X018156Y008305D01*
X018119Y008403D02*
X019521Y008403D01*
X019521Y008502D02*
X018078Y008502D01*
X017983Y008600D02*
X019521Y008600D01*
X019521Y008699D02*
X017822Y008699D01*
X017440Y008699D02*
X017059Y008699D01*
X017157Y008797D02*
X019521Y008797D01*
X019521Y008896D02*
X017256Y008896D01*
X017354Y008994D02*
X019521Y008994D01*
X019521Y009093D02*
X017418Y009093D01*
X017441Y009191D02*
X019521Y009191D01*
X019521Y009290D02*
X017441Y009290D01*
X017441Y009389D02*
X019521Y009389D01*
X019521Y009487D02*
X017441Y009487D01*
X017441Y009586D02*
X019521Y009586D01*
X019521Y009684D02*
X017441Y009684D01*
X017441Y009783D02*
X019521Y009783D01*
X019521Y009881D02*
X017441Y009881D01*
X017441Y009980D02*
X018037Y009980D01*
X018038Y009979D02*
X018224Y009979D01*
X018397Y010051D01*
X018529Y010183D01*
X018601Y010356D01*
X018601Y011063D01*
X018529Y011236D01*
X018397Y011368D01*
X018224Y011439D01*
X018038Y011439D01*
X017865Y011368D01*
X017733Y011236D01*
X017661Y011063D01*
X017661Y010356D01*
X017733Y010183D01*
X017865Y010051D01*
X018038Y009979D01*
X018225Y009980D02*
X019037Y009980D01*
X019225Y009980D02*
X019521Y009980D01*
X019521Y010078D02*
X019425Y010078D01*
X018837Y010078D02*
X018425Y010078D01*
X018523Y010177D02*
X018739Y010177D01*
X018694Y010275D02*
X018568Y010275D01*
X018601Y010374D02*
X018661Y010374D01*
X018661Y010473D02*
X018601Y010473D01*
X018601Y010571D02*
X018661Y010571D01*
X018661Y010670D02*
X018601Y010670D01*
X018601Y010768D02*
X018661Y010768D01*
X018661Y010867D02*
X018601Y010867D01*
X018601Y010965D02*
X018661Y010965D01*
X018661Y011064D02*
X018601Y011064D01*
X018560Y011162D02*
X018702Y011162D01*
X018758Y011261D02*
X018504Y011261D01*
X018406Y011359D02*
X018856Y011359D01*
X019406Y011359D02*
X019521Y011359D01*
X019521Y011261D02*
X019504Y011261D01*
X019521Y011458D02*
X009928Y011458D01*
X009988Y011556D02*
X019521Y011556D01*
X019521Y011655D02*
X010019Y011655D01*
X010019Y011754D02*
X019521Y011754D01*
X019521Y011852D02*
X009992Y011852D01*
X009991Y011951D02*
X019521Y011951D01*
X019521Y012049D02*
X009991Y012049D01*
X009991Y012148D02*
X019521Y012148D01*
X019521Y012246D02*
X009991Y012246D01*
X009991Y012345D02*
X019521Y012345D01*
X019521Y012443D02*
X009991Y012443D01*
X009991Y012542D02*
X019521Y012542D01*
X019521Y012640D02*
X009991Y012640D01*
X009991Y012739D02*
X019521Y012739D01*
X019521Y012838D02*
X010924Y012838D01*
X011022Y012936D02*
X019521Y012936D01*
X019521Y013035D02*
X018358Y013035D01*
X018397Y013051D02*
X018529Y013183D01*
X018601Y013356D01*
X018601Y014063D01*
X018529Y014236D01*
X018397Y014368D01*
X018224Y014439D01*
X018038Y014439D01*
X017865Y014368D01*
X017733Y014236D01*
X017661Y014063D01*
X017661Y013356D01*
X017733Y013183D01*
X017865Y013051D01*
X018038Y012979D01*
X018224Y012979D01*
X018397Y013051D01*
X018479Y013133D02*
X018869Y013133D01*
X018864Y013137D02*
X018916Y013099D01*
X018974Y013069D01*
X019035Y013050D01*
X019099Y013039D01*
X019101Y013039D01*
X019101Y013679D01*
X018721Y013679D01*
X018721Y013417D01*
X018731Y013353D01*
X018751Y013292D01*
X018780Y013235D01*
X018818Y013182D01*
X018864Y013137D01*
X018782Y013232D02*
X018550Y013232D01*
X018590Y013330D02*
X018739Y013330D01*
X018721Y013429D02*
X018601Y013429D01*
X018601Y013527D02*
X018721Y013527D01*
X018721Y013626D02*
X018601Y013626D01*
X018601Y013724D02*
X019101Y013724D01*
X019101Y013626D02*
X019161Y013626D01*
X019161Y013527D02*
X019101Y013527D01*
X019101Y013429D02*
X019161Y013429D01*
X019161Y013330D02*
X019101Y013330D01*
X019101Y013232D02*
X019161Y013232D01*
X019161Y013133D02*
X019101Y013133D01*
X019393Y013133D02*
X019521Y013133D01*
X019521Y013232D02*
X019480Y013232D01*
X019161Y013823D02*
X019101Y013823D01*
X019101Y013922D02*
X019161Y013922D01*
X019161Y014020D02*
X019101Y014020D01*
X019101Y014119D02*
X019161Y014119D01*
X019161Y014217D02*
X019101Y014217D01*
X019101Y014316D02*
X019161Y014316D01*
X019352Y014316D02*
X019521Y014316D01*
X019521Y014414D02*
X018285Y014414D01*
X018449Y014316D02*
X018910Y014316D01*
X018804Y014217D02*
X018537Y014217D01*
X018578Y014119D02*
X018748Y014119D01*
X018724Y014020D02*
X018601Y014020D01*
X018601Y013922D02*
X018721Y013922D01*
X018721Y013823D02*
X018601Y013823D01*
X017977Y014414D02*
X017435Y014414D01*
X017436Y014413D02*
X016491Y015359D01*
X016491Y017560D01*
X016615Y017684D01*
X016735Y017684D01*
X016928Y017764D01*
X017076Y017912D01*
X017156Y018105D01*
X017156Y018314D01*
X017076Y018507D01*
X016928Y018654D01*
X016735Y018734D01*
X016527Y018734D01*
X016334Y018654D01*
X016186Y018507D01*
X016106Y018314D01*
X016106Y018194D01*
X015826Y017913D01*
X015771Y017781D01*
X015771Y017638D01*
X015771Y015138D01*
X015826Y015006D01*
X014491Y015006D01*
X014491Y015104D02*
X014907Y015104D01*
X014961Y015049D02*
X014721Y015290D01*
X014721Y015429D01*
X015101Y015429D01*
X015161Y015429D01*
X015161Y015049D01*
X015301Y015049D01*
X015541Y015290D01*
X015541Y015429D01*
X015161Y015429D01*
X015161Y015489D01*
X015541Y015489D01*
X015541Y015629D01*
X015301Y015869D01*
X015161Y015869D01*
X015161Y015490D01*
X015101Y015490D01*
X015101Y015869D01*
X014961Y015869D01*
X014721Y015629D01*
X014721Y015489D01*
X015101Y015489D01*
X015101Y015429D01*
X015101Y015049D01*
X014961Y015049D01*
X015101Y015104D02*
X015161Y015104D01*
X015161Y015203D02*
X015101Y015203D01*
X015101Y015301D02*
X015161Y015301D01*
X015161Y015400D02*
X015101Y015400D01*
X015101Y015498D02*
X015161Y015498D01*
X015161Y015597D02*
X015101Y015597D01*
X015101Y015695D02*
X015161Y015695D01*
X015161Y015794D02*
X015101Y015794D01*
X014886Y015794D02*
X014491Y015794D01*
X014491Y015892D02*
X015771Y015892D01*
X015771Y015794D02*
X015376Y015794D01*
X015475Y015695D02*
X015771Y015695D01*
X015771Y015597D02*
X015541Y015597D01*
X015541Y015498D02*
X015771Y015498D01*
X015771Y015400D02*
X015541Y015400D01*
X015541Y015301D02*
X015771Y015301D01*
X015771Y015203D02*
X015454Y015203D01*
X015355Y015104D02*
X015785Y015104D01*
X015826Y015006D02*
X015927Y014904D01*
X016692Y014139D01*
X016661Y014063D01*
X016661Y013356D01*
X016733Y013183D01*
X016865Y013051D01*
X017038Y012979D01*
X017224Y012979D01*
X017397Y013051D01*
X017529Y013183D01*
X017601Y013356D01*
X017601Y014063D01*
X017529Y014236D01*
X017491Y014274D01*
X017491Y014281D01*
X017436Y014413D01*
X017477Y014316D02*
X017813Y014316D01*
X017725Y014217D02*
X017537Y014217D01*
X017578Y014119D02*
X017684Y014119D01*
X017661Y014020D02*
X017601Y014020D01*
X017601Y013922D02*
X017661Y013922D01*
X017661Y013823D02*
X017601Y013823D01*
X017601Y013724D02*
X017661Y013724D01*
X017661Y013626D02*
X017601Y013626D01*
X017601Y013527D02*
X017661Y013527D01*
X017661Y013429D02*
X017601Y013429D01*
X017590Y013330D02*
X017672Y013330D01*
X017712Y013232D02*
X017550Y013232D01*
X017479Y013133D02*
X017783Y013133D01*
X017904Y013035D02*
X017358Y013035D01*
X016904Y013035D02*
X014358Y013035D01*
X014397Y013051D02*
X014529Y013183D01*
X014601Y013356D01*
X014601Y014063D01*
X014529Y014236D01*
X014491Y014274D01*
X014491Y016560D01*
X014835Y016904D01*
X014936Y017006D01*
X014991Y017138D01*
X014991Y019638D01*
X014991Y019781D01*
X014936Y019913D01*
X014436Y020413D01*
X014335Y020515D01*
X014203Y020569D01*
X012703Y020569D01*
X012559Y020569D01*
X012427Y020515D01*
X011927Y020015D01*
X011826Y019913D01*
X011771Y019781D01*
X011771Y018859D01*
X009982Y017069D01*
X005703Y017069D01*
X005559Y017069D01*
X005427Y017015D01*
X004482Y016069D01*
X003013Y016069D01*
X002928Y016154D01*
X002851Y016187D01*
X003156Y016492D01*
X003156Y016927D01*
X002848Y017234D01*
X002414Y017234D01*
X002106Y016927D01*
X002106Y016492D01*
X002411Y016187D01*
X002334Y016154D01*
X002186Y016007D01*
X002106Y015814D01*
X002106Y015605D01*
X002186Y015412D01*
X002334Y015264D01*
X002527Y015184D01*
X002735Y015184D01*
X002928Y015264D01*
X003013Y015349D01*
X004703Y015349D01*
X004835Y015404D01*
X004936Y015506D01*
X005780Y016349D01*
X010203Y016349D01*
X010335Y016404D01*
X010436Y016506D01*
X012436Y018506D01*
X012491Y018638D01*
X012491Y018781D01*
X012491Y019560D01*
X012780Y019849D01*
X013982Y019849D01*
X014271Y019560D01*
X014271Y017359D01*
X013826Y016913D01*
X013771Y016781D01*
X013771Y016638D01*
X013771Y014274D01*
X013733Y014236D01*
X013661Y014063D01*
X013661Y013356D01*
X013733Y013183D01*
X013865Y013051D01*
X014038Y012979D01*
X014224Y012979D01*
X014397Y013051D01*
X014479Y013133D02*
X014869Y013133D01*
X014864Y013137D02*
X014916Y013099D01*
X014974Y013069D01*
X015035Y013050D01*
X015099Y013039D01*
X015101Y013039D01*
X015101Y013679D01*
X015161Y013679D01*
X015161Y013039D01*
X015163Y013039D01*
X015227Y013050D01*
X015288Y013069D01*
X015346Y013099D01*
X015398Y013137D01*
X015444Y013182D01*
X015482Y013235D01*
X015511Y013292D01*
X015531Y013353D01*
X015541Y013417D01*
X015541Y013679D01*
X015161Y013679D01*
X015161Y013739D01*
X015541Y013739D01*
X015541Y014002D01*
X015531Y014065D01*
X015511Y014127D01*
X015482Y014184D01*
X015444Y014237D01*
X015398Y014282D01*
X015346Y014320D01*
X015288Y014349D01*
X015227Y014369D01*
X015163Y014379D01*
X015161Y014379D01*
X015161Y013740D01*
X015101Y013740D01*
X015101Y014379D01*
X015099Y014379D01*
X015035Y014369D01*
X014974Y014349D01*
X014916Y014320D01*
X014864Y014282D01*
X014818Y014237D01*
X014780Y014184D01*
X014751Y014127D01*
X014731Y014065D01*
X014721Y014002D01*
X014721Y013739D01*
X015101Y013739D01*
X015101Y013679D01*
X014721Y013679D01*
X014721Y013417D01*
X014731Y013353D01*
X014751Y013292D01*
X014780Y013235D01*
X014818Y013182D01*
X014864Y013137D01*
X014782Y013232D02*
X014550Y013232D01*
X014590Y013330D02*
X014739Y013330D01*
X014721Y013429D02*
X014601Y013429D01*
X014601Y013527D02*
X014721Y013527D01*
X014721Y013626D02*
X014601Y013626D01*
X014601Y013724D02*
X015101Y013724D01*
X015161Y013724D02*
X016101Y013724D01*
X016101Y013739D02*
X016101Y013679D01*
X016161Y013679D01*
X016161Y013039D01*
X016163Y013039D01*
X016227Y013050D01*
X016288Y013069D01*
X016346Y013099D01*
X016398Y013137D01*
X016444Y013182D01*
X016482Y013235D01*
X016511Y013292D01*
X016531Y013353D01*
X016541Y013417D01*
X016541Y013679D01*
X016161Y013679D01*
X016161Y013739D01*
X016541Y013739D01*
X016541Y014002D01*
X016531Y014065D01*
X016511Y014127D01*
X016482Y014184D01*
X016444Y014237D01*
X016398Y014282D01*
X016346Y014320D01*
X016288Y014349D01*
X016227Y014369D01*
X016163Y014379D01*
X016161Y014379D01*
X016161Y013740D01*
X016101Y013740D01*
X016101Y014379D01*
X016099Y014379D01*
X016035Y014369D01*
X015974Y014349D01*
X015916Y014320D01*
X015864Y014282D01*
X015818Y014237D01*
X015780Y014184D01*
X015751Y014127D01*
X015731Y014065D01*
X015721Y014002D01*
X015721Y013739D01*
X016101Y013739D01*
X016101Y013679D02*
X015721Y013679D01*
X015721Y013417D01*
X015731Y013353D01*
X015751Y013292D01*
X015780Y013235D01*
X015818Y013182D01*
X015864Y013137D01*
X015916Y013099D01*
X015974Y013069D01*
X016035Y013050D01*
X016099Y013039D01*
X016101Y013039D01*
X016101Y013679D01*
X016101Y013626D02*
X016161Y013626D01*
X016161Y013724D02*
X016661Y013724D01*
X016661Y013626D02*
X016541Y013626D01*
X016541Y013527D02*
X016661Y013527D01*
X016661Y013429D02*
X016541Y013429D01*
X016523Y013330D02*
X016672Y013330D01*
X016712Y013232D02*
X016480Y013232D01*
X016393Y013133D02*
X016783Y013133D01*
X016161Y013133D02*
X016101Y013133D01*
X016101Y013232D02*
X016161Y013232D01*
X016161Y013330D02*
X016101Y013330D01*
X016101Y013429D02*
X016161Y013429D01*
X016161Y013527D02*
X016101Y013527D01*
X016101Y013823D02*
X016161Y013823D01*
X016161Y013922D02*
X016101Y013922D01*
X016101Y014020D02*
X016161Y014020D01*
X016161Y014119D02*
X016101Y014119D01*
X016101Y014217D02*
X016161Y014217D01*
X016161Y014316D02*
X016101Y014316D01*
X015910Y014316D02*
X015352Y014316D01*
X015458Y014217D02*
X015804Y014217D01*
X015748Y014119D02*
X015514Y014119D01*
X015538Y014020D02*
X015724Y014020D01*
X015721Y013922D02*
X015541Y013922D01*
X015541Y013823D02*
X015721Y013823D01*
X015721Y013626D02*
X015541Y013626D01*
X015541Y013527D02*
X015721Y013527D01*
X015721Y013429D02*
X015541Y013429D01*
X015523Y013330D02*
X015739Y013330D01*
X015782Y013232D02*
X015480Y013232D01*
X015393Y013133D02*
X015869Y013133D01*
X015161Y013133D02*
X015101Y013133D01*
X015101Y013232D02*
X015161Y013232D01*
X015161Y013330D02*
X015101Y013330D01*
X015101Y013429D02*
X015161Y013429D01*
X015161Y013527D02*
X015101Y013527D01*
X015101Y013626D02*
X015161Y013626D01*
X015161Y013823D02*
X015101Y013823D01*
X015101Y013922D02*
X015161Y013922D01*
X015161Y014020D02*
X015101Y014020D01*
X015101Y014119D02*
X015161Y014119D01*
X015161Y014217D02*
X015101Y014217D01*
X015101Y014316D02*
X015161Y014316D01*
X014910Y014316D02*
X014491Y014316D01*
X014491Y014414D02*
X016417Y014414D01*
X016352Y014316D02*
X016516Y014316D01*
X016458Y014217D02*
X016614Y014217D01*
X016684Y014119D02*
X016514Y014119D01*
X016538Y014020D02*
X016661Y014020D01*
X016661Y013922D02*
X016541Y013922D01*
X016541Y013823D02*
X016661Y013823D01*
X016319Y014513D02*
X014491Y014513D01*
X014491Y014611D02*
X016220Y014611D01*
X016121Y014710D02*
X014491Y014710D01*
X014491Y014808D02*
X016023Y014808D01*
X015924Y014907D02*
X014491Y014907D01*
X014491Y015203D02*
X014808Y015203D01*
X014721Y015301D02*
X014491Y015301D01*
X014491Y015400D02*
X014721Y015400D01*
X014721Y015498D02*
X014491Y015498D01*
X014491Y015597D02*
X014721Y015597D01*
X014787Y015695D02*
X014491Y015695D01*
X014491Y015991D02*
X015771Y015991D01*
X015771Y016089D02*
X014491Y016089D01*
X014491Y016188D02*
X015771Y016188D01*
X015771Y016287D02*
X014491Y016287D01*
X014491Y016385D02*
X015771Y016385D01*
X015771Y016484D02*
X014491Y016484D01*
X014513Y016582D02*
X015771Y016582D01*
X015771Y016681D02*
X014611Y016681D01*
X014710Y016779D02*
X015771Y016779D01*
X015771Y016878D02*
X014809Y016878D01*
X014907Y016976D02*
X015771Y016976D01*
X015771Y017075D02*
X014965Y017075D01*
X014991Y017173D02*
X015771Y017173D01*
X015771Y017272D02*
X014991Y017272D01*
X014991Y017371D02*
X015771Y017371D01*
X015771Y017469D02*
X014991Y017469D01*
X014991Y017568D02*
X015771Y017568D01*
X015771Y017666D02*
X014991Y017666D01*
X014991Y017765D02*
X015771Y017765D01*
X015805Y017863D02*
X014991Y017863D01*
X014991Y017962D02*
X015874Y017962D01*
X015973Y018060D02*
X014991Y018060D01*
X014991Y018159D02*
X016071Y018159D01*
X016106Y018257D02*
X014991Y018257D01*
X014991Y018356D02*
X016124Y018356D01*
X016164Y018455D02*
X014991Y018455D01*
X014991Y018553D02*
X016232Y018553D01*
X016331Y018652D02*
X014991Y018652D01*
X014991Y018750D02*
X016433Y018750D01*
X016438Y018744D02*
X016166Y019017D01*
X016166Y019179D01*
X016601Y019179D01*
X016661Y019179D01*
X016661Y018744D01*
X016824Y018744D01*
X017096Y019017D01*
X017096Y019179D01*
X016661Y019179D01*
X016661Y019239D01*
X017096Y019239D01*
X017096Y019402D01*
X016824Y019674D01*
X016661Y019674D01*
X016661Y019240D01*
X016601Y019240D01*
X016601Y019674D01*
X016438Y019674D01*
X016166Y019402D01*
X016166Y019239D01*
X016601Y019239D01*
X016601Y019179D01*
X016601Y018744D01*
X016438Y018744D01*
X016334Y018849D02*
X014991Y018849D01*
X014991Y018947D02*
X016236Y018947D01*
X016166Y019046D02*
X014991Y019046D01*
X014991Y019144D02*
X016166Y019144D01*
X016166Y019243D02*
X014991Y019243D01*
X014991Y019341D02*
X016166Y019341D01*
X016204Y019440D02*
X014991Y019440D01*
X014991Y019539D02*
X016303Y019539D01*
X016401Y019637D02*
X014991Y019637D01*
X014991Y019736D02*
X017921Y019736D01*
X017921Y019834D02*
X014969Y019834D01*
X014917Y019933D02*
X017955Y019933D01*
X017921Y019851D02*
X017921Y019568D01*
X018029Y019307D01*
X018229Y019108D01*
X018490Y018999D01*
X018772Y018999D01*
X019033Y019108D01*
X019233Y019307D01*
X019341Y019568D01*
X019341Y019851D01*
X019233Y020112D01*
X019033Y020311D01*
X018772Y020419D01*
X018490Y020419D01*
X018229Y020311D01*
X018029Y020112D01*
X017921Y019851D01*
X017996Y020031D02*
X014818Y020031D01*
X014720Y020130D02*
X018047Y020130D01*
X018146Y020228D02*
X014621Y020228D01*
X014523Y020327D02*
X018266Y020327D01*
X018996Y020327D02*
X019521Y020327D01*
X019521Y020425D02*
X014424Y020425D01*
X014312Y020524D02*
X019521Y020524D01*
X019521Y020228D02*
X019116Y020228D01*
X019215Y020130D02*
X019521Y020130D01*
X019521Y020031D02*
X019266Y020031D01*
X019307Y019933D02*
X019521Y019933D01*
X019521Y019834D02*
X019341Y019834D01*
X019341Y019736D02*
X019521Y019736D01*
X019521Y019637D02*
X019341Y019637D01*
X019329Y019539D02*
X019521Y019539D01*
X019521Y019440D02*
X019288Y019440D01*
X019247Y019341D02*
X019521Y019341D01*
X019521Y019243D02*
X019169Y019243D01*
X019070Y019144D02*
X019521Y019144D01*
X019521Y019046D02*
X018884Y019046D01*
X018378Y019046D02*
X017096Y019046D01*
X017096Y019144D02*
X018192Y019144D01*
X018093Y019243D02*
X017096Y019243D01*
X017096Y019341D02*
X018015Y019341D01*
X017974Y019440D02*
X017058Y019440D01*
X016959Y019539D02*
X017933Y019539D01*
X017921Y019637D02*
X016861Y019637D01*
X016661Y019637D02*
X016601Y019637D01*
X016601Y019539D02*
X016661Y019539D01*
X016661Y019440D02*
X016601Y019440D01*
X016601Y019341D02*
X016661Y019341D01*
X016661Y019243D02*
X016601Y019243D01*
X016601Y019144D02*
X016661Y019144D01*
X016661Y019046D02*
X016601Y019046D01*
X016601Y018947D02*
X016661Y018947D01*
X016661Y018849D02*
X016601Y018849D01*
X016601Y018750D02*
X016661Y018750D01*
X016829Y018750D02*
X019521Y018750D01*
X019521Y018652D02*
X016931Y018652D01*
X017030Y018553D02*
X019521Y018553D01*
X019521Y018455D02*
X017098Y018455D01*
X017139Y018356D02*
X019521Y018356D01*
X019521Y018257D02*
X017156Y018257D01*
X017156Y018159D02*
X019521Y018159D01*
X019521Y018060D02*
X017137Y018060D01*
X017097Y017962D02*
X019521Y017962D01*
X019521Y017863D02*
X017027Y017863D01*
X016929Y017765D02*
X019521Y017765D01*
X019521Y017666D02*
X016597Y017666D01*
X016498Y017568D02*
X019521Y017568D01*
X019521Y017469D02*
X016491Y017469D01*
X016491Y017371D02*
X019521Y017371D01*
X019521Y017272D02*
X016491Y017272D01*
X016491Y017173D02*
X019521Y017173D01*
X019521Y017075D02*
X016491Y017075D01*
X016491Y016976D02*
X019521Y016976D01*
X019521Y016878D02*
X016491Y016878D01*
X016491Y016779D02*
X019521Y016779D01*
X019521Y016681D02*
X016491Y016681D01*
X016491Y016582D02*
X019521Y016582D01*
X019521Y016484D02*
X016491Y016484D01*
X016491Y016385D02*
X019521Y016385D01*
X019521Y016287D02*
X016491Y016287D01*
X016491Y016188D02*
X019521Y016188D01*
X019521Y016089D02*
X016491Y016089D01*
X016491Y015991D02*
X019521Y015991D01*
X019521Y015892D02*
X017363Y015892D01*
X017326Y015929D02*
X016936Y015929D01*
X016661Y015654D01*
X016661Y015265D01*
X016936Y014989D01*
X017326Y014989D01*
X017601Y015265D01*
X017601Y015654D01*
X017326Y015929D01*
X017461Y015794D02*
X018886Y015794D01*
X018787Y015695D02*
X017560Y015695D01*
X017601Y015597D02*
X018721Y015597D01*
X018721Y015498D02*
X017601Y015498D01*
X017601Y015400D02*
X018721Y015400D01*
X018721Y015429D02*
X018721Y015290D01*
X018961Y015049D01*
X019101Y015049D01*
X019101Y015429D01*
X018721Y015429D01*
X018721Y015301D02*
X017601Y015301D01*
X017539Y015203D02*
X018808Y015203D01*
X018907Y015104D02*
X017440Y015104D01*
X017342Y015006D02*
X019521Y015006D01*
X019521Y015104D02*
X019355Y015104D01*
X019454Y015203D02*
X019521Y015203D01*
X019521Y014907D02*
X016943Y014907D01*
X016920Y015006D02*
X016844Y015006D01*
X016822Y015104D02*
X016745Y015104D01*
X016723Y015203D02*
X016647Y015203D01*
X016661Y015301D02*
X016548Y015301D01*
X016491Y015400D02*
X016661Y015400D01*
X016661Y015498D02*
X016491Y015498D01*
X016491Y015597D02*
X016661Y015597D01*
X016702Y015695D02*
X016491Y015695D01*
X016491Y015794D02*
X016801Y015794D01*
X016899Y015892D02*
X016491Y015892D01*
X017041Y014808D02*
X019521Y014808D01*
X019521Y014710D02*
X017140Y014710D01*
X017238Y014611D02*
X019521Y014611D01*
X019521Y014513D02*
X017337Y014513D01*
X019101Y015104D02*
X019161Y015104D01*
X019161Y015203D02*
X019101Y015203D01*
X019101Y015301D02*
X019161Y015301D01*
X019161Y015400D02*
X019101Y015400D01*
X019101Y015498D02*
X019161Y015498D01*
X019161Y015597D02*
X019101Y015597D01*
X019101Y015695D02*
X019161Y015695D01*
X019161Y015794D02*
X019101Y015794D01*
X019376Y015794D02*
X019521Y015794D01*
X019521Y015695D02*
X019475Y015695D01*
X019458Y014217D02*
X019521Y014217D01*
X019514Y014119D02*
X019521Y014119D01*
X017856Y011359D02*
X017406Y011359D01*
X017504Y011261D02*
X017758Y011261D01*
X017702Y011162D02*
X017560Y011162D01*
X017601Y011064D02*
X017661Y011064D01*
X017661Y010965D02*
X017601Y010965D01*
X017601Y010867D02*
X017661Y010867D01*
X017661Y010768D02*
X017601Y010768D01*
X017601Y010670D02*
X017661Y010670D01*
X017661Y010571D02*
X017601Y010571D01*
X017601Y010473D02*
X017661Y010473D01*
X017661Y010374D02*
X017601Y010374D01*
X017568Y010275D02*
X017694Y010275D01*
X017739Y010177D02*
X017523Y010177D01*
X017441Y010078D02*
X017837Y010078D01*
X016821Y010078D02*
X016306Y010078D01*
X016288Y010069D02*
X016346Y010099D01*
X016398Y010137D01*
X016444Y010182D01*
X016482Y010235D01*
X016511Y010292D01*
X016531Y010353D01*
X016541Y010417D01*
X016541Y010679D01*
X016161Y010679D01*
X016161Y010039D01*
X016163Y010039D01*
X016227Y010050D01*
X016288Y010069D01*
X016161Y010078D02*
X016101Y010078D01*
X016101Y010039D02*
X016101Y010679D01*
X016161Y010679D01*
X016161Y010739D01*
X016541Y010739D01*
X016541Y011002D01*
X016531Y011065D01*
X016511Y011127D01*
X016482Y011184D01*
X016444Y011237D01*
X016398Y011282D01*
X016346Y011320D01*
X016288Y011349D01*
X016227Y011369D01*
X016163Y011379D01*
X016161Y011379D01*
X016161Y010740D01*
X016101Y010740D01*
X016101Y011379D01*
X016099Y011379D01*
X016035Y011369D01*
X015974Y011349D01*
X015916Y011320D01*
X015864Y011282D01*
X015818Y011237D01*
X015780Y011184D01*
X015751Y011127D01*
X015731Y011065D01*
X015721Y011002D01*
X015721Y010739D01*
X016101Y010739D01*
X016101Y010679D01*
X015721Y010679D01*
X015721Y010417D01*
X015731Y010353D01*
X015751Y010292D01*
X015780Y010235D01*
X015818Y010182D01*
X015864Y010137D01*
X015916Y010099D01*
X015974Y010069D01*
X016035Y010050D01*
X016099Y010039D01*
X016101Y010039D01*
X016101Y010177D02*
X016161Y010177D01*
X016161Y010275D02*
X016101Y010275D01*
X016101Y010374D02*
X016161Y010374D01*
X016161Y010473D02*
X016101Y010473D01*
X016101Y010571D02*
X016161Y010571D01*
X016161Y010670D02*
X016101Y010670D01*
X016101Y010768D02*
X016161Y010768D01*
X016161Y010867D02*
X016101Y010867D01*
X016101Y010965D02*
X016161Y010965D01*
X016161Y011064D02*
X016101Y011064D01*
X016101Y011162D02*
X016161Y011162D01*
X016161Y011261D02*
X016101Y011261D01*
X016101Y011359D02*
X016161Y011359D01*
X016258Y011359D02*
X016856Y011359D01*
X016758Y011261D02*
X016419Y011261D01*
X016493Y011162D02*
X016702Y011162D01*
X016661Y011064D02*
X016531Y011064D01*
X016541Y010965D02*
X016661Y010965D01*
X016661Y010867D02*
X016541Y010867D01*
X016541Y010768D02*
X016661Y010768D01*
X016661Y010670D02*
X016541Y010670D01*
X016541Y010571D02*
X016661Y010571D01*
X016661Y010473D02*
X016541Y010473D01*
X016534Y010374D02*
X016661Y010374D01*
X016694Y010275D02*
X016502Y010275D01*
X016438Y010177D02*
X016739Y010177D01*
X016821Y009980D02*
X014491Y009980D01*
X014491Y010078D02*
X014956Y010078D01*
X014974Y010069D02*
X015035Y010050D01*
X015099Y010039D01*
X015101Y010039D01*
X015101Y010679D01*
X015161Y010679D01*
X015161Y010039D01*
X015163Y010039D01*
X015227Y010050D01*
X015288Y010069D01*
X015346Y010099D01*
X015398Y010137D01*
X015444Y010182D01*
X015482Y010235D01*
X015511Y010292D01*
X015531Y010353D01*
X015541Y010417D01*
X015541Y010679D01*
X015161Y010679D01*
X015161Y010739D01*
X015541Y010739D01*
X015541Y011002D01*
X015531Y011065D01*
X015511Y011127D01*
X015482Y011184D01*
X015444Y011237D01*
X015398Y011282D01*
X015346Y011320D01*
X015288Y011349D01*
X015227Y011369D01*
X015163Y011379D01*
X015161Y011379D01*
X015161Y010740D01*
X015101Y010740D01*
X015101Y011379D01*
X015099Y011379D01*
X015035Y011369D01*
X014974Y011349D01*
X014916Y011320D01*
X014864Y011282D01*
X014818Y011237D01*
X014780Y011184D01*
X014751Y011127D01*
X014731Y011065D01*
X014721Y011002D01*
X014721Y010739D01*
X015101Y010739D01*
X015101Y010679D01*
X014721Y010679D01*
X014721Y010417D01*
X014731Y010353D01*
X014751Y010292D01*
X014780Y010235D01*
X014818Y010182D01*
X014864Y010137D01*
X014916Y010099D01*
X014974Y010069D01*
X015101Y010078D02*
X015161Y010078D01*
X015161Y010177D02*
X015101Y010177D01*
X015101Y010275D02*
X015161Y010275D01*
X015161Y010374D02*
X015101Y010374D01*
X015101Y010473D02*
X015161Y010473D01*
X015161Y010571D02*
X015101Y010571D01*
X015101Y010670D02*
X015161Y010670D01*
X015161Y010768D02*
X015101Y010768D01*
X015101Y010867D02*
X015161Y010867D01*
X015161Y010965D02*
X015101Y010965D01*
X015101Y011064D02*
X015161Y011064D01*
X015161Y011162D02*
X015101Y011162D01*
X015101Y011261D02*
X015161Y011261D01*
X015161Y011359D02*
X015101Y011359D01*
X015005Y011359D02*
X014406Y011359D01*
X014504Y011261D02*
X014843Y011261D01*
X014769Y011162D02*
X014560Y011162D01*
X014601Y011064D02*
X014731Y011064D01*
X014721Y010965D02*
X014601Y010965D01*
X014601Y010867D02*
X014721Y010867D01*
X014721Y010768D02*
X014601Y010768D01*
X014601Y010670D02*
X014721Y010670D01*
X014721Y010571D02*
X014601Y010571D01*
X014601Y010473D02*
X014721Y010473D01*
X014728Y010374D02*
X014601Y010374D01*
X014568Y010275D02*
X014759Y010275D01*
X014824Y010177D02*
X014523Y010177D01*
X014491Y009881D02*
X016821Y009881D01*
X016821Y009783D02*
X014491Y009783D01*
X014491Y009684D02*
X016821Y009684D01*
X016821Y009586D02*
X014491Y009586D01*
X014491Y009487D02*
X016821Y009487D01*
X016821Y009389D02*
X014491Y009389D01*
X014491Y009290D02*
X016773Y009290D01*
X016675Y009191D02*
X014491Y009191D01*
X014491Y009093D02*
X016576Y009093D01*
X016478Y008994D02*
X014491Y008994D01*
X014491Y008896D02*
X016379Y008896D01*
X016280Y008797D02*
X014491Y008797D01*
X014491Y008699D02*
X016182Y008699D01*
X016083Y008600D02*
X014475Y008600D01*
X014432Y008502D02*
X015985Y008502D01*
X015886Y008403D02*
X014334Y008403D01*
X014235Y008305D02*
X015788Y008305D01*
X015689Y008206D02*
X014137Y008206D01*
X014038Y008107D02*
X015591Y008107D01*
X015492Y008009D02*
X013940Y008009D01*
X013841Y007910D02*
X015394Y007910D01*
X015338Y007812D02*
X013476Y007812D01*
X013370Y007713D02*
X015321Y007713D01*
X015321Y007615D02*
X013468Y007615D01*
X013567Y007516D02*
X015321Y007516D01*
X015297Y007418D02*
X013656Y007418D01*
X013656Y007319D02*
X015256Y007319D01*
X015243Y007221D02*
X013656Y007221D01*
X013656Y007122D02*
X015247Y007122D01*
X015288Y007024D02*
X013656Y007024D01*
X013589Y006925D02*
X015367Y006925D01*
X015895Y006925D02*
X017258Y006925D01*
X017166Y007024D02*
X015974Y007024D01*
X016015Y007122D02*
X017166Y007122D01*
X017286Y007812D02*
X016172Y007812D01*
X016270Y007910D02*
X017188Y007910D01*
X017146Y008009D02*
X016369Y008009D01*
X016467Y008107D02*
X017106Y008107D01*
X017106Y008206D02*
X016566Y008206D01*
X016665Y008305D02*
X017106Y008305D01*
X017143Y008403D02*
X016763Y008403D01*
X016862Y008502D02*
X017184Y008502D01*
X017279Y008600D02*
X016960Y008600D01*
X015956Y010078D02*
X015306Y010078D01*
X015438Y010177D02*
X015824Y010177D01*
X015759Y010275D02*
X015502Y010275D01*
X015534Y010374D02*
X015728Y010374D01*
X015721Y010473D02*
X015541Y010473D01*
X015541Y010571D02*
X015721Y010571D01*
X015721Y010670D02*
X015541Y010670D01*
X015541Y010768D02*
X015721Y010768D01*
X015721Y010867D02*
X015541Y010867D01*
X015541Y010965D02*
X015721Y010965D01*
X015731Y011064D02*
X015531Y011064D01*
X015493Y011162D02*
X015769Y011162D01*
X015843Y011261D02*
X015419Y011261D01*
X015258Y011359D02*
X016005Y011359D01*
X013904Y013035D02*
X013358Y013035D01*
X013397Y013051D02*
X013529Y013183D01*
X013601Y013356D01*
X013601Y014063D01*
X013529Y014236D01*
X013491Y014274D01*
X013491Y015155D01*
X013601Y015265D01*
X013601Y015654D01*
X013326Y015929D01*
X012936Y015929D01*
X012661Y015654D01*
X012661Y015265D01*
X012771Y015155D01*
X012771Y014274D01*
X012733Y014236D01*
X012661Y014063D01*
X012661Y013356D01*
X012733Y013183D01*
X012865Y013051D01*
X013038Y012979D01*
X013224Y012979D01*
X013397Y013051D01*
X013479Y013133D02*
X013783Y013133D01*
X013712Y013232D02*
X013550Y013232D01*
X013590Y013330D02*
X013672Y013330D01*
X013661Y013429D02*
X013601Y013429D01*
X013601Y013527D02*
X013661Y013527D01*
X013661Y013626D02*
X013601Y013626D01*
X013601Y013724D02*
X013661Y013724D01*
X013661Y013823D02*
X013601Y013823D01*
X013601Y013922D02*
X013661Y013922D01*
X013661Y014020D02*
X013601Y014020D01*
X013578Y014119D02*
X013684Y014119D01*
X013725Y014217D02*
X013537Y014217D01*
X013491Y014316D02*
X013771Y014316D01*
X013771Y014414D02*
X013491Y014414D01*
X013491Y014513D02*
X013771Y014513D01*
X013771Y014611D02*
X013491Y014611D01*
X013491Y014710D02*
X013771Y014710D01*
X013771Y014808D02*
X013491Y014808D01*
X013491Y014907D02*
X013771Y014907D01*
X013771Y015006D02*
X013491Y015006D01*
X013491Y015104D02*
X013771Y015104D01*
X013771Y015203D02*
X013539Y015203D01*
X013601Y015301D02*
X013771Y015301D01*
X013771Y015400D02*
X013601Y015400D01*
X013601Y015498D02*
X013771Y015498D01*
X013771Y015597D02*
X013601Y015597D01*
X013560Y015695D02*
X013771Y015695D01*
X013771Y015794D02*
X013461Y015794D01*
X013363Y015892D02*
X013771Y015892D01*
X013771Y015991D02*
X012491Y015991D01*
X012491Y016089D02*
X013771Y016089D01*
X013771Y016188D02*
X012491Y016188D01*
X012491Y016287D02*
X013771Y016287D01*
X013771Y016385D02*
X012491Y016385D01*
X012491Y016484D02*
X013771Y016484D01*
X013771Y016582D02*
X012491Y016582D01*
X012491Y016681D02*
X013771Y016681D01*
X013771Y016779D02*
X012491Y016779D01*
X012559Y016878D02*
X013811Y016878D01*
X013889Y016976D02*
X012657Y016976D01*
X012756Y017075D02*
X013987Y017075D01*
X014086Y017173D02*
X012854Y017173D01*
X012953Y017272D02*
X014184Y017272D01*
X014271Y017371D02*
X013051Y017371D01*
X013150Y017469D02*
X014271Y017469D01*
X014271Y017568D02*
X013248Y017568D01*
X013347Y017666D02*
X014271Y017666D01*
X014271Y017765D02*
X013679Y017765D01*
X013777Y017863D02*
X014271Y017863D01*
X014271Y017962D02*
X013847Y017962D01*
X013887Y018060D02*
X014271Y018060D01*
X014271Y018159D02*
X013906Y018159D01*
X013906Y018257D02*
X014271Y018257D01*
X014271Y018356D02*
X013889Y018356D01*
X013848Y018455D02*
X014271Y018455D01*
X014271Y018553D02*
X013780Y018553D01*
X013681Y018652D02*
X014271Y018652D01*
X014271Y018750D02*
X013579Y018750D01*
X013574Y018744D02*
X013846Y019017D01*
X013846Y019179D01*
X013411Y019179D01*
X013411Y018744D01*
X013574Y018744D01*
X013678Y018849D02*
X014271Y018849D01*
X014271Y018947D02*
X013776Y018947D01*
X013846Y019046D02*
X014271Y019046D01*
X014271Y019144D02*
X013846Y019144D01*
X013846Y019239D02*
X013846Y019402D01*
X013574Y019674D01*
X013411Y019674D01*
X013411Y019240D01*
X013351Y019240D01*
X013351Y019674D01*
X013188Y019674D01*
X012916Y019402D01*
X012916Y019239D01*
X013351Y019239D01*
X013351Y019179D01*
X013411Y019179D01*
X013411Y019239D01*
X013846Y019239D01*
X013846Y019243D02*
X014271Y019243D01*
X014271Y019341D02*
X013846Y019341D01*
X013808Y019440D02*
X014271Y019440D01*
X014271Y019539D02*
X013709Y019539D01*
X013611Y019637D02*
X014194Y019637D01*
X014096Y019736D02*
X012666Y019736D01*
X012765Y019834D02*
X013997Y019834D01*
X013411Y019637D02*
X013351Y019637D01*
X013351Y019539D02*
X013411Y019539D01*
X013411Y019440D02*
X013351Y019440D01*
X013351Y019341D02*
X013411Y019341D01*
X013411Y019243D02*
X013351Y019243D01*
X013351Y019179D02*
X012916Y019179D01*
X012916Y019017D01*
X013188Y018744D01*
X013351Y018744D01*
X013351Y019179D01*
X013351Y019144D02*
X013411Y019144D01*
X013411Y019046D02*
X013351Y019046D01*
X013351Y018947D02*
X013411Y018947D01*
X013411Y018849D02*
X013351Y018849D01*
X013351Y018750D02*
X013411Y018750D01*
X013183Y018750D02*
X012491Y018750D01*
X012491Y018652D02*
X013081Y018652D01*
X012982Y018553D02*
X012456Y018553D01*
X012385Y018455D02*
X012914Y018455D01*
X012874Y018356D02*
X012287Y018356D01*
X012188Y018257D02*
X012856Y018257D01*
X012821Y018159D02*
X012090Y018159D01*
X011991Y018060D02*
X012723Y018060D01*
X012624Y017962D02*
X011892Y017962D01*
X011794Y017863D02*
X012526Y017863D01*
X012427Y017765D02*
X011695Y017765D01*
X011597Y017666D02*
X012329Y017666D01*
X012230Y017568D02*
X011498Y017568D01*
X011400Y017469D02*
X012132Y017469D01*
X012033Y017371D02*
X011301Y017371D01*
X011203Y017272D02*
X011934Y017272D01*
X011836Y017173D02*
X011104Y017173D01*
X011006Y017075D02*
X011789Y017075D01*
X011771Y016976D02*
X010907Y016976D01*
X010809Y016878D02*
X011771Y016878D01*
X011771Y016779D02*
X010710Y016779D01*
X010611Y016681D02*
X011771Y016681D01*
X011771Y016582D02*
X010513Y016582D01*
X010414Y016484D02*
X011771Y016484D01*
X011771Y016385D02*
X010289Y016385D01*
X009987Y017075D02*
X003008Y017075D01*
X002909Y017173D02*
X010086Y017173D01*
X010184Y017272D02*
X000341Y017272D01*
X000341Y017173D02*
X002353Y017173D01*
X002254Y017075D02*
X000341Y017075D01*
X000341Y016976D02*
X002156Y016976D01*
X002106Y016878D02*
X000341Y016878D01*
X000341Y016779D02*
X002106Y016779D01*
X002106Y016681D02*
X000341Y016681D01*
X000341Y016582D02*
X002106Y016582D01*
X002114Y016484D02*
X000341Y016484D01*
X000341Y016385D02*
X002213Y016385D01*
X002311Y016287D02*
X000341Y016287D01*
X000341Y016188D02*
X002410Y016188D01*
X002269Y016089D02*
X000341Y016089D01*
X000341Y015991D02*
X002179Y015991D01*
X002139Y015892D02*
X000341Y015892D01*
X000341Y015794D02*
X002106Y015794D01*
X002106Y015695D02*
X000341Y015695D01*
X000341Y015597D02*
X002109Y015597D01*
X002150Y015498D02*
X000341Y015498D01*
X000341Y015400D02*
X002198Y015400D01*
X002297Y015301D02*
X000341Y015301D01*
X000341Y015203D02*
X002483Y015203D01*
X002779Y015203D02*
X006271Y015203D01*
X006279Y015301D02*
X002965Y015301D01*
X002993Y016089D02*
X004502Y016089D01*
X004601Y016188D02*
X002852Y016188D01*
X002951Y016287D02*
X004699Y016287D01*
X004798Y016385D02*
X003049Y016385D01*
X003148Y016484D02*
X004896Y016484D01*
X004995Y016582D02*
X003156Y016582D01*
X003156Y016681D02*
X005093Y016681D01*
X005192Y016779D02*
X003156Y016779D01*
X003156Y016878D02*
X005290Y016878D01*
X005389Y016976D02*
X003106Y016976D01*
X004824Y015400D02*
X006320Y015400D01*
X006411Y015498D02*
X004929Y015498D01*
X005027Y015597D02*
X006509Y015597D01*
X006608Y015695D02*
X005126Y015695D01*
X005225Y015794D02*
X006706Y015794D01*
X006805Y015892D02*
X005323Y015892D01*
X005422Y015991D02*
X006903Y015991D01*
X007232Y015301D02*
X011771Y015301D01*
X011771Y015203D02*
X007133Y015203D01*
X007035Y015104D02*
X011771Y015104D01*
X011771Y015006D02*
X009884Y015006D01*
X009969Y014907D02*
X011771Y014907D01*
X011771Y014808D02*
X010010Y014808D01*
X010019Y014710D02*
X011771Y014710D01*
X011771Y014611D02*
X010010Y014611D01*
X009991Y014513D02*
X011771Y014513D01*
X011771Y014414D02*
X009991Y014414D01*
X009991Y014316D02*
X011771Y014316D01*
X011725Y014217D02*
X009991Y014217D01*
X009991Y014119D02*
X011684Y014119D01*
X011661Y014020D02*
X009991Y014020D01*
X009991Y013922D02*
X011661Y013922D01*
X011661Y013823D02*
X009991Y013823D01*
X009991Y013724D02*
X011661Y013724D01*
X011661Y013626D02*
X010879Y013626D01*
X010826Y013679D02*
X010436Y013679D01*
X010161Y013404D01*
X010161Y013015D01*
X010436Y012739D01*
X010826Y012739D01*
X011101Y013015D01*
X011101Y013404D01*
X010826Y013679D01*
X010978Y013527D02*
X011661Y013527D01*
X011661Y013429D02*
X011076Y013429D01*
X011101Y013330D02*
X011672Y013330D01*
X011712Y013232D02*
X011101Y013232D01*
X011101Y013133D02*
X011783Y013133D01*
X011904Y013035D02*
X011101Y013035D01*
X010338Y012838D02*
X009991Y012838D01*
X009991Y012936D02*
X010240Y012936D01*
X010161Y013035D02*
X009991Y013035D01*
X009991Y013133D02*
X010161Y013133D01*
X010161Y013232D02*
X009991Y013232D01*
X009991Y013330D02*
X010161Y013330D01*
X010186Y013429D02*
X009991Y013429D01*
X009991Y013527D02*
X010284Y013527D01*
X010383Y013626D02*
X009991Y013626D01*
X009271Y013626D02*
X008879Y013626D01*
X008826Y013679D02*
X008436Y013679D01*
X008161Y013404D01*
X008161Y013015D01*
X008436Y012739D01*
X008826Y012739D01*
X009101Y013015D01*
X009101Y013404D01*
X008826Y013679D01*
X008978Y013527D02*
X009271Y013527D01*
X009271Y013429D02*
X009076Y013429D01*
X009101Y013330D02*
X009271Y013330D01*
X009271Y013232D02*
X009101Y013232D01*
X009101Y013133D02*
X009271Y013133D01*
X009271Y013035D02*
X009101Y013035D01*
X009022Y012936D02*
X009271Y012936D01*
X009271Y012838D02*
X008924Y012838D01*
X009271Y012739D02*
X008111Y012739D01*
X008209Y012640D02*
X009271Y012640D01*
X009271Y012542D02*
X008308Y012542D01*
X008406Y012443D02*
X009271Y012443D01*
X009271Y012345D02*
X008505Y012345D01*
X008603Y012246D02*
X009271Y012246D01*
X009271Y012148D02*
X008702Y012148D01*
X008800Y012049D02*
X009271Y012049D01*
X009271Y011951D02*
X008899Y011951D01*
X008997Y011852D02*
X009270Y011852D01*
X009243Y011754D02*
X009096Y011754D01*
X009194Y011655D02*
X009243Y011655D01*
X009589Y011261D02*
X011758Y011261D01*
X011733Y011236D02*
X011661Y011063D01*
X011661Y010356D01*
X011733Y010183D01*
X011865Y010051D01*
X012038Y009979D01*
X012224Y009979D01*
X012397Y010051D01*
X012529Y010183D01*
X012601Y010356D01*
X012601Y011063D01*
X012529Y011236D01*
X012397Y011368D01*
X012224Y011439D01*
X012038Y011439D01*
X011865Y011368D01*
X011733Y011236D01*
X011702Y011162D02*
X009687Y011162D01*
X009800Y011359D02*
X011856Y011359D01*
X011661Y011064D02*
X010716Y011064D01*
X010884Y010965D02*
X011661Y010965D01*
X011661Y010867D02*
X010983Y010867D01*
X011081Y010768D02*
X011661Y010768D01*
X011661Y010670D02*
X011180Y010670D01*
X011278Y010571D02*
X011661Y010571D01*
X011661Y010473D02*
X011377Y010473D01*
X011476Y010374D02*
X011661Y010374D01*
X011694Y010275D02*
X011574Y010275D01*
X011673Y010177D02*
X011739Y010177D01*
X011771Y010078D02*
X011837Y010078D01*
X011870Y009980D02*
X012037Y009980D01*
X011949Y009881D02*
X012771Y009881D01*
X012771Y009980D02*
X012225Y009980D01*
X012425Y010078D02*
X012771Y010078D01*
X012739Y010177D02*
X012523Y010177D01*
X012568Y010275D02*
X012694Y010275D01*
X012661Y010374D02*
X012601Y010374D01*
X012601Y010473D02*
X012661Y010473D01*
X012661Y010571D02*
X012601Y010571D01*
X012601Y010670D02*
X012661Y010670D01*
X012661Y010768D02*
X012601Y010768D01*
X012601Y010867D02*
X012661Y010867D01*
X012661Y010965D02*
X012601Y010965D01*
X012601Y011064D02*
X012661Y011064D01*
X012702Y011162D02*
X012560Y011162D01*
X012504Y011261D02*
X012758Y011261D01*
X012856Y011359D02*
X012406Y011359D01*
X013406Y011359D02*
X013856Y011359D01*
X013758Y011261D02*
X013504Y011261D01*
X013560Y011162D02*
X013702Y011162D01*
X013661Y011064D02*
X013601Y011064D01*
X013601Y010965D02*
X013661Y010965D01*
X013661Y010867D02*
X013601Y010867D01*
X013601Y010768D02*
X013661Y010768D01*
X013661Y010670D02*
X013601Y010670D01*
X013601Y010571D02*
X013661Y010571D01*
X013661Y010473D02*
X013601Y010473D01*
X013601Y010374D02*
X013661Y010374D01*
X013694Y010275D02*
X013568Y010275D01*
X013523Y010177D02*
X013739Y010177D01*
X013771Y010078D02*
X013491Y010078D01*
X013491Y009980D02*
X013771Y009980D01*
X013771Y009881D02*
X013491Y009881D01*
X013491Y009783D02*
X013771Y009783D01*
X013771Y009684D02*
X013491Y009684D01*
X013469Y009586D02*
X013771Y009586D01*
X013771Y009487D02*
X013418Y009487D01*
X013319Y009389D02*
X013771Y009389D01*
X013771Y009290D02*
X013221Y009290D01*
X013122Y009191D02*
X013771Y009191D01*
X013771Y009093D02*
X013024Y009093D01*
X012925Y008994D02*
X013771Y008994D01*
X013771Y008896D02*
X012826Y008896D01*
X012728Y008797D02*
X013710Y008797D01*
X013611Y008699D02*
X013322Y008699D01*
X013483Y008600D02*
X013513Y008600D01*
X012940Y008699D02*
X012629Y008699D01*
X012531Y008600D02*
X012779Y008600D01*
X012684Y008502D02*
X012491Y008502D01*
X012491Y008403D02*
X012643Y008403D01*
X012606Y008305D02*
X012491Y008305D01*
X012491Y008206D02*
X012606Y008206D01*
X012606Y008107D02*
X012491Y008107D01*
X012491Y008009D02*
X012646Y008009D01*
X012688Y007910D02*
X012491Y007910D01*
X012538Y007812D02*
X012786Y007812D01*
X012892Y007713D02*
X012636Y007713D01*
X012735Y007615D02*
X012794Y007615D01*
X012772Y006826D02*
X012523Y006826D01*
X012622Y006728D02*
X012870Y006728D01*
X011899Y006432D02*
X011847Y006432D01*
X011801Y006531D02*
X011748Y006531D01*
X011702Y006629D02*
X011649Y006629D01*
X011603Y006728D02*
X011551Y006728D01*
X011505Y006826D02*
X011452Y006826D01*
X011406Y006925D02*
X011354Y006925D01*
X011318Y007024D02*
X011255Y007024D01*
X011278Y007122D02*
X011157Y007122D01*
X011058Y007221D02*
X011271Y007221D01*
X011271Y007319D02*
X010960Y007319D01*
X010861Y007418D02*
X011271Y007418D01*
X011271Y007516D02*
X010763Y007516D01*
X010664Y007615D02*
X011271Y007615D01*
X011271Y007713D02*
X010566Y007713D01*
X010467Y007812D02*
X011271Y007812D01*
X011271Y007910D02*
X010368Y007910D01*
X010270Y008009D02*
X011271Y008009D01*
X011271Y008107D02*
X010171Y008107D01*
X010073Y008206D02*
X011271Y008206D01*
X011271Y008305D02*
X009974Y008305D01*
X009941Y008403D02*
X011271Y008403D01*
X011271Y008502D02*
X009941Y008502D01*
X009941Y008600D02*
X011271Y008600D01*
X011271Y008699D02*
X009941Y008699D01*
X009941Y008797D02*
X010379Y008797D01*
X010436Y008739D02*
X010161Y009015D01*
X010161Y009404D01*
X010436Y009679D01*
X010826Y009679D01*
X011101Y009404D01*
X011101Y009015D01*
X010826Y008739D01*
X010436Y008739D01*
X010280Y008896D02*
X009941Y008896D01*
X009941Y008994D02*
X010181Y008994D01*
X010161Y009093D02*
X009932Y009093D01*
X009887Y009191D02*
X010161Y009191D01*
X010161Y009290D02*
X009789Y009290D01*
X009690Y009389D02*
X010161Y009389D01*
X010244Y009487D02*
X009592Y009487D01*
X009493Y009586D02*
X010343Y009586D01*
X010852Y009980D02*
X009099Y009980D01*
X009000Y010078D02*
X010753Y010078D01*
X010654Y010177D02*
X008902Y010177D01*
X008803Y010275D02*
X010556Y010275D01*
X010950Y009881D02*
X009198Y009881D01*
X009296Y009783D02*
X011049Y009783D01*
X011147Y009684D02*
X009395Y009684D01*
X009109Y009093D02*
X009101Y009093D01*
X009081Y008994D02*
X009208Y008994D01*
X009306Y008896D02*
X008982Y008896D01*
X008884Y008797D02*
X009321Y008797D01*
X009321Y008699D02*
X006065Y008699D01*
X006088Y008730D02*
X006126Y008804D01*
X006152Y008884D01*
X006164Y008959D01*
X005681Y008959D01*
X005681Y008477D01*
X005756Y008489D01*
X005836Y008515D01*
X005911Y008553D01*
X005979Y008602D01*
X006038Y008662D01*
X006088Y008730D01*
X006122Y008797D02*
X008379Y008797D01*
X008280Y008896D02*
X006153Y008896D01*
X006164Y009059D02*
X006152Y009134D01*
X006126Y009214D01*
X006088Y009289D01*
X006038Y009357D01*
X005979Y009417D01*
X005911Y009466D01*
X005836Y009504D01*
X005756Y009530D01*
X005681Y009542D01*
X005681Y009060D01*
X005581Y009060D01*
X005581Y009542D01*
X005506Y009530D01*
X005426Y009504D01*
X005351Y009466D01*
X005283Y009417D01*
X005224Y009357D01*
X005174Y009289D01*
X005136Y009214D01*
X005110Y009134D01*
X005098Y009059D01*
X005581Y009059D01*
X005581Y008959D01*
X005681Y008959D01*
X005681Y009059D01*
X006164Y009059D01*
X006158Y009093D02*
X008161Y009093D01*
X008161Y009191D02*
X006133Y009191D01*
X006087Y009290D02*
X008161Y009290D01*
X008161Y009389D02*
X006007Y009389D01*
X005869Y009487D02*
X008244Y009487D01*
X008343Y009586D02*
X003441Y009586D01*
X003441Y009684D02*
X008518Y009684D01*
X008419Y009783D02*
X003441Y009783D01*
X003441Y009881D02*
X008321Y009881D01*
X008222Y009980D02*
X003441Y009980D01*
X003441Y010078D02*
X008124Y010078D01*
X008025Y010177D02*
X003441Y010177D01*
X003441Y010275D02*
X007927Y010275D01*
X007828Y010374D02*
X003441Y010374D01*
X003441Y010473D02*
X005375Y010473D01*
X005295Y010506D02*
X005513Y010416D01*
X005749Y010416D01*
X005967Y010506D01*
X006134Y010673D01*
X006225Y010891D01*
X006225Y011128D01*
X006134Y011346D01*
X005967Y011513D01*
X005749Y011603D01*
X005513Y011603D01*
X005295Y011513D01*
X005128Y011346D01*
X005037Y011128D01*
X005037Y010891D01*
X005128Y010673D01*
X005295Y010506D01*
X005230Y010571D02*
X003441Y010571D01*
X003441Y010670D02*
X005131Y010670D01*
X005088Y010768D02*
X003441Y010768D01*
X003441Y010867D02*
X005047Y010867D01*
X005037Y010965D02*
X003441Y010965D01*
X003441Y011064D02*
X005037Y011064D01*
X005052Y011162D02*
X003441Y011162D01*
X003441Y011261D02*
X005092Y011261D01*
X005141Y011359D02*
X003441Y011359D01*
X003441Y011458D02*
X005240Y011458D01*
X005400Y011556D02*
X003441Y011556D01*
X003406Y011655D02*
X006547Y011655D01*
X006646Y011556D02*
X005862Y011556D01*
X006022Y011458D02*
X006744Y011458D01*
X006843Y011359D02*
X006121Y011359D01*
X006170Y011261D02*
X006941Y011261D01*
X007040Y011162D02*
X006210Y011162D01*
X006225Y011064D02*
X007138Y011064D01*
X007237Y010965D02*
X006225Y010965D01*
X006215Y010867D02*
X007335Y010867D01*
X007434Y010768D02*
X006174Y010768D01*
X006131Y010670D02*
X007532Y010670D01*
X007631Y010571D02*
X006032Y010571D01*
X005887Y010473D02*
X007730Y010473D01*
X008114Y010965D02*
X008866Y010965D01*
X008965Y010867D02*
X008212Y010867D01*
X008311Y010768D02*
X009063Y010768D01*
X009162Y010670D02*
X008409Y010670D01*
X008508Y010571D02*
X009260Y010571D01*
X009359Y010473D02*
X008606Y010473D01*
X008705Y010374D02*
X009500Y010374D01*
X008768Y011064D02*
X008015Y011064D01*
X007916Y011162D02*
X008669Y011162D01*
X008570Y011261D02*
X007818Y011261D01*
X007719Y011359D02*
X008472Y011359D01*
X008373Y011458D02*
X007621Y011458D01*
X007522Y011556D02*
X008275Y011556D01*
X008176Y011655D02*
X007424Y011655D01*
X007325Y011754D02*
X008078Y011754D01*
X007979Y011852D02*
X007227Y011852D01*
X007128Y011951D02*
X007881Y011951D01*
X007782Y012049D02*
X007030Y012049D01*
X006931Y012148D02*
X007684Y012148D01*
X007585Y012246D02*
X006833Y012246D01*
X006734Y012345D02*
X007486Y012345D01*
X007388Y012443D02*
X006635Y012443D01*
X006537Y012542D02*
X007289Y012542D01*
X007191Y012640D02*
X006438Y012640D01*
X006340Y012739D02*
X007092Y012739D01*
X006994Y012838D02*
X006241Y012838D01*
X006225Y012936D02*
X006895Y012936D01*
X006797Y013035D02*
X006225Y013035D01*
X006223Y013133D02*
X006698Y013133D01*
X006600Y013232D02*
X006182Y013232D01*
X006141Y013330D02*
X006501Y013330D01*
X006403Y013429D02*
X006051Y013429D01*
X005932Y013527D02*
X006317Y013527D01*
X006276Y013626D02*
X000341Y013626D01*
X000341Y013724D02*
X006271Y013724D01*
X006271Y013823D02*
X000341Y013823D01*
X000341Y013922D02*
X006271Y013922D01*
X006271Y014020D02*
X000341Y014020D01*
X000341Y014119D02*
X006271Y014119D01*
X006271Y014217D02*
X000341Y014217D01*
X000341Y014316D02*
X006271Y014316D01*
X006271Y014414D02*
X000341Y014414D01*
X000341Y014513D02*
X006271Y014513D01*
X006271Y014611D02*
X000341Y014611D01*
X000341Y014710D02*
X006271Y014710D01*
X006271Y014808D02*
X000341Y014808D01*
X000341Y014907D02*
X006271Y014907D01*
X006271Y015006D02*
X000341Y015006D01*
X000341Y015104D02*
X006271Y015104D01*
X006991Y015006D02*
X009378Y015006D01*
X009293Y014907D02*
X006991Y014907D01*
X006991Y014808D02*
X009252Y014808D01*
X009243Y014710D02*
X006991Y014710D01*
X006991Y014611D02*
X009252Y014611D01*
X009271Y014513D02*
X006991Y014513D01*
X006991Y014414D02*
X009271Y014414D01*
X009271Y014316D02*
X006991Y014316D01*
X006991Y014217D02*
X009271Y014217D01*
X009271Y014119D02*
X006991Y014119D01*
X006991Y014020D02*
X009271Y014020D01*
X009271Y013922D02*
X006991Y013922D01*
X007027Y013823D02*
X009271Y013823D01*
X009271Y013724D02*
X007125Y013724D01*
X007224Y013626D02*
X008383Y013626D01*
X008284Y013527D02*
X007322Y013527D01*
X007421Y013429D02*
X008186Y013429D01*
X008161Y013330D02*
X007519Y013330D01*
X007618Y013232D02*
X008161Y013232D01*
X008161Y013133D02*
X007716Y013133D01*
X007815Y013035D02*
X008161Y013035D01*
X008240Y012936D02*
X007913Y012936D01*
X008012Y012838D02*
X008338Y012838D01*
X006449Y011754D02*
X003325Y011754D01*
X003227Y011852D02*
X006350Y011852D01*
X006251Y011951D02*
X003128Y011951D01*
X003030Y012049D02*
X006153Y012049D01*
X006054Y012148D02*
X002931Y012148D01*
X002833Y012246D02*
X005956Y012246D01*
X005857Y012345D02*
X002734Y012345D01*
X002635Y012443D02*
X005446Y012443D01*
X005259Y012542D02*
X002537Y012542D01*
X002438Y012640D02*
X005160Y012640D01*
X005100Y012739D02*
X002340Y012739D01*
X002241Y012838D02*
X005059Y012838D01*
X005037Y012936D02*
X002225Y012936D01*
X002225Y013035D02*
X005037Y013035D01*
X005040Y013133D02*
X002223Y013133D01*
X002182Y013232D02*
X005080Y013232D01*
X005121Y013330D02*
X002141Y013330D01*
X002051Y013429D02*
X005211Y013429D01*
X005330Y013527D02*
X001932Y013527D01*
X001330Y013527D02*
X000341Y013527D01*
X000341Y013429D02*
X001211Y013429D01*
X001121Y013330D02*
X000341Y013330D01*
X000341Y013232D02*
X001080Y013232D01*
X001040Y013133D02*
X000341Y013133D01*
X000341Y013035D02*
X001037Y013035D01*
X001037Y012936D02*
X000341Y012936D01*
X000341Y012838D02*
X001059Y012838D01*
X001100Y012739D02*
X000341Y012739D01*
X000341Y012640D02*
X001160Y012640D01*
X001259Y012542D02*
X000341Y012542D01*
X000341Y012443D02*
X001446Y012443D01*
X001857Y012345D02*
X000341Y012345D01*
X000341Y012246D02*
X001956Y012246D01*
X002054Y012148D02*
X000341Y012148D01*
X000341Y012049D02*
X002153Y012049D01*
X002251Y011951D02*
X000341Y011951D01*
X000341Y011852D02*
X002350Y011852D01*
X002448Y011754D02*
X000341Y011754D01*
X000341Y011655D02*
X002547Y011655D01*
X002646Y011556D02*
X001862Y011556D01*
X001967Y011513D02*
X001749Y011603D01*
X001513Y011603D01*
X001295Y011513D01*
X001128Y011346D01*
X001037Y011128D01*
X001037Y010891D01*
X001128Y010673D01*
X001295Y010506D01*
X001513Y010416D01*
X001749Y010416D01*
X001967Y010506D01*
X002134Y010673D01*
X002225Y010891D01*
X002225Y011128D01*
X002134Y011346D01*
X001967Y011513D01*
X002022Y011458D02*
X002744Y011458D01*
X002821Y011359D02*
X002121Y011359D01*
X002170Y011261D02*
X002821Y011261D01*
X002821Y011162D02*
X002210Y011162D01*
X002225Y011064D02*
X002821Y011064D01*
X002821Y010965D02*
X002225Y010965D01*
X002215Y010867D02*
X002821Y010867D01*
X002821Y010768D02*
X002174Y010768D01*
X002131Y010670D02*
X002821Y010670D01*
X002821Y010571D02*
X002032Y010571D01*
X001887Y010473D02*
X002821Y010473D01*
X002821Y010374D02*
X000341Y010374D01*
X000341Y010473D02*
X001375Y010473D01*
X001230Y010571D02*
X000341Y010571D01*
X000341Y010670D02*
X001131Y010670D01*
X001088Y010768D02*
X000341Y010768D01*
X000341Y010867D02*
X001047Y010867D01*
X001037Y010965D02*
X000341Y010965D01*
X000341Y011064D02*
X001037Y011064D01*
X001052Y011162D02*
X000341Y011162D01*
X000341Y011261D02*
X001092Y011261D01*
X001141Y011359D02*
X000341Y011359D01*
X000341Y011458D02*
X001240Y011458D01*
X001400Y011556D02*
X000341Y011556D01*
X000341Y010275D02*
X002821Y010275D01*
X002821Y010177D02*
X000341Y010177D01*
X000341Y010078D02*
X002821Y010078D01*
X002821Y009980D02*
X000341Y009980D01*
X000341Y009881D02*
X002821Y009881D01*
X002821Y009783D02*
X000341Y009783D01*
X000341Y009684D02*
X002821Y009684D01*
X002821Y009586D02*
X000341Y009586D01*
X000341Y009487D02*
X001393Y009487D01*
X001426Y009504D02*
X001351Y009466D01*
X001283Y009417D01*
X001224Y009357D01*
X001174Y009289D01*
X001136Y009214D01*
X001110Y009134D01*
X001098Y009059D01*
X001581Y009059D01*
X001581Y008959D01*
X001681Y008959D01*
X001681Y008477D01*
X001756Y008489D01*
X001836Y008515D01*
X001911Y008553D01*
X001979Y008602D01*
X002038Y008662D01*
X002088Y008730D01*
X002126Y008804D01*
X002152Y008884D01*
X002164Y008959D01*
X001681Y008959D01*
X001681Y009059D01*
X002164Y009059D01*
X002152Y009134D01*
X002126Y009214D01*
X002088Y009289D01*
X002038Y009357D01*
X001979Y009417D01*
X001911Y009466D01*
X001836Y009504D01*
X001756Y009530D01*
X001681Y009542D01*
X001681Y009060D01*
X001581Y009060D01*
X001581Y009542D01*
X001506Y009530D01*
X001426Y009504D01*
X001581Y009487D02*
X001681Y009487D01*
X001681Y009389D02*
X001581Y009389D01*
X001581Y009290D02*
X001681Y009290D01*
X001681Y009191D02*
X001581Y009191D01*
X001581Y009093D02*
X001681Y009093D01*
X001681Y008994D02*
X002821Y008994D01*
X002821Y008896D02*
X002153Y008896D01*
X002122Y008797D02*
X002821Y008797D01*
X002821Y008699D02*
X002065Y008699D01*
X001976Y008600D02*
X002841Y008600D01*
X002900Y008502D02*
X001796Y008502D01*
X001681Y008502D02*
X001581Y008502D01*
X001581Y008477D02*
X001581Y008959D01*
X001098Y008959D01*
X001110Y008884D01*
X001136Y008804D01*
X001174Y008730D01*
X001224Y008662D01*
X001283Y008602D01*
X001351Y008553D01*
X001426Y008515D01*
X001506Y008489D01*
X001581Y008477D01*
X001466Y008502D02*
X000341Y008502D01*
X000341Y008600D02*
X001286Y008600D01*
X001197Y008699D02*
X000341Y008699D01*
X000341Y008797D02*
X001140Y008797D01*
X001109Y008896D02*
X000341Y008896D01*
X000341Y008994D02*
X001581Y008994D01*
X001581Y008896D02*
X001681Y008896D01*
X001681Y008797D02*
X001581Y008797D01*
X001581Y008699D02*
X001681Y008699D01*
X001681Y008600D02*
X001581Y008600D01*
X001104Y009093D02*
X000341Y009093D01*
X000341Y009191D02*
X001129Y009191D01*
X001175Y009290D02*
X000341Y009290D01*
X000341Y009389D02*
X001255Y009389D01*
X001869Y009487D02*
X002821Y009487D01*
X002821Y009389D02*
X002007Y009389D01*
X002087Y009290D02*
X002821Y009290D01*
X002821Y009191D02*
X002133Y009191D01*
X002158Y009093D02*
X002821Y009093D01*
X003441Y009093D02*
X005104Y009093D01*
X005129Y009191D02*
X003441Y009191D01*
X003441Y009290D02*
X005175Y009290D01*
X005255Y009389D02*
X003441Y009389D01*
X003441Y009487D02*
X005393Y009487D01*
X005581Y009487D02*
X005681Y009487D01*
X005681Y009389D02*
X005581Y009389D01*
X005581Y009290D02*
X005681Y009290D01*
X005681Y009191D02*
X005581Y009191D01*
X005581Y009093D02*
X005681Y009093D01*
X005681Y008994D02*
X008181Y008994D01*
X009321Y008600D02*
X005976Y008600D01*
X005796Y008502D02*
X009321Y008502D01*
X009321Y008403D02*
X003876Y008403D01*
X003974Y008305D02*
X009321Y008305D01*
X009321Y008206D02*
X004073Y008206D01*
X004171Y008107D02*
X009338Y008107D01*
X009393Y008009D02*
X004270Y008009D01*
X004368Y007910D02*
X009492Y007910D01*
X009590Y007812D02*
X004467Y007812D01*
X004566Y007713D02*
X009689Y007713D01*
X009787Y007615D02*
X004664Y007615D01*
X004763Y007516D02*
X009886Y007516D01*
X009984Y007418D02*
X004861Y007418D01*
X004960Y007319D02*
X010083Y007319D01*
X010181Y007221D02*
X005058Y007221D01*
X005157Y007122D02*
X010280Y007122D01*
X010379Y007024D02*
X005255Y007024D01*
X005354Y006925D02*
X010477Y006925D01*
X010576Y006826D02*
X005452Y006826D01*
X005551Y006728D02*
X010674Y006728D01*
X010773Y006629D02*
X005649Y006629D01*
X005748Y006531D02*
X010871Y006531D01*
X010970Y006432D02*
X005847Y006432D01*
X005945Y006334D02*
X011068Y006334D01*
X011167Y006235D02*
X006044Y006235D01*
X006142Y006137D02*
X011265Y006137D01*
X011290Y006038D02*
X006241Y006038D01*
X006339Y005940D02*
X011290Y005940D01*
X011290Y005841D02*
X006438Y005841D01*
X006536Y005742D02*
X011290Y005742D01*
X011290Y005644D02*
X006635Y005644D01*
X006733Y005545D02*
X011290Y005545D01*
X011290Y005447D02*
X006832Y005447D01*
X006931Y005348D02*
X011290Y005348D01*
X011290Y005250D02*
X010907Y005250D01*
X011047Y005151D02*
X011168Y005151D01*
X010323Y005250D02*
X008939Y005250D01*
X009079Y005151D02*
X010183Y005151D01*
X010085Y005053D02*
X009887Y005053D01*
X009986Y004954D02*
X010037Y004954D01*
X010053Y004363D02*
X009947Y004363D01*
X009798Y004264D02*
X010124Y004264D01*
X010222Y004166D02*
X009040Y004166D01*
X009138Y004264D02*
X009464Y004264D01*
X009315Y004363D02*
X009209Y004363D01*
X008845Y004067D02*
X010417Y004067D01*
X010813Y004067D02*
X011402Y004067D01*
X011207Y004166D02*
X011008Y004166D01*
X011107Y004264D02*
X011108Y004264D01*
X011797Y004067D02*
X014170Y004067D01*
X014129Y003969D02*
X000341Y003969D01*
X000341Y004067D02*
X002331Y004067D01*
X002414Y003984D02*
X002106Y004292D01*
X002106Y004727D01*
X002411Y005032D01*
X002334Y005064D01*
X002186Y005212D01*
X002106Y005405D01*
X002106Y005614D01*
X002186Y005807D01*
X002334Y005954D01*
X002527Y006034D01*
X002735Y006034D01*
X002928Y005954D01*
X003076Y005807D01*
X003156Y005614D01*
X003156Y005405D01*
X003076Y005212D01*
X002928Y005064D01*
X002851Y005032D01*
X003156Y004727D01*
X003156Y004292D01*
X002848Y003984D01*
X002414Y003984D01*
X002232Y004166D02*
X000341Y004166D01*
X000341Y004264D02*
X002134Y004264D01*
X002106Y004363D02*
X000341Y004363D01*
X000341Y004461D02*
X002106Y004461D01*
X002106Y004560D02*
X000341Y004560D01*
X000341Y004658D02*
X002106Y004658D01*
X002136Y004757D02*
X000341Y004757D01*
X000341Y004856D02*
X002235Y004856D01*
X002333Y004954D02*
X000341Y004954D01*
X000341Y005053D02*
X002362Y005053D01*
X002247Y005151D02*
X000341Y005151D01*
X000341Y005250D02*
X002170Y005250D01*
X002129Y005348D02*
X000341Y005348D01*
X000341Y005447D02*
X002106Y005447D01*
X002106Y005545D02*
X000341Y005545D01*
X000341Y005644D02*
X002119Y005644D01*
X002159Y005742D02*
X000341Y005742D01*
X000341Y005841D02*
X002220Y005841D01*
X002319Y005940D02*
X000341Y005940D01*
X000341Y006038D02*
X005364Y006038D01*
X005463Y005940D02*
X002943Y005940D01*
X003042Y005841D02*
X005561Y005841D01*
X005660Y005742D02*
X003103Y005742D01*
X003144Y005644D02*
X005758Y005644D01*
X005857Y005545D02*
X003156Y005545D01*
X003156Y005447D02*
X005955Y005447D01*
X006054Y005348D02*
X003132Y005348D01*
X003092Y005250D02*
X006152Y005250D01*
X006251Y005151D02*
X003015Y005151D01*
X002900Y005053D02*
X006349Y005053D01*
X006448Y004954D02*
X002929Y004954D01*
X003027Y004856D02*
X006546Y004856D01*
X006645Y004757D02*
X003126Y004757D01*
X003156Y004658D02*
X006744Y004658D01*
X006842Y004560D02*
X003156Y004560D01*
X003156Y004461D02*
X006941Y004461D01*
X007100Y004363D02*
X003156Y004363D01*
X003128Y004264D02*
X007171Y004264D01*
X007270Y004166D02*
X003030Y004166D01*
X002931Y004067D02*
X007465Y004067D01*
X007860Y004067D02*
X008449Y004067D01*
X008254Y004166D02*
X008055Y004166D01*
X008154Y004264D02*
X008155Y004264D01*
X008094Y005151D02*
X008215Y005151D01*
X008355Y005250D02*
X007954Y005250D01*
X007371Y005250D02*
X007029Y005250D01*
X007128Y005151D02*
X007231Y005151D01*
X009177Y005053D02*
X009375Y005053D01*
X009276Y004954D02*
X009225Y004954D01*
X009519Y003279D02*
X000341Y003279D01*
X000341Y003377D02*
X014321Y003377D01*
X014222Y003476D02*
X000341Y003476D01*
X000341Y003574D02*
X014160Y003574D01*
X014119Y003673D02*
X000341Y003673D01*
X000341Y003772D02*
X014106Y003772D01*
X014106Y003870D02*
X000341Y003870D01*
X000341Y003180D02*
X009292Y003180D01*
X009185Y003082D02*
X007921Y003082D01*
X008020Y002983D02*
X009120Y002983D01*
X009078Y002885D02*
X008073Y002885D01*
X008109Y002786D02*
X009056Y002786D01*
X009581Y002885D02*
X009681Y002885D01*
X009681Y002983D02*
X009581Y002983D01*
X009581Y003082D02*
X009681Y003082D01*
X009681Y003180D02*
X009581Y003180D01*
X009581Y003279D02*
X009681Y003279D01*
X009681Y002589D02*
X009581Y002589D01*
X009581Y002491D02*
X009681Y002491D01*
X009681Y002392D02*
X009581Y002392D01*
X009581Y002293D02*
X009681Y002293D01*
X009681Y002195D02*
X009581Y002195D01*
X009363Y002195D02*
X001841Y002195D01*
X001841Y002293D02*
X007501Y002293D01*
X007349Y002392D02*
X001824Y002392D01*
X001841Y002351D02*
X001733Y002612D01*
X001533Y002811D01*
X001272Y002919D01*
X000990Y002919D01*
X000729Y002811D01*
X000529Y002612D01*
X000421Y002351D01*
X000421Y002068D01*
X000529Y001807D01*
X000729Y001608D01*
X000990Y001499D01*
X001272Y001499D01*
X001533Y001608D01*
X001733Y001807D01*
X001841Y002068D01*
X001841Y002351D01*
X001783Y002491D02*
X007270Y002491D01*
X007229Y002589D02*
X001742Y002589D01*
X001657Y002688D02*
X007216Y002688D01*
X007216Y002786D02*
X001558Y002786D01*
X001356Y002885D02*
X007252Y002885D01*
X007305Y002983D02*
X000341Y002983D01*
X000341Y002885D02*
X000906Y002885D01*
X000704Y002786D02*
X000341Y002786D01*
X000341Y002688D02*
X000605Y002688D01*
X000520Y002589D02*
X000341Y002589D01*
X000341Y002491D02*
X000479Y002491D01*
X000438Y002392D02*
X000341Y002392D01*
X000341Y002293D02*
X000421Y002293D01*
X000421Y002195D02*
X000341Y002195D01*
X000341Y002096D02*
X000421Y002096D01*
X000450Y001998D02*
X000341Y001998D01*
X000341Y001899D02*
X000491Y001899D01*
X000536Y001801D02*
X000341Y001801D01*
X000341Y001702D02*
X000634Y001702D01*
X000738Y001604D02*
X000341Y001604D01*
X000341Y001505D02*
X000976Y001505D01*
X001286Y001505D02*
X007271Y001505D01*
X007230Y001604D02*
X001524Y001604D01*
X001628Y001702D02*
X007216Y001702D01*
X007216Y001801D02*
X001726Y001801D01*
X001771Y001899D02*
X007252Y001899D01*
X007304Y001998D02*
X001812Y001998D01*
X001841Y002096D02*
X007403Y002096D01*
X007404Y003082D02*
X000341Y003082D01*
X000341Y006137D02*
X005265Y006137D01*
X005167Y006235D02*
X000341Y006235D01*
X000341Y006334D02*
X005068Y006334D01*
X004970Y006432D02*
X000341Y006432D01*
X000341Y006531D02*
X004871Y006531D01*
X004773Y006629D02*
X000341Y006629D01*
X000341Y006728D02*
X004674Y006728D01*
X004576Y006826D02*
X000341Y006826D01*
X000341Y006925D02*
X004477Y006925D01*
X004379Y007024D02*
X000341Y007024D01*
X000341Y007122D02*
X004280Y007122D01*
X004181Y007221D02*
X000341Y007221D01*
X000341Y007319D02*
X004083Y007319D01*
X003984Y007418D02*
X000341Y007418D01*
X000341Y007516D02*
X003886Y007516D01*
X003787Y007615D02*
X000341Y007615D01*
X000341Y007713D02*
X003689Y007713D01*
X003590Y007812D02*
X000341Y007812D01*
X000341Y007910D02*
X003492Y007910D01*
X003393Y008009D02*
X000341Y008009D01*
X000341Y008107D02*
X003295Y008107D01*
X003196Y008206D02*
X000341Y008206D01*
X000341Y008305D02*
X003097Y008305D01*
X002999Y008403D02*
X000341Y008403D01*
X003441Y008896D02*
X005109Y008896D01*
X005110Y008884D02*
X005136Y008804D01*
X005174Y008730D01*
X005224Y008662D01*
X005283Y008602D01*
X005351Y008553D01*
X005426Y008515D01*
X005506Y008489D01*
X005581Y008477D01*
X005581Y008959D01*
X005098Y008959D01*
X005110Y008884D01*
X005140Y008797D02*
X003482Y008797D01*
X003580Y008699D02*
X005197Y008699D01*
X005286Y008600D02*
X003679Y008600D01*
X003777Y008502D02*
X005466Y008502D01*
X005581Y008502D02*
X005681Y008502D01*
X005681Y008600D02*
X005581Y008600D01*
X005581Y008699D02*
X005681Y008699D01*
X005681Y008797D02*
X005581Y008797D01*
X005581Y008896D02*
X005681Y008896D01*
X005581Y008994D02*
X003441Y008994D01*
X005520Y016089D02*
X011771Y016089D01*
X011771Y016188D02*
X005619Y016188D01*
X005717Y016287D02*
X011771Y016287D01*
X012491Y015892D02*
X012899Y015892D01*
X012801Y015794D02*
X012491Y015794D01*
X012491Y015695D02*
X012702Y015695D01*
X012661Y015597D02*
X012491Y015597D01*
X012491Y015498D02*
X012661Y015498D01*
X012661Y015400D02*
X012491Y015400D01*
X012491Y015301D02*
X012661Y015301D01*
X012723Y015203D02*
X012491Y015203D01*
X012491Y015104D02*
X012771Y015104D01*
X012771Y015006D02*
X012491Y015006D01*
X012491Y014907D02*
X012771Y014907D01*
X012771Y014808D02*
X012491Y014808D01*
X012491Y014710D02*
X012771Y014710D01*
X012771Y014611D02*
X012491Y014611D01*
X012491Y014513D02*
X012771Y014513D01*
X012771Y014414D02*
X012491Y014414D01*
X012491Y014316D02*
X012771Y014316D01*
X012725Y014217D02*
X012537Y014217D01*
X012578Y014119D02*
X012684Y014119D01*
X012661Y014020D02*
X012601Y014020D01*
X012601Y013922D02*
X012661Y013922D01*
X012661Y013823D02*
X012601Y013823D01*
X012601Y013724D02*
X012661Y013724D01*
X012661Y013626D02*
X012601Y013626D01*
X012601Y013527D02*
X012661Y013527D01*
X012661Y013429D02*
X012601Y013429D01*
X012590Y013330D02*
X012672Y013330D01*
X012712Y013232D02*
X012550Y013232D01*
X012479Y013133D02*
X012783Y013133D01*
X012904Y013035D02*
X012358Y013035D01*
X014601Y013823D02*
X014721Y013823D01*
X014721Y013922D02*
X014601Y013922D01*
X014601Y014020D02*
X014724Y014020D01*
X014748Y014119D02*
X014578Y014119D01*
X014537Y014217D02*
X014804Y014217D01*
X010973Y018060D02*
X010156Y018060D01*
X010156Y018114D02*
X010076Y018307D01*
X009928Y018454D01*
X009928Y018455D02*
X011367Y018455D01*
X011466Y018553D02*
X009917Y018553D01*
X009851Y018487D02*
X010156Y018792D01*
X010156Y019227D01*
X009848Y019534D01*
X009414Y019534D01*
X009106Y019227D01*
X009106Y018792D01*
X009411Y018487D01*
X009334Y018454D01*
X009334Y018455D02*
X000341Y018455D01*
X000341Y018553D02*
X009345Y018553D01*
X009334Y018454D02*
X009186Y018307D01*
X009106Y018114D01*
X009106Y017905D01*
X009186Y017712D01*
X009334Y017564D01*
X009527Y017484D01*
X009735Y017484D01*
X009928Y017564D01*
X010076Y017712D01*
X010156Y017905D01*
X010156Y018114D01*
X010137Y018159D02*
X011071Y018159D01*
X011170Y018257D02*
X010097Y018257D01*
X010027Y018356D02*
X011268Y018356D01*
X011564Y018652D02*
X010016Y018652D01*
X010114Y018750D02*
X011663Y018750D01*
X011761Y018849D02*
X010156Y018849D01*
X010156Y018947D02*
X011771Y018947D01*
X011771Y019046D02*
X010156Y019046D01*
X010156Y019144D02*
X011771Y019144D01*
X011771Y019243D02*
X010140Y019243D01*
X010041Y019341D02*
X011771Y019341D01*
X011771Y019440D02*
X009943Y019440D01*
X009319Y019440D02*
X007098Y019440D01*
X007085Y019406D02*
X007166Y019603D01*
X007166Y019816D01*
X007085Y020012D01*
X006934Y020163D01*
X006737Y020244D01*
X006525Y020244D01*
X006328Y020163D01*
X006177Y020012D01*
X006106Y019840D01*
X006106Y020054D01*
X006096Y020092D01*
X006076Y020127D01*
X006048Y020154D01*
X006014Y020174D01*
X005976Y020184D01*
X005669Y020184D01*
X005669Y019747D01*
X005593Y019747D01*
X005593Y019672D01*
X005156Y019672D01*
X005156Y019365D01*
X005166Y019327D01*
X005186Y019292D01*
X005214Y019264D01*
X005248Y019245D01*
X005286Y019234D01*
X005593Y019234D01*
X005593Y019672D01*
X005669Y019672D01*
X005669Y019234D01*
X005976Y019234D01*
X006014Y019245D01*
X006048Y019264D01*
X006076Y019292D01*
X006096Y019327D01*
X006106Y019365D01*
X006106Y019579D01*
X006177Y019406D01*
X006328Y019256D01*
X006525Y019174D01*
X006737Y019174D01*
X006934Y019256D01*
X007085Y019406D01*
X007020Y019341D02*
X009221Y019341D01*
X009122Y019243D02*
X006903Y019243D01*
X007139Y019539D02*
X011771Y019539D01*
X011771Y019637D02*
X007166Y019637D01*
X007166Y019736D02*
X011771Y019736D01*
X011793Y019834D02*
X007158Y019834D01*
X007118Y019933D02*
X011845Y019933D01*
X011944Y020031D02*
X007066Y020031D01*
X006967Y020130D02*
X012042Y020130D01*
X012141Y020228D02*
X006776Y020228D01*
X006486Y020228D02*
X003276Y020228D01*
X003237Y020244D02*
X003025Y020244D01*
X002828Y020163D01*
X002677Y020012D01*
X002596Y019816D01*
X002596Y019603D01*
X002677Y019406D01*
X002828Y019256D01*
X003025Y019174D01*
X003237Y019174D01*
X003434Y019256D01*
X003585Y019406D01*
X003656Y019579D01*
X003656Y019365D01*
X003666Y019327D01*
X003686Y019292D01*
X003714Y019264D01*
X003748Y019245D01*
X003786Y019234D01*
X004093Y019234D01*
X004093Y019672D01*
X004169Y019672D01*
X004169Y019747D01*
X004606Y019747D01*
X004606Y020054D01*
X004596Y020092D01*
X004576Y020127D01*
X004548Y020154D01*
X004514Y020174D01*
X004476Y020184D01*
X004169Y020184D01*
X004169Y019747D01*
X004093Y019747D01*
X004093Y020184D01*
X003786Y020184D01*
X003748Y020174D01*
X003714Y020154D01*
X003686Y020127D01*
X003666Y020092D01*
X003656Y020054D01*
X003656Y019840D01*
X003585Y020012D01*
X003434Y020163D01*
X003237Y020244D01*
X002986Y020228D02*
X001616Y020228D01*
X001533Y020311D02*
X001733Y020112D01*
X001841Y019851D01*
X001841Y019568D01*
X001733Y019307D01*
X001533Y019108D01*
X001272Y018999D01*
X000990Y018999D01*
X000729Y019108D01*
X000529Y019307D01*
X000421Y019568D01*
X000421Y019851D01*
X000529Y020112D01*
X000729Y020311D01*
X000990Y020419D01*
X001272Y020419D01*
X001533Y020311D01*
X001496Y020327D02*
X012239Y020327D01*
X012338Y020425D02*
X000341Y020425D01*
X000341Y020327D02*
X000766Y020327D01*
X000646Y020228D02*
X000341Y020228D01*
X000341Y020130D02*
X000547Y020130D01*
X000496Y020031D02*
X000341Y020031D01*
X000341Y019933D02*
X000455Y019933D01*
X000421Y019834D02*
X000341Y019834D01*
X000341Y019736D02*
X000421Y019736D01*
X000421Y019637D02*
X000341Y019637D01*
X000341Y019539D02*
X000433Y019539D01*
X000474Y019440D02*
X000341Y019440D01*
X000341Y019341D02*
X000515Y019341D01*
X000593Y019243D02*
X000341Y019243D01*
X000341Y019144D02*
X000692Y019144D01*
X000878Y019046D02*
X000341Y019046D01*
X000341Y018947D02*
X009106Y018947D01*
X009106Y018849D02*
X000341Y018849D01*
X000341Y018750D02*
X009148Y018750D01*
X009246Y018652D02*
X000341Y018652D01*
X000341Y018356D02*
X009235Y018356D01*
X009166Y018257D02*
X000341Y018257D01*
X000341Y018159D02*
X009125Y018159D01*
X009106Y018060D02*
X000341Y018060D01*
X000341Y017962D02*
X009106Y017962D01*
X009123Y017863D02*
X000341Y017863D01*
X000341Y017765D02*
X009164Y017765D01*
X009232Y017666D02*
X000341Y017666D01*
X000341Y017568D02*
X009330Y017568D01*
X009932Y017568D02*
X010480Y017568D01*
X010579Y017666D02*
X010030Y017666D01*
X010098Y017765D02*
X010677Y017765D01*
X010776Y017863D02*
X010139Y017863D01*
X010156Y017962D02*
X010874Y017962D01*
X010382Y017469D02*
X000341Y017469D01*
X000341Y017371D02*
X010283Y017371D01*
X009928Y018454D02*
X009851Y018487D01*
X009106Y019046D02*
X001384Y019046D01*
X001570Y019144D02*
X009106Y019144D01*
X006359Y019243D02*
X006007Y019243D01*
X006100Y019341D02*
X006242Y019341D01*
X006164Y019440D02*
X006106Y019440D01*
X006106Y019539D02*
X006123Y019539D01*
X006106Y019933D02*
X006144Y019933D01*
X006106Y020031D02*
X006196Y020031D01*
X006295Y020130D02*
X006073Y020130D01*
X005669Y020130D02*
X005593Y020130D01*
X005593Y020184D02*
X005286Y020184D01*
X005248Y020174D01*
X005214Y020154D01*
X005186Y020127D01*
X005166Y020092D01*
X005156Y020054D01*
X005156Y019747D01*
X005593Y019747D01*
X005593Y020184D01*
X005593Y020031D02*
X005669Y020031D01*
X005669Y019933D02*
X005593Y019933D01*
X005593Y019834D02*
X005669Y019834D01*
X005593Y019736D02*
X004169Y019736D01*
X004169Y019672D02*
X004606Y019672D01*
X004606Y019365D01*
X004596Y019327D01*
X004576Y019292D01*
X004548Y019264D01*
X004514Y019245D01*
X004476Y019234D01*
X004169Y019234D01*
X004169Y019672D01*
X004169Y019637D02*
X004093Y019637D01*
X004093Y019539D02*
X004169Y019539D01*
X004169Y019440D02*
X004093Y019440D01*
X004093Y019341D02*
X004169Y019341D01*
X004169Y019243D02*
X004093Y019243D01*
X003755Y019243D02*
X003403Y019243D01*
X003520Y019341D02*
X003662Y019341D01*
X003656Y019440D02*
X003598Y019440D01*
X003639Y019539D02*
X003656Y019539D01*
X003656Y019933D02*
X003618Y019933D01*
X003656Y020031D02*
X003566Y020031D01*
X003467Y020130D02*
X003689Y020130D01*
X004093Y020130D02*
X004169Y020130D01*
X004169Y020031D02*
X004093Y020031D01*
X004093Y019933D02*
X004169Y019933D01*
X004169Y019834D02*
X004093Y019834D01*
X004507Y019243D02*
X005255Y019243D01*
X005162Y019341D02*
X004600Y019341D01*
X004606Y019440D02*
X005156Y019440D01*
X005156Y019539D02*
X004606Y019539D01*
X004606Y019637D02*
X005156Y019637D01*
X005156Y019834D02*
X004606Y019834D01*
X004606Y019933D02*
X005156Y019933D01*
X005156Y020031D02*
X004606Y020031D01*
X004573Y020130D02*
X005189Y020130D01*
X005593Y019637D02*
X005669Y019637D01*
X005669Y019539D02*
X005593Y019539D01*
X005593Y019440D02*
X005669Y019440D01*
X005669Y019341D02*
X005593Y019341D01*
X005593Y019243D02*
X005669Y019243D01*
X002859Y019243D02*
X001669Y019243D01*
X001747Y019341D02*
X002742Y019341D01*
X002664Y019440D02*
X001788Y019440D01*
X001829Y019539D02*
X002623Y019539D01*
X002596Y019637D02*
X001841Y019637D01*
X001841Y019736D02*
X002596Y019736D01*
X002604Y019834D02*
X001841Y019834D01*
X001807Y019933D02*
X002644Y019933D01*
X002696Y020031D02*
X001766Y020031D01*
X001715Y020130D02*
X002795Y020130D01*
X000341Y020524D02*
X012450Y020524D01*
X012568Y019637D02*
X013151Y019637D01*
X013053Y019539D02*
X012491Y019539D01*
X012491Y019440D02*
X012954Y019440D01*
X012916Y019341D02*
X012491Y019341D01*
X012491Y019243D02*
X012916Y019243D01*
X012916Y019144D02*
X012491Y019144D01*
X012491Y019046D02*
X012916Y019046D01*
X012986Y018947D02*
X012491Y018947D01*
X012491Y018849D02*
X013084Y018849D01*
X016928Y018849D02*
X019521Y018849D01*
X019521Y018947D02*
X017026Y018947D01*
X012695Y009783D02*
X011990Y009783D01*
X011991Y009684D02*
X012597Y009684D01*
X012498Y009586D02*
X011991Y009586D01*
X011991Y009487D02*
X012400Y009487D01*
X012301Y009389D02*
X011991Y009389D01*
X011991Y009290D02*
X012203Y009290D01*
X012104Y009191D02*
X011991Y009191D01*
X011991Y009093D02*
X012005Y009093D01*
X011271Y009093D02*
X011101Y009093D01*
X011101Y009191D02*
X011271Y009191D01*
X011271Y009290D02*
X011101Y009290D01*
X011101Y009389D02*
X011271Y009389D01*
X011271Y009487D02*
X011018Y009487D01*
X010919Y009586D02*
X011246Y009586D01*
X011271Y008994D02*
X011081Y008994D01*
X010982Y008896D02*
X011271Y008896D01*
X011271Y008797D02*
X010884Y008797D01*
X011992Y004166D02*
X014245Y004166D01*
X014601Y002688D02*
X014661Y002688D01*
X014661Y002589D02*
X014601Y002589D01*
X014601Y002491D02*
X014661Y002491D01*
X014661Y002392D02*
X014601Y002392D01*
X014391Y002392D02*
X011913Y002392D01*
X011992Y002491D02*
X014292Y002491D01*
X014194Y002589D02*
X012033Y002589D01*
X011286Y002392D02*
X010117Y002392D01*
X010170Y002491D02*
X011207Y002491D01*
X011166Y002589D02*
X010199Y002589D01*
X017906Y006826D02*
X019521Y006826D01*
X019521Y006925D02*
X018004Y006925D01*
X018096Y007024D02*
X019521Y007024D01*
X019521Y007122D02*
X018096Y007122D01*
M02*
