G75*
G70*
%OFA0B0*%
%FSLAX24Y24*%
%IPPOS*%
%LPD*%
%AMOC8*
5,1,8,0,0,1.08239X$1,22.5*
%
%ADD10C,0.0000*%
D10*
X000131Y001209D02*
X000131Y020809D01*
X019731Y020809D01*
X019731Y001209D01*
X000131Y001209D01*
X000631Y002209D02*
X000633Y002253D01*
X000639Y002297D01*
X000649Y002340D01*
X000662Y002382D01*
X000679Y002423D01*
X000700Y002462D01*
X000724Y002499D01*
X000751Y002534D01*
X000781Y002566D01*
X000814Y002596D01*
X000850Y002622D01*
X000887Y002646D01*
X000927Y002665D01*
X000968Y002682D01*
X001011Y002694D01*
X001054Y002703D01*
X001098Y002708D01*
X001142Y002709D01*
X001186Y002706D01*
X001230Y002699D01*
X001273Y002688D01*
X001315Y002674D01*
X001355Y002656D01*
X001394Y002634D01*
X001430Y002610D01*
X001464Y002582D01*
X001496Y002551D01*
X001525Y002517D01*
X001551Y002481D01*
X001573Y002443D01*
X001592Y002403D01*
X001607Y002361D01*
X001619Y002319D01*
X001627Y002275D01*
X001631Y002231D01*
X001631Y002187D01*
X001627Y002143D01*
X001619Y002099D01*
X001607Y002057D01*
X001592Y002015D01*
X001573Y001975D01*
X001551Y001937D01*
X001525Y001901D01*
X001496Y001867D01*
X001464Y001836D01*
X001430Y001808D01*
X001394Y001784D01*
X001355Y001762D01*
X001315Y001744D01*
X001273Y001730D01*
X001230Y001719D01*
X001186Y001712D01*
X001142Y001709D01*
X001098Y001710D01*
X001054Y001715D01*
X001011Y001724D01*
X000968Y001736D01*
X000927Y001753D01*
X000887Y001772D01*
X000850Y001796D01*
X000814Y001822D01*
X000781Y001852D01*
X000751Y001884D01*
X000724Y001919D01*
X000700Y001956D01*
X000679Y001995D01*
X000662Y002036D01*
X000649Y002078D01*
X000639Y002121D01*
X000633Y002165D01*
X000631Y002209D01*
X007427Y001725D02*
X007429Y001755D01*
X007435Y001785D01*
X007444Y001814D01*
X007457Y001841D01*
X007474Y001866D01*
X007493Y001889D01*
X007516Y001910D01*
X007541Y001927D01*
X007567Y001941D01*
X007596Y001951D01*
X007625Y001958D01*
X007655Y001961D01*
X007686Y001960D01*
X007716Y001955D01*
X007745Y001946D01*
X007772Y001934D01*
X007798Y001919D01*
X007822Y001900D01*
X007843Y001878D01*
X007861Y001854D01*
X007876Y001827D01*
X007887Y001799D01*
X007895Y001770D01*
X007899Y001740D01*
X007899Y001710D01*
X007895Y001680D01*
X007887Y001651D01*
X007876Y001623D01*
X007861Y001596D01*
X007843Y001572D01*
X007822Y001550D01*
X007798Y001531D01*
X007772Y001516D01*
X007745Y001504D01*
X007716Y001495D01*
X007686Y001490D01*
X007655Y001489D01*
X007625Y001492D01*
X007596Y001499D01*
X007567Y001509D01*
X007541Y001523D01*
X007516Y001540D01*
X007493Y001561D01*
X007474Y001584D01*
X007457Y001609D01*
X007444Y001636D01*
X007435Y001665D01*
X007429Y001695D01*
X007427Y001725D01*
X007427Y002709D02*
X007429Y002739D01*
X007435Y002769D01*
X007444Y002798D01*
X007457Y002825D01*
X007474Y002850D01*
X007493Y002873D01*
X007516Y002894D01*
X007541Y002911D01*
X007567Y002925D01*
X007596Y002935D01*
X007625Y002942D01*
X007655Y002945D01*
X007686Y002944D01*
X007716Y002939D01*
X007745Y002930D01*
X007772Y002918D01*
X007798Y002903D01*
X007822Y002884D01*
X007843Y002862D01*
X007861Y002838D01*
X007876Y002811D01*
X007887Y002783D01*
X007895Y002754D01*
X007899Y002724D01*
X007899Y002694D01*
X007895Y002664D01*
X007887Y002635D01*
X007876Y002607D01*
X007861Y002580D01*
X007843Y002556D01*
X007822Y002534D01*
X007798Y002515D01*
X007772Y002500D01*
X007745Y002488D01*
X007716Y002479D01*
X007686Y002474D01*
X007655Y002473D01*
X007625Y002476D01*
X007596Y002483D01*
X007567Y002493D01*
X007541Y002507D01*
X007516Y002524D01*
X007493Y002545D01*
X007474Y002568D01*
X007457Y002593D01*
X007444Y002620D01*
X007435Y002649D01*
X007429Y002679D01*
X007427Y002709D01*
X009395Y004678D02*
X009397Y004708D01*
X009403Y004738D01*
X009412Y004767D01*
X009425Y004794D01*
X009442Y004819D01*
X009461Y004842D01*
X009484Y004863D01*
X009509Y004880D01*
X009535Y004894D01*
X009564Y004904D01*
X009593Y004911D01*
X009623Y004914D01*
X009654Y004913D01*
X009684Y004908D01*
X009713Y004899D01*
X009740Y004887D01*
X009766Y004872D01*
X009790Y004853D01*
X009811Y004831D01*
X009829Y004807D01*
X009844Y004780D01*
X009855Y004752D01*
X009863Y004723D01*
X009867Y004693D01*
X009867Y004663D01*
X009863Y004633D01*
X009855Y004604D01*
X009844Y004576D01*
X009829Y004549D01*
X009811Y004525D01*
X009790Y004503D01*
X009766Y004484D01*
X009740Y004469D01*
X009713Y004457D01*
X009684Y004448D01*
X009654Y004443D01*
X009623Y004442D01*
X009593Y004445D01*
X009564Y004452D01*
X009535Y004462D01*
X009509Y004476D01*
X009484Y004493D01*
X009461Y004514D01*
X009442Y004537D01*
X009425Y004562D01*
X009412Y004589D01*
X009403Y004618D01*
X009397Y004648D01*
X009395Y004678D01*
X011364Y002709D02*
X011366Y002739D01*
X011372Y002769D01*
X011381Y002798D01*
X011394Y002825D01*
X011411Y002850D01*
X011430Y002873D01*
X011453Y002894D01*
X011478Y002911D01*
X011504Y002925D01*
X011533Y002935D01*
X011562Y002942D01*
X011592Y002945D01*
X011623Y002944D01*
X011653Y002939D01*
X011682Y002930D01*
X011709Y002918D01*
X011735Y002903D01*
X011759Y002884D01*
X011780Y002862D01*
X011798Y002838D01*
X011813Y002811D01*
X011824Y002783D01*
X011832Y002754D01*
X011836Y002724D01*
X011836Y002694D01*
X011832Y002664D01*
X011824Y002635D01*
X011813Y002607D01*
X011798Y002580D01*
X011780Y002556D01*
X011759Y002534D01*
X011735Y002515D01*
X011709Y002500D01*
X011682Y002488D01*
X011653Y002479D01*
X011623Y002474D01*
X011592Y002473D01*
X011562Y002476D01*
X011533Y002483D01*
X011504Y002493D01*
X011478Y002507D01*
X011453Y002524D01*
X011430Y002545D01*
X011411Y002568D01*
X011394Y002593D01*
X011381Y002620D01*
X011372Y002649D01*
X011366Y002679D01*
X011364Y002709D01*
X011364Y001725D02*
X011366Y001755D01*
X011372Y001785D01*
X011381Y001814D01*
X011394Y001841D01*
X011411Y001866D01*
X011430Y001889D01*
X011453Y001910D01*
X011478Y001927D01*
X011504Y001941D01*
X011533Y001951D01*
X011562Y001958D01*
X011592Y001961D01*
X011623Y001960D01*
X011653Y001955D01*
X011682Y001946D01*
X011709Y001934D01*
X011735Y001919D01*
X011759Y001900D01*
X011780Y001878D01*
X011798Y001854D01*
X011813Y001827D01*
X011824Y001799D01*
X011832Y001770D01*
X011836Y001740D01*
X011836Y001710D01*
X011832Y001680D01*
X011824Y001651D01*
X011813Y001623D01*
X011798Y001596D01*
X011780Y001572D01*
X011759Y001550D01*
X011735Y001531D01*
X011709Y001516D01*
X011682Y001504D01*
X011653Y001495D01*
X011623Y001490D01*
X011592Y001489D01*
X011562Y001492D01*
X011533Y001499D01*
X011504Y001509D01*
X011478Y001523D01*
X011453Y001540D01*
X011430Y001561D01*
X011411Y001584D01*
X011394Y001609D01*
X011381Y001636D01*
X011372Y001665D01*
X011366Y001695D01*
X011364Y001725D01*
X018131Y002209D02*
X018133Y002253D01*
X018139Y002297D01*
X018149Y002340D01*
X018162Y002382D01*
X018179Y002423D01*
X018200Y002462D01*
X018224Y002499D01*
X018251Y002534D01*
X018281Y002566D01*
X018314Y002596D01*
X018350Y002622D01*
X018387Y002646D01*
X018427Y002665D01*
X018468Y002682D01*
X018511Y002694D01*
X018554Y002703D01*
X018598Y002708D01*
X018642Y002709D01*
X018686Y002706D01*
X018730Y002699D01*
X018773Y002688D01*
X018815Y002674D01*
X018855Y002656D01*
X018894Y002634D01*
X018930Y002610D01*
X018964Y002582D01*
X018996Y002551D01*
X019025Y002517D01*
X019051Y002481D01*
X019073Y002443D01*
X019092Y002403D01*
X019107Y002361D01*
X019119Y002319D01*
X019127Y002275D01*
X019131Y002231D01*
X019131Y002187D01*
X019127Y002143D01*
X019119Y002099D01*
X019107Y002057D01*
X019092Y002015D01*
X019073Y001975D01*
X019051Y001937D01*
X019025Y001901D01*
X018996Y001867D01*
X018964Y001836D01*
X018930Y001808D01*
X018894Y001784D01*
X018855Y001762D01*
X018815Y001744D01*
X018773Y001730D01*
X018730Y001719D01*
X018686Y001712D01*
X018642Y001709D01*
X018598Y001710D01*
X018554Y001715D01*
X018511Y001724D01*
X018468Y001736D01*
X018427Y001753D01*
X018387Y001772D01*
X018350Y001796D01*
X018314Y001822D01*
X018281Y001852D01*
X018251Y001884D01*
X018224Y001919D01*
X018200Y001956D01*
X018179Y001995D01*
X018162Y002036D01*
X018149Y002078D01*
X018139Y002121D01*
X018133Y002165D01*
X018131Y002209D01*
X018131Y019709D02*
X018133Y019753D01*
X018139Y019797D01*
X018149Y019840D01*
X018162Y019882D01*
X018179Y019923D01*
X018200Y019962D01*
X018224Y019999D01*
X018251Y020034D01*
X018281Y020066D01*
X018314Y020096D01*
X018350Y020122D01*
X018387Y020146D01*
X018427Y020165D01*
X018468Y020182D01*
X018511Y020194D01*
X018554Y020203D01*
X018598Y020208D01*
X018642Y020209D01*
X018686Y020206D01*
X018730Y020199D01*
X018773Y020188D01*
X018815Y020174D01*
X018855Y020156D01*
X018894Y020134D01*
X018930Y020110D01*
X018964Y020082D01*
X018996Y020051D01*
X019025Y020017D01*
X019051Y019981D01*
X019073Y019943D01*
X019092Y019903D01*
X019107Y019861D01*
X019119Y019819D01*
X019127Y019775D01*
X019131Y019731D01*
X019131Y019687D01*
X019127Y019643D01*
X019119Y019599D01*
X019107Y019557D01*
X019092Y019515D01*
X019073Y019475D01*
X019051Y019437D01*
X019025Y019401D01*
X018996Y019367D01*
X018964Y019336D01*
X018930Y019308D01*
X018894Y019284D01*
X018855Y019262D01*
X018815Y019244D01*
X018773Y019230D01*
X018730Y019219D01*
X018686Y019212D01*
X018642Y019209D01*
X018598Y019210D01*
X018554Y019215D01*
X018511Y019224D01*
X018468Y019236D01*
X018427Y019253D01*
X018387Y019272D01*
X018350Y019296D01*
X018314Y019322D01*
X018281Y019352D01*
X018251Y019384D01*
X018224Y019419D01*
X018200Y019456D01*
X018179Y019495D01*
X018162Y019536D01*
X018149Y019578D01*
X018139Y019621D01*
X018133Y019665D01*
X018131Y019709D01*
X000631Y019709D02*
X000633Y019753D01*
X000639Y019797D01*
X000649Y019840D01*
X000662Y019882D01*
X000679Y019923D01*
X000700Y019962D01*
X000724Y019999D01*
X000751Y020034D01*
X000781Y020066D01*
X000814Y020096D01*
X000850Y020122D01*
X000887Y020146D01*
X000927Y020165D01*
X000968Y020182D01*
X001011Y020194D01*
X001054Y020203D01*
X001098Y020208D01*
X001142Y020209D01*
X001186Y020206D01*
X001230Y020199D01*
X001273Y020188D01*
X001315Y020174D01*
X001355Y020156D01*
X001394Y020134D01*
X001430Y020110D01*
X001464Y020082D01*
X001496Y020051D01*
X001525Y020017D01*
X001551Y019981D01*
X001573Y019943D01*
X001592Y019903D01*
X001607Y019861D01*
X001619Y019819D01*
X001627Y019775D01*
X001631Y019731D01*
X001631Y019687D01*
X001627Y019643D01*
X001619Y019599D01*
X001607Y019557D01*
X001592Y019515D01*
X001573Y019475D01*
X001551Y019437D01*
X001525Y019401D01*
X001496Y019367D01*
X001464Y019336D01*
X001430Y019308D01*
X001394Y019284D01*
X001355Y019262D01*
X001315Y019244D01*
X001273Y019230D01*
X001230Y019219D01*
X001186Y019212D01*
X001142Y019209D01*
X001098Y019210D01*
X001054Y019215D01*
X001011Y019224D01*
X000968Y019236D01*
X000927Y019253D01*
X000887Y019272D01*
X000850Y019296D01*
X000814Y019322D01*
X000781Y019352D01*
X000751Y019384D01*
X000724Y019419D01*
X000700Y019456D01*
X000679Y019495D01*
X000662Y019536D01*
X000649Y019578D01*
X000639Y019621D01*
X000633Y019665D01*
X000631Y019709D01*
M02*
